<svg xmlns="http://www.w3.org/2000/svg" xmlns:xlink="http://www.w3.org/1999/xlink" width="133" height="133" viewBox="0 0 133 133">
  <defs>
    <clipPath id="clip-path">
      <circle id="Elipse_20566" data-name="Elipse 20566" cx="66.5" cy="66.5" r="66.5" transform="translate(737.561 5868)" fill="#fff" stroke="#6677d6" stroke-width="4"/>
    </clipPath>
    <clipPath id="clip-path-2">
      <rect id="Rectángulo_44416" data-name="Rectángulo 44416" width="148.96" height="104.272" fill="none"/>
    </clipPath>
    <clipPath id="clip-path-3">
      <path id="SVGID" d="M255.265,1887.2c1.956-1.472,4.673-2.118,6.064-1.444s.933,2.416-1.023,3.887-4.672,2.119-6.064,1.444S253.309,1888.67,255.265,1887.2Z" transform="translate(-253.437 -1885.487)" fill="#dce736" stroke="#000" stroke-width="0.2"/>
    </clipPath>
    <clipPath id="clip-path-4">
      <path id="SVGID-2" data-name="SVGID" d="M299.168,1828.736c.62-2.369.187-5.127-.965-6.159s-2.589.053-3.208,2.422-.188,5.126.964,6.159S298.549,1831.1,299.168,1828.736Z" transform="translate(-294.712 -1822.186)" fill="#dce736" stroke="#000" stroke-width="0.2"/>
    </clipPath>
    <clipPath id="clip-path-5">
      <path id="SVGID-3" data-name="SVGID" d="M340.39,1860.066c1.61,1.844,4.134,3.038,5.635,2.667s1.412-2.171-.2-4.015-4.133-3.039-5.635-2.667S338.78,1858.222,340.39,1860.066Z" transform="translate(-339.122 -1855.983)" fill="#dce736" stroke="#000" stroke-width="0.2"/>
    </clipPath>
    <clipPath id="clip-path-6">
      <path id="SVGID-4" data-name="SVGID" d="M299.684,1887.941c2.41-.429,4.735-1.975,5.19-3.453s-1.132-2.329-3.542-1.9-4.735,1.974-5.19,3.453S297.273,1888.369,299.684,1887.941Z" transform="translate(-296.063 -1882.476)" fill="#dce736" stroke="#000" stroke-width="0.2"/>
    </clipPath>
    <clipPath id="clip-path-7">
      <path id="SVGID-5" data-name="SVGID" d="M295.717,1937.7c2.447.044,4.987,1.205,5.669,2.594s-.751,2.478-3.2,2.434-4.987-1.2-5.669-2.593S293.269,1937.659,295.717,1937.7Z" transform="translate(-292.348 -1937.702)" fill="#dce736" stroke="#000" stroke-width="0.2"/>
    </clipPath>
    <clipPath id="clip-path-8">
      <path id="SVGID-6" data-name="SVGID" d="M325.157,1912.914c1.956-1.472,4.673-2.119,6.064-1.444s.933,2.416-1.023,3.888-4.672,2.119-6.064,1.444S323.2,1914.385,325.157,1912.914Z" transform="translate(-323.329 -1911.203)" fill="#dce736" stroke="#000" stroke-width="0.2"/>
    </clipPath>
  </defs>
  <g id="Grupo_152976" data-name="Grupo 152976" transform="translate(-737.561 -5868)">
    <g id="Elipse_20133" data-name="Elipse 20133" transform="translate(737.561 5868)" fill="#fff" stroke="#6677d6" stroke-width="4">
      <circle cx="66.5" cy="66.5" r="66.5" stroke="none"/>
      <circle cx="66.5" cy="66.5" r="64.5" fill="none"/>
    </g>
    <g id="Enmascarar_grupo_302" data-name="Enmascarar grupo 302" clip-path="url(#clip-path)">
      <g id="Grupo_151359" data-name="Grupo 151359" transform="translate(729.58 4165.082)">
        <g id="Grupo_151358" data-name="Grupo 151358" transform="translate(0 1702.918)">
          <g id="Grupo_151357" data-name="Grupo 151357" transform="translate(0 0)" clip-path="url(#clip-path-2)">
            <path id="Trazado_204035" data-name="Trazado 204035" d="M326.67,1884.364h24.866s-.711-3.552-2.487-3.73-3.375,1.954-3.375,1.954.355-5.151-1.954-5.506-4.973,4.8-4.973,4.8,0-2.309-2.131-2.487-3.907,2.487-3.907,2.487a2.671,2.671,0,0,0-2.131-1.243C328.979,1880.457,326.67,1884.364,326.67,1884.364Z" transform="translate(-228.812 -1824.897)" fill="#fff"/>
            <g id="Grupo_151309" data-name="Grupo 151309" transform="translate(25.944 45.738)">
              <path id="Trazado_204074" data-name="Trazado 204074" d="M86.608,1903.043l50.592.2,2.2-39.78-50.592-.205Z" transform="translate(-86.608 -1860.968)" fill="#3d4780" stroke="#000" stroke-width="1"/>
              <path id="Trazado_204075" data-name="Trazado 204075" d="M96.371,1903.062l50.592.2-2.562-39.8-50.592-.205Z" transform="translate(-91.651 -1860.967)" fill="#6677d6" stroke="#000" stroke-width="1"/>
              <path id="Trazado_204076" data-name="Trazado 204076" d="M112.389,1880.432l.353,5.508,6.651.052.472-.329-.333-4.821-.612-.485Z" transform="translate(-104.666 -1872.941)" fill="#c6412a" stroke="#000" stroke-width="0.5"/>
              <g id="Grupo_151297" data-name="Grupo 151297" transform="translate(7.101 6.985)">
                <path id="Trazado_204077" data-name="Trazado 204077" d="M112.417,1909.375l41.161.167-2.106-30.458-41.161-.167Zm40.432-.517-39.8-.161-2.012-29.1,39.8.162Z" transform="translate(-110.311 -1878.917)" fill="#3d46c2" stroke="#000" stroke-width="0.5"/>
              </g>
              <path id="Trazado_204078" data-name="Trazado 204078" d="M253.027,1860.829a.726.726,0,0,0,.729-.723l.013-3.16a.726.726,0,0,0-1.452-.006l-.013,3.16A.725.725,0,0,0,253.027,1860.829Z" transform="translate(-202.668 -1856.033)" fill="#c6412a" stroke="#000" stroke-width="0.5"/>
              <path id="Trazado_204079" data-name="Trazado 204079" d="M239.2,1860.773a.725.725,0,0,0,.729-.723l.013-3.16a.726.726,0,1,0-1.452-.006l-.013,3.16A.726.726,0,0,0,239.2,1860.773Z" transform="translate(-192.983 -1855.993)" fill="#c6412a" stroke="#000" stroke-width="0.5"/>
              <path id="Trazado_204080" data-name="Trazado 204080" d="M225.375,1860.717a.726.726,0,0,0,.729-.723l.013-3.16a.726.726,0,1,0-1.452-.006l-.013,3.16A.726.726,0,0,0,225.375,1860.717Z" transform="translate(-183.299 -1855.954)" fill="#c6412a" stroke="#000" stroke-width="0.5"/>
              <path id="Trazado_204081" data-name="Trazado 204081" d="M211.55,1860.66a.725.725,0,0,0,.729-.723l.013-3.16a.726.726,0,1,0-1.452-.006l-.013,3.16A.725.725,0,0,0,211.55,1860.66Z" transform="translate(-173.616 -1855.915)" fill="#c6412a" stroke="#000" stroke-width="0.5"/>
              <path id="Trazado_204082" data-name="Trazado 204082" d="M197.724,1860.6a.726.726,0,0,0,.729-.723l.013-3.16a.726.726,0,1,0-1.451-.006l-.013,3.16A.726.726,0,0,0,197.724,1860.6Z" transform="translate(-163.93 -1855.875)" fill="#c6412a" stroke="#000" stroke-width="0.5"/>
              <path id="Trazado_204083" data-name="Trazado 204083" d="M183.9,1860.549a.726.726,0,0,0,.729-.723l.013-3.16a.726.726,0,1,0-1.452-.006l-.013,3.16A.726.726,0,0,0,183.9,1860.549Z" transform="translate(-154.247 -1855.836)" fill="#c6412a" stroke="#000" stroke-width="0.5"/>
              <path id="Trazado_204084" data-name="Trazado 204084" d="M170.073,1860.493a.726.726,0,0,0,.729-.723l.013-3.16a.726.726,0,0,0-1.451-.006l-.013,3.16A.726.726,0,0,0,170.073,1860.493Z" transform="translate(-144.562 -1855.797)" fill="#c6412a" stroke="#000" stroke-width="0.5"/>
              <path id="Trazado_204085" data-name="Trazado 204085" d="M156.247,1860.437a.727.727,0,0,0,.729-.723l.013-3.16a.726.726,0,0,0-1.451-.006l-.013,3.16A.727.727,0,0,0,156.247,1860.437Z" transform="translate(-134.878 -1855.758)" fill="#c6412a" stroke="#000" stroke-width="0.5"/>
              <path id="Trazado_204086" data-name="Trazado 204086" d="M142.422,1860.381a.726.726,0,0,0,.729-.723l.013-3.16a.726.726,0,1,0-1.451-.006l-.013,3.16A.726.726,0,0,0,142.422,1860.381Z" transform="translate(-125.195 -1855.719)" fill="#c6412a" stroke="#000" stroke-width="0.5"/>
              <path id="Trazado_204087" data-name="Trazado 204087" d="M128.6,1860.325a.726.726,0,0,0,.729-.723l.013-3.16a.726.726,0,0,0-1.452-.006l-.013,3.16A.726.726,0,0,0,128.6,1860.325Z" transform="translate(-115.51 -1855.68)" fill="#c6412a" stroke="#000" stroke-width="0.5"/>
              <path id="Trazado_204088" data-name="Trazado 204088" d="M114.77,1860.269a.726.726,0,0,0,.729-.723l.013-3.16a.726.726,0,0,0-1.452-.006l-.013,3.16A.726.726,0,0,0,114.77,1860.269Z" transform="translate(-105.826 -1855.64)" fill="#c6412a" stroke="#000" stroke-width="0.5"/>
              <path id="Trazado_204089" data-name="Trazado 204089" d="M100.945,1860.213a.725.725,0,0,0,.729-.723l.013-3.16a.726.726,0,1,0-1.451-.006l-.013,3.16A.726.726,0,0,0,100.945,1860.213Z" transform="translate(-96.143 -1855.601)" fill="#c6412a" stroke="#000" stroke-width="0.5"/>
              <g id="Grupo_151298" data-name="Grupo 151298" transform="translate(7.993 12.802)">
                <rect id="Rectángulo_44407" data-name="Rectángulo 44407" width="0.68" height="40.479" transform="translate(0 0.68) rotate(-89.768)" fill="#3d46c2" stroke="#000" stroke-width="0.5"/>
              </g>
              <g id="Grupo_151299" data-name="Grupo 151299" transform="translate(8.156 18.969)">
                <rect id="Rectángulo_44408" data-name="Rectángulo 44408" width="0.68" height="40.479" transform="matrix(0.004, -1, 1, 0.004, 0, 0.68)" fill="#3d46c2" stroke="#000" stroke-width="0.5"/>
              </g>
              <g id="Grupo_151300" data-name="Grupo 151300" transform="translate(8.881 25.138)">
                <rect id="Rectángulo_44409" data-name="Rectángulo 44409" width="0.68" height="40.479" transform="translate(0 0.68) rotate(-89.768)" fill="#3d46c2" stroke="#000" stroke-width="0.5"/>
              </g>
              <g id="Grupo_151301" data-name="Grupo 151301" transform="translate(9.046 30.645)">
                <rect id="Rectángulo_44410" data-name="Rectángulo 44410" width="0.68" height="40.479" transform="translate(0 0.68) rotate(-89.768)" fill="#3d46c2" stroke="#000" stroke-width="0.5"/>
              </g>
              <g id="Grupo_151302" data-name="Grupo 151302" transform="translate(40.852 7.441)">
                <rect id="Rectángulo_44411" data-name="Rectángulo 44411" width="0.681" height="29.838" transform="translate(0 0.043) rotate(-3.654)" fill="#3d46c2" stroke="#000" stroke-width="0.5"/>
              </g>
              <g id="Grupo_151303" data-name="Grupo 151303" transform="translate(34.514 7.416)">
                <rect id="Rectángulo_44412" data-name="Rectángulo 44412" width="0.681" height="29.837" transform="translate(0 0.043) rotate(-3.659)" fill="#3d46c2" stroke="#000" stroke-width="0.5"/>
              </g>
              <g id="Grupo_151304" data-name="Grupo 151304" transform="translate(28.041 7.39)">
                <rect id="Rectángulo_44413" data-name="Rectángulo 44413" width="0.681" height="29.837" transform="translate(0 0.043) rotate(-3.659)" fill="#3d46c2" stroke="#000" stroke-width="0.5"/>
              </g>
              <g id="Grupo_151305" data-name="Grupo 151305" transform="translate(21.705 7.364)">
                <rect id="Rectángulo_44414" data-name="Rectángulo 44414" width="0.681" height="29.837" transform="translate(0 0.043) rotate(-3.654)" fill="#3d46c2" stroke="#000" stroke-width="0.5"/>
              </g>
              <g id="Grupo_151306" data-name="Grupo 151306" transform="translate(14.497 7.335)">
                <rect id="Rectángulo_44415" data-name="Rectángulo 44415" width="0.681" height="29.837" transform="matrix(0.998, -0.064, 0.064, 0.998, 0, 0.043)" fill="#3d46c2" stroke="#000" stroke-width="0.5"/>
              </g>
              <g id="Grupo_151308" data-name="Grupo 151308" transform="translate(10.141 8.101)">
                <g id="Grupo_151307" data-name="Grupo 151307">
                  <path id="Trazado_204090" data-name="Trazado 204090" d="M122.795,1886.276l-.082.632h-2.254l.082-.632h.74l.269-2.219c.006-.05.013-.1.022-.154s.018-.1.028-.156l-.468.407a.337.337,0,0,1-.13.059.291.291,0,0,1-.114,0,.232.232,0,0,1-.089-.036.186.186,0,0,1-.055-.056l-.228-.365,1.367-1.112h.723l-.445,3.632Z" transform="translate(-120.459 -1882.644)" fill="#fff"/>
                </g>
              </g>
            </g>
            <g id="Grupo_151356" data-name="Grupo 151356" transform="translate(73.356 35.728)">
              <g id="Grupo_151317" data-name="Grupo 151317" transform="translate(0 26.308)">
                <g id="Grupo_151310" data-name="Grupo 151310" transform="translate(0 0)">
                  <path id="Unión_14" data-name="Unión 14" d="M39.731,21.845c-2.563,1.05-17.958-.492-17.958-.492s-7.679-1.544-10.917-1.721A29.857,29.857,0,0,1,2.8,17.406a1.108,1.108,0,0,1-.331-1.243.672.672,0,0,1,.6-.33L.274,13.606c-.958-.916.817-2.114,1.9-2.192,1.508-.113,5.805,1.723,5.805,1.723l7.594-1.569,4.865.015s4.465-2.139,4.506-2.29c.168-.6-1.981-1.538-2.872-2.078S15.043,5.032,13.514,4,10.539.6,11.947.089s6.125,1.344,7.388,1.589,10.623,1.436,14.44,2.367c3.05.744,10.111,7.358,10.111,7.358l10.562,3.269L51.9,25.823Z" fill="#f79e86" stroke="#000" stroke-width="1"/>
                </g>
                <g id="Grupo_151311" data-name="Grupo 151311" transform="translate(2.867 14.315)">
                  <path id="Trazado_204093" data-name="Trazado 204093" d="M272.595,1960.715a33.346,33.346,0,0,0,3.57-.76c3.316-.784,7.855-1.87,9.407-1.753a22.109,22.109,0,0,1,3.855.549.2.2,0,1,0,.1-.387,22.033,22.033,0,0,0-3.933-.563c-1.62-.1-6.186.974-9.526,1.764-1.7.4-3.164.747-3.474.75-.683,0-9.757-.716-9.849-.723-.1-.027-3.159-.765-3.816-.827a14.963,14.963,0,0,0-4.33.354.2.2,0,1,0,.1.389,14.91,14.91,0,0,1,4.2-.344c.629.06,3.76.814,3.792.822C263.093,1960.021,271.9,1960.715,272.595,1960.715Z" transform="translate(-254.449 -1957.794)" fill="#e0745c" stroke="#000" stroke-width="0.5"/>
                </g>
                <path id="Trazado_204094" data-name="Trazado 204094" d="M268.7,1938.207l-9.349-2.7s-3.887-2.958-5.216-3.147-2.153.333-2.106.671c.066.473,1.513,2.242,3.955,4.434a18.871,18.871,0,0,0,3.059,2.245l4.274.375Z" transform="translate(-249.885 -1925.637)" fill="#f79e86" stroke="#000" stroke-width="1"/>
                <g id="Grupo_151314" data-name="Grupo 151314" transform="translate(25.116 9.347)">
                  <path id="Trazado_204097" data-name="Trazado 204097" d="M333.282,1942.891c.225,0,.451-.009.678-.027a.2.2,0,0,0,.184-.216.2.2,0,0,0-.216-.184,7.892,7.892,0,0,1-4.9-1.223.2.2,0,1,0-.216.337A8.227,8.227,0,0,0,333.282,1942.891Z" transform="translate(-328.721 -1941.209)" fill="#e0745c" stroke="#000" stroke-width="1"/>
                </g>
              </g>
              <g id="Grupo_151319" data-name="Grupo 151319" transform="translate(41.161 37.773)">
                <path id="Trazado_204100" data-name="Trazado 204100" d="M388.832,1949.181l-3.208-.9-3.342,12.658,4.49,1.087Z" transform="translate(-382.281 -1948.28)" fill="#fff" stroke="#000" stroke-width="1"/>
                <path id="Trazado_204101" data-name="Trazado 204101" d="M424.434,1976.854l-37.651-12.785,2.921-15.228,34.729,7.767Z" transform="translate(-385.435 -1948.673)" fill="#3d46c2" stroke="#000" stroke-width="1"/>
                <g id="Grupo_151318" data-name="Grupo 151318" transform="translate(3.415 13.498)">
                  <path id="Trazado_204102" data-name="Trazado 204102" d="M394.438,1995.321a1.006,1.006,0,1,0-.727-1.223A1.006,1.006,0,0,0,394.438,1995.321Z" transform="translate(-393.68 -1993.34)" fill="#a2c0e6" stroke="#000" stroke-width="1"/>
                  <path id="Trazado_204103" data-name="Trazado 204103" d="M405.141,1998.047a1.006,1.006,0,1,0-.727-1.224A1.007,1.007,0,0,0,405.141,1998.047Z" transform="translate(-401.177 -1995.249)" fill="#a2c0e6" stroke="#000" stroke-width="1"/>
                  <path id="Trazado_204104" data-name="Trazado 204104" d="M415.845,2000.771a1.006,1.006,0,1,0-.727-1.223A1.006,1.006,0,0,0,415.845,2000.771Z" transform="translate(-408.674 -1997.157)" fill="#a2c0e6" stroke="#000" stroke-width="1"/>
                </g>
              </g>
              <g id="Grupo_151325" data-name="Grupo 151325" transform="translate(2.564 18.962)">
                <path id="Trazado_204105" data-name="Trazado 204105" d="M272.55,1894.171a4.575,4.575,0,0,0,1.759-2.217l.324.681a4.413,4.413,0,0,1-1.785,2.323,8.866,8.866,0,0,1-1.542.924l-.388-.746A8.91,8.91,0,0,0,272.55,1894.171Z" transform="translate(-265.681 -1890.017)" fill="#dce736" stroke="#000" stroke-width="0.2"/>
                <path id="Trazado_204106" data-name="Trazado 204106" d="M282.2,1888.842l.3.787a1.443,1.443,0,0,1,.037.826l-.324-.682A1.486,1.486,0,0,0,282.2,1888.842Z" transform="translate(-273.584 -1887.837)" fill="#dce736" stroke="#000" stroke-width="0.2"/>
                <path id="Trazado_204107" data-name="Trazado 204107" d="M254.431,1902.452c1.033.5,2.793.272,4.432-.479l.388.746c-1.664.784-3.47,1.03-4.522.52a1.368,1.368,0,0,1-.724-.738l-.3-.788A1.369,1.369,0,0,0,254.431,1902.452Z" transform="translate(-253.626 -1896.853)" fill="#dce736" stroke="#000" stroke-width="0.2"/>
                <path id="Trazado_204108" data-name="Trazado 204108" d="M282.216,1888.887c-.005-.015-.01-.031-.016-.045l.3.787c.006.015.011.03.016.046l-.3-.788Z" transform="translate(-273.584 -1887.837)" fill="#dce736" stroke="#000" stroke-width="0.2"/>
                <path id="Trazado_204109" data-name="Trazado 204109" d="M255.265,1887.2c1.956-1.472,4.673-2.118,6.064-1.444s.933,2.416-1.023,3.887-4.672,2.119-6.064,1.444S253.309,1888.67,255.265,1887.2Z" transform="translate(-253.437 -1885.487)" fill="#dce736" stroke="#000" stroke-width="0.2"/>
                <g id="Grupo_151320" data-name="Grupo 151320" transform="translate(0.529 0.362)">
                  <path id="Trazado_204110" data-name="Trazado 204110" d="M255.907,1891.63a1.106,1.106,0,0,1-.7-.9c-.078-.742.532-1.676,1.633-2.5,1.72-1.286,4.095-1.882,5.295-1.329a1.1,1.1,0,0,1,.7.9c.078.741-.533,1.675-1.633,2.5a7.578,7.578,0,0,1-4.185,1.535A2.679,2.679,0,0,1,255.907,1891.63Zm1-3.309a3.188,3.188,0,0,0-1.589,2.4,1,1,0,0,0,.633.809c1.165.54,3.49-.052,5.179-1.316,1.053-.788,1.662-1.706,1.589-2.4a1,1,0,0,0-.634-.81,2.566,2.566,0,0,0-1.069-.2A7.458,7.458,0,0,0,256.91,1888.32Z" transform="translate(-255.202 -1886.695)" fill="#dce736" stroke="#000" stroke-width="0.2"/>
                </g>
                <g id="Grupo_151321" data-name="Grupo 151321" transform="translate(0.05 0.038)" style="mix-blend-mode: screen;isolation: isolate">
                  <path id="Trazado_204111" data-name="Trazado 204111" d="M254.406,1891.136a1.294,1.294,0,0,1-.8-1.052c-.08-.827.6-1.869,1.817-2.784,1.921-1.445,4.591-2.085,5.951-1.426a1.3,1.3,0,0,1,.8,1.059c.081.828-.6,1.865-1.808,2.778a8.291,8.291,0,0,1-4.626,1.687A3.087,3.087,0,0,1,254.406,1891.136Zm1.072-3.766c-1.193.9-1.859,1.91-1.781,2.706a1.211,1.211,0,0,0,.748.981c1.336.649,3.971.013,5.874-1.417,1.188-.894,1.85-1.9,1.773-2.7a1.22,1.22,0,0,0-.754-.988,3,3,0,0,0-1.3-.253A8.189,8.189,0,0,0,255.478,1887.37Z" transform="translate(-253.603 -1885.615)" fill="#dce736" stroke="#000" stroke-width="0.2"/>
                </g>
                <g id="Grupo_151324" data-name="Grupo 151324" style="isolation: isolate">
                  <g id="Grupo_151323" data-name="Grupo 151323" clip-path="url(#clip-path-3)">
                    <g id="Grupo_151322" data-name="Grupo 151322" transform="translate(2.181 1.697)">
                      <path id="Trazado_204112" data-name="Trazado 204112" d="M264.316,1892.607l-.649-.314a1.168,1.168,0,0,1,.5-.06c.258.053.249.216.152.374Zm-.253.272a1.641,1.641,0,0,1-.18.112l-.95-.46.291-.1.873.423-.033.026Zm-2.006-.42a1,1,0,0,1-.587.044c-.147-.065-.125-.2-.021-.338l.607.294Zm.734-.238c-.056.021-.1.037-.132.047l-.158.054-.818-.4.057-.045c.046-.035.094-.067.145-.1l.906.439Zm-1.2-.936-.285.215.249.121q-.1.068-.2.143l-.242-.117-.285.215.259.126c-.386.371-.52.763-.12.941a2.216,2.216,0,0,0,1.337-.174l.213-.074.974.472a1,1,0,0,1-.823-.086l-.468.335a1.556,1.556,0,0,0,1.7-.051l.293.142.285-.214-.248-.12c.057-.038.113-.077.167-.118l.033-.025s.244.116.244.116l.285-.215-.271-.131c.354-.361.533-.768.129-.937a3.261,3.261,0,0,0-1.587.23l-.966-.468a.941.941,0,0,1,.838.082l.453-.343a1.629,1.629,0,0,0-1.675.075l-.286-.139Z" transform="translate(-260.718 -1891.152)" fill="#dce736" stroke="#000" stroke-width="0.2"/>
                    </g>
                  </g>
                </g>
              </g>
              <g id="Grupo_151331" data-name="Grupo 151331" transform="translate(14.087)">
                <path id="Trazado_204113" data-name="Trazado 204113" d="M293.057,1825.706a4.576,4.576,0,0,1,1.384-2.468l-.754-.041a4.411,4.411,0,0,0-1.472,2.533,8.851,8.851,0,0,0-.27,1.778l.838.076A8.892,8.892,0,0,1,293.057,1825.706Z" transform="translate(-291.933 -1822.894)" fill="#dce736" stroke="#000" stroke-width="0.2"/>
                <path id="Trazado_204114" data-name="Trazado 204114" d="M299.382,1822.188l-.842.023a1.443,1.443,0,0,0-.779.279l.754.042A1.49,1.49,0,0,1,299.382,1822.188Z" transform="translate(-296.007 -1822.188)" fill="#dce736" stroke="#000" stroke-width="0.2"/>
                <path id="Trazado_204115" data-name="Trazado 204115" d="M293.993,1841.943c-.855-.766-1.311-2.481-1.238-4.282l-.838-.076c-.094,1.837.364,3.6,1.234,4.381a1.368,1.368,0,0,0,.957.39l.842-.023A1.369,1.369,0,0,1,293.993,1841.943Z" transform="translate(-291.904 -1832.972)" fill="#dce736" stroke="#000" stroke-width="0.2"/>
                <path id="Trazado_204116" data-name="Trazado 204116" d="M301.041,1822.19l.048,0-.842.023-.048,0,.842-.023Z" transform="translate(-297.714 -1822.188)" fill="#dce736" stroke="#000" stroke-width="0.2"/>
                <path id="Trazado_204117" data-name="Trazado 204117" d="M299.168,1828.736c.62-2.369.187-5.127-.965-6.159s-2.589.053-3.208,2.422-.188,5.126.964,6.159S298.549,1831.1,299.168,1828.736Z" transform="translate(-293.871 -1822.186)" fill="#dce736" stroke="#000" stroke-width="0.2"/>
                <g id="Grupo_151326" data-name="Grupo 151326" transform="translate(1.173 0.554)">
                  <path id="Trazado_204118" data-name="Trazado 204118" d="M296.852,1831.942c-.967-.9-1.317-3.325-.779-5.4.344-1.331.977-2.25,1.692-2.459a1.107,1.107,0,0,1,1.1.3c.968.9,1.317,3.324.779,5.4-.344,1.331-.977,2.25-1.693,2.459a1.06,1.06,0,0,1-.3.044A1.17,1.17,0,0,1,296.852,1831.942Zm2.681-2.183c.528-2.043.194-4.417-.747-5.292a1,1,0,0,0-.989-.279c-.667.195-1.285,1.106-1.615,2.379-.529,2.043-.194,4.417.747,5.292a1,1,0,0,0,.989.279c.667-.195,1.286-1.107,1.615-2.379Z" transform="translate(-295.82 -1824.036)" fill="#dce736" stroke="#000" stroke-width="0.2"/>
                </g>
                <g id="Grupo_151327" data-name="Grupo 151327" transform="translate(0.883 0.072)" style="mix-blend-mode: screen;isolation: isolate">
                  <path id="Trazado_204119" data-name="Trazado 204119" d="M296.075,1831.265c-1.129-1.012-1.552-3.731-.943-6.061.384-1.468,1.088-2.487,1.884-2.726a1.3,1.3,0,0,1,1.284.341c1.126,1.009,1.547,3.722.939,6.047-.386,1.474-1.091,2.5-1.887,2.737a1.215,1.215,0,0,1-.352.053A1.387,1.387,0,0,1,296.075,1831.265Zm.966-8.7c-.766.23-1.448,1.227-1.824,2.664-.6,2.3-.19,4.98.917,5.972a1.207,1.207,0,0,0,1.192.32c.767-.23,1.45-1.23,1.828-2.675.6-2.3.191-4.97-.913-5.958a1.305,1.305,0,0,0-.873-.372A1.119,1.119,0,0,0,297.041,1822.563Z" transform="translate(-294.853 -1822.425)" fill="#dce736" stroke="#000" stroke-width="0.2"/>
                </g>
                <g id="Grupo_151330" data-name="Grupo 151330" transform="translate(0.841)" style="isolation: isolate">
                  <g id="Grupo_151329" data-name="Grupo 151329" clip-path="url(#clip-path-4)">
                    <g id="Grupo_151328" data-name="Grupo 151328" transform="translate(0.856 2.573)">
                      <path id="Trazado_204120" data-name="Trazado 204120" d="M298.337,1831.642c.11-.15.258-.22.4,0a1.163,1.163,0,0,1,.133.482l-.537-.481Zm-.156.338.012-.041.723.647c.006.1.011.2.017.307l-.787-.7a1.741,1.741,0,0,1,.036-.209Zm1.15,1.7.5.45c-.093.151-.2.221-.321.109a1,1,0,0,1-.182-.56Zm-.058-.77.75.672c-.01.06-.022.117-.036.172-.006.024-.013.047-.02.07l-.677-.606c0-.056-.007-.111-.01-.167,0-.032-.005-.08-.007-.141Zm1.323.759-.237-.212a1.628,1.628,0,0,0-.566-1.578l-.145.55a.941.941,0,0,1,.394.744l-.8-.717a3.258,3.258,0,0,0-.389-1.555c-.31-.309-.618.011-.818.475l-.224-.2-.09.345s.2.179.2.181l-.011.041c-.017.065-.032.132-.045.2l-.206-.184-.09.345.243.217c-.054.682.111,1.368.6,1.591l.132-.561a1,1,0,0,1-.392-.728l.807.722c0,.075.008.146.012.225a2.219,2.219,0,0,0,.346,1.3c.316.3.629.031.826-.468l.215.192.09-.345-.2-.18c.021-.083.039-.164.056-.242l.206.185.09-.346Z" transform="translate(-297.568 -1830.774)" fill="#dce736" stroke="#000" stroke-width="0.2"/>
                    </g>
                  </g>
                </g>
              </g>
              <g id="Grupo_151337" data-name="Grupo 151337" transform="translate(28.232 9.415)">
                <path id="Trazado_204121" data-name="Trazado 204121" d="M358.236,1860.593a4.575,4.575,0,0,1,1.263,2.532l.458-.6a4.411,4.411,0,0,0-1.267-2.642,8.859,8.859,0,0,0-1.318-1.223l-.534.65A8.88,8.88,0,0,1,358.236,1860.593Z" transform="translate(-351.531 -1857.15)" fill="#dce736" stroke="#000" stroke-width="0.2"/>
                <path id="Trazado_204122" data-name="Trazado 204122" d="M365.039,1873.073l.454-.709a1.442,1.442,0,0,0,.207-.8l-.458.6A1.49,1.49,0,0,1,365.039,1873.073Z" transform="translate(-357.275 -1866.187)" fill="#dce736" stroke="#000" stroke-width="0.2"/>
                <path id="Trazado_204123" data-name="Trazado 204123" d="M340.681,1854.393c1.114-.276,2.789.311,4.237,1.384l.534-.65c-1.466-1.111-3.183-1.724-4.317-1.443a1.368,1.368,0,0,0-.86.573l-.454.708A1.369,1.369,0,0,1,340.681,1854.393Z" transform="translate(-339.612 -1853.616)" fill="#dce736" stroke="#000" stroke-width="0.2"/>
                <path id="Trazado_204124" data-name="Trazado 204124" d="M365.064,1874.807l-.025.041.454-.708.025-.041-.454.709Z" transform="translate(-357.275 -1867.963)" fill="#dce736" stroke="#000" stroke-width="0.2"/>
                <path id="Trazado_204125" data-name="Trazado 204125" d="M340.39,1860.066c1.61,1.844,4.134,3.038,5.635,2.667s1.412-2.171-.2-4.015-4.133-3.039-5.635-2.667S338.78,1858.222,340.39,1860.066Z" transform="translate(-339.122 -1855.274)" fill="#dce736" stroke="#000" stroke-width="0.2"/>
                <g id="Grupo_151332" data-name="Grupo 151332" transform="translate(0.495 1.113)">
                  <path id="Trazado_204126" data-name="Trazado 204126" d="M341.92,1860.9c-.906-1.034-1.311-2.074-1.081-2.783a1.1,1.1,0,0,1,.869-.737c1.292-.292,3.489.781,4.906,2.394.907,1.035,1.312,2.074,1.082,2.783a1.1,1.1,0,0,1-.869.737,2.1,2.1,0,0,1-.461.048A6.882,6.882,0,0,1,341.92,1860.9Zm-.187-3.41a1,1,0,0,0-.787.662,3.189,3.189,0,0,0,1.059,2.674c1.392,1.585,3.547,2.648,4.8,2.358a1,1,0,0,0,.787-.661,3.187,3.187,0,0,0-1.059-2.674,6.759,6.759,0,0,0-4.353-2.405A1.986,1.986,0,0,0,341.733,1857.489Z" transform="translate(-340.775 -1857.332)" fill="#dce736" stroke="#000" stroke-width="0.2"/>
                </g>
                <g id="Grupo_151333" data-name="Grupo 151333" transform="translate(0.044 0.757)" style="mix-blend-mode: screen;isolation: isolate">
                  <path id="Trazado_204127" data-name="Trazado 204127" d="M340.539,1860.176c-1-1.148-1.451-2.307-1.2-3.1a1.3,1.3,0,0,1,1-.864c1.473-.37,3.958.814,5.541,2.628,1,1.143,1.444,2.3,1.195,3.091a1.3,1.3,0,0,1-1,.87,2.41,2.41,0,0,1-.581.066A7.554,7.554,0,0,1,340.539,1860.176Zm-.182-3.88a1.211,1.211,0,0,0-.935.806c-.241.764.2,1.891,1.184,3.015,1.562,1.79,4,2.954,5.441,2.6a1.22,1.22,0,0,0,.941-.811c.24-.763-.2-1.886-1.178-3.006a7.471,7.471,0,0,0-4.886-2.665A2.394,2.394,0,0,0,340.357,1856.3Z" transform="translate(-339.27 -1856.143)" fill="#dce736" stroke="#000" stroke-width="0.2"/>
                </g>
                <g id="Grupo_151336" data-name="Grupo 151336" transform="translate(0 0.709)" style="isolation: isolate">
                  <g id="Grupo_151335" data-name="Grupo 151335" clip-path="url(#clip-path-5)">
                    <g id="Grupo_151334" data-name="Grupo 151334" transform="translate(1.857 2.159)">
                      <path id="Trazado_204128" data-name="Trazado 204128" d="M348.9,1864.522c.062.175.037.337-.226.334a1.161,1.161,0,0,1-.474-.161l.7-.174Zm-.192-.319.027.033-.941.233c-.082-.049-.169-.1-.263-.159l1.025-.254a1.794,1.794,0,0,1,.153.147Zm-2.05,0-.655.162c-.073-.161-.067-.293.09-.327a1,1,0,0,1,.565.165Zm.669.385-.977.242c-.044-.042-.084-.084-.122-.126l-.047-.056.882-.219.144.086.12.073Zm-1.371.667.309-.077a1.628,1.628,0,0,0,1.624.419l-.373-.429a.942.942,0,0,1-.837-.093l1.042-.259a3.256,3.256,0,0,0,1.505.554c.43-.082.339-.518.067-.944l.292-.072-.235-.269s-.261.065-.263.063l-.027-.032c-.044-.051-.091-.1-.138-.149l.268-.066-.235-.269-.316.079a1.556,1.556,0,0,0-1.652-.4l.389.425a1,1,0,0,1,.823.085l-1.051.261-.193-.116a2.224,2.224,0,0,0-1.272-.447c-.428.091-.379.5-.077.946l-.28.07.235.269.261-.065c.058.064.114.125.168.182l-.269.067.235.269Z" transform="translate(-345.322 -1863.191)" fill="#dce736" stroke="#000" stroke-width="0.2"/>
                    </g>
                  </g>
                </g>
              </g>
              <g id="Grupo_151343" data-name="Grupo 151343" transform="translate(14.96 17.306)">
                <path id="Trazado_204129" data-name="Trazado 204129" d="M308.738,1880.822a4.575,4.575,0,0,1,2.821.224l-.278-.7a4.409,4.409,0,0,0-2.917-.278,8.852,8.852,0,0,0-1.727.5l.281.793A8.873,8.873,0,0,1,308.738,1880.822Z" transform="translate(-303.097 -1879.957)" fill="#dce736" stroke="#000" stroke-width="0.2"/>
                <path id="Trazado_204130" data-name="Trazado 204130" d="M323.091,1882.6l-.373-.755a1.437,1.437,0,0,0-.579-.59l.278.7A1.486,1.486,0,0,1,323.091,1882.6Z" transform="translate(-313.955 -1880.865)" fill="#dce736" stroke="#000" stroke-width="0.2"/>
                <path id="Trazado_204131" data-name="Trazado 204131" d="M295.269,1885.7c.338-1.1,1.7-2.229,3.371-2.917l-.281-.792c-1.708.683-3.119,1.837-3.463,2.954a1.368,1.368,0,0,0,.046,1.032l.373.755A1.367,1.367,0,0,1,295.269,1885.7Z" transform="translate(-294.818 -1881.382)" fill="#dce736" stroke="#000" stroke-width="0.2"/>
                <path id="Trazado_204132" data-name="Trazado 204132" d="M324.371,1883.835l.022.043-.373-.755c-.007-.014-.014-.029-.022-.043l.373.755Z" transform="translate(-315.257 -1882.145)" fill="#dce736" stroke="#000" stroke-width="0.2"/>
                <path id="Trazado_204133" data-name="Trazado 204133" d="M299.684,1887.941c2.41-.429,4.735-1.975,5.19-3.453s-1.132-2.329-3.542-1.9-4.735,1.974-5.19,3.453S297.273,1888.369,299.684,1887.941Z" transform="translate(-295.69 -1881.721)" fill="#dce736" stroke="#000" stroke-width="0.2"/>
                <g id="Grupo_151338" data-name="Grupo 151338" transform="translate(0.89 1.138)">
                  <path id="Trazado_204134" data-name="Trazado 204134" d="M298.045,1887.952a1.1,1.1,0,0,1-.183-1.124c.413-1.256,2.468-2.587,4.581-2.969,1.353-.243,2.453-.054,2.942.508a1.105,1.105,0,0,1,.183,1.125c-.413,1.255-2.468,2.587-4.581,2.969a6.219,6.219,0,0,1-1.093.1A2.425,2.425,0,0,1,298.045,1887.952Zm2.922.4c2.077-.375,4.093-1.672,4.494-2.893a1,1,0,0,0-.161-1.015,3.183,3.183,0,0,0-2.837-.47c-2.077.375-4.093,1.672-4.494,2.892a1,1,0,0,0,.161,1.014,3.178,3.178,0,0,0,2.837.472Z" transform="translate(-297.788 -1883.755)" fill="#dce736" stroke="#000" stroke-width="0.2"/>
                </g>
                <g id="Grupo_151339" data-name="Grupo 151339" transform="translate(0.434 0.804)" style="mix-blend-mode: screen;isolation: isolate">
                  <path id="Trazado_204135" data-name="Trazado 204135" d="M296.572,1887.447a1.3,1.3,0,0,1-.226-1.3c.446-1.449,2.738-2.972,5.109-3.393,1.494-.266,2.713-.053,3.264.57a1.3,1.3,0,0,1,.228,1.309c-.445,1.445-2.732,2.963-5.1,3.384a6.885,6.885,0,0,1-1.2.113A2.743,2.743,0,0,1,296.572,1887.447Zm3.261.483c2.338-.416,4.594-1.906,5.03-3.323a1.221,1.221,0,0,0-.209-1.226c-.53-.6-1.719-.8-3.183-.542-2.342.417-4.6,1.911-5.04,3.332a1.21,1.21,0,0,0,.207,1.216c.53.6,1.724.8,3.195.542Z" transform="translate(-296.268 -1882.641)" fill="#dce736" stroke="#000" stroke-width="0.2"/>
                </g>
                <g id="Grupo_151342" data-name="Grupo 151342" transform="translate(0.373 0.755)" style="isolation: isolate">
                  <g id="Grupo_151341" data-name="Grupo 151341" clip-path="url(#clip-path-6)">
                    <g id="Grupo_151340" data-name="Grupo 151340" transform="translate(2.707 0.917)">
                      <path id="Trazado_204136" data-name="Trazado 204136" d="M307.652,1886.212c.182.037.307.142.17.366a1.158,1.158,0,0,1-.382.323l.212-.689Zm-.372,0,.042-.006-.285.927c-.084.046-.175.093-.272.144l.311-1.009a1.822,1.822,0,0,1,.2-.055Zm-1.06,1.754-.2.645c-.176-.021-.286-.094-.234-.246a1,1,0,0,1,.432-.4Zm.675-.375-.3.962c-.058.016-.115.029-.171.039l-.072.011.268-.869.147-.079c.027-.015.07-.038.124-.065Zm-.135,1.519.093-.3a1.628,1.628,0,0,0,1.2-1.174l-.56.1a.942.942,0,0,1-.511.669l.316-1.026c.487-.277,1.131-.686,1.25-1,.151-.411-.269-.557-.774-.544l.089-.288-.351.063s-.079.257-.081.258l-.041.007c-.066.012-.133.026-.2.042l.081-.264-.351.063-.1.312c-.642.236-1.2.673-1.2,1.208l.565-.114a1,1,0,0,1,.5-.661l-.319,1.035-.2.105c-.463.247-.932.551-1.039.859-.143.414.236.584.77.554l-.085.276.351-.062.079-.257c.085-.016.166-.033.243-.05l-.081.265.351-.063Z" transform="translate(-305.101 -1885.536)" fill="#dce736" stroke="#000" stroke-width="0.2"/>
                    </g>
                  </g>
                </g>
              </g>
              <g id="Grupo_151349" data-name="Grupo 151349" transform="translate(13.971 34.604)">
                <path id="Trazado_204139" data-name="Trazado 204139" d="M307.082,1952.934a4.578,4.578,0,0,0,2.751-.665l-.164.737a4.408,4.408,0,0,1-2.837.733,8.848,8.848,0,0,1-1.785-.22l.153-.827A8.881,8.881,0,0,0,307.082,1952.934Z" transform="translate(-300.994 -1947.905)" fill="#dce736" stroke="#000" stroke-width="0.2"/>
                <path id="Trazado_204140" data-name="Trazado 204140" d="M321.2,1949.793l-.25.8a1.439,1.439,0,0,1-.479.674l.164-.737A1.491,1.491,0,0,0,321.2,1949.793Z" transform="translate(-311.799 -1946.171)" fill="#dce736" stroke="#000" stroke-width="0.2"/>
                <path id="Trazado_204141" data-name="Trazado 204141" d="M291.934,1943.433c.506,1.03,2.034,1.933,3.788,2.35l-.153.827c-1.794-.406-3.369-1.323-3.884-2.373a1.368,1.368,0,0,1-.116-1.027l.25-.8A1.368,1.368,0,0,0,291.934,1943.433Z" transform="translate(-291.515 -1940.996)" fill="#dce736" stroke="#000" stroke-width="0.2"/>
                <path id="Trazado_204142" data-name="Trazado 204142" d="M322.272,1949.839c.005-.015.01-.03.015-.045l-.25.8-.015.046.25-.8Z" transform="translate(-312.883 -1946.171)" fill="#dce736" stroke="#000" stroke-width="0.2"/>
                <path id="Trazado_204143" data-name="Trazado 204143" d="M295.717,1937.7c2.447.044,4.987,1.205,5.669,2.594s-.751,2.478-3.2,2.434-4.987-1.2-5.669-2.593S293.269,1937.659,295.717,1937.7Z" transform="translate(-292.099 -1937.702)" fill="#dce736" stroke="#000" stroke-width="0.2"/>
                <g id="Grupo_151344" data-name="Grupo 151344" transform="translate(0.787 0.356)">
                  <path id="Trazado_204144" data-name="Trazado 204144" d="M299.29,1943.208c-2.147-.044-4.386-1.035-4.991-2.21a1.1,1.1,0,0,1,0-1.139,3.131,3.131,0,0,1,2.678-.967c.049,0,.1,0,.147,0,2.147.044,4.386,1.036,4.991,2.211a1.105,1.105,0,0,1,0,1.139,3.13,3.13,0,0,1-2.676.966Zm-2.165-4.2c-.047,0-.093,0-.139,0a3.081,3.081,0,0,0-2.588.914,1,1,0,0,0,0,1.027c.588,1.142,2.783,2.106,4.893,2.149h.141a3.08,3.08,0,0,0,2.586-.912,1,1,0,0,0,0-1.028c-.588-1.142-2.784-2.107-4.893-2.15Z" transform="translate(-294.143 -1938.891)" fill="#dce736" stroke="#000" stroke-width="0.2"/>
                </g>
                <g id="Grupo_151345" data-name="Grupo 151345" transform="translate(0.311 0.037)" style="mix-blend-mode: screen;isolation: isolate">
                  <path id="Trazado_204145" data-name="Trazado 204145" d="M298.3,1942.771c-2.408-.043-4.911-1.185-5.58-2.546a1.3,1.3,0,0,1,.019-1.32c.432-.68,1.547-1.078,3-1.078h.146c2.4.043,4.9,1.182,5.568,2.538a1.3,1.3,0,0,1-.019,1.329c-.431.679-1.543,1.077-2.99,1.077Zm-5.487-3.819a1.211,1.211,0,0,0-.014,1.234c.655,1.335,3.124,2.455,5.5,2.5h.144c1.415,0,2.5-.384,2.914-1.037a1.219,1.219,0,0,0,.014-1.242c-.653-1.33-3.116-2.447-5.491-2.49h-.145C294.319,1937.913,293.232,1938.3,292.817,1938.951Z" transform="translate(-292.553 -1937.826)" fill="#dce736" stroke="#000" stroke-width="0.2"/>
                </g>
                <g id="Grupo_151348" data-name="Grupo 151348" transform="translate(0.25)" style="isolation: isolate">
                  <g id="Grupo_151347" data-name="Grupo 151347" clip-path="url(#clip-path-7)">
                    <g id="Grupo_151346" data-name="Grupo 151346" transform="translate(2.694 0.829)">
                      <path id="Trazado_204146" data-name="Trazado 204146" d="M304.245,1943.207l-.318-.647a1.166,1.166,0,0,1,.428.258c.171.2.064.323-.11.389Zm-.367.059a1.728,1.728,0,0,1-.211-.022l-.465-.948.291.1.427.87Zm-1.323-1.565a1,1,0,0,1-.49-.326c-.076-.142.022-.231.192-.28l.3.606Zm.726.264c-.058-.018-.1-.034-.133-.045l-.158-.054-.4-.816h.072c.057,0,.116,0,.176.011l.444.9Zm-.373-1.479-.356-.006.122.249q-.119-.008-.248-.012l-.119-.241-.357-.007.127.259c-.533.055-.88.282-.674.668a2.215,2.215,0,0,0,1.161.685l.214.073.478.972a1,1,0,0,1-.6-.574l-.576-.024c.084.528.7.872,1.371,1l.143.292.357.007-.121-.247c.067,0,.136.009.2.01h.042s.121.242.121.242l.357.006-.133-.27c.5-.067.892-.277.678-.659a3.262,3.262,0,0,0-1.392-.795l-.474-.963a.94.94,0,0,1,.611.58l.568.009a1.628,1.628,0,0,0-1.366-.972l-.141-.286Z" transform="translate(-301.343 -1940.468)" fill="#dce736" stroke="#000" stroke-width="0.2"/>
                    </g>
                  </g>
                </g>
              </g>
              <g id="Grupo_151355" data-name="Grupo 151355" transform="translate(23.501 26.666)">
                <path id="Trazado_204147" data-name="Trazado 204147" d="M342.442,1919.887a4.575,4.575,0,0,0,1.759-2.217l.324.681a4.411,4.411,0,0,1-1.785,2.323,8.877,8.877,0,0,1-1.542.924l-.388-.746A8.883,8.883,0,0,0,342.442,1919.887Z" transform="translate(-335.572 -1915.733)" fill="#dce736" stroke="#000" stroke-width="0.2"/>
                <path id="Trazado_204148" data-name="Trazado 204148" d="M352.093,1914.558l.3.787a1.443,1.443,0,0,1,.037.826l-.324-.681A1.489,1.489,0,0,0,352.093,1914.558Z" transform="translate(-343.476 -1913.553)" fill="#dce736" stroke="#000" stroke-width="0.2"/>
                <path id="Trazado_204149" data-name="Trazado 204149" d="M324.323,1928.167c1.033.5,2.793.272,4.432-.479l.389.746c-1.664.784-3.47,1.03-4.522.52a1.371,1.371,0,0,1-.723-.738l-.3-.788A1.365,1.365,0,0,0,324.323,1928.167Z" transform="translate(-323.519 -1922.568)" fill="#dce736" stroke="#000" stroke-width="0.2"/>
                <path id="Trazado_204150" data-name="Trazado 204150" d="M352.109,1914.6c-.005-.015-.01-.031-.016-.045l.3.787.016.046-.3-.787Z" transform="translate(-343.476 -1913.553)" fill="#dce736" stroke="#000" stroke-width="0.2"/>
                <path id="Trazado_204151" data-name="Trazado 204151" d="M325.157,1912.914c1.956-1.472,4.673-2.119,6.064-1.444s.933,2.416-1.023,3.888-4.672,2.119-6.064,1.444S323.2,1914.385,325.157,1912.914Z" transform="translate(-323.329 -1911.203)" fill="#dce736" stroke="#000" stroke-width="0.2"/>
                <g id="Grupo_151350" data-name="Grupo 151350" transform="translate(0.529 0.363)">
                  <path id="Trazado_204152" data-name="Trazado 204152" d="M325.8,1917.348a1.106,1.106,0,0,1-.7-.9c-.078-.741.532-1.675,1.633-2.5,1.72-1.287,4.094-1.88,5.295-1.328a1.105,1.105,0,0,1,.7.9c.078.741-.533,1.675-1.634,2.5a7.573,7.573,0,0,1-4.185,1.536A2.679,2.679,0,0,1,325.8,1917.348Zm1-3.309a3.188,3.188,0,0,0-1.589,2.4,1,1,0,0,0,.633.809c1.165.539,3.49-.052,5.179-1.316,1.053-.788,1.662-1.706,1.589-2.4a1,1,0,0,0-.634-.809,2.576,2.576,0,0,0-1.07-.2A7.452,7.452,0,0,0,326.8,1914.039Z" transform="translate(-325.095 -1912.414)" fill="#dce736" stroke="#000" stroke-width="0.2"/>
                </g>
                <g id="Grupo_151351" data-name="Grupo 151351" transform="translate(0.05 0.038)" style="mix-blend-mode: screen;isolation: isolate">
                  <path id="Trazado_204153" data-name="Trazado 204153" d="M324.3,1916.851a1.3,1.3,0,0,1-.8-1.052c-.08-.827.6-1.869,1.817-2.784,1.921-1.445,4.59-2.086,5.951-1.426a1.3,1.3,0,0,1,.8,1.059c.08.827-.6,1.865-1.808,2.777a8.289,8.289,0,0,1-4.627,1.688A3.091,3.091,0,0,1,324.3,1916.851Zm1.072-3.767c-1.193.9-1.859,1.909-1.781,2.706a1.212,1.212,0,0,0,.749.982c1.338.646,3.972.012,5.874-1.417,1.187-.894,1.85-1.9,1.773-2.7a1.222,1.222,0,0,0-.754-.989,3.005,3.005,0,0,0-1.3-.252A8.185,8.185,0,0,0,325.37,1913.084Z" transform="translate(-323.495 -1911.329)" fill="#dce736" stroke="#000" stroke-width="0.2"/>
                </g>
                <g id="Grupo_151354" data-name="Grupo 151354" style="isolation: isolate">
                  <g id="Grupo_151353" data-name="Grupo 151353" clip-path="url(#clip-path-8)">
                    <g id="Grupo_151352" data-name="Grupo 151352" transform="translate(2.181 1.697)">
                      <path id="Trazado_204154" data-name="Trazado 204154" d="M334.208,1918.323l-.649-.315a1.17,1.17,0,0,1,.5-.06c.258.052.249.215.152.374Zm-.253.272a1.687,1.687,0,0,1-.18.112l-.95-.46.29-.1.873.423-.033.026Zm-2.006-.42a1,1,0,0,1-.587.044c-.147-.066-.125-.2-.021-.338l.607.294Zm.735-.239c-.057.021-.1.037-.133.047l-.158.054-.818-.4.057-.045q.069-.052.146-.1l.906.439Zm-1.2-.936-.285.215.249.121c-.065.045-.133.093-.2.144l-.242-.117-.285.215.259.126c-.386.371-.52.764-.12.942a2.226,2.226,0,0,0,1.337-.174l.213-.074.975.473a1,1,0,0,1-.823-.087l-.469.335a1.557,1.557,0,0,0,1.7-.051l.293.142.285-.214-.248-.12c.057-.038.113-.077.167-.117l.033-.026s.244.116.244.116l.285-.214-.271-.132c.353-.361.533-.768.129-.937a3.256,3.256,0,0,0-1.586.23l-.966-.468a.94.94,0,0,1,.838.082l.453-.343a1.628,1.628,0,0,0-1.675.075l-.286-.139Z" transform="translate(-330.611 -1916.868)" fill="#dce736" stroke="#000" stroke-width="0.2"/>
                    </g>
                  </g>
                </g>
              </g>
            </g>
          </g>
        </g>
      </g>
    </g>
  </g>
</svg>
