<svg xmlns="http://www.w3.org/2000/svg" width="563.133" height="176.344" viewBox="0 0 563.133 176.344">
  <g id="Grupo_153079" data-name="Grupo 153079" transform="translate(-518 -1275)">
    <text id="_" data-name="+" transform="translate(905.321 1424.219)" fill="#12263f" font-size="64" font-family="Roboto-Bold, Roboto" font-weight="700"><tspan x="-17.469" y="0">+</tspan></text>
    <text id="_2" data-name="=" transform="translate(675.321 1367.344)" fill="#12263f" font-size="64" font-family="Roboto-Regular, Roboto"><tspan x="-17.563" y="67">=</tspan></text>
    <g id="Grupo_152998" data-name="Grupo 152998">
      <rect id="Rectángulo_44621" data-name="Rectángulo 44621" width="141.133" height="61.829" rx="5" transform="translate(519 1374.93)" fill="#fff" stroke="#4752e3" stroke-miterlimit="10" stroke-width="2"/>
      <g id="Rectángulo_44792" data-name="Rectángulo 44792" transform="translate(527 1275)" fill="#fff" stroke="#c6412a" stroke-width="5">
        <rect width="125" height="125" rx="62.5" stroke="none"/>
        <rect x="2.5" y="2.5" width="120" height="120" rx="60" fill="none"/>
      </g>
      <g id="activo-fijo" transform="translate(552.479 1300.065)">
        <g id="Grupo_152837" data-name="Grupo 152837" transform="translate(0 0)">
          <g id="Grupo_152835" data-name="Grupo 152835" transform="translate(1.207 1.207)">
            <g id="Grupo_152818" data-name="Grupo 152818" transform="translate(33.809)">
              <ellipse id="Elipse_20570" data-name="Elipse 20570" cx="19.319" cy="19.32" rx="19.319" ry="19.32" fill="#e6e9ed"/>
            </g>
            <g id="Grupo_152819" data-name="Grupo 152819" transform="translate(33.809 33.81)">
              <ellipse id="Elipse_20571" data-name="Elipse 20571" cx="19.319" cy="19.32" rx="19.319" ry="19.32" fill="#e6e9ed"/>
            </g>
            <g id="Grupo_152820" data-name="Grupo 152820" transform="translate(0 33.81)">
              <ellipse id="Elipse_20572" data-name="Elipse 20572" cx="19.319" cy="19.32" rx="19.319" ry="19.32" fill="#e6e9ed"/>
            </g>
            <g id="Grupo_152821" data-name="Grupo 152821">
              <ellipse id="Elipse_20573" data-name="Elipse 20573" cx="19.319" cy="19.32" rx="19.319" ry="19.32" fill="#e6e9ed"/>
            </g>
            <g id="Grupo_152822" data-name="Grupo 152822" transform="translate(50.713 60.375)">
              <path id="Trazado_210853" data-name="Trazado 210853" d="M13.2,15.6h7.245v4.83H13.2Z" transform="translate(-13.2 -15.6)" fill="#aab2bd"/>
            </g>
            <g id="Grupo_152823" data-name="Grupo 152823" transform="translate(43.468 55.545)">
              <path id="Trazado_210854" data-name="Trazado 210854" d="M33.134,14.4v3.622a1.211,1.211,0,0,1-1.207,1.207H12.607A1.211,1.211,0,0,1,11.4,18.022V14.4Z" transform="translate(-11.4 -14.4)" fill="#ccd1d9"/>
            </g>
            <g id="Grupo_152824" data-name="Grupo 152824" transform="translate(43.468 43.47)">
              <path id="Trazado_210855" data-name="Trazado 210855" d="M33.134,12.607V23.475H11.4v-9.66A12.044,12.044,0,0,0,13.815,11.4H31.927A1.211,1.211,0,0,1,33.134,12.607Z" transform="translate(-11.4 -11.4)" fill="#d2e1f1"/>
            </g>
            <g id="Grupo_152825" data-name="Grupo 152825" transform="translate(4.83 43.47)">
              <path id="Trazado_210856" data-name="Trazado 210856" d="M21.119,11.4v4.83H1.8V11.4Z" transform="translate(-1.8 -11.4)" fill="#6677d6"/>
            </g>
            <g id="Grupo_152826" data-name="Grupo 152826" transform="translate(7.245 48.3)">
              <path id="Trazado_210857" data-name="Trazado 210857" d="M12.06,22.26v9.66H2.4V12.6H16.889v9.66Z" transform="translate(-2.4 -12.6)" fill="#6677d6"/>
            </g>
            <g id="Grupo_152827" data-name="Grupo 152827" transform="translate(16.904 57.96)">
              <path id="Trazado_210858" data-name="Trazado 210858" d="M9.63,15h9.66v9.66H4.8V15Z" transform="translate(-4.8 -15)" fill="#e8e6c4"/>
            </g>
            <g id="Grupo_152828" data-name="Grupo 152828" transform="translate(38.639 9.66)">
              <path id="Trazado_210859" data-name="Trazado 210859" d="M39.179,11.235v3.84a2.422,2.422,0,0,1-2.415,2.415H34.349a2.415,2.415,0,1,0-4.83,0H19.86a2.415,2.415,0,1,0-4.83,0H12.615A2.422,2.422,0,0,1,10.2,15.075v-3.84a1.2,1.2,0,0,1,.966-1.183l5.071-1.014.821-4.093A2.416,2.416,0,0,1,19.425,3H29.954a2.416,2.416,0,0,1,2.367,1.944l.821,4.093,5.071,1.014A1.2,1.2,0,0,1,39.179,11.235Z" transform="translate(-10.2 -3)" fill="#c6412a"/>
            </g>
            <g id="Grupo_152829" data-name="Grupo 152829" transform="translate(57.958 21.735)">
              <ellipse id="Elipse_20574" data-name="Elipse 20574" cx="2.415" cy="2.415" rx="2.415" ry="2.415" fill="#969faa"/>
            </g>
            <g id="Grupo_152830" data-name="Grupo 152830" transform="translate(43.468 21.735)">
              <ellipse id="Elipse_20575" data-name="Elipse 20575" cx="2.415" cy="2.415" rx="2.415" ry="2.415" fill="#969faa"/>
            </g>
            <g id="Grupo_152831" data-name="Grupo 152831" transform="translate(12.075 16.905)">
              <path id="Trazado_210860" data-name="Trazado 210860" d="M18.089,4.8V15.667a1.211,1.211,0,0,1-1.207,1.207H13.26V9.63H8.43v7.245H4.807A1.211,1.211,0,0,1,3.6,15.667V4.8Z" transform="translate(-3.6 -4.8)" fill="#b8bee0"/>
            </g>
            <g id="Grupo_152832" data-name="Grupo 152832" transform="translate(9.66 7.245)">
              <path id="Trazado_210861" data-name="Trazado 210861" d="M21.74,9.15a1.63,1.63,0,0,1,.58,1.256,1.649,1.649,0,0,1-1.654,1.654H4.654A1.649,1.649,0,0,1,3,10.406,1.63,1.63,0,0,1,3.58,9.15l6.955-5.965a3.269,3.269,0,0,1,4.25,0Z" transform="translate(-3 -2.4)" fill="#daaba3"/>
            </g>
            <g id="Grupo_152833" data-name="Grupo 152833" transform="translate(16.904 21.735)">
              <path id="Trazado_210862" data-name="Trazado 210862" d="M4.8,6H9.63v7.245H4.8Z" transform="translate(-4.8 -6)" fill="#aab2bd"/>
            </g>
            <g id="Grupo_152834" data-name="Grupo 152834" transform="translate(24.149 24.15)">
              <path id="Trazado_210863" data-name="Trazado 210863" d="M30.616,16.9a12.283,12.283,0,0,1,.133,1.775,12.07,12.07,0,0,1-10.3,11.942,12.282,12.282,0,0,1-1.775.133A12.085,12.085,0,0,1,6.733,20.45,12.283,12.283,0,0,1,6.6,18.675,12.072,12.072,0,0,1,16.9,6.733,12.282,12.282,0,0,1,18.675,6.6,12.072,12.072,0,0,1,30.616,16.9Z" transform="translate(-6.6 -6.6)" fill="#ffef0f"/>
            </g>
          </g>
          <g id="Grupo_152836" data-name="Grupo 152836">
            <path id="Trazado_210864" data-name="Trazado 210864" d="M13.53,10.137V7.5H11.115V9.915H8.7v3.622a3.627,3.627,0,0,0,3.622,3.622,1.208,1.208,0,0,1,1.207,1.207v1.207H12.322a1.208,1.208,0,0,1-1.207-1.207V17.16H8.7v1.207a3.618,3.618,0,0,0,2.415,3.4V24.4H13.53V21.99h2.415V18.367a3.627,3.627,0,0,0-3.622-3.622,1.208,1.208,0,0,1-1.207-1.207V12.33h1.207a1.208,1.208,0,0,1,1.207,1.207v1.207h2.415V13.537A3.618,3.618,0,0,0,13.53,10.137Z" transform="translate(25.109 21.48)"/>
            <path id="Trazado_210865" data-name="Trazado 210865" d="M66.259,37.736A20.518,20.518,0,1,0,37.734,9.205,20.517,20.517,0,1,0,9.2,37.729,20.518,20.518,0,1,0,37.728,66.261,20.518,20.518,0,1,0,66.259,37.736ZM54.636,2.715a18.107,18.107,0,0,1,9.3,33.647,20.359,20.359,0,0,0-9.3-2.252,20.652,20.652,0,0,0-4.034.4,13.246,13.246,0,0,0-2.681-5.282,3.609,3.609,0,0,0,2.87-2.362h7.69a3.6,3.6,0,0,0,6.8,0H66.71a3.627,3.627,0,0,0,3.622-3.622V19.4a2.424,2.424,0,0,0-1.94-2.368l-4.278-.855-.662-3.306A3.632,3.632,0,0,0,59.9,9.96H49.371a3.63,3.63,0,0,0-3.551,2.911l-.663,3.307-4.279.855A2.424,2.424,0,0,0,38.939,19.4v3.841a3.6,3.6,0,0,0,.249,1.292,13.189,13.189,0,0,0-1.456-.085c-.281,0-.555.025-.832.042A18.108,18.108,0,0,1,54.636,2.715ZM53.428,65.5V63.09h4.83V65.5Zm-7.245-4.83V58.26H65.5v2.415ZM37.731,48.6A10.867,10.867,0,1,1,48.6,37.732,10.879,10.879,0,0,1,37.731,48.6Zm-15.7-19.32H19.619V24.45h2.415ZM17.2,22.035V29.28H14.789V19.62H26.864v9.66H24.449V22.035ZM28.832,17.2H12.821a.447.447,0,0,1-.291-.786l6.96-5.964a2.055,2.055,0,0,1,2.675,0l6.957,5.964a.447.447,0,0,1-.29.787ZM65.28,24.45a3.6,3.6,0,0,0-6.8,0H50.79a3.6,3.6,0,0,0-6.8,0H42.561a1.208,1.208,0,0,1-1.207-1.207V19.4L47.21,18.23l.978-4.887a1.208,1.208,0,0,1,1.183-.968H59.9a1.208,1.208,0,0,1,1.183.971l.978,4.886L67.919,19.4v3.84a1.208,1.208,0,0,1-1.207,1.207Zm-2.193,1.207A1.207,1.207,0,1,1,61.88,24.45,1.208,1.208,0,0,1,63.088,25.657Zm-16.9,0a1.207,1.207,0,1,1,1.207,1.207A1.208,1.208,0,0,1,46.183,25.657ZM65.5,55.845H46.183V47.971a13.418,13.418,0,0,0,1.786-1.786H65.5ZM2.715,20.827a18.106,18.106,0,0,1,33.645-9.3,20.379,20.379,0,0,0-2.251,9.3,20.654,20.654,0,0,0,.4,4.034,13.249,13.249,0,0,0-5.228,2.632v-7.92a2.854,2.854,0,0,0,1.415-4.989L23.737,8.622a4.584,4.584,0,0,0-5.819,0l-6.96,5.964a2.855,2.855,0,0,0,1.416,4.989v9.7a2.417,2.417,0,0,0,2.415,2.415H25.915a13.2,13.2,0,0,0-1.466,6.037c0,.281.025.555.042.832A18.108,18.108,0,0,1,2.715,20.827ZM11.527,39.1a20.359,20.359,0,0,0,9.3,2.252,20.652,20.652,0,0,0,4.034-.4,13.21,13.21,0,0,0,1.054,2.813H6.349A18.142,18.142,0,0,1,11.527,39.1ZM31.694,67.92H19.619V60.675H31.694ZM17.2,58.26v9.66H9.96v-16.9H22.034V58.26ZM7.545,48.6V46.185h16.9V48.6Zm-4.83,6.037A18.087,18.087,0,0,1,5.13,45.616v5.4H7.545v15.9A18.026,18.026,0,0,1,2.715,54.637Zm9.114,15.7H29.824a17.968,17.968,0,0,1-17.995,0Zm22.28-3.424V58.26h-9.66V51.015h2.415V45.346a13.269,13.269,0,0,0,10.867,5.669c.281,0,.555-.025.832-.042a18.216,18.216,0,0,1,.376,3.665A18.026,18.026,0,0,1,34.109,66.91ZM54.636,72.75A18.13,18.13,0,0,1,39.1,63.937a20.361,20.361,0,0,0,2.252-9.3,20.653,20.653,0,0,0-.4-4.034,13.209,13.209,0,0,0,2.813-1.054V60.675a2.417,2.417,0,0,0,2.415,2.415h4.83V65.5H48.6V67.92H63.088V65.5H60.673V63.09H65.5a2.417,2.417,0,0,0,2.415-2.415V46.185A2.417,2.417,0,0,0,65.5,43.77H49.547a13.2,13.2,0,0,0,1.466-6.037c0-.281-.025-.555-.042-.832A18.112,18.112,0,1,1,54.636,72.75Z" transform="translate(-0.3 -0.3)"/>
            <path id="Trazado_210866" data-name="Trazado 210866" d="M5.7,15.9H8.115v2.415H5.7Z" transform="translate(16.034 46.89)"/>
            <path id="Trazado_210867" data-name="Trazado 210867" d="M3.3,15.9H5.715v2.415H3.3Z" transform="translate(8.775 46.89)"/>
            <path id="Trazado_210868" data-name="Trazado 210868" d="M3.3,14.7H5.715v2.415H3.3Z" transform="translate(8.775 43.26)"/>
            <path id="Trazado_210869" data-name="Trazado 210869" d="M3.3,13.5H5.715v2.415H3.3Z" transform="translate(8.775 39.63)"/>
            <path id="Trazado_210870" data-name="Trazado 210870" d="M4.5,13.5H6.915v2.415H4.5Z" transform="translate(12.404 39.63)"/>
            <path id="Trazado_210871" data-name="Trazado 210871" d="M6.9,15.9H9.315v2.415H6.9Z" transform="translate(19.664 46.89)"/>
          </g>
        </g>
      </g>
    </g>
    <g id="Grupo_152999" data-name="Grupo 152999">
      <rect id="Rectángulo_44797" data-name="Rectángulo 44797" width="141.133" height="61.829" rx="5" transform="translate(729 1374.93)" fill="#fff" stroke="#4752e3" stroke-miterlimit="10" stroke-width="2"/>
      <g id="Rectángulo_44798" data-name="Rectángulo 44798" transform="translate(737 1275)" fill="#fff" stroke="#4e2e8e" stroke-width="5">
        <rect width="125" height="125" rx="62.5" stroke="none"/>
        <rect x="2.5" y="2.5" width="120" height="120" rx="60" fill="none"/>
      </g>
      <g id="pasivo" transform="translate(763.301 1299)">
        <g id="Icons" transform="translate(1.21 1.209)">
          <ellipse id="Elipse_20576" data-name="Elipse 20576" cx="12.075" cy="12.075" rx="12.075" ry="12.075" transform="translate(22.941 24.15)" fill="#ffef0f"/>
          <ellipse id="Elipse_20577" data-name="Elipse 20577" cx="12.075" cy="12.075" rx="12.075" ry="12.075" transform="translate(2.415 45.885)" fill="#ffef0f"/>
          <path id="Trazado_210874" data-name="Trazado 210874" d="M18.149,7.545h-2.2V24.692a12.2,12.2,0,0,0-4.83,0V7.545h-2.2a1.57,1.57,0,0,1-.906-2.729L12.631.662a1.312,1.312,0,0,1,1.811,0l4.612,4.154a1.57,1.57,0,0,1-.906,2.729Z" transform="translate(21.479 -0.3)" fill="#c6412a"/>
          <path id="Trazado_210875" data-name="Trazado 210875" d="M17.2,16.56v9.9a12.2,12.2,0,0,0-4.83,0v-9.9a1.207,1.207,0,0,0-1.207-1.207H7.545v2.2a1.57,1.57,0,0,1-2.729.906L.662,13.843a1.314,1.314,0,0,1,0-1.811L4.816,7.419a1.57,1.57,0,0,1,2.729.906v2.2h3.622A6.037,6.037,0,0,1,17.2,16.56Z" transform="translate(-0.3 19.665)" fill="#c6412a"/>
          <ellipse id="Elipse_20578" data-name="Elipse 20578" cx="12.075" cy="12.075" rx="12.075" ry="12.075" transform="translate(43.468 45.885)" fill="#ffef0f"/>
          <path id="Trazado_210877" data-name="Trazado 210877" d="M30.042,13.843l-4.154,4.613a1.57,1.57,0,0,1-2.729-.906v-2.2H19.537A1.207,1.207,0,0,0,18.33,16.56v9.9a12.2,12.2,0,0,0-4.83,0v-9.9a6.037,6.037,0,0,1,6.037-6.037H23.16v-2.2a1.57,1.57,0,0,1,2.729-.906l4.154,4.613A1.314,1.314,0,0,1,30.042,13.843Z" transform="translate(39.628 19.665)" fill="#c6412a"/>
        </g>
        <g id="Icons_copy" data-name="Icons copy" transform="translate(0 0)">
          <path id="Trazado_210878" data-name="Trazado 210878" d="M11.721,13.537a1.207,1.207,0,1,1,1.047-1.811,1.207,1.207,0,0,0,2.09-1.207,3.614,3.614,0,0,0-1.93-1.57V8.707a1.207,1.207,0,1,0-2.415,0V8.93a3.614,3.614,0,0,0,1.207,7.023,1.207,1.207,0,1,1-1.047,1.811,1.207,1.207,0,0,0-2.09,1.207,3.614,3.614,0,0,0,1.932,1.57v.242a1.207,1.207,0,1,0,2.415,0V20.56a3.614,3.614,0,0,0-1.21-7.023Z" transform="translate(24.505 22.689)"/>
          <path id="Trazado_210879" data-name="Trazado 210879" d="M32.265,37.434a13.3,13.3,0,0,0-9.66-12.767V9.662h.99a2.618,2.618,0,0,0,2.439-1.717,2.809,2.809,0,0,0-.724-3.113L20.711.686A2.515,2.515,0,0,0,17.27.674L12.654,4.832a2.806,2.806,0,0,0-.724,3.114,2.618,2.618,0,0,0,2.44,1.716h.991V24.667a13.282,13.282,0,1,0,16.9,12.767ZM16.568,7.247h-2.2c-.078,0-.141-.057-.185-.17a.417.417,0,0,1,.087-.454L18.9,2.455c.058-.053.113-.05.181.013l4.61,4.151a.419.419,0,0,1,.089.456c-.043.114-.106.17-.185.17H21.4a1.207,1.207,0,0,0-1.207,1.207V24.213c-.4-.036-.8-.062-1.207-.062s-.81.025-1.207.062V8.454A1.207,1.207,0,0,0,16.568,7.247ZM18.983,48.3A10.867,10.867,0,1,1,29.85,37.434,10.867,10.867,0,0,1,18.983,48.3Z" transform="translate(17.243 0.001)"/>
          <path id="Trazado_210880" data-name="Trazado 210880" d="M6.621,18.937a1.207,1.207,0,1,1,1.047-1.811,1.207,1.207,0,0,0,2.09-1.207,3.614,3.614,0,0,0-1.93-1.57v-.241a1.207,1.207,0,1,0-2.415,0v.222a3.614,3.614,0,0,0,1.207,7.023,1.207,1.207,0,1,1-1.047,1.811,1.207,1.207,0,0,0-2.09,1.207,3.614,3.614,0,0,0,1.932,1.57v.242a1.207,1.207,0,1,0,2.415,0V25.96a3.614,3.614,0,0,0-1.21-7.023Z" transform="translate(9.078 39.024)"/>
          <path id="Trazado_210881" data-name="Trazado 210881" d="M19.321,26.436V17.469a7.252,7.252,0,0,0-7.245-7.245H9.662v-.99A2.618,2.618,0,0,0,7.946,6.8a2.81,2.81,0,0,0-3.118.724l-4.142,4.6A2.514,2.514,0,0,0,.674,15.56l4.157,4.615a2.807,2.807,0,0,0,3.115.724,2.618,2.618,0,0,0,1.715-2.44v-.99h2.415v8.967a13.282,13.282,0,1,0,7.245,0ZM12.076,15.054H8.454a1.207,1.207,0,0,0-1.207,1.207v2.2c0,.078-.057.14-.17.184a.417.417,0,0,1-.454-.086L2.455,13.93c-.052-.056-.052-.111.013-.181L6.62,9.138a.42.42,0,0,1,.456-.088c.114.043.17.105.17.184v2.2a1.207,1.207,0,0,0,1.207,1.207h3.622a4.83,4.83,0,0,1,4.83,4.83v8.514c-.4-.036-.8-.062-1.207-.062s-.809.025-1.207.062V17.469A2.415,2.415,0,0,0,12.076,15.054ZM15.7,50.072A10.867,10.867,0,1,1,26.566,39.2,10.867,10.867,0,0,1,15.7,50.072Z" transform="translate(0.001 19.965)"/>
          <path id="Trazado_210882" data-name="Trazado 210882" d="M15.614,14.107v.222a3.614,3.614,0,0,0,1.207,7.023,1.207,1.207,0,1,1-1.047,1.811,1.207,1.207,0,0,0-2.09,1.207,3.614,3.614,0,0,0,1.932,1.57v.242a1.207,1.207,0,1,0,2.415,0V25.96a3.614,3.614,0,0,0-1.21-7.023,1.207,1.207,0,1,1,1.047-1.811,1.207,1.207,0,0,0,2.09-1.207,3.614,3.614,0,0,0-1.93-1.57v-.241a1.207,1.207,0,1,0-2.415,0Z" transform="translate(39.932 39.024)"/>
          <path id="Trazado_210883" data-name="Trazado 210883" d="M34.95,7.52A2.813,2.813,0,0,0,31.835,6.8a2.618,2.618,0,0,0-1.715,2.44v.99H27.705a7.252,7.252,0,0,0-7.245,7.245v8.967a13.282,13.282,0,1,0,7.245,0V17.471H30.12v.99A2.618,2.618,0,0,0,31.836,20.9a2.811,2.811,0,0,0,3.118-.724l4.142-4.6a2.514,2.514,0,0,0,.012-3.441Zm0,31.686A10.867,10.867,0,1,1,24.083,28.338,10.867,10.867,0,0,1,34.95,39.206Zm2.363-25.26-4.151,4.611a.423.423,0,0,1-.456.088c-.113-.043-.17-.105-.17-.184v-2.2a1.207,1.207,0,0,0-1.207-1.207H27.705a2.415,2.415,0,0,0-2.415,2.415v8.514c-.4-.036-.8-.062-1.207-.062s-.809.025-1.207.062V17.471a4.83,4.83,0,0,1,4.83-4.83h3.622a1.207,1.207,0,0,0,1.207-1.207v-2.2c0-.078.057-.14.17-.184a.424.424,0,0,1,.454.086l4.167,4.627C37.378,13.821,37.378,13.876,37.313,13.946Z" transform="translate(32.67 19.963)"/>
        </g>
      </g>
    </g>
    <g id="Grupo_153000" data-name="Grupo 153000">
      <rect id="Rectángulo_44799" data-name="Rectángulo 44799" width="141.133" height="61.829" rx="5" transform="translate(939 1374.93)" fill="#fff" stroke="#4752e3" stroke-miterlimit="10" stroke-width="2"/>
      <g id="Rectángulo_44800" data-name="Rectángulo 44800" transform="translate(947 1275)" fill="#fff" stroke="#fff34b" stroke-width="5">
        <rect width="125" height="125" rx="62.5" stroke="none"/>
        <rect x="2.5" y="2.5" width="120" height="120" rx="60" fill="none"/>
      </g>
      <g id="patrimonio" transform="translate(970.301 1299.265)">
        <g id="Grupo_152865" data-name="Grupo 152865" transform="translate(0 0)">
          <g id="Grupo_152863" data-name="Grupo 152863" transform="translate(1.207 1.207)">
            <g id="Grupo_152838" data-name="Grupo 152838" transform="translate(21.939 32.602)">
              <path id="Trazado_210884" data-name="Trazado 210884" d="M27.58,13.53,31.2,8.712l.954.314a14.455,14.455,0,0,1,8.778,8.126H19.128A1.211,1.211,0,0,0,17.92,18.36v8.5A14.389,14.389,0,0,0,13.09,27.9V25.6l-3.019,3.019L6.051,24.6a11.28,11.28,0,0,0,2.21-6.726,11.4,11.4,0,0,0-.423-3.067A25.623,25.623,0,0,1,16.713,8.7l3.622,4.83,3.622-3.622Z" transform="translate(-6.051 -8.7)" fill="#b8bee0"/>
            </g>
            <g id="Grupo_152839" data-name="Grupo 152839" transform="translate(39.846 31.407)">
              <path id="Trazado_210885" data-name="Trazado 210885" d="M17.745,9.61l-3.622,4.818L10.5,10.806l3.622-2.4Z" transform="translate(-10.5 -8.403)" fill="#6677d6"/>
            </g>
            <g id="Grupo_152840" data-name="Grupo 152840" transform="translate(32.601 31.395)">
              <path id="Trazado_210886" data-name="Trazado 210886" d="M15.945,10.815l-3.622,3.622L8.7,9.607a26.5,26.5,0,0,1,3.622-1.2V8.4Z" transform="translate(-8.7 -8.4)" fill="#6677d6"/>
            </g>
            <g id="Grupo_152841" data-name="Grupo 152841" transform="translate(20.527)">
              <path id="Trazado_210887" data-name="Trazado 210887" d="M9.322,7.845,7.68,6.2,5.7,4.222A12.376,12.376,0,0,1,14.442.6h10.65a13.212,13.212,0,0,1,7.039,24.391l-3.49,2.173V21.139L30.2,19.582a2.906,2.906,0,0,0,.857-2.065,2.361,2.361,0,0,0-.712-1.7,2.41,2.41,0,0,0-1.7-.712A4.849,4.849,0,0,0,23.8,10.26H11.737A2.433,2.433,0,0,1,9.322,7.845Z" transform="translate(-5.7 -0.6)" fill="#656d78"/>
            </g>
            <g id="Grupo_152842" data-name="Grupo 152842" transform="translate(19.319 5.603)">
              <path id="Trazado_210888" data-name="Trazado 210888" d="M12.645,6.049V7.462a8.682,8.682,0,0,1-.06.978L5.4,6.049A7.626,7.626,0,0,1,8.588,1.992L10.23,3.634a2.361,2.361,0,0,0,.712,1.7A2.361,2.361,0,0,0,12.645,6.049Z" transform="translate(-5.4 -1.992)" fill="#656d78"/>
            </g>
            <g id="Grupo_152843" data-name="Grupo 152843" transform="translate(43.468 60.375)">
              <path id="Trazado_210889" data-name="Trazado 210889" d="M40.379,15.6v4.83H11.4V15.6H40.379Z" transform="translate(-11.4 -15.6)" fill="#ccbf0c"/>
            </g>
            <g id="Grupo_152844" data-name="Grupo 152844" transform="translate(42.985 65.205)">
              <path id="Trazado_210890" data-name="Trazado 210890" d="M40.742,16.8v3.622a1.211,1.211,0,0,1-1.207,1.207H11.28a1.877,1.877,0,0,0,.483-1.207V16.8Z" transform="translate(-11.28 -16.8)" fill="#ccbf0c"/>
            </g>
            <g id="Grupo_152845" data-name="Grupo 152845" transform="translate(53.128 41.055)">
              <path id="Trazado_210891" data-name="Trazado 210891" d="M23.46,20.46A9.657,9.657,0,0,0,13.8,10.8H28.289a4.829,4.829,0,0,0,4.83,4.83v9.66a4.829,4.829,0,0,0-4.83,4.83H13.8A9.657,9.657,0,0,0,23.46,20.46Z" transform="translate(-13.8 -10.8)" fill="#ccbf0c"/>
            </g>
            <g id="Grupo_152846" data-name="Grupo 152846" transform="translate(33.809 41.055)">
              <path id="Trazado_210892" data-name="Trazado 210892" d="M18.66,20.46a9.657,9.657,0,0,0,9.66,9.66H18.66V24.082c0-2-3.779-3.622-8.452-3.622-.411,0-.821.012-1.207.048V15.63a4.829,4.829,0,0,0,4.83-4.83H28.319a9.657,9.657,0,0,0-9.66,9.66Z" transform="translate(-9 -10.8)" fill="#ccbf0c"/>
            </g>
            <g id="Grupo_152847" data-name="Grupo 152847" transform="translate(26.564 59.167)">
              <path id="Trazado_210893" data-name="Trazado 210893" d="M24.1,16.507V20.13c0,2-3.779,3.622-8.452,3.622S7.2,22.134,7.2,20.13V15.3c0,2,3.779,3.622,8.452,3.622S24.1,17.3,24.1,15.3Z" transform="translate(-7.2 -15.3)" fill="#ffc729"/>
            </g>
            <g id="Grupo_152848" data-name="Grupo 152848" transform="translate(26.564 50.715)">
              <path id="Trazado_210894" data-name="Trazado 210894" d="M15.652,13.2c4.673,0,8.452,1.618,8.452,3.622s-3.779,3.622-8.452,3.622S7.2,18.827,7.2,16.822c0-.99.918-1.884,2.415-2.536a14.389,14.389,0,0,1,4.83-1.038C14.831,13.212,15.242,13.2,15.652,13.2Z" transform="translate(-7.2 -13.2)" fill="#ffc729"/>
            </g>
            <g id="Grupo_152849" data-name="Grupo 152849" transform="translate(26.564 63.997)">
              <path id="Trazado_210895" data-name="Trazado 210895" d="M24.1,17.708V21.33a1.877,1.877,0,0,1-.483,1.207c-1.159,1.413-4.286,2.415-7.969,2.415-4.673,0-8.452-1.618-8.452-3.622V16.5c0,2,3.779,3.622,8.452,3.622S24.1,18.5,24.1,16.5Z" transform="translate(-7.2 -16.5)" fill="#fcd770"/>
            </g>
            <g id="Grupo_152850" data-name="Grupo 152850" transform="translate(26.564 54.337)">
              <path id="Trazado_210896" data-name="Trazado 210896" d="M24.1,14.1v4.83c0,2-3.779,3.622-8.452,3.622S7.2,20.934,7.2,18.93V14.1c0,2,3.779,3.622,8.452,3.622S24.1,16.1,24.1,14.1Z" transform="translate(-7.2 -14.1)" fill="#fcd770"/>
            </g>
            <g id="Grupo_152851" data-name="Grupo 152851" transform="translate(67.618 55.545)">
              <path id="Trazado_210897" data-name="Trazado 210897" d="M22.23,14.4v4.83H17.4A4.829,4.829,0,0,1,22.23,14.4Z" transform="translate(-17.4 -14.4)" fill="#a0d468"/>
            </g>
            <g id="Grupo_152852" data-name="Grupo 152852" transform="translate(33.809 41.055)">
              <path id="Trazado_210898" data-name="Trazado 210898" d="M10.207,10.8H13.83A4.829,4.829,0,0,1,9,15.63V12.007A1.211,1.211,0,0,1,10.207,10.8Z" transform="translate(-9 -10.8)" fill="#a0d468"/>
            </g>
            <g id="Grupo_152853" data-name="Grupo 152853" transform="translate(67.618 41.055)">
              <path id="Trazado_210899" data-name="Trazado 210899" d="M21.022,10.8H17.4a4.829,4.829,0,0,0,4.83,4.83V12.007A1.211,1.211,0,0,0,21.022,10.8Z" transform="translate(-17.4 -10.8)" fill="#a0d468"/>
            </g>
            <g id="Grupo_152854" data-name="Grupo 152854" transform="translate(43.468 41.055)">
              <ellipse id="Elipse_20579" data-name="Elipse 20579" cx="9.66" cy="9.66" rx="9.66" ry="9.66" fill="#ffef0f"/>
            </g>
            <g id="Grupo_152855" data-name="Grupo 152855" transform="translate(12.075 48.505)">
              <path id="Trazado_210900" data-name="Trazado 210900" d="M17.486,16.672,15.4,18.761a7.287,7.287,0,0,1-10.312,0L3.6,17.276h.724a11.346,11.346,0,0,0,9.14-4.625Z" transform="translate(-3.6 -12.651)" fill="#f0d0b4"/>
            </g>
            <g id="Grupo_152856" data-name="Grupo 152856" transform="translate(24.149 9.66)">
              <path id="Trazado_210901" data-name="Trazado 210901" d="M9.015,3H21.077a4.849,4.849,0,0,1,4.842,4.842,2.41,2.41,0,0,1,1.7.712,2.361,2.361,0,0,1,.712,1.7,2.906,2.906,0,0,1-.857,2.065L25.919,13.88V24.747L22.3,27.15l-3.622-2.415V21.6l-3.091.616a5.319,5.319,0,0,1-1.075.109A5.459,5.459,0,0,1,9.969,19.9H11.43a4.829,4.829,0,0,0,4.83-4.83H9.015V12.66L6.6,10.245A8.212,8.212,0,0,0,8.955,5.391a8.681,8.681,0,0,0,.06-.978Z" transform="translate(-6.6 -3)" fill="#f0d0b4"/>
            </g>
            <g id="Grupo_152857" data-name="Grupo 152857" transform="translate(26.564 21.735)">
              <path id="Trazado_210902" data-name="Trazado 210902" d="M7.2,6h7.245a4.829,4.829,0,0,1-4.83,4.83H8.154A5.436,5.436,0,0,1,7.2,7.751Z" transform="translate(-7.2 -6)" fill="#ff826e"/>
            </g>
            <g id="Grupo_152858" data-name="Grupo 152858" transform="translate(4.83 21.735)">
              <path id="Trazado_210903" data-name="Trazado 210903" d="M5.422,6A3.618,3.618,0,0,1,9.045,9.622a3.347,3.347,0,0,1-.217,1.207,3.426,3.426,0,0,1-.845,1.352,3.614,3.614,0,0,1-2.56,1.063H3.007a1.337,1.337,0,0,1-.229-.024A1.215,1.215,0,0,1,1.8,12.037V7.207A1.211,1.211,0,0,1,3.007,6H5.422Z" transform="translate(-1.8 -6)" fill="#f5e0cd"/>
            </g>
            <g id="Grupo_152859" data-name="Grupo 152859" transform="translate(9.66 12.075)">
              <path id="Trazado_210904" data-name="Trazado 210904" d="M12.66,6.015a12.02,12.02,0,0,1-2,6.641l-.411.6H5.415l-.254-.507A20.4,20.4,0,0,1,3.145,6.015,20.1,20.1,0,0,1,3,3.6a20.324,20.324,0,0,1,7.547,1.207A6.694,6.694,0,0,1,12.66,6.015Z" transform="translate(-3 -3.6)" fill="#d3a06c"/>
            </g>
            <g id="Grupo_152860" data-name="Grupo 152860" transform="translate(4.83 14.49)">
              <path id="Trazado_210905" data-name="Trazado 210905" d="M6.775,4.2a20.4,20.4,0,0,0,2.016,6.738l.254.507H4.215L1.8,6.615A4.363,4.363,0,0,1,5.712,4.2Z" transform="translate(-1.8 -4.2)" fill="#cf9e76"/>
            </g>
            <g id="Grupo_152861" data-name="Grupo 152861" transform="translate(8.452 21.735)">
              <path id="Trazado_210906" data-name="Trazado 210906" d="M6.322,6h4.83v4.83H6.105a3.347,3.347,0,0,0,.217-1.207A3.618,3.618,0,0,0,2.7,6Z" transform="translate(-2.7 -6)" fill="#fcd770"/>
            </g>
            <g id="Grupo_152862" data-name="Grupo 152862" transform="translate(0 26.565)">
              <path id="Trazado_210907" data-name="Trazado 210907" d="M12.675,33.765H11.95A11.344,11.344,0,0,1,2.218,16.582l4.19-6.991a1.337,1.337,0,0,0,.229.024H9.052a3.614,3.614,0,0,0,2.56-1.063A3.426,3.426,0,0,0,12.457,7.2H17.5l5.627,9.382a11.684,11.684,0,0,1,1.2,2.765,11.4,11.4,0,0,1,.423,3.067A11.355,11.355,0,0,1,13.4,33.765Z" transform="translate(-0.6 -7.2)" fill="#cf9e76"/>
            </g>
          </g>
          <g id="Grupo_152864" data-name="Grupo 152864">
            <path id="Trazado_210908" data-name="Trazado 210908" d="M72.747,41.355H59.085a15.694,15.694,0,0,0-9.157-8.067l-3.744-1.245v-3.3L49.1,26.918a14.264,14.264,0,0,0,6.741-12.163A14.45,14.45,0,0,0,41.43.3H30.78a13.485,13.485,0,0,0-9.6,3.976l-.855.854,1.857,1.857a8.879,8.879,0,0,0-2.5,3.8L19.3,11.932l7.322,2.439A7.067,7.067,0,0,1,24.8,17.559l-.855.854,2.915,2.915v3.666a6.705,6.705,0,0,0,8.015,6.572l1.645-.33v.751a26.828,26.828,0,0,0-10.818,6.079,12.371,12.371,0,0,0-.632-1.234l-5.455-9.094v-4.13l.2-.3A13.139,13.139,0,0,0,22.034,16v-.5l-.354-.354c-.283-.283-2.986-2.769-10.513-2.769H9.96v1.207c0,.408.012.817.036,1.224a5.538,5.538,0,0,0-4.738,3.065l-.27.541,1.868,3.735a2.41,2.41,0,0,0-1.725,2.3v4.83A2.39,2.39,0,0,0,5.7,30.816L2.088,36.832A12.555,12.555,0,0,0,12.854,55.845h.227l1.134,1.134a8.5,8.5,0,0,0,12.015,0l.634-.634v13.99c0,3.171,4.859,4.83,9.66,4.83,3.377,0,6.775-.825,8.5-2.415H72.747a2.417,2.417,0,0,0,2.415-2.415V43.77a2.417,2.417,0,0,0-2.415-2.415Zm0,4.608a3.619,3.619,0,0,1-2.193-2.193h2.193ZM36.524,53.43c4.494,0,7.245,1.564,7.245,2.415s-2.751,2.415-7.245,2.415-7.245-1.564-7.245-2.415S32.03,53.43,36.524,53.43Zm0-4.952a6.056,6.056,0,0,0,4.708-4.708h6.588a10.849,10.849,0,0,0-4.051,8.452c0,.112.013.22.017.331a15.906,15.906,0,0,0-7.262-1.538Zm0-2.515V43.77h2.193a3.619,3.619,0,0,1-2.193,2.193Zm26.564,6.26a8.452,8.452,0,1,1-8.452-8.452A8.463,8.463,0,0,1,63.088,52.222Zm-16.9,6.816a10.974,10.974,0,0,0,1.636,1.636H46.183Zm0,4.051H72.747V65.5H46.183Zm24.371-2.415a3.619,3.619,0,0,1,2.193-2.193v2.193Zm-2.515,0H61.452a10.844,10.844,0,0,0,0-16.9H68.04a6.056,6.056,0,0,0,4.708,4.708v7.489a6.056,6.056,0,0,0-4.708,4.708ZM46.62,34.734,44.844,37.1,43.25,35.508l1.9-1.262ZM30.779,2.715h10.65a12.033,12.033,0,0,1,12,12.04,11.858,11.858,0,0,1-5.607,10.116l-1.637,1.023V22.547l1.207-1.206A4.1,4.1,0,0,0,48.6,18.424a3.631,3.631,0,0,0-2.5-3.446A6.061,6.061,0,0,0,40.134,9.96H28.072a1.207,1.207,0,0,1,0-2.415h1.207V5.13H28.072a3.608,3.608,0,0,0-2.88,1.449l-1.4-1.4a11.074,11.074,0,0,1,6.991-2.46ZM23.9,8.7l.607.607a3.6,3.6,0,0,0,1.3,2.245l-3.339-1.113A6.46,6.46,0,0,1,23.9,8.7Zm6.589,18.163h-.758a4.226,4.226,0,0,1-.449-1.872V24.45H33.9A3.629,3.629,0,0,1,30.486,26.865Zm9.9,3.6L39.908,28.1l-5.5,1.1a4.087,4.087,0,0,1-2.258-.177,6.028,6.028,0,0,0,4.378-5.777V22.035H29.279V20.328l-1.971-1.971a9.53,9.53,0,0,0,1.971-5.774v-.208H40.134a3.64,3.64,0,0,1,3.634,3.635v1.207h1.207a1.208,1.208,0,0,1,1.207,1.207,1.7,1.7,0,0,1-.5,1.209l-1.915,1.914v10.72l-2.414,1.6-2.416-1.612v-1.5Zm-2.845,3.761,1.92,1.28-1.6,1.6-1.818-2.425c.493-.167.991-.315,1.495-.452Zm-3.816,1.383L37.6,40.779l3.754-3.754,3.753,3.753,3.929-5.242.13.043a13.274,13.274,0,0,1,7.182,5.774H36.524a2.417,2.417,0,0,0-2.415,2.415V51.16a17.28,17.28,0,0,0-2.415.458V43.77H29.279v6.745l-1.811,1.811-2.475-2.475a12.148,12.148,0,0,0,1.556-9.229,24.449,24.449,0,0,1,7.174-5.015ZM19.6,16.584a10.736,10.736,0,0,1-1.791,5.379l-.047.071H14.338a19.364,19.364,0,0,1-1.923-7.22C16.644,15,18.805,16.075,19.6,16.584ZM7.545,29.28V24.45H9.96a2.415,2.415,0,0,1,0,4.83Zm9.66-4.83v2.415H14.789a4.793,4.793,0,0,0-.648-2.415ZM10.245,17.2h.025a21.851,21.851,0,0,0,1.409,4.83H9.5L7.715,18.469a3.142,3.142,0,0,1,2.53-1.264ZM2.715,43.29a10.145,10.145,0,0,1,1.444-5.215l3.828-6.38H9.96a4.833,4.833,0,0,0,4.181-2.415h3.587l5.277,8.794A10.14,10.14,0,0,1,14.31,53.43H12.855A10.153,10.153,0,0,1,2.715,43.29ZM20.223,57.052a6.015,6.015,0,0,1-3.83-1.395,12.526,12.526,0,0,0,7.126-3.864l2.241,2.241-1.238,1.238a6.043,6.043,0,0,1-4.3,1.78Zm9.056,2.091a15.917,15.917,0,0,0,7.245,1.531,15.917,15.917,0,0,0,7.245-1.531v1.531c0,.851-2.751,2.415-7.245,2.415s-7.245-1.564-7.245-2.415Zm0,4.83A15.917,15.917,0,0,0,36.524,65.5a15.917,15.917,0,0,0,7.245-1.531V65.5c0,.851-2.751,2.415-7.245,2.415s-7.245-1.564-7.245-2.415Zm7.245,8.776c-4.494,0-7.245-1.564-7.245-2.415V68.8a15.917,15.917,0,0,0,7.245,1.531A15.917,15.917,0,0,0,43.768,68.8v1.531C43.768,71.186,41.018,72.75,36.524,72.75Zm9.66-2.415V67.92H72.747v2.415Z" transform="translate(-0.3 -0.3)"/>
            <path id="Trazado_210909" data-name="Trazado 210909" d="M7.53,25.6V23.19H9.945V19.567a3.627,3.627,0,0,0-3.622-3.622,1.208,1.208,0,0,1-1.207-1.207V13.53H6.322A1.208,1.208,0,0,1,7.53,14.737v1.207H9.945V14.737a3.618,3.618,0,0,0-2.415-3.4V8.7H5.115v2.415H2.7v3.622A3.627,3.627,0,0,0,6.322,18.36,1.208,1.208,0,0,1,7.53,19.567v1.207H6.322a1.208,1.208,0,0,1-1.207-1.207V18.36H2.7v1.207a3.618,3.618,0,0,0,2.415,3.4V25.6Z" transform="translate(6.96 25.11)"/>
            <path id="Trazado_210910" data-name="Trazado 210910" d="M12.93,5.107a1.207,1.207,0,1,1-2.415,0V3.9H8.1V5.107a3.622,3.622,0,1,0,7.245,0V3.9H12.93Z" transform="translate(23.294 10.59)"/>
          </g>
        </g>
      </g>
    </g>
    <text id="ACTIVO_" data-name="ACTIVO
" transform="translate(549.5 1407.76)" fill="#12263f" font-size="16" font-family="Roboto-Bold, Roboto" font-weight="700"><tspan x="11.922" y="17">ACTIVO</tspan></text>
    <text id="PASIVO_" data-name="PASIVO
" transform="translate(759.5 1407.76)" fill="#12263f" font-size="16" font-family="Roboto-Bold, Roboto" font-weight="700"><tspan x="12.61" y="17">PASIVO</tspan></text>
    <text id="PATRIMONIO_" data-name="PATRIMONIO
" transform="translate(956.156 1407.76)" fill="#12263f" font-size="16" font-family="Roboto-Bold, Roboto" font-weight="700"><tspan x="5.61" y="17">PATRIMONIO</tspan></text>
  </g>
</svg>
