<svg xmlns="http://www.w3.org/2000/svg" width="374" height="304.801" viewBox="0 0 374 304.801">
  <g id="Grupo_153080" data-name="Grupo 153080" transform="translate(-370 -1558)">
    <rect id="BG" width="374" height="304.801" transform="translate(744 1862.801) rotate(180)" fill="#e8e8e8" opacity="0.997"/>
    <g id="Grupo_109691" data-name="Grupo 109691" transform="translate(380.192 1416.901)">
      <g id="Grupo_109690" data-name="Grupo 109690" transform="translate(35.696 177.101)">
        <g id="Grupo_109689" data-name="Grupo 109689">
          <g id="Grupo_109673" data-name="Grupo 109673" transform="translate(74.578 17.605)">
            <path id="Trazado_160159" data-name="Trazado 160159" d="M157.383,383.8H86.961c-9.949,0-6.887-5.363,7.656-10.72s20.669-10.717,22.2-21.428-10.718-11.487-3.831-25.264,2.3-28.322,2.3-33.68-3.064-3.83-4.594-9.949-.769-14.548.763-22.2,3.062-10.717,4.594-23.729-7.651-13.011-9.183-15.312,12.245-6.887,12.245-6.887-1.532-1.532,0-6.126a16.244,16.244,0,0,0,.874-4.627,20.551,20.551,0,0,0-.408-4.515c-.141-.756-.3-1.53-.466-2.339a56.622,56.622,0,0,1-.763-8.9v-.287H126s0,.1,0,.28a55.451,55.451,0,0,1-.763,8.906c-.162.809-.326,1.583-.459,2.339a20.065,20.065,0,0,0-.41,4.515,16.224,16.224,0,0,0,.869,4.627c1.532,4.594,0,6.126,0,6.126s13.78,4.594,12.248,6.887-10.717,2.3-9.186,15.312,3.062,16.075,4.594,23.729,2.293,16.076.763,22.2-4.592,4.587-4.592,9.949-4.589,19.9,2.3,33.68-5.357,14.545-3.825,25.264,7.649,16.073,22.194,21.428S167.334,383.8,157.383,383.8Z" transform="translate(-81.167 -187.835)" fill="#f85316"/>
          </g>
          <path id="Trazado_160160" data-name="Trazado 160160" d="M115.215,187.341a6.459,6.459,0,0,1-1.947,4.633,5.716,5.716,0,0,1-.735.622,6.484,6.484,0,0,1-7.65.007,6.833,6.833,0,0,1-.735-.623,6.479,6.479,0,0,1-1.947-4.638,6.762,6.762,0,0,1,.107-1.178,6.508,6.508,0,0,1,12.8,0A6.762,6.762,0,0,1,115.215,187.341Z" transform="translate(6.876 -174.711)" fill="#3d46c2"/>
          <g id="Grupo_109674" data-name="Grupo 109674" transform="translate(111.377)">
            <path id="Trazado_160161" data-name="Trazado 160161" d="M112.023,182.076a5.62,5.62,0,0,1-.487,2.322,3.937,3.937,0,0,1-7.443,0,5.594,5.594,0,0,1-.489-2.322c0-2.749,1.884-4.974,4.207-4.974S112.023,179.327,112.023,182.076Z" transform="translate(-103.604 -177.101)" fill="#3d46c2"/>
          </g>
          <path id="Trazado_160162" data-name="Trazado 160162" d="M124.259,197.134c0,1.133-4.671,2.075-10.818,2.26-.712.023-1.447.034-2.193.034s-1.476-.011-2.188-.034c-6.147-.179-10.825-1.12-10.825-2.26,0-1.11,4.471-2.04,10.416-2.255.835-.028,1.7-.044,2.6-.044s1.761.016,2.6.044C119.789,195.094,124.259,196.024,124.259,197.134Z" transform="translate(4.336 -165.749)" fill="#3d46c2"/>
          <g id="Grupo_109688" data-name="Grupo 109688" transform="translate(0 8.71)">
            <g id="Grupo_109687" data-name="Grupo 109687">
              <g id="Grupo_109680" data-name="Grupo 109680">
                <g id="Grupo_109675" data-name="Grupo 109675" transform="translate(39.038)">
                  <path id="Trazado_160163" data-name="Trazado 160163" d="M134.146,190.542c-.559.161-14.727,2.732-25.9-1.263-10.913-3.9-15.071-4.9-22.565,1.914-3.384,3.069-6.7,4.432-9.852,4.048a8.717,8.717,0,0,1-4.676-2.142,15.785,15.785,0,0,1-3.521,1.829,9.222,9.222,0,0,1-1.094.321,6.844,6.844,0,0,1-1.624.2,5.059,5.059,0,0,1-2.006-.39c-1.991-.835-3.129-2.81-3.384-5.888l-.023-.236.038-.238c.453-2.695,2.014-4.555,4.287-5.106a6.659,6.659,0,0,1,6.79,2.741l-3.062,2.3a2.953,2.953,0,0,0-2.824-1.317,1.584,1.584,0,0,0-1.01.8,2.6,2.6,0,0,0-.216,1.871c.187.836.492,1.383.874,1.545a1.783,1.783,0,0,0,.979.054,5.91,5.91,0,0,0,1.1-.307,14.538,14.538,0,0,0,3.7-2.2l1.63-1.363,1.186,1.768a5.065,5.065,0,0,0,3.323,1.96c2,.253,4.287-.789,6.813-3.077,9.139-8.314,15.347-6.638,26.422-2.68,9.982,3.559,22.191-1.224,22.322-1.263Z" transform="translate(-59.498 -182.412)" fill="#3d46c2"/>
                </g>
                <g id="Grupo_109676" data-name="Grupo 109676" transform="translate(3.302 10.273)">
                  <rect id="Rect치ngulo_41263" data-name="Rect치ngulo 41263" width="119.528" height="1.148" transform="translate(0 112.443) rotate(-70.174)" fill="#12263f"/>
                </g>
                <g id="Grupo_109677" data-name="Grupo 109677" transform="translate(44.594 9.61)">
                  <rect id="Rect치ngulo_41264" data-name="Rect치ngulo 41264" width="1.148" height="116.774" transform="translate(0 0.166) rotate(-8.292)" fill="#12263f"/>
                </g>
                <g id="Grupo_109678" data-name="Grupo 109678" transform="translate(43.363 8.866)">
                  <path id="Trazado_160164" data-name="Trazado 160164" d="M99.689,301.679l-1.087.353L63.314,191.789l-1.179-3.666a5.861,5.861,0,0,0,1.1-.307l1.171,3.651Z" transform="translate(-62.135 -187.817)" fill="#12263f"/>
                </g>
                <g id="Grupo_109679" data-name="Grupo 109679" transform="translate(0 120.655)">
                  <path id="Trazado_160165" data-name="Trazado 160165" d="M109.311,268.989H44.751a9.054,9.054,0,0,1-9.055-9.055v-3.958h82.67v3.958A9.055,9.055,0,0,1,109.311,268.989Z" transform="translate(-35.696 -255.976)" fill="#3d46c2"/>
                </g>
              </g>
              <g id="Grupo_109686" data-name="Grupo 109686" transform="translate(117.485 0.001)">
                <g id="Grupo_109681" data-name="Grupo 109681" transform="translate(68.745 10.274)">
                  <path id="Trazado_160166" data-name="Trazado 160166" d="M190.893,301.113l-1.077.388-.88-2.446L150.09,191.425l-.269-.751-.42-1.172-.158-.432.231-.085.853-.308.073.2.846,2.345,38.907,107.832Z" transform="translate(-149.243 -188.676)" fill="#12263f"/>
                </g>
                <g id="Grupo_109682" data-name="Grupo 109682" transform="translate(51.112 9.606)">
                  <path id="Trazado_160167" data-name="Trazado 160167" d="M156.473,188.438l-.118.807-.073.516-.28,1.907-.393,2.676-15.3,104.972-.684,4.677-1.138-.168.656-4.509,14.33-98.3,1-6.864.392-2.687.466-3.2.982.147Z" transform="translate(-138.492 -188.269)" fill="#12263f"/>
                </g>
                <g id="Grupo_109683" data-name="Grupo 109683" transform="translate(32.766 9.063)">
                  <path id="Trazado_160168" data-name="Trazado 160168" d="M164.861,188.045l-.42,1.306-.579,1.8-.179.566-.062.19-.853,2.654-2.131,6.674-31.466,98.3-.779,2.427-1.087-.354.661-2.073,33.67-105.163.83-2.591.123-.382.886-2.765.174-.549a1.438,1.438,0,0,0,.663-.084.886.886,0,0,0,.089-.056A2.675,2.675,0,0,0,164.861,188.045Z" transform="translate(-127.306 -187.938)" fill="#12263f"/>
                </g>
                <g id="Grupo_109684" data-name="Grupo 109684" transform="translate(31.016 120.654)">
                  <path id="Trazado_160169" data-name="Trazado 160169" d="M208.9,255.976v3.477a9.533,9.533,0,0,1-9.534,9.534h-63.6a9.533,9.533,0,0,1-9.534-9.534v-3.477Z" transform="translate(-126.239 -255.976)" fill="#3d46c2"/>
                </g>
                <g id="Grupo_109685" data-name="Grupo 109685">
                  <path id="Trazado_160170" data-name="Trazado 160170" d="M181.975,188.933l-.023.236c-.253,3.08-1.392,5.053-3.382,5.89a4.228,4.228,0,0,1-.494.174,4.861,4.861,0,0,1-1.156.2c-.118,0-.241.011-.359.011a1.173,1.173,0,0,1-.151-.007,4.221,4.221,0,0,1-.459-.021,4.715,4.715,0,0,1-.7-.107c-.107-.016-.208-.039-.315-.062a1.139,1.139,0,0,1-.123-.033,8.435,8.435,0,0,1-.971-.287,15.781,15.781,0,0,1-3.521-1.834,8.719,8.719,0,0,1-4.678,2.149c-3.152.381-6.467-.982-9.855-4.049-7.492-6.815-11.648-5.811-22.563-1.919-8.412,3.013-18.525,2.295-23.242,1.689-1.553-.2-2.524-.382-2.659-.422l2.295-6.124c.034.012.846.325,2.2.735,3.981,1.2,12.67,3.185,20.118.526,11.077-3.959,17.28-5.631,26.422,2.682,2.524,2.288,4.812,3.325,6.815,3.074a5.052,5.052,0,0,0,3.32-1.958l1.191-1.766,1.625,1.363a14.661,14.661,0,0,0,3.7,2.2,5.677,5.677,0,0,0,1.1.3,1.641,1.641,0,0,0,.32.033,1.438,1.438,0,0,0,.663-.084.888.888,0,0,0,.089-.056,2.258,2.258,0,0,0,.781-1.492,2.588,2.588,0,0,0-.213-1.866,1.587,1.587,0,0,0-1.01-.8,2.954,2.954,0,0,0-2.826,1.314l-3.062-2.295a6.663,6.663,0,0,1,6.792-2.742c2.272.554,3.836,2.411,4.284,5.109Z" transform="translate(-107.328 -182.412)" fill="#3d46c2"/>
                </g>
              </g>
            </g>
          </g>
        </g>
      </g>
      <path id="Trazado_160171" data-name="Trazado 160171" d="M217.725,306.465,178.818,198.633a4.228,4.228,0,0,0,.494-.174c1.989-.836,3.129-2.81,3.382-5.89l.023-.236-.041-.235c-.448-2.7-2.012-4.555-4.284-5.109a6.663,6.663,0,0,0-6.792,2.742l3.062,2.295a2.954,2.954,0,0,1,2.826-1.314,1.587,1.587,0,0,1,1.01.8,2.588,2.588,0,0,1,.213,1.866,2.258,2.258,0,0,1-.781,1.492.886.886,0,0,1-.089.056,1.438,1.438,0,0,1-.663.084,1.642,1.642,0,0,1-.32-.033,5.677,5.677,0,0,1-1.1-.3,14.661,14.661,0,0,1-3.7-2.2l-1.625-1.363-1.191,1.766a5.052,5.052,0,0,1-3.32,1.958c-2,.251-4.291-.786-6.815-3.074-9.142-8.312-15.345-6.641-26.422-2.682-7.448,2.659-16.137.669-20.118-.526a6.5,6.5,0,0,0-2.675-4.156,5.62,5.62,0,0,0,.487-2.322c0-2.749-1.885-4.974-4.212-4.974V390.667h35.21c9.951,0,6.889-5.363-7.654-10.72s-20.667-10.717-22.194-21.428,10.713-11.487,3.825-25.264-2.3-28.322-2.3-33.68,3.06-3.83,4.592-9.949.768-14.548-.763-22.2-3.064-10.717-4.594-23.729,7.656-13.011,9.186-15.312-12.248-6.887-12.248-6.887,1.532-1.532,0-6.126a16.224,16.224,0,0,1-.869-4.627c6.147-.185,10.818-1.127,10.818-2.26,0-1.11-4.469-2.04-10.408-2.255.133-.756.3-1.53.459-2.339a55.451,55.451,0,0,0,.763-8.906,5.716,5.716,0,0,0,.735-.622c4.717.605,14.83,1.324,23.242-1.689,10.915-3.892,15.071-4.9,22.563,1.919,3.388,3.067,6.7,4.43,9.855,4.049a8.719,8.719,0,0,0,4.678-2.149,15.781,15.781,0,0,0,3.521,1.834,8.435,8.435,0,0,0,.971.287l-.392,2.686-18.624,58.17L141.5,306.465h-2.411v3.477a9.533,9.533,0,0,0,9.534,9.534h63.6a9.533,9.533,0,0,0,9.534-9.534v-3.477Zm-75.022,0,31.466-98.3-14.33,98.3Zm18.3,0,15.3-104.973.853-2.654a1.174,1.174,0,0,0,.151.007c.118,0,.241-.007.359-.011l38.846,107.631Z" transform="translate(45.111 0)" fill="#fff" opacity="0.151"/>
    </g>
  </g>
</svg>
