<svg xmlns="http://www.w3.org/2000/svg" width="1030" height="843" viewBox="0 0 1030 843">
  <g id="Grupo_153071" data-name="Grupo 153071" transform="translate(-285 -2335.999)">
    <g id="Grupo_153033" data-name="Grupo 153033" transform="translate(0 -256.816)">
      <g id="Rectángulo_41132" data-name="Rectángulo 41132" transform="translate(285 2635.815)" fill="#fff" stroke="#4e2e8e" stroke-width="4">
        <rect width="505" height="800" rx="25" stroke="none"/>
        <rect x="2" y="2" width="501" height="796" rx="23" fill="none"/>
      </g>
      <g id="Rectángulo_41133" data-name="Rectángulo 41133" transform="translate(810 2635.815)" fill="#fff" stroke="#4e2e8e" stroke-width="4">
        <rect width="505" height="800" rx="25" stroke="none"/>
        <rect x="2" y="2" width="501" height="796" rx="23" fill="none"/>
      </g>
      <g id="Rectángulo_40326" data-name="Rectángulo 40326" transform="translate(338 2592.815)" fill="#b8bee0" stroke="#6677d6" stroke-width="4">
        <rect width="400" height="86" rx="43" stroke="none"/>
        <rect x="2" y="2" width="396" height="82" rx="41" fill="none"/>
      </g>
      <g id="Rectángulo_41122" data-name="Rectángulo 41122" transform="translate(863 2592.815)" fill="#b8bee0" stroke="#6677d6" stroke-width="4">
        <rect width="400" height="86" rx="43" stroke="none"/>
        <rect x="2" y="2" width="396" height="82" rx="41" fill="none"/>
      </g>
      <text id="Usuarios_internos" data-name="Usuarios internos" transform="translate(401 2621.815)" fill="#12263f" font-size="24" font-family="Roboto-Black, Roboto" font-weight="800"><tspan x="41.605" y="25">Usuarios internos</tspan></text>
      <text id="Usuarios_externos" data-name="Usuarios externos" transform="translate(926 2621.815)" fill="#12263f" font-size="24" font-family="Roboto-Black, Roboto" font-weight="800"><tspan x="38.963" y="25">Usuarios externos</tspan></text>
      <rect id="Rectángulo_37072" data-name="Rectángulo 37072" width="190" height="104.245" rx="13.071" transform="translate(862.5 2699.791)" fill="#ffef0f"/>
      <rect id="Rectángulo_41123" data-name="Rectángulo 41123" width="190" height="104.245" rx="13.071" transform="translate(1072.5 2699.791)" fill="#ffef0f"/>
      <path id="Unión_11" data-name="Unión 11" d="M8436.19,11721.295h-33.661l.159,9.12-26.422-14.752,25.892-15.664.17,9.735h33.862V11700l26.16,15.208-26.16,15.211Z" transform="translate(-7356.809 -8963.297)" fill="#c6412a"/>
      <text id="Relacionados_contractualmente_con_la_empresa." data-name="Relacionados contractualmente con la empresa." transform="translate(882.5 2719.654)" fill="#12263f" font-size="16" font-family="Roboto-Bold, Roboto" font-weight="700"><tspan x="16.43" y="17">Relacionados </tspan><tspan x="1.512" y="39">contractualmente </tspan><tspan x="7.707" y="61">con la empresa.</tspan></text>
      <text id="Tienen_un_vínculo_con_la_organización._Responsables_de_la_gestión._Requieren_información_constante._" data-name="Tienen un vínculo con la organización.
Responsables de la gestión.
Requieren información constante.
" transform="translate(345.5 3105.257)" fill="#12263f" font-size="16" font-family="Roboto-Bold, Roboto" font-weight="700"><tspan x="53.93" y="17">Tienen un vínculo con la organización.</tspan><tspan x="91.109" y="42">Responsables de la gestión.</tspan><tspan x="69.887" y="67">Requieren información constante.</tspan></text>
      <text id="Podrían_necesitar_conocer_la_información_financiera_de_la_empresa." data-name="Podrían necesitar conocer la información financiera de la empresa." transform="translate(915 3350.218)" fill="#12263f" font-size="16" font-family="Roboto-Bold, Roboto" font-weight="700"><tspan x="4.121" y="17">Podrían necesitar conocer la información </tspan><tspan x="61.734" y="42">financiera de la empresa.</tspan></text>
      <text id="No_relacionados_contractualmente_con_la_empresa." data-name="No relacionados contractualmente con la empresa." transform="translate(1111.5 2719.654)" fill="#12263f" font-size="16" font-family="Roboto-Bold, Roboto" font-weight="700"><tspan x="6.453" y="17">No relacionados </tspan><tspan x="1.512" y="39">contractualmente </tspan><tspan x="7.707" y="61">con la empresa.</tspan></text>
      <rect id="Rectángulo_40143" data-name="Rectángulo 40143" width="230" height="55.786" rx="5" transform="translate(413 2838.188)" fill="#d9ddf5" stroke="#6677d6" stroke-miterlimit="10" stroke-width="2"/>
      <rect id="Rectángulo_41126" data-name="Rectángulo 41126" width="230" height="55.786" rx="5" transform="translate(948.5 2838.188)" fill="#d9ddf5" stroke="#6677d6" stroke-miterlimit="10" stroke-width="2"/>
      <rect id="Rectángulo_41129" data-name="Rectángulo 41129" width="230" height="55.786" rx="5" transform="translate(948.5 3086.971)" fill="#d9ddf5" stroke="#6677d6" stroke-miterlimit="10" stroke-width="2"/>
      <rect id="Rectángulo_41124" data-name="Rectángulo 41124" width="230" height="55.786" rx="5" transform="translate(413 2921.115)" fill="#d9ddf5" stroke="#6677d6" stroke-miterlimit="10" stroke-width="2"/>
      <rect id="Rectángulo_41127" data-name="Rectángulo 41127" width="230" height="55.786" rx="5" transform="translate(948.5 2921.115)" fill="#d9ddf5" stroke="#6677d6" stroke-miterlimit="10" stroke-width="2"/>
      <rect id="Rectángulo_41130" data-name="Rectángulo 41130" width="230" height="55.786" rx="5" transform="translate(948.5 3169.897)" fill="#d9ddf5" stroke="#6677d6" stroke-miterlimit="10" stroke-width="2"/>
      <rect id="Rectángulo_41125" data-name="Rectángulo 41125" width="230" height="55.786" rx="5" transform="translate(413 3004.043)" fill="#d9ddf5" stroke="#6677d6" stroke-miterlimit="10" stroke-width="2"/>
      <rect id="Rectángulo_41128" data-name="Rectángulo 41128" width="230" height="55.786" rx="5" transform="translate(948.5 3004.043)" fill="#d9ddf5" stroke="#6677d6" stroke-miterlimit="10" stroke-width="2"/>
      <rect id="Rectángulo_41131" data-name="Rectángulo 41131" width="230" height="55.786" rx="5" transform="translate(948.5 3252.825)" fill="#d9ddf5" stroke="#6677d6" stroke-miterlimit="10" stroke-width="2"/>
      <text id="Socios" transform="translate(548 2871.581)" fill="#12263f" font-size="16" font-family="Roboto-Bold, Roboto" font-weight="700"><tspan x="-48.742" y="0">Socios</tspan></text>
      <text id="Accionistas_y_acreedores" data-name="Accionistas y acreedores" transform="translate(1154.5 2871.581)" fill="#12263f" font-size="16" font-family="Roboto-Bold, Roboto" font-weight="700"><tspan x="-181.211" y="0">Accionistas y acreedores</tspan></text>
      <text id="Competencia" transform="translate(1108.5 3120.364)" fill="#12263f" font-size="16" font-family="Roboto-Bold, Roboto" font-weight="700"><tspan x="-95.203" y="0">Competencia</tspan></text>
      <text id="Directivos" transform="translate(564 2954.509)" fill="#12263f" font-size="16" font-family="Roboto-Bold, Roboto" font-weight="700"><tspan x="-72.359" y="0">Directivos</tspan></text>
      <text id="El_Estado" data-name="El Estado" transform="translate(1098.5 2954.509)" fill="#12263f" font-size="16" font-family="Roboto-Bold, Roboto" font-weight="700"><tspan x="-66.5" y="0">El Estado</tspan></text>
      <text id="Clientes" transform="translate(1094.5 3203.29)" fill="#12263f" font-size="16" font-family="Roboto-Bold, Roboto" font-weight="700"><tspan x="-58.844" y="0">Clientes</tspan></text>
      <text id="Colaboradores" transform="translate(580.5 3037.437)" fill="#12263f" font-size="16" font-family="Roboto-Bold, Roboto" font-weight="700"><tspan x="-105.344" y="0">Colaboradores</tspan></text>
      <text id="Proveedores" transform="translate(1113 3037.437)" fill="#12263f" font-size="16" font-family="Roboto-Bold, Roboto" font-weight="700"><tspan x="-90.961" y="0">Proveedores</tspan></text>
      <text id="Público_en_general" data-name="Público en general" transform="translate(1129 3286.218)" fill="#12263f" font-size="16" font-family="Roboto-Bold, Roboto" font-weight="700"><tspan x="-133.547" y="0">Público en general</tspan></text>
      <g id="Grupo_109449" data-name="Grupo 109449" transform="translate(0 -2.185)">
        <g id="Trazado_209665" data-name="Trazado 209665" transform="translate(685 2864)" fill="#fff">
          <path d="M 115.5 229 C 107.7978744506836 229 100.1011581420898 228.2241516113281 92.62368774414062 226.6940612792969 C 85.33724975585938 225.2030334472656 78.17009735107422 222.9782257080078 71.32131195068359 220.0814361572266 C 64.59637451171875 217.2370300292969 58.11006164550781 213.7163391113281 52.0424690246582 209.6171569824219 C 46.03203201293945 205.5565948486328 40.38000106811523 200.8932189941406 35.24337387084961 195.7566223144531 C 30.10678100585938 190.6199951171875 25.44340705871582 184.9679718017578 21.38284301757812 178.9575347900391 C 17.28365707397461 172.8899383544922 13.76296901702881 166.4036254882812 10.91856288909912 159.6786804199219 C 8.021780967712402 152.8299102783203 5.796968936920166 145.6627502441406 4.30593729019165 138.3763122558594 C 2.775843858718872 130.8988494873047 2 123.2021255493164 2 115.5 C 2 107.7978744506836 2.775843858718872 100.1011581420898 4.30593729019165 92.62368774414062 C 5.796968936920166 85.33724975585938 8.021780967712402 78.17009735107422 10.91856288909912 71.32131195068359 C 13.76296901702881 64.59637451171875 17.28365707397461 58.11006164550781 21.38284301757812 52.0424690246582 C 25.44340705871582 46.03203201293945 30.10678100585938 40.38000106811523 35.24337387084961 35.24337387084961 C 40.38000106811523 30.10678100585938 46.03203201293945 25.44340705871582 52.0424690246582 21.38284301757812 C 58.11006164550781 17.28365707397461 64.59637451171875 13.76296901702881 71.32131195068359 10.91856288909912 C 78.17009735107422 8.021780967712402 85.33724975585938 5.796968936920166 92.62368774414062 4.30593729019165 C 100.1011581420898 2.775843858718872 107.7978744506836 2 115.5 2 C 123.2021255493164 2 130.8988494873047 2.775843858718872 138.3763122558594 4.30593729019165 C 145.6627502441406 5.796968936920166 152.8299102783203 8.021780967712402 159.6786804199219 10.91856288909912 C 166.4036254882812 13.76296901702881 172.8899383544922 17.28365707397461 178.9575347900391 21.38284301757812 C 184.9679718017578 25.44340705871582 190.6199951171875 30.10678100585938 195.7566223144531 35.24337387084961 C 200.8932189941406 40.38000106811523 205.5565948486328 46.03203201293945 209.6171569824219 52.0424690246582 C 213.7163391113281 58.11006164550781 217.2370300292969 64.59637451171875 220.0814361572266 71.32131195068359 C 222.9782257080078 78.17009735107422 225.2030334472656 85.33724975585938 226.6940612792969 92.62368774414062 C 228.2241516113281 100.1011581420898 229 107.7978744506836 229 115.5 C 229 123.2021255493164 228.2241516113281 130.8988494873047 226.6940612792969 138.3763122558594 C 225.2030334472656 145.6627502441406 222.9782257080078 152.8299102783203 220.0814361572266 159.6786804199219 C 217.2370300292969 166.4036254882812 213.7163391113281 172.8899383544922 209.6171569824219 178.9575347900391 C 205.5565948486328 184.9679718017578 200.8932189941406 190.6199951171875 195.7566223144531 195.7566223144531 C 190.6199951171875 200.8932189941406 184.9679718017578 205.5565948486328 178.9575347900391 209.6171569824219 C 172.8899383544922 213.7163391113281 166.4036254882812 217.2370300292969 159.6786804199219 220.0814361572266 C 152.8299102783203 222.9782257080078 145.6627502441406 225.2030334472656 138.3763122558594 226.6940612792969 C 130.8988494873047 228.2241516113281 123.2021255493164 229 115.5 229 Z" stroke="none"/>
          <path d="M 115.5 4 C 107.9322662353516 4 100.3704376220703 4.762161254882812 93.02462768554688 6.265335083007812 C 85.86753845214844 7.729904174804688 78.82763671875 9.915206909179688 72.10040283203125 12.76055908203125 C 65.49443054199219 15.55467224121094 59.12266540527344 19.01319885253906 53.16209411621094 23.04010009765625 C 47.25709533691406 27.02940368652344 41.70419311523438 31.61099243164062 36.6575927734375 36.6575927734375 C 31.61099243164062 41.70419311523438 27.02940368652344 47.25709533691406 23.04010009765625 53.16209411621094 C 19.01319885253906 59.12266540527344 15.55467224121094 65.49443054199219 12.76055908203125 72.10040283203125 C 9.915206909179688 78.82763671875 7.729904174804688 85.86753845214844 6.265335083007812 93.02462768554688 C 4.762161254882812 100.3704376220703 4 107.9322662353516 4 115.5 C 4 123.0677337646484 4.762161254882812 130.6295776367188 6.265335083007812 137.9753723144531 C 7.729904174804688 145.1324768066406 9.915206909179688 152.17236328125 12.76055908203125 158.8995971679688 C 15.55467224121094 165.5055694580078 19.01319885253906 171.8773345947266 23.04010009765625 177.837890625 C 27.02940368652344 183.7429046630859 31.61099243164062 189.2958068847656 36.6575927734375 194.3424072265625 C 41.70419311523438 199.3890075683594 47.25709533691406 203.9705963134766 53.16209411621094 207.9598999023438 C 59.12266540527344 211.9868011474609 65.49443054199219 215.4453277587891 72.10040283203125 218.2394409179688 C 78.82763671875 221.0847930908203 85.86753845214844 223.2700958251953 93.02462768554688 224.7346649169922 C 100.3704376220703 226.2378387451172 107.9322662353516 227 115.5 227 C 123.0677337646484 227 130.6295776367188 226.2378387451172 137.9753723144531 224.7346649169922 C 145.1324768066406 223.2700958251953 152.17236328125 221.0847930908203 158.8995971679688 218.2394409179688 C 165.5055694580078 215.4453277587891 171.8773345947266 211.9868011474609 177.837890625 207.9598999023438 C 183.7429046630859 203.9705963134766 189.2958068847656 199.3890075683594 194.3424072265625 194.3424072265625 C 199.3890075683594 189.2958068847656 203.9705963134766 183.7429046630859 207.9598999023438 177.837890625 C 211.9868011474609 171.8773345947266 215.4453277587891 165.5055694580078 218.2394409179688 158.8995971679688 C 221.0847930908203 152.17236328125 223.2700958251953 145.1324768066406 224.7346649169922 137.9753723144531 C 226.2378387451172 130.6295776367188 227 123.0677337646484 227 115.5 C 227 107.9322662353516 226.2378387451172 100.3704376220703 224.7346649169922 93.02462768554688 C 223.2700958251953 85.86753845214844 221.0847930908203 78.82763671875 218.2394409179688 72.10040283203125 C 215.4453277587891 65.49443054199219 211.9868011474609 59.12266540527344 207.9598999023438 53.16209411621094 C 203.9705963134766 47.25709533691406 199.3890075683594 41.70419311523438 194.3424072265625 36.6575927734375 C 189.2958068847656 31.61099243164062 183.7429046630859 27.02940368652344 177.837890625 23.04010009765625 C 171.8773345947266 19.01319885253906 165.5055694580078 15.55467224121094 158.8995971679688 12.76055908203125 C 152.17236328125 9.915206909179688 145.1324768066406 7.729904174804688 137.9753723144531 6.265335083007812 C 130.6295776367188 4.762161254882812 123.0677337646484 4 115.5 4 M 115.5 0 C 179.2888641357422 0 231 51.71113586425781 231 115.5 C 231 179.2888641357422 179.2888641357422 231 115.5 231 C 51.71113586425781 231 0 179.2888641357422 0 115.5 C 0 51.71113586425781 51.71113586425781 0 115.5 0 Z" stroke="none" fill="#4e2e8e"/>
        </g>
        <text id="EMPRESA" transform="translate(800 3050.941)" fill="#12263f" font-size="24" font-family="Roboto-Black, Roboto" font-weight="800"><tspan x="-55.271" y="0">EMPRESA</tspan></text>
        <g id="Grupo_109499" data-name="Grupo 109499" transform="translate(-133.493 2672.186)">
          <path id="Trazado_159458" data-name="Trazado 159458" d="M883.1,322.72V261.392a3.123,3.123,0,0,1,2.681-.995c7.681.033,15.362.007,23.043.036.754,0,.969-.173.966-.95-.032-7.193-.02-14.386-.019-21.578,0-2.011.472-2.488,2.453-2.488h41.693c2.056,0,2.512.458,2.512,2.528,0,7.16.015,14.321-.02,21.481,0,.81.187,1.015,1.006,1.012,7.713-.034,15.427-.021,23.141-.02,2.078,0,2.544.458,2.545,2.5v58.292c0,.228.008.456,0,.683a1.687,1.687,0,0,1-1.815,1.837c-.845.028-1.694.043-2.538,0-.592-.033-.761.12-.747.749.066,2.895.042,5.792.1,8.687a2.154,2.154,0,0,1-1.253,2.256h-87.7a2.564,2.564,0,0,1-1.058-2.429c.044-2.37.029-4.742,0-7.113-.007-.7.434-1.631-.085-2.018-.463-.347-1.371-.147-2.079-.108A2.9,2.9,0,0,1,883.1,322.72Zm63.465-11.047c-.121-.18-.223-.344-.337-.5a6.351,6.351,0,0,1-.544-7.393,6.223,6.223,0,0,1,6.462-3.278c.94.1.954-.183.953-.92q-.025-29.923.006-59.846c0-.808-.187-1.018-1.008-1.016q-18.989.043-37.978,0c-.793,0-1.032.164-1.027,1,.039,5.923.021,11.845.021,17.768q0,20.99-.01,41.98c0,.757-.08,1.167,1.03,1.036a6.49,6.49,0,0,1,7.309,6.345,6.711,6.711,0,0,1-1.843,4.8,10.179,10.179,0,0,1,2.985,2.586c.367.509.538.2.751-.13a10.82,10.82,0,0,1,3.829-3.679c.6-.337.4-.546.044-.9a8.172,8.172,0,0,1-2.406-6.074,8.287,8.287,0,0,1,14.958-4.7,8.208,8.208,0,0,1-.772,10.777c-.253.272-.665.494-.032.849a10.81,10.81,0,0,1,3.958,3.817c.235.382.428.421.7.039A10.169,10.169,0,0,1,946.565,311.674Zm33.208-19.514c0-9.178-.01-18.355.019-27.533,0-.738-.186-.9-.91-.9q-10.789.044-21.577,0c-.77,0-.892.24-.891.934q.03,18.648.007,37.3a2.177,2.177,0,0,0,.427,1.347,6.361,6.361,0,0,1-.157,7.788c-.417.537-.261.681.21.988a9.668,9.668,0,0,1,3.814,4.685c.5,1.281.465,1.215,1.676.5.814-.479.712-.784.235-1.491a6.6,6.6,0,0,1,6.069-10.3,6.579,6.579,0,0,1,4.636,10.645c-.349.474-.29.667.177.937a5.666,5.666,0,0,1,2.229,2.005c.724,1.314,1.775,1.415,3.07,1.379.833-.023.99-.249.987-1.035C979.763,310.319,979.773,301.239,979.773,292.159Zm-93.346-.119V318.3c0,2.1,0,2.075,2.12,2.109a1.4,1.4,0,0,0,1.421-.727,7.3,7.3,0,0,1,2.469-2.457c.65-.395.829-.636.275-1.338a6,6,0,0,1-1.118-5.168,6.344,6.344,0,0,1,5.023-5.132,6.267,6.267,0,0,1,6.807,2.519,6.456,6.456,0,0,1,.507,7.169c-.252.507-1.012.9-.788,1.429.2.462.909.686,1.346,1.069.457.4.571.271.735-.261a9.635,9.635,0,0,1,4.062-5.425c.55-.355.579-.546.178-1.061a6.368,6.368,0,0,1-.176-7.632,2.474,2.474,0,0,0,.5-1.521q-.021-18.6.008-37.2c0-.78-.218-.956-.971-.953q-10.74.043-21.48,0c-.814,0-.929.265-.927.981Q886.445,278.371,886.427,292.04Zm46.592,40.049c2.538,0,5.077-.02,7.615.014.634.009.837-.159.832-.81-.03-3.514.036-7.03-.026-10.543-.088-4.941-3.414-8.432-8.113-8.622a8.2,8.2,0,0,0-8.447,7.4c-.308,3.962-.05,7.935-.142,11.9-.014.614.268.676.764.672C928.008,332.08,930.514,332.089,933.019,332.089Zm18.34,0c1.983,0,3.966-.026,5.948.015.635.013.813-.16.807-.8-.032-3.542-.014-7.086-.016-10.629a6.869,6.869,0,0,0-.669-3.114,6.633,6.633,0,0,0-7.46-3.63,6.529,6.529,0,0,0-5.151,6.283c-.084,3.736-.017,7.475-.049,11.213-.005.595.232.679.74.673C947.459,332.074,949.409,332.088,951.359,332.088Zm-36.622,0c1.95,0,3.9-.033,5.85.017.7.018.852-.206.845-.871-.033-3.478-.008-6.956-.023-10.434a8.123,8.123,0,0,0-.173-1.836,6.637,6.637,0,0,0-13.118,1.41c-.07,3.672-.007,7.346-.031,11.018,0,.547.145.716.7.707C910.772,332.069,912.755,332.088,914.738,332.088Zm53.3,0c1.985,0,3.97-.023,5.954.014.592.011.782-.138.769-.751-.04-1.919-.014-3.839-.016-5.758a6.658,6.658,0,1,0-13.313-.089c-.042,1.951.019,3.9-.026,5.856-.015.631.2.751.775.741C964.138,332.068,966.09,332.088,968.042,332.088Zm-69.987,0c2.017,0,4.034,0,6.052,0,.381,0,.685.027.676-.532-.036-2.179.086-4.367-.066-6.537a6.626,6.626,0,0,0-13.241.274c-.08,2.047-.007,4.1-.037,6.148-.008.516.155.661.663.654C894.086,332.073,896.071,332.088,898.056,332.088Zm35.081-23.373a4.981,4.981,0,0,0,4.956-4.955,4.993,4.993,0,1,0-9.986-.026A4.982,4.982,0,0,0,933.137,308.715Zm-18.37-4.946a3.32,3.32,0,1,0,3.308,3.339A3.29,3.29,0,0,0,914.767,303.769Zm33.359,3.3a3.314,3.314,0,0,0,3.317,3.342,3.32,3.32,0,0,0,.032-6.64A3.289,3.289,0,0,0,948.125,307.068Zm-49.912,1.7a3.319,3.319,0,0,0-.223,6.635,3.319,3.319,0,1,0,.223-6.635Zm73.2,3.325a3.3,3.3,0,0,0-3.348-3.328,3.323,3.323,0,1,0,3.348,3.328Z" transform="translate(0)" fill="#020202"/>
          <path id="Trazado_159459" data-name="Trazado 159459" d="M1031.482,321.038a10.165,10.165,0,0,0-2.948,2.563c-.276.382-.469.342-.7-.039a10.811,10.811,0,0,0-3.959-3.817c-.633-.356-.221-.577.032-.849a8.208,8.208,0,0,0,.772-10.777,8.287,8.287,0,0,0-14.958,4.7,8.172,8.172,0,0,0,2.406,6.074c.352.357.552.566-.044.9a10.822,10.822,0,0,0-3.829,3.679c-.212.334-.384.639-.751.13a10.176,10.176,0,0,0-2.985-2.586,6.711,6.711,0,0,0,1.843-4.8,6.49,6.49,0,0,0-7.309-6.345c-1.11.131-1.031-.279-1.03-1.036q.021-20.99.01-41.98c0-5.923.018-11.845-.021-17.768-.005-.833.234-1,1.027-1q18.989.04,37.977,0c.82,0,1.009.208,1.008,1.016q-.036,29.923-.006,59.846c0,.737-.012,1.019-.953.92a6.223,6.223,0,0,0-6.462,3.278,6.351,6.351,0,0,0,.544,7.393C1031.26,320.694,1031.361,320.858,1031.482,321.038Zm-13.505-52.923q4.636,0,9.272,0c1.919,0,2.448-.524,2.449-2.413q0-5.905,0-11.81c0-1.916-.531-2.455-2.417-2.456q-9.272,0-18.545,0c-1.837,0-2.4.555-2.4,2.375q-.005,5.954,0,11.908c0,1.846.536,2.391,2.368,2.4C1011.795,268.12,1014.886,268.115,1017.977,268.115Zm-1.635,11.714c0,1.633,0,1.633,1.62,1.633,1.731,0,1.731,0,1.731-1.716,0-1.622,0-1.622-1.62-1.622C1016.341,278.124,1016.341,278.124,1016.341,279.829Zm0-6.729c0,1.694,0,1.694,1.681,1.694h.1c1.573,0,1.573,0,1.573-1.607,0-1.741,0-1.741-1.73-1.741C1016.341,271.446,1016.341,271.446,1016.341,273.1Zm8.338-1.654c-1.656,0-1.656,0-1.656,1.609v.1c0,1.642,0,1.642,1.63,1.642,1.714,0,1.714,0,1.714-1.662C1026.366,271.446,1026.366,271.446,1024.679,271.446Zm-13.34,3.348c1.672,0,1.672,0,1.672-1.6,0-1.749,0-1.749-1.711-1.749-1.633,0-1.633,0-1.633,1.643C1009.668,274.794,1009.668,274.794,1011.339,274.794Zm5,11.674c0,1.658,0,1.658,1.683,1.658s1.669,0,1.669-1.672,0-1.657-1.683-1.657S1016.341,284.8,1016.341,286.468Zm1.744,4.985c-1.744,0-1.744,0-1.744,1.6,0,1.73,0,1.73,1.705,1.73,1.647,0,1.647,0,1.647-1.691C1019.693,291.454,1019.693,291.454,1018.085,291.454Zm-1.744,8.23c0,1.751,0,1.751,1.783,1.751,1.569,0,1.569,0,1.569-1.577,0-1.751,0-1.751-1.783-1.751C1016.341,298.107,1016.341,298.107,1016.341,299.684Zm-5.018-11.557c1.688,0,1.688,0,1.688-1.548,0-1.782,0-1.782-1.743-1.782-1.6,0-1.6,0-1.6,1.643C1009.668,288.127,1009.668,288.127,1011.323,288.127Zm15.043-1.667c0-1.663,0-1.663-1.678-1.663s-1.666,0-1.666,1.665,0,1.665,1.668,1.665S1026.366,288.127,1026.366,286.46Zm0-6.648c0-1.683,0-1.683-1.684-1.683h-.1c-1.562,0-1.562,0-1.562,1.6,0,1.734,0,1.734,1.723,1.734C1026.366,281.462,1026.366,281.462,1026.366,279.812Zm-15,1.651c1.643,0,1.643,0,1.643-1.618v-.1c0-1.619,0-1.619-1.641-1.619-1.7,0-1.7,0-1.7,1.665S1009.668,281.462,1011.368,281.462Zm-5.031,5.018c0-1.683,0-1.683-1.644-1.683h-.1c-1.6,0-1.6,0-1.6,1.642,0,1.688,0,1.688,1.65,1.688C1006.336,288.127,1006.336,288.127,1006.336,286.48Zm26.7-6.575c0-1.777,0-1.777-1.779-1.776h-.1c-1.46,0-1.46,0-1.46,1.5,0,1.834,0,1.834,1.822,1.834C1033.034,281.462,1033.034,281.462,1033.034,279.9Zm-28.3,11.549c-1.735,0-1.735,0-1.735,1.7,0,1.629,0,1.629,1.608,1.629,1.729,0,1.729,0,1.729-1.7C1006.336,291.454,1006.336,291.454,1004.735,291.454Zm8.27,1.717c0-1.717,0-1.717-1.708-1.717-1.629,0-1.629,0-1.629,1.612,0,1.715,0,1.715,1.718,1.715C1013,294.781,1013,294.781,1013,293.17Zm13.361-.053c0-1.664,0-1.664-1.674-1.664s-1.663,0-1.663,1.665,0,1.662,1.664,1.662S1026.366,294.781,1026.366,293.117Zm6.668.03c0-1.694,0-1.694-1.74-1.694-1.6,0-1.6,0-1.6,1.635,0,1.692,0,1.692,1.733,1.692C1033.034,294.781,1033.034,294.781,1033.034,293.147Zm-26.7,6.618c0-1.659,0-1.659-1.672-1.659s-1.665,0-1.665,1.671,0,1.657,1.678,1.657C1006.336,301.435,1006.336,301.435,1006.336,299.766Zm4.968,1.669c1.7,0,1.7,0,1.7-1.722,0-1.606,0-1.606-1.627-1.606-1.71,0-1.71,0-1.71,1.725C1009.668,301.435,1009.668,301.435,1011.3,301.435Zm13.342,0c1.72,0,1.72,0,1.72-1.714,0-1.614,0-1.614-1.626-1.614-1.711,0-1.711,0-1.711,1.716C1023.029,301.435,1023.029,301.435,1024.646,301.435Zm8.388-1.606c0-1.722,0-1.722-1.711-1.722-1.626,0-1.626,0-1.626,1.608,0,1.721,0,1.721,1.705,1.721C1033.034,301.435,1033.034,301.435,1033.034,299.829Zm-28.331-21.7c-1.7,0-1.7,0-1.7,1.656v.1c0,1.58,0,1.58,1.589,1.58,1.747,0,1.747,0,1.747-1.714C1006.336,278.128,1006.336,278.128,1004.7,278.128Zm28.331,8.408c0-1.739,0-1.739-1.693-1.739h-.1c-1.547,0-1.547,0-1.547,1.586,0,1.744,0,1.744,1.784,1.744C1033.034,288.127,1033.034,288.127,1033.034,286.536Z" transform="translate(-84.917 -9.365)" fill="#6677d6"/>
          <path id="Trazado_159460" data-name="Trazado 159460" d="M1187.341,372.3c0,9.08-.01,18.16.019,27.24,0,.786-.155,1.012-.987,1.035-1.3.036-2.347-.065-3.07-1.379a5.666,5.666,0,0,0-2.228-2.005c-.467-.27-.526-.463-.177-.936a6.579,6.579,0,0,0-4.636-10.645,6.6,6.6,0,0,0-6.069,10.3c.476.707.578,1.012-.235,1.491-1.21.712-1.176.779-1.676-.5a9.668,9.668,0,0,0-3.814-4.685c-.471-.307-.627-.451-.21-.988a6.361,6.361,0,0,0,.157-7.788,2.177,2.177,0,0,1-.427-1.347q.015-18.648-.007-37.3c0-.694.122-.938.891-.934q10.788.051,21.577,0c.724,0,.912.163.91.9C1187.331,353.947,1187.341,363.125,1187.341,372.3Zm-5.021-5.083V356.293c0-2.43,0-2.389-2.407-2.437-.821-.016-.943.272-.941,1,.023,7.739.015,15.479.015,23.218,0,2.539,0,2.509,2.51,2.525.719,0,.841-.243.837-.889C1182.307,375.544,1182.32,371.382,1182.32,367.219Zm-13.326-.1v11.129c0,2.337,0,2.3,2.382,2.348.757.014.968-.176.965-.953-.031-7.777-.017-15.554-.022-23.331,0-.775.25-1.81-.145-2.257-.468-.531-1.532-.085-2.33-.183-.684-.084-.872.161-.866.85C1169.011,358.853,1168.994,362.986,1168.994,367.118Z" transform="translate(-207.568 -80.143)" fill="#b8bee0"/>
          <path id="Trazado_159461" data-name="Trazado 159461" d="M895.8,372.18q0-13.669-.015-27.338c0-.716.114-.986.927-.981q10.74.056,21.48,0c.753,0,.973.173.971.953q-.039,18.6-.008,37.2a2.473,2.473,0,0,1-.5,1.521,6.368,6.368,0,0,0,.176,7.632c.4.515.372.706-.178,1.061a9.635,9.635,0,0,0-4.062,5.425c-.163.532-.277.661-.735.261-.438-.383-1.15-.607-1.347-1.069-.224-.526.536-.922.788-1.429a6.456,6.456,0,0,0-.507-7.169,6.267,6.267,0,0,0-6.807-2.519,6.344,6.344,0,0,0-5.023,5.132,6,6,0,0,0,1.118,5.168c.555.7.375.943-.275,1.338a7.3,7.3,0,0,0-2.469,2.457,1.4,1.4,0,0,1-1.421.727c-2.12-.034-2.12-.01-2.12-2.109Zm8.354-4.94V356.119c0-2.248,0-2.2-2.288-2.267-.867-.024-1.071.21-1.067,1.069.037,7.739.021,15.479.021,23.218,0,2.462,0,2.437,2.479,2.45.676,0,.876-.169.871-.861C904.142,375.565,904.159,371.4,904.159,367.24Zm6.664-.023c0,3.644-.008,7.289.006,10.933,0,.773-.328,1.77.134,2.26s1.481.071,2.245.169.964-.179.961-.948c-.03-7.777-.018-15.554-.018-23.331,0-2.454,0-2.426-2.485-2.445-.688-.005-.864.187-.858.866C910.839,358.887,910.823,363.053,910.823,367.218Z" transform="translate(-9.378 -80.14)" fill="#b8bee0"/>
          <path id="Trazado_159462" data-name="Trazado 159462" d="M1050.865,549.261c-2.506,0-5.011-.009-7.517.008-.5,0-.779-.058-.764-.672.092-3.967-.166-7.939.142-11.9a8.2,8.2,0,0,1,8.447-7.4c4.7.19,8.025,3.681,8.113,8.622.062,3.513,0,7.029.026,10.543.005.651-.2.819-.832.81C1055.942,549.241,1053.4,549.261,1050.865,549.261Z" transform="translate(-117.845 -217.172)" fill="#c6412a"/>
          <path id="Trazado_159463" data-name="Trazado 159463" d="M1125.959,553.915c-1.95,0-3.9-.014-5.85.01-.508.006-.745-.078-.74-.673.031-3.738-.035-7.477.049-11.213a6.529,6.529,0,0,1,5.151-6.283,6.633,6.633,0,0,1,7.46,3.63,6.869,6.869,0,0,1,.67,3.114c0,3.543-.016,7.086.016,10.629.006.642-.173.815-.807.8C1129.925,553.889,1127.942,553.915,1125.959,553.915Z" transform="translate(-174.6 -221.827)" fill="#eee99a"/>
          <path id="Trazado_159464" data-name="Trazado 159464" d="M985.478,553.871c-1.983,0-3.966-.02-5.948.013-.556.009-.7-.16-.7-.707.024-3.673-.039-7.347.031-11.018a6.637,6.637,0,0,1,13.118-1.41,8.127,8.127,0,0,1,.173,1.836c.015,3.478-.01,6.956.023,10.434.006.665-.143.889-.845.871C989.38,553.839,987.428,553.871,985.478,553.871Z" transform="translate(-70.74 -221.783)" fill="#eee99a"/>
          <path id="Trazado_159465" data-name="Trazado 159465" d="M1189.758,568.012c-1.952,0-3.9-.021-5.856.013-.577.01-.79-.11-.775-.741.045-1.951-.017-3.9.026-5.856a6.658,6.658,0,1,1,13.313.089c0,1.919-.024,3.84.016,5.758.013.614-.177.762-.769.751C1193.728,567.989,1191.743,568.012,1189.758,568.012Z" transform="translate(-221.716 -235.924)" fill="#eee99a"/>
          <path id="Trazado_159466" data-name="Trazado 159466" d="M921.66,568.1c-1.985,0-3.97-.016-5.954.011-.508.007-.671-.139-.663-.654.03-2.049-.043-4.1.037-6.148a6.626,6.626,0,0,1,13.241-.274c.152,2.17.03,4.358.066,6.537.009.558-.3.533-.676.532C925.694,568.1,923.677,568.1,921.66,568.1Z" transform="translate(-23.604 -236.016)" fill="#eee99a"/>
          <path id="Trazado_159467" data-name="Trazado 159467" d="M1060.563,488.017a4.982,4.982,0,0,1-5.03-4.98,4.993,4.993,0,1,1,9.986.026A4.98,4.98,0,0,1,1060.563,488.017Z" transform="translate(-127.426 -179.302)" fill="#c6412a"/>
          <path id="Trazado_159468" data-name="Trazado 159468" d="M994.988,497.294a3.32,3.32,0,1,1-.05,6.64,3.32,3.32,0,0,1,.05-6.64Z" transform="translate(-80.221 -193.525)" fill="#eee99a"/>
          <path id="Trazado_159469" data-name="Trazado 159469" d="M1132.228,500.593a3.289,3.289,0,0,1,3.349-3.3,3.32,3.32,0,1,1-3.349,3.3Z" transform="translate(-184.102 -193.525)" fill="#eee99a"/>
          <path id="Trazado_159470" data-name="Trazado 159470" d="M931.325,516.444a3.319,3.319,0,1,1-.223,6.635,3.319,3.319,0,0,1,.223-6.635Z" transform="translate(-33.112 -207.675)" fill="#eee99a"/>
          <path id="Trazado_159471" data-name="Trazado 159471" d="M1202.611,519.765a3.324,3.324,0,0,1-3.273,3.317,3.323,3.323,0,1,1-.074-6.645A3.3,3.3,0,0,1,1202.611,519.765Z" transform="translate(-231.201 -207.671)" fill="#eee99a"/>
          <path id="Trazado_159472" data-name="Trazado 159472" d="M1041.544,277.588c-3.091,0-6.182,0-9.272,0-1.832,0-2.367-.549-2.368-2.4q0-5.954,0-11.908c0-1.82.564-2.374,2.4-2.375q9.273,0,18.545,0c1.886,0,2.416.539,2.417,2.456q0,5.9,0,11.81c0,1.889-.53,2.41-2.449,2.413Q1046.18,277.593,1041.544,277.588Zm-.06-3.348c2.505,0,5.01-.022,7.515.015.689.01.967-.117.952-.894-.05-2.764-.035-5.53-.008-8.295.006-.6-.111-.848-.792-.844q-7.563.044-15.127,0c-.673,0-.8.227-.8.838.028,2.765.042,5.531-.007,8.295-.014.768.248.912.946.9C1036.6,274.216,1039.044,274.241,1041.484,274.241Z" transform="translate(-108.484 -18.838)" fill="#020202"/>
          <path id="Trazado_159473" data-name="Trazado 159473" d="M1068.242,364.868c0-1.706,0-1.706,1.731-1.706,1.62,0,1.62,0,1.62,1.622,0,1.716,0,1.716-1.731,1.716C1068.242,366.5,1068.242,366.5,1068.242,364.868Z" transform="translate(-136.818 -94.404)" fill="#020202"/>
          <path id="Trazado_159474" data-name="Trazado 159474" d="M1068.242,339.234c0-1.654,0-1.654,1.622-1.654,1.73,0,1.73,0,1.73,1.741,0,1.607,0,1.607-1.573,1.607h-.1C1068.242,340.928,1068.242,340.928,1068.242,339.234Z" transform="translate(-136.818 -75.498)" fill="#020202"/>
          <path id="Trazado_159475" data-name="Trazado 159475" d="M1095.5,337.58c1.687,0,1.687,0,1.687,1.686,0,1.662,0,1.662-1.714,1.662-1.63,0-1.63,0-1.63-1.642v-.1C1093.84,337.58,1093.84,337.58,1095.5,337.58Z" transform="translate(-155.734 -75.498)" fill="#020202"/>
          <path id="Trazado_159476" data-name="Trazado 159476" d="M1044.346,340.928c-1.671,0-1.671,0-1.671-1.7,0-1.643,0-1.643,1.633-1.643,1.711,0,1.711,0,1.711,1.749C1046.018,340.928,1046.018,340.928,1044.346,340.928Z" transform="translate(-117.924 -75.498)" fill="#020202"/>
          <path id="Trazado_159477" data-name="Trazado 159477" d="M1068.242,390.4c0-1.672,0-1.672,1.669-1.672s1.683,0,1.683,1.657,0,1.672-1.669,1.672S1068.242,392.059,1068.242,390.4Z" transform="translate(-136.818 -113.297)" fill="#020202"/>
          <path id="Trazado_159478" data-name="Trazado 159478" d="M1069.985,414.232c1.608,0,1.608,0,1.608,1.636,0,1.691,0,1.691-1.647,1.691-1.705,0-1.705,0-1.705-1.73C1068.241,414.232,1068.241,414.232,1069.985,414.232Z" transform="translate(-136.817 -132.143)" fill="#020202"/>
          <path id="Trazado_159479" data-name="Trazado 159479" d="M1068.241,441.3c0-1.577,0-1.577,1.569-1.577,1.783,0,1.783,0,1.783,1.751,0,1.577,0,1.577-1.569,1.577C1068.241,443.05,1068.241,443.05,1068.241,441.3Z" transform="translate(-136.817 -150.98)" fill="#020202"/>
          <path id="Trazado_159480" data-name="Trazado 159480" d="M1044.33,392.059c-1.655,0-1.655,0-1.655-1.687,0-1.643,0-1.643,1.6-1.643,1.743,0,1.743,0,1.743,1.782C1046.018,392.059,1046.018,392.059,1044.33,392.059Z" transform="translate(-117.924 -113.297)" fill="#020202"/>
          <path id="Trazado_159481" data-name="Trazado 159481" d="M1097.183,390.392c0,1.667,0,1.667-1.675,1.667s-1.668,0-1.668-1.665,0-1.665,1.666-1.665S1097.183,388.729,1097.183,390.392Z" transform="translate(-155.734 -113.297)" fill="#020202"/>
          <path id="Trazado_159482" data-name="Trazado 159482" d="M1097.183,364.863c0,1.651,0,1.651-1.62,1.651-1.723,0-1.723,0-1.723-1.734,0-1.6,0-1.6,1.562-1.6h.1C1097.183,363.18,1097.183,363.18,1097.183,364.863Z" transform="translate(-155.734 -94.416)" fill="#020202"/>
          <path id="Trazado_159483" data-name="Trazado 159483" d="M1044.375,366.514c-1.7,0-1.7,0-1.7-1.669s0-1.665,1.7-1.665c1.641,0,1.641,0,1.641,1.619v.1C1046.018,366.514,1046.018,366.514,1044.375,366.514Z" transform="translate(-117.924 -94.416)" fill="#020202"/>
          <path id="Trazado_159484" data-name="Trazado 159484" d="M1020.464,390.412c0,1.646,0,1.646-1.687,1.646-1.65,0-1.65,0-1.65-1.688,0-1.642,0-1.642,1.6-1.642h.1C1020.464,388.729,1020.464,388.729,1020.464,390.412Z" transform="translate(-99.045 -113.297)" fill="#020202"/>
          <path id="Trazado_159485" data-name="Trazado 159485" d="M1122.75,364.956c0,1.558,0,1.558-1.515,1.558-1.822,0-1.822,0-1.822-1.834,0-1.5,0-1.5,1.46-1.5h.1C1122.75,363.18,1122.75,363.18,1122.75,364.956Z" transform="translate(-174.632 -94.416)" fill="#020202"/>
          <path id="Trazado_159486" data-name="Trazado 159486" d="M1018.863,414.232c1.6,0,1.6,0,1.6,1.631,0,1.7,0,1.7-1.729,1.7-1.608,0-1.608,0-1.608-1.629C1017.128,414.232,1017.128,414.232,1018.863,414.232Z" transform="translate(-99.045 -132.143)" fill="#020202"/>
          <path id="Trazado_159487" data-name="Trazado 159487" d="M1046.012,415.949c0,1.61,0,1.61-1.619,1.61-1.718,0-1.718,0-1.718-1.715,0-1.612,0-1.612,1.629-1.612C1046.012,414.232,1046.012,414.232,1046.012,415.949Z" transform="translate(-117.924 -132.143)" fill="#020202"/>
          <path id="Trazado_159488" data-name="Trazado 159488" d="M1097.2,415.9c0,1.663,0,1.663-1.673,1.663s-1.664,0-1.664-1.662,0-1.665,1.663-1.665S1097.2,414.232,1097.2,415.9Z" transform="translate(-155.752 -132.143)" fill="#020202"/>
          <path id="Trazado_159489" data-name="Trazado 159489" d="M1122.75,415.926c0,1.633,0,1.633-1.6,1.633-1.733,0-1.733,0-1.733-1.692,0-1.635,0-1.635,1.6-1.635C1122.75,414.232,1122.75,414.232,1122.75,415.926Z" transform="translate(-174.632 -132.143)" fill="#020202"/>
          <path id="Trazado_159490" data-name="Trazado 159490" d="M1020.464,441.381c0,1.669,0,1.669-1.659,1.669-1.678,0-1.678,0-1.678-1.657s0-1.671,1.665-1.671S1020.464,439.722,1020.464,441.381Z" transform="translate(-99.045 -150.98)" fill="#020202"/>
          <path id="Trazado_159491" data-name="Trazado 159491" d="M1044.311,443.05c-1.636,0-1.636,0-1.636-1.6,0-1.725,0-1.725,1.71-1.725,1.627,0,1.627,0,1.627,1.606C1046.012,443.05,1046.012,443.05,1044.311,443.05Z" transform="translate(-117.924 -150.98)" fill="#020202"/>
          <path id="Trazado_159492" data-name="Trazado 159492" d="M1095.481,443.05c-1.617,0-1.617,0-1.617-1.612,0-1.716,0-1.716,1.711-1.716,1.626,0,1.626,0,1.626,1.614C1097.2,443.05,1097.2,443.05,1095.481,443.05Z" transform="translate(-155.752 -150.98)" fill="#020202"/>
          <path id="Trazado_159493" data-name="Trazado 159493" d="M1122.75,441.444c0,1.606,0,1.606-1.632,1.606-1.705,0-1.705,0-1.705-1.721,0-1.608,0-1.608,1.626-1.608C1122.75,439.722,1122.75,439.722,1122.75,441.444Z" transform="translate(-174.632 -150.98)" fill="#020202"/>
          <path id="Trazado_159494" data-name="Trazado 159494" d="M1018.832,363.18c1.633,0,1.633,0,1.633,1.62,0,1.714,0,1.714-1.747,1.714-1.589,0-1.589,0-1.589-1.58v-.1C1017.128,363.18,1017.128,363.18,1018.832,363.18Z" transform="translate(-99.045 -94.416)" fill="#020202"/>
          <path id="Trazado_159495" data-name="Trazado 159495" d="M1122.75,390.468c0,1.59,0,1.59-1.553,1.59-1.784,0-1.784,0-1.784-1.744,0-1.586,0-1.586,1.547-1.586h.1C1122.75,388.729,1122.75,388.729,1122.75,390.468Z" transform="translate(-174.632 -113.297)" fill="#020202"/>
          <path id="Trazado_159496" data-name="Trazado 159496" d="M1224.764,395.5c0,4.162-.013,8.325.014,12.487,0,.646-.118.894-.837.889-2.51-.016-2.51.014-2.51-2.525,0-7.74.009-15.479-.014-23.218,0-.724.121-1.013.941-1,2.406.048,2.407.007,2.407,2.437Z" transform="translate(-250.011 -108.425)" fill="#020202"/>
          <path id="Trazado_159497" data-name="Trazado 159497" d="M1183.141,395.211c0-4.133.017-8.265-.016-12.4-.005-.689.182-.934.866-.85.8.1,1.862-.348,2.33.183.395.448.145,1.482.145,2.257.005,7.777-.009,15.554.022,23.331,0,.777-.207.967-.965.953-2.382-.044-2.382-.011-2.382-2.348Z" transform="translate(-221.715 -108.235)" fill="#020202"/>
          <path id="Trazado_159498" data-name="Trazado 159498" d="M918.353,395.522c0,4.163-.016,8.325.016,12.487.005.692-.2.865-.871.861-2.479-.014-2.479.012-2.479-2.45,0-7.74.015-15.479-.021-23.218,0-.859.2-1.093,1.067-1.069,2.287.064,2.288.019,2.288,2.267Z" transform="translate(-23.572 -108.421)" fill="#020202"/>
          <path id="Trazado_159499" data-name="Trazado 159499" d="M953.085,395.519c0-4.165.016-8.33-.016-12.5-.005-.679.17-.871.858-.866,2.485.019,2.485-.008,2.485,2.445,0,7.777-.012,15.554.018,23.331,0,.769-.192,1.048-.961.948s-1.775.328-2.245-.169-.132-1.487-.134-2.26C953.078,402.807,953.085,399.163,953.085,395.519Z" transform="translate(-51.64 -108.44)" fill="#020202"/>
          <path id="Trazado_159500" data-name="Trazado 159500" d="M1050.873,283.625c-2.44,0-4.88-.024-7.319.015-.7.011-.96-.133-.946-.9.049-2.764.035-5.53.007-8.295-.006-.611.125-.842.8-.838q7.563.043,15.127,0c.681,0,.8.242.792.844-.027,2.765-.042,5.531.008,8.295.014.777-.263.9-.952.894C1055.883,283.6,1053.378,283.625,1050.873,283.625Z" transform="translate(-117.874 -28.223)" fill="#eee99a"/>
        </g>
      </g>
    </g>
  </g>
</svg>
