<svg xmlns="http://www.w3.org/2000/svg" width="133" height="133" viewBox="0 0 133 133">
  <g id="Grupo_153046" data-name="Grupo 153046" transform="translate(-1077.332 -9496.515)">
    <g id="Elipse_18549" data-name="Elipse 18549" transform="translate(1077.332 9496.515)" fill="#fff" stroke="#c6412a" stroke-width="4">
      <circle cx="66.5" cy="66.5" r="66.5" stroke="none"/>
      <circle cx="66.5" cy="66.5" r="64.5" fill="none"/>
    </g>
    <g id="marcador-de-decision" transform="translate(1101.325 9520.66)">
      <g id="Grupo_152930" data-name="Grupo 152930" transform="translate(0.116 0)">
        <g id="Grupo_152928" data-name="Grupo 152928" transform="translate(1.242 1.242)">
          <g id="Grupo_152923" data-name="Grupo 152923" transform="translate(37.04 20.423)">
            <path id="Trazado_211031" data-name="Trazado 211031" d="M103.967,45.823V39.25l10.762,10.684L103.967,60.618V54.044H101.12a23.43,23.43,0,0,0-23.43,23.43H69.469A31.651,31.651,0,0,1,101.12,45.823h2.847Z" transform="translate(-69.469 -39.25)" fill="#c6412a"/>
          </g>
          <g id="Grupo_152925" data-name="Grupo 152925" transform="translate(0 20.423)">
            <path id="Trazado_211033" data-name="Trazado 211033" d="M13.128,45.823V39.25L2.366,49.934,13.128,60.618V54.044h2.847a23.43,23.43,0,0,1,23.43,23.43h8.221A31.651,31.651,0,0,0,15.975,45.823H13.128Z" transform="translate(-2.366 -39.25)" fill="#ffef0f"/>
          </g>
          <path id="Trazado_211035" data-name="Trazado 211035" d="M78.928,13.012,68.244,2.25,57.56,13.012h6.573v64h8.221v-64Z" transform="translate(-27.094 -2.25)" fill="#6677d6"/>
          <g id="Grupo_152927" data-name="Grupo 152927" transform="translate(23.625 64.775)">
            <path id="Trazado_211037" data-name="Trazado 211037" d="M45.166,137.125a17.525,17.525,0,1,1,35.051,0Z" transform="translate(-45.166 -119.6)" fill="#b8bee0"/>
            <path id="Trazado_211038" data-name="Trazado 211038" d="M74.9,119.6a17.677,17.677,0,0,0-2.484.175,17.529,17.529,0,0,1,15.041,17.351h4.968A17.525,17.525,0,0,0,74.9,119.6Z" transform="translate(-57.374 -119.6)" fill="#b8bee0"/>
          </g>
        </g>
        <g id="Grupo_152929" data-name="Grupo 152929">
          <path id="Trazado_211039" data-name="Trazado 211039" d="M84.533,31.468,73.77,20.784a1.252,1.252,0,0,0-2.117.881V27c-8.8-.064-17.209,2.6-23.794,8.613V13.246h5.331a1.252,1.252,0,0,0,.881-2.117L43.389.367a1.242,1.242,0,0,0-1.763,0L30.942,11.129a1.252,1.252,0,0,0,.881,2.117h5.331V35.606a32.858,32.858,0,0,0-6.89-4.842,1.242,1.242,0,0,0-1.157,2.2A30.412,30.412,0,0,1,37.155,39.1v10.01C32.3,39.158,22.642,35.218,12.12,35.218a1.242,1.242,0,0,0-1.242,1.242V40.05l-7.757-7.7,7.758-7.7v3.591a1.242,1.242,0,0,0,1.242,1.242,40.191,40.191,0,0,1,11.208,1.163,1.242,1.242,0,0,0,.681-2.389A37.169,37.169,0,0,0,13.362,27V21.665a1.252,1.252,0,0,0-2.117-.881L.483,31.468a1.242,1.242,0,0,0,0,1.763L11.245,43.914a1.252,1.252,0,0,0,2.117-.881V37.7c12.758-.154,23.668,8.988,23.794,22.2v5.65A18.8,18.8,0,0,0,23.74,83.542a1.242,1.242,0,0,0,2.484,0c-.169-12.849,14.85-20.826,25.387-13.5A1.243,1.243,0,0,0,53,67.981a18.665,18.665,0,0,0-5.141-2.432V59.89C47.86,46.684,59,37.549,71.653,37.7v5.331a1.252,1.252,0,0,0,2.117.881L84.533,33.23a1.242,1.242,0,0,0,0-1.763ZM46.618,10.762A1.242,1.242,0,0,0,45.376,12V38.482a1.251,1.251,0,0,0,0,.27v26.24a18.92,18.92,0,0,0-5.737,0V12A1.242,1.242,0,0,0,38.4,10.762h-3.59L42.508,3l7.7,7.757ZM74.137,40.05V36.459A1.242,1.242,0,0,0,72.9,35.217c-10.523,0-20.179,3.936-25.035,13.888V39.1c6.707-7.15,15.521-9.615,25.035-9.615a1.242,1.242,0,0,0,1.242-1.242V24.648l7.758,7.7Z" transform="translate(-0.116 0)"/>
          <path id="Trazado_211040" data-name="Trazado 211040" d="M29.18,121.3a1.242,1.242,0,0,0-1.7.423c-.355.589-.694,1.2-1.008,1.808A1.242,1.242,0,0,0,27,125.2a1.26,1.26,0,0,0,1.673-.536c.289-.562.6-1.122.928-1.663A1.242,1.242,0,0,0,29.18,121.3Z" transform="translate(-11.86 -54.263)"/>
          <path id="Trazado_211041" data-name="Trazado 211041" d="M23.985,132.911a1.242,1.242,0,0,0-1.556.814c-.2.655-.39,1.326-.552,1.994a1.242,1.242,0,0,0,.916,1.5,1.321,1.321,0,0,0,1.5-.916c.148-.615.319-1.232.508-1.835a1.242,1.242,0,0,0-.815-1.556Z" transform="translate(-9.85 -59.521)"/>
          <path id="Trazado_211042" data-name="Trazado 211042" d="M35.239,111.323c-.482.489-.954,1-1.4,1.52a1.242,1.242,0,0,0,1.88,1.624c.413-.479.848-.95,1.292-1.4a1.242,1.242,0,0,0-1.768-1.744Z" transform="translate(-15.088 -49.709)"/>
          <path id="Trazado_211043" data-name="Trazado 211043" d="M55.545,100.642a1.241,1.241,0,0,0,.465-.091c.586-.237,1.186-.457,1.786-.654a1.242,1.242,0,0,0-.776-2.36c-.652.214-1.3.454-1.942.711a1.242,1.242,0,0,0,.466,2.393Z" transform="translate(-24.392 -43.671)"/>
          <path id="Trazado_211044" data-name="Trazado 211044" d="M44.277,106.507a1.236,1.236,0,0,0,.723-.233c.514-.368,1.046-.724,1.583-1.058a1.242,1.242,0,0,0-1.311-2.11c-.583.362-1.162.749-1.719,1.149a1.242,1.242,0,0,0,.725,2.251Z" transform="translate(-19.344 -46.11)"/>
          <path id="Trazado_211045" data-name="Trazado 211045" d="M21.72,145.506a1.242,1.242,0,0,0-1.32,1.158c-.045.684-.067,1.379-.067,2.066a1.242,1.242,0,0,0,2.484,0c0-.633.021-1.274.062-1.9A1.242,1.242,0,0,0,21.72,145.506Z" transform="translate(-9.173 -65.189)"/>
          <path id="Trazado_211046" data-name="Trazado 211046" d="M95.227,98.479c-.637-.258-1.29-.5-1.942-.711a1.242,1.242,0,0,0-.776,2.36c.6.2,1.2.417,1.786.654a1.3,1.3,0,0,0,1.617-.686,1.242,1.242,0,0,0-.686-1.617Z" transform="translate(-41.13 -43.774)"/>
          <path id="Trazado_211047" data-name="Trazado 211047" d="M124.562,123.758c-.314-.611-.654-1.219-1.008-1.808a1.242,1.242,0,1,0-2.128,1.281c.326.542.638,1.1.928,1.663a1.26,1.26,0,0,0,1.673.536A1.242,1.242,0,0,0,124.562,123.758Z" transform="translate(-54.385 -54.367)"/>
          <path id="Trazado_211048" data-name="Trazado 211048" d="M130.042,145.737a1.242,1.242,0,0,0-1.158,1.32c.041.63.062,1.271.062,1.9a1.242,1.242,0,1,0,2.484,0c0-.687-.023-1.382-.067-2.066A1.242,1.242,0,0,0,130.042,145.737Z" transform="translate(-57.805 -65.292)"/>
          <path id="Trazado_211049" data-name="Trazado 211049" d="M128.591,137.449a1.242,1.242,0,0,0,.916-1.5c-.161-.668-.347-1.339-.552-1.994a1.242,1.242,0,0,0-2.371.742c.189.6.359,1.22.508,1.835A1.321,1.321,0,0,0,128.591,137.449Z" transform="translate(-56.751 -59.625)"/>
          <path id="Trazado_211050" data-name="Trazado 211050" d="M115.482,111.554a1.242,1.242,0,0,0-1.768,1.744c.444.45.878.921,1.292,1.4a1.242,1.242,0,0,0,1.88-1.624C116.436,112.554,115.964,112.043,115.482,111.554Z" transform="translate(-50.85 -49.813)"/>
          <path id="Trazado_211051" data-name="Trazado 211051" d="M105.474,106.5a1.242,1.242,0,1,0,1.448-2.018c-.558-.4-1.136-.787-1.719-1.149a1.242,1.242,0,1,0-1.311,2.11C104.428,105.781,104.961,106.136,105.474,106.5Z" transform="translate(-46.347 -46.213)"/>
          <path id="Trazado_211052" data-name="Trazado 211052" d="M101.239,131.159a1.242,1.242,0,0,0-.307,1.729,16.182,16.182,0,0,1,2.926,9.315,1.242,1.242,0,1,0,2.484,0,18.653,18.653,0,0,0-3.374-10.738A1.242,1.242,0,0,0,101.239,131.159Z" transform="translate(-45.183 -58.661)"/>
        </g>
      </g>
    </g>
  </g>
</svg>
