<svg xmlns="http://www.w3.org/2000/svg" width="157" height="157" viewBox="0 0 157 157">
  <g id="Grupo_153039" data-name="Grupo 153039" transform="translate(-458 -5955.218)">
    <rect id="Rectángulo_44692" data-name="Rectángulo 44692" width="157" height="157" rx="78.5" transform="translate(458 5955.218)" fill="#fff"/>
    <g id="Grupo_152746" data-name="Grupo 152746" transform="translate(5 121.815)">
      <path id="Trazado_159605" data-name="Trazado 159605" d="M-470.861,179.37c.175-.08.358-.146.523-.242,2.329-1.345,3.943-.936,5.3,1.349q5.929,10.012,11.856,20.026c1.287,2.175.875,3.905-1.309,5.155-1.455.832-2.782,1.929-4.505,2.241a4.132,4.132,0,0,1-2.312-.087c-1.124-.472-1.767.336-2.554.751-.451.238.016.5.132.7a4.942,4.942,0,0,1-3.725,7.533,1.63,1.63,0,0,1-.773.005c-1.208-.512-1.541.089-1.93,1.153a4.737,4.737,0,0,1-5.027,2.9c-.311-.033-.576-.189-.731.319-1.128,3.7-3.715,4.956-7.331,3.525a5.734,5.734,0,0,1-1.612,3,8.419,8.419,0,0,1-2.411,1.274h-2.148c-1.473-.851-2.958-1.683-4.41-2.567-.407-.248-.557-.018-.805.193a4.866,4.866,0,0,1-7.708-1.263c-.205-.345-.329-.489-.8-.372a4.836,4.836,0,0,1-6.137-3.325c-.132-.373-.243-.529-.647-.494a5.381,5.381,0,0,1-3.292-.971,5.29,5.29,0,0,1-1.611-2.385c-.134-.561-.385-.719-.981-.715a4.84,4.84,0,0,1-4.908-5.147,7.072,7.072,0,0,1,1.762-3.826c.146-.208.62-.4.234-.788-.3-.295-.577-.116-.874.034a5.634,5.634,0,0,1-5.59-.155q-1.529-.857-3.013-1.792a3.123,3.123,0,0,1-1.119-4.407q6.2-10.538,12.459-21.039a3.12,3.12,0,0,1,4.324-1.164c1.169.634,2.324,1.305,3.429,2.044a5.042,5.042,0,0,1,2.448,4.511c-.058,1.222.555,1.591,1.418,1.933a4.5,4.5,0,0,0,3.333,0c.759-.284,1.53-.547,2.265-.885a7.888,7.888,0,0,1,7.9.477,1.445,1.445,0,0,0,1.277.126c1.47-.408,2.954-.76,4.429-1.149a7.018,7.018,0,0,1,4.494.257c.995.395,1.992.783,2.987,1.176a4.794,4.794,0,0,0,2.494.242c.456-.066.674-.18.562-.8a5.657,5.657,0,0,1,2.932-6.247C-471.995,180.112-471.432,179.734-470.861,179.37ZM-471.087,192c-1.3.264-1.612.139-2.328-1.144-.355-.636-.648-.968-1.487-.632a5.949,5.949,0,0,1-3.371.169,19.446,19.446,0,0,1-3.934-1.4,4.778,4.778,0,0,0-3.324-.255c-1.373.389-2.769.7-4.147,1.074a3.683,3.683,0,0,0-3.01,3.889c-.024,1.854.035,3.71-.024,5.563-.026.83.317.921.988.79a3.6,3.6,0,0,0,2.807-3.531,1.633,1.633,0,0,1,.923-1.574,1.763,1.763,0,0,1,1.731.335c6.038,3.571,12.094,7.111,18.094,10.746a2.142,2.142,0,0,0,2.821,0c.5-.386.581-.572.252-1.112-1.438-2.356-2.827-4.742-4.23-7.119-.683-1.158-.631-1.573.3-2.576a1.907,1.907,0,0,1,2.3,1.144c1.341,2.379,2.764,4.712,4.166,7.057a2.871,2.871,0,0,0,4.254,1.088c.76-.439,1.492-.932,2.27-1.335.611-.317.667-.627.309-1.211-1.275-2.079-2.5-4.188-3.744-6.287-2.7-4.561-5.412-9.116-8.089-13.691-.358-.611-.637-.781-1.265-.342-.771.539-1.626.955-2.421,1.462a2.8,2.8,0,0,0-.987,3.978c.458.824.956,1.626,1.433,2.439C-470.126,190.674-470.17,191.049-471.087,192Zm-35.206,13.527a4.978,4.978,0,0,1,4.925,3.485c.15.463.312.589.789.6a4.825,4.825,0,0,1,4.925,5.967c-.082.449-.036.652.448.831a4.836,4.836,0,0,1,2.99,6.818c-.205.486-.122.664.3.895.855.467,1.672,1,2.519,1.484a2,2,0,0,0,2.9-.549,2.032,2.032,0,0,0-.912-2.887c-.886-.543-1.808-1.031-2.67-1.609a1.378,1.378,0,0,1-.415-1.973,1.407,1.407,0,0,1,1.874-.55,6.568,6.568,0,0,1,.764.429c2.012,1.192,4.017,2.4,6.038,3.574a1.906,1.906,0,0,0,2.356-.184,1.9,1.9,0,0,0,.572-2.129,2.258,2.258,0,0,0-1.165-1.253q-3.4-2.005-6.8-4.017a1.492,1.492,0,0,1-.808-1.716,1.405,1.405,0,0,1,1.229-1.1,1.955,1.955,0,0,1,1.358.44q4.445,2.63,8.89,5.259c1.421.84,2.592.708,3.24-.36.68-1.122.248-2.182-1.255-3.073q-3.144-1.863-6.289-3.723c-.978-.58-1.966-1.143-2.924-1.755a1.429,1.429,0,0,1-.551-2.021,1.458,1.458,0,0,1,2.038-.505c.29.144.564.32.843.486l11.738,6.954a2.385,2.385,0,0,0,1.737.484A1.923,1.923,0,0,0-466,212.316a2.005,2.005,0,0,0-1.21-2.314q-9.217-5.473-18.433-10.944c-.483-.288-.689-.336-.965.263a6.263,6.263,0,0,1-4.369,3.574c-2.831.709-4.657-.726-4.659-3.646,0-1.888-.007-3.776,0-5.664a7.286,7.286,0,0,1,.877-3.459c.2-.382.864-.731.52-1.169-.288-.367-.92-.42-1.45-.461a4.65,4.65,0,0,0-2.008.3c-.972.364-1.943.732-2.909,1.114a7.391,7.391,0,0,1-6.663-.374c-.494-.28-.684-.163-.952.293-2.816,4.788-5.659,9.559-8.481,14.343-.128.216-.464.449-.2.756.281.324.6.213.966.063a4.812,4.812,0,0,1,6.014,1.515c.305.374.45.4.815.1A4.639,4.639,0,0,1-506.293,205.53Zm-16.006-.516a2.775,2.775,0,0,0,2.556-1.495q1.361-2.309,2.734-4.612,3.452-5.828,6.9-11.66a2.806,2.806,0,0,0-.968-4.194c-.742-.467-1.538-.853-2.254-1.356-.67-.471-1-.333-1.4.362q-5.551,9.457-11.166,18.877c-1.06,1.789-1.066,1.8.781,2.858A5.6,5.6,0,0,0-522.3,205.013Zm12.275,13.187a1.766,1.766,0,0,0,1.3-.676c1.476-2.018,2.96-4.031,4.368-6.1a1.862,1.862,0,0,0-.572-2.581,1.858,1.858,0,0,0-2.624.337c-1.482,1.972-2.945,3.964-4.307,6.019A1.974,1.974,0,0,0-510.024,218.2Zm9.614-5.663a1.725,1.725,0,0,0-1.533.7c-1.454,1.992-2.913,3.982-4.3,6.019a1.889,1.889,0,0,0,.515,2.594,1.91,1.91,0,0,0,2.636-.3c1.5-1.995,2.993-4.007,4.36-6.1A1.919,1.919,0,0,0-500.411,212.538Zm-15.421,1.6a1.676,1.676,0,0,0,1.466-.628c.768-1,1.533-2.014,2.212-3.078a1.9,1.9,0,0,0-.544-2.59,1.9,1.9,0,0,0-2.629.3,27.413,27.413,0,0,0-2.2,3.085A1.928,1.928,0,0,0-515.832,214.136Zm15.837,8.675a2,2,0,0,0,1.272,2.024,1.784,1.784,0,0,0,2.132-.5,19,19,0,0,0,1.608-2.2,1.93,1.93,0,0,0-.489-2.612,1.977,1.977,0,0,0-2.71.358c-.552.68-1.038,1.415-1.533,2.14A1.5,1.5,0,0,0-499.995,222.811Z" transform="translate(1036.222 5735.434)" fill="#040303"/>
      <path id="Trazado_159606" data-name="Trazado 159606" d="M-549.293,80c-.259,1.141-.665,1.518-1.781,1.521-5.01.011-10.02.054-15.028-.014a7.4,7.4,0,0,1-7.486-7.6q-.027-38.741,0-77.481a7.4,7.4,0,0,1,5.341-7.323c.191-.066.481-.013.549-.314h46.681c2.034.422,3.408,1.8,4.8,3.211q6,6.071,12.074,12.067a7.19,7.19,0,0,1,2.288,5.467q-.071,11.851,0,23.7a2.012,2.012,0,0,1-1.388,2.247c-1.4-.455-1.576-.7-1.576-2.248,0-7.94-.01-15.88.016-23.821,0-.754-.174-.992-.96-.976-2.6.052-5.206.026-7.81.018A7.57,7.57,0,0,1-521.547.5c-.012-2.538-.045-5.078.021-7.614.023-.914-.175-1.188-1.148-1.185-14.254.036-28.508.069-42.761-.012a4.976,4.976,0,0,0-5.258,5.253q.1,38.22,0,76.441a4.925,4.925,0,0,0,5.287,5.227c4.749-.1,9.5-.015,14.253-.035C-550.121,78.565-549.464,78.936-549.293,80Zm41.969-74.545L-518.573-5.791c.052,2.452-.152,4.984.109,7.5a4.206,4.206,0,0,0,3.572,3.641C-512.342,5.624-509.776,5.424-507.324,5.453Z" transform="translate(1068.601 5875.609)" fill="#040303"/>
      <path id="Trazado_159608" data-name="Trazado 159608" d="M-469.912,234.313a4.639,4.639,0,0,0-2.81,1.073c-.364.3-.51.278-.815-.1a4.812,4.812,0,0,0-6.014-1.515c-.368.151-.685.262-.967-.063-.266-.307.07-.539.2-.756,2.822-4.784,5.665-9.555,8.481-14.343.268-.456.458-.573.952-.293a7.391,7.391,0,0,0,6.663.374c.965-.381,1.936-.749,2.909-1.114a4.65,4.65,0,0,1,2.008-.3c.53.041,1.162.094,1.45.461.344.439-.316.787-.52,1.169a7.286,7.286,0,0,0-.877,3.459c-.01,1.888,0,3.776,0,5.664,0,2.92,1.828,4.355,4.659,3.646a6.263,6.263,0,0,0,4.369-3.574c.276-.6.483-.551.965-.263q9.207,5.488,18.433,10.944a2.005,2.005,0,0,1,1.21,2.314,1.923,1.923,0,0,1-1.606,1.508,2.384,2.384,0,0,1-1.737-.484L-444.7,235.17c-.279-.165-.553-.342-.843-.486a1.458,1.458,0,0,0-2.038.505,1.429,1.429,0,0,0,.551,2.021c.958.611,1.946,1.175,2.924,1.755q3.143,1.864,6.289,3.723c1.5.891,1.935,1.952,1.255,3.073-.648,1.069-1.819,1.2-3.24.36q-4.446-2.628-8.89-5.259a1.955,1.955,0,0,0-1.358-.44,1.405,1.405,0,0,0-1.229,1.1,1.492,1.492,0,0,0,.808,1.716q3.4,2.005,6.8,4.017a2.258,2.258,0,0,1,1.165,1.253,1.9,1.9,0,0,1-.572,2.129,1.907,1.907,0,0,1-2.356.184c-2.021-1.177-4.026-2.382-6.038-3.574a6.574,6.574,0,0,0-.764-.429,1.407,1.407,0,0,0-1.874.55,1.378,1.378,0,0,0,.415,1.973c.862.578,1.784,1.065,2.67,1.609a2.032,2.032,0,0,1,.912,2.887,2,2,0,0,1-2.9.549c-.847-.482-1.664-1.017-2.519-1.484-.422-.231-.505-.409-.3-.895a4.836,4.836,0,0,0-2.99-6.818c-.484-.179-.529-.382-.448-.831a4.825,4.825,0,0,0-4.925-5.967c-.477-.008-.639-.133-.789-.6A4.978,4.978,0,0,0-469.912,234.313Z" transform="translate(999.841 5706.65)" fill="#fdeae1"/>
      <path id="Trazado_159609" data-name="Trazado 159609" d="M-363.715,224.183c-.929,1-.981,1.418-.3,2.576,1.4,2.378,2.792,4.763,4.23,7.119.33.54.246.726-.252,1.112a2.142,2.142,0,0,1-2.821,0c-6-3.635-12.056-7.174-18.094-10.746a1.763,1.763,0,0,0-1.731-.335,1.633,1.633,0,0,0-.923,1.574,3.6,3.6,0,0,1-2.807,3.531c-.67.132-1.014.04-.988-.79.059-1.853,0-3.708.024-5.563a3.683,3.683,0,0,1,3.01-3.889c1.378-.375,2.773-.685,4.147-1.074a4.778,4.778,0,0,1,3.324.255,19.446,19.446,0,0,0,3.934,1.4,5.949,5.949,0,0,0,3.371-.169c.839-.336,1.132,0,1.487.632.717,1.284,1.027,1.408,2.328,1.144Z" transform="translate(930.909 5706.468)" fill="#f9cda1"/>
      <path id="Trazado_159610" data-name="Trazado 159610" d="M-306.863,203.881l-2.059-3.215c.917-.953.961-1.329.284-2.483-.477-.814-.975-1.615-1.433-2.439a2.8,2.8,0,0,1,.987-3.978c.795-.506,1.65-.923,2.421-1.462.628-.439.908-.27,1.265.342,2.677,4.575,5.388,9.13,8.089,13.691,1.243,2.1,2.468,4.208,3.744,6.287.358.584.3.894-.309,1.211-.778.4-1.51.9-2.27,1.335a2.871,2.871,0,0,1-4.254-1.088c-1.4-2.345-2.825-4.678-4.166-7.057A1.907,1.907,0,0,0-306.863,203.881Z" transform="translate(874.057 5726.771)" fill="#c6412a"/>
      <path id="Trazado_159611" data-name="Trazado 159611" d="M-513.227,213.749a5.6,5.6,0,0,1-2.821-1.219c-1.847-1.059-1.841-1.069-.781-2.858q5.591-9.434,11.165-18.877c.408-.7.734-.833,1.4-.362.715.5,1.512.889,2.254,1.356a2.806,2.806,0,0,1,.968,4.194q-3.438,5.837-6.9,11.66-1.366,2.306-2.734,4.612A2.773,2.773,0,0,1-513.227,213.749Z" transform="translate(1027.151 5726.698)" fill="#6677d6"/>
      <path id="Trazado_159612" data-name="Trazado 159612" d="M-459.955,303.678a1.974,1.974,0,0,1-1.836-3c1.362-2.055,2.825-4.047,4.307-6.019a1.858,1.858,0,0,1,2.624-.337,1.862,1.862,0,0,1,.572,2.581c-1.408,2.065-2.892,4.078-4.368,6.1A1.766,1.766,0,0,1-459.955,303.678Z" transform="translate(986.152 5649.956)" fill="#f9cda1"/>
      <path id="Trazado_159613" data-name="Trazado 159613" d="M-434.405,309.591a1.92,1.92,0,0,1,1.675,2.915c-1.366,2.089-2.856,4.1-4.36,6.1a1.91,1.91,0,0,1-2.636.3,1.889,1.889,0,0,1-.515-2.594c1.39-2.037,2.849-4.026,4.3-6.019A1.727,1.727,0,0,1-434.405,309.591Z" transform="translate(970.216 5638.38)" fill="#f9cda1"/>
      <path id="Trazado_159614" data-name="Trazado 159614" d="M-481.731,296.755a1.929,1.929,0,0,1-1.694-2.907,27.413,27.413,0,0,1,2.2-3.085,1.9,1.9,0,0,1,2.629-.3,1.9,1.9,0,0,1,.544,2.59c-.679,1.064-1.444,2.074-2.212,3.078A1.678,1.678,0,0,1-481.731,296.755Z" transform="translate(1002.122 5652.815)" fill="#f9cda1"/>
      <path id="Trazado_159615" data-name="Trazado 159615" d="M-415.354,338.587a1.5,1.5,0,0,1,.279-.8c.5-.724.981-1.46,1.533-2.14a1.977,1.977,0,0,1,2.71-.358,1.93,1.93,0,0,1,.489,2.612,19.009,19.009,0,0,1-1.608,2.2,1.784,1.784,0,0,1-2.132.5A2,2,0,0,1-415.354,338.587Z" transform="translate(951.582 5619.658)" fill="#f9cda1"/>
      <path id="Trazado_159616" data-name="Trazado 159616" d="M-351.207,20.85c-2.452-.029-5.018.172-7.568-.1a4.206,4.206,0,0,1-3.572-3.641c-.261-2.52-.057-5.052-.109-7.5Z" transform="translate(912.484 5860.211)" fill="#ffef0f"/>
      <path id="Trazado_159617" data-name="Trazado 159617" d="M-508.07,92.117h23.029c.293,0,.587-.013.878.009a1.42,1.42,0,0,1,1.423,1.428,1.474,1.474,0,0,1-1.371,1.5,6.538,6.538,0,0,1-.78.014l-46.449,0h-.1c-1.389,0-2.107-.494-2.129-1.456s.694-1.484,2.076-1.484q11.71,0,23.42,0Z" transform="translate(1038.996 5799.198)" fill="#040303"/>
      <path id="Trazado_159618" data-name="Trazado 159618" d="M-508.174,129.665H-531.3a8.5,8.5,0,0,1-.878-.011,1.37,1.37,0,0,1-1.32-1.329,1.374,1.374,0,0,1,1.092-1.525,3.545,3.545,0,0,1,.966-.07q23.323-.007,46.645-.006a3.923,3.923,0,0,1,.875.036,1.39,1.39,0,0,1,1.211,1.525,1.333,1.333,0,0,1-1.363,1.371c-.746.042-1.5.01-2.244.01Z" transform="translate(1038.951 5773.611)" fill="#040303"/>
      <path id="Trazado_159619" data-name="Trazado 159619" d="M-520.082,52.922q5.612,0,11.223,0a5.455,5.455,0,0,1,1.067.069,1.338,1.338,0,0,1,1.118,1.3,1.333,1.333,0,0,1-.934,1.44,3.187,3.187,0,0,1-1.054.133q-11.467.011-22.933.008a1.88,1.88,0,0,1-1.53-.474,1.352,1.352,0,0,1-.346-1.435,1.343,1.343,0,0,1,1.1-.986,7.355,7.355,0,0,1,1.069-.058Q-525.693,52.918-520.082,52.922Z" transform="translate(1038.985 5828.18)" fill="#040303"/>
    </g>
  </g>
</svg>
