<svg xmlns="http://www.w3.org/2000/svg" width="91.924" height="124.595" viewBox="0 0 91.924 124.595">
  <g id="Grupo_153052" data-name="Grupo 153052" transform="translate(-1315 -332.518)">
    <g id="Grupo_135370" data-name="Grupo 135370" transform="translate(21.962 -15)">
      <g id="Grupo_114642" data-name="Grupo 114642" transform="translate(-184.334 -75.027)">
        <path id="Trazado_163577" data-name="Trazado 163577" d="M1413.036,996.118V953.585l3.226-35.06v51.209Z" transform="translate(64.336 -470.377)" fill="#3f2572"/>
        <g id="Grupo_114641" data-name="Grupo 114641" transform="translate(11679.333 12451)">
          <path id="Trazado_163573" data-name="Trazado 163573" d="M1497.676,985.9V969.48l-37.064-21.4-37.065,21.4V985.9h-7.284l-3.226,26.383,37.064,21.4,37.065-21.4L1504.96,985.9Z" transform="translate(-11614.997 -12937.537)" fill="#4e2e8e"/>
          <path id="Trazado_163574" data-name="Trazado 163574" d="M1497.675,985.9V969.48l-37.064-21.4-37.065,21.4V985.9h-7.284l-3.226,26.383,37.065,21.4,37.065-21.4,17.794-26.383Z" transform="translate(-11614.997 -12937.537)" fill="#030403" opacity="0.2" style="mix-blend-mode: multiply;isolation: isolate"/>
          <path id="Trazado_163575" data-name="Trazado 163575" d="M1464.5,862.029l-44.348,25.6v51.209l44.348,25.6,44.349-25.6V887.633Z" transform="translate(-11618.891 -12890.483)" fill="#4e2e8e"/>
          <path id="Trazado_163576" data-name="Trazado 163576" d="M1473.292,880.587l-37.065,21.4v42.8l37.065,21.4,37.065-21.4v-42.8Z" transform="translate(-11627.678 -12900.632)" fill="#fff"/>
        </g>
      </g>
    </g>
    <g id="Grupo_152941" data-name="Grupo 152941" transform="translate(1879.284 -581.208)">
      <path id="Trazado_159501" data-name="Trazado 159501" d="M-518.347,984.519q-11.458,0-22.916.01c-.412,0-.533-.088-.507-.507a17.349,17.349,0,0,1,.171-3.385,5.3,5.3,0,0,1,3.9-3.961,4.155,4.155,0,0,1,.731-.181.8.8,0,0,0,.8-.787.53.53,0,0,0-.194-.593,4.3,4.3,0,0,1-1.522-2.587.5.5,0,0,0-.312-.414,3.372,3.372,0,0,1-1.676-4.668.506.506,0,0,0,0-.477,3.474,3.474,0,0,1,.895-4.272.659.659,0,0,0,.246-.562c-.008-2.22.006-4.441-.015-6.661,0-.386.116-.487.468-.446a3.238,3.238,0,0,0,.661,0,.785.785,0,0,0,.754-.666.756.756,0,0,0-.423-.867,6.613,6.613,0,0,0-.822-.351c-.2-.073-.208-.177-.135-.352.708-1.694,1.417-3.388,2.11-5.088.093-.228.189-.231.38-.142.255.12.52.22.786.315a.742.742,0,0,0,.911-.3.775.775,0,0,0-.016-.965,1.677,1.677,0,0,0-.157-.176c-.65-.684-.65-.684,0-1.338,1.113-1.114,2.233-2.221,3.335-3.346.215-.22.347-.244.545,0a4.141,4.141,0,0,0,.537.529.754.754,0,0,0,.96.072.759.759,0,0,0,.344-.938c-.029-.089-.065-.177-.1-.264-.322-.8-.323-.8.451-1.117,1.494-.616,2.993-1.221,4.482-1.849.255-.108.382-.115.47.178a4.247,4.247,0,0,0,.313.735.754.754,0,0,0,.866.423.8.8,0,0,0,.674-.749c.006-.047,0-.094,0-.142.029-.983.029-.983,1-.983,1.528,0,3.056.017,4.583-.011.41-.008.521.116.469.494a3.163,3.163,0,0,0,0,.613.781.781,0,0,0,.644.771.791.791,0,0,0,.909-.433,1.806,1.806,0,0,0,.074-.172c.381-.863.381-.863,1.281-.49,1.435.595,2.867,1.2,4.308,1.778.3.121.37.251.216.538a4.593,4.593,0,0,0-.281.7.744.744,0,0,0,.323.905.745.745,0,0,0,.961-.039,5.858,5.858,0,0,0,.608-.593c.157-.175.258-.2.443-.012q1.907,1.935,3.843,3.841c.207.2.168.315-.022.477a6.649,6.649,0,0,0-.5.5.774.774,0,0,0-.118,1.033.766.766,0,0,0,.988.318c.044-.017.09-.029.133-.046.873-.338.872-.338,1.225.514.6,1.45,1.188,2.906,1.813,4.345.142.327.061.438-.231.533a4.49,4.49,0,0,0-.653.268.768.768,0,0,0-.449.9.8.8,0,0,0,.76.662c.016,0,.032,0,.047,0,.342.023.809-.15.995.064.22.254.066.72.067,1.093q.009,3.709,0,7.417a.9.9,0,0,0,.252.669,7.5,7.5,0,0,1,2.022,5.283,57.914,57.914,0,0,1-.634,7.9,1.445,1.445,0,0,0,.306,1.247,4.9,4.9,0,0,1,1.078,3.1c.013.771-.016,1.544.014,2.314.013.344-.1.4-.419.4q-6.78-.016-13.56-.008Zm9.011-19.555a4.251,4.251,0,0,1,.425-.5,1.314,1.314,0,0,0,.431-1.124c-.028-1.638-.011-3.276-.011-4.914,0-1.147,0-1.132,1.145-1.138.333,0,.379.117.374.4-.017.819-.006,1.638-.006,2.457v2.664c.441-.19.82-.372,1.213-.515a.382.382,0,0,0,.305-.434c-.02-.629-.007-1.26-.007-1.89,0-1.25,0-1.244,1.253-1.169.207.012.268.068.264.271-.012.551-.008,1.1,0,1.654,0,.359-.113.83.068,1.047s.678.011,1.03.067c.326.052.424-.043.421-.386-.01-1.2,0-1.2,1.224-1.142.233.01.292.081.284.3-.015.425-.009.85,0,1.276,0,.113-.064.257.1.326.457.189.913.382,1.406.588,0-1.033-.019-2.024.01-3.013a.618.618,0,0,0-.444-.694c-2.943-1.268-5.875-2.56-8.812-3.843-.427-.187-.857-.364-1.352-.573v10.17a9.361,9.361,0,0,0-1.038.014c-.408.048-.478-.107-.477-.488q.022-6.634.006-13.268c0-.4.177-.979-.076-1.163s-.776.042-1.18.1q-5.946.888-11.891,1.776c-.328.048-.463.137-.461.513.018,3.683.014,7.366.007,11.048,0,.481.211,1.144-.089,1.394s-.928.064-1.413.07V954.729a1.227,1.227,0,0,0-.227.042q-5.073,2.216-10.147,4.431a.354.354,0,0,0-.227.4c.009.6.033,1.2-.007,1.795-.028.412.1.518.489.448a2.2,2.2,0,0,1,.66,0c.325.041.395-.1.38-.394-.018-.357-.122-.841.061-1.044.218-.241.711-.041,1.082-.083.283-.032.385.051.372.355-.016.372-.17.871.061,1.088.251.236.748.048,1.137.073.016,0,.032,0,.047,0,.214.033.265-.07.261-.269-.011-.535,0-1.071,0-1.606,0-1.178,0-1.164,1.171-1.159.318,0,.351.119.347.383-.014.835-.008,1.669,0,2.5,0,.124-.073.293.143.341a9.314,9.314,0,0,1,1.366.51V958.4c0-1.1,0-1.088,1.081-1.107.347-.006.445.073.441.434-.02,1.89-.01,3.78-.008,5.67a.765.765,0,0,0,.113.535c.26.331.489.687.731,1.033a6.378,6.378,0,0,1-1.376,7.484,2.058,2.058,0,0,0-.546.854,4.039,4.039,0,0,1-1.3,1.818.525.525,0,0,0-.189.594.833.833,0,0,0,.8.786,5.565,5.565,0,0,1,3.883,2.427c.193.3.254.059.34-.067a5.288,5.288,0,0,1,2.78-2.081,8.309,8.309,0,0,1,1.367-.355c.487-.071.376-.463.494-.739a.4.4,0,0,0-.17-.552,2.671,2.671,0,0,1-.895-1.023,11.628,11.628,0,0,0-1.754-2.577c-1.639-2.083-1.813-5.96.1-7.923a.657.657,0,0,0,.154-.519c0-1.307.008-2.614-.008-3.921,0-.285.06-.372.359-.367,1.276.019,2.552.015,3.827,0,.272,0,.394.037.375.351-.03.5-.008,1.007-.008,1.511,0,1.209,0,1.2,1.2,1.175.249-.005.316-.072.312-.317-.015-.787.01-1.575-.013-2.362-.009-.3.081-.363.367-.359q1.913.024,3.827,0c.284,0,.373.058.368.359-.02,1.165.006,2.331-.015,3.5a1.538,1.538,0,0,0,.422,1.278,2.993,2.993,0,0,1,.593.957,6.938,6.938,0,0,1-1.579,7.6,1.249,1.249,0,0,0-.419.551,4.441,4.441,0,0,1-1.432,2.12c-.091.076-.213.122-.214.285a.977.977,0,0,0,.783,1.028c.183.045.368.085.551.128a5.467,5.467,0,0,1,3.372,2.248c.058.083.078.212.23.227.284-.47.743-.811.626-1.519a59.413,59.413,0,0,1-.631-6.2C-510.862,969.092-510.744,966.893-509.336,964.964Zm-8.6-22.783a16.514,16.514,0,0,1,2.982.37,15.975,15.975,0,0,1,12.323,13.354.564.564,0,0,0,.382.523c.755.31,1.5.646,2.25.971.581.252.589.252.576-.4,0-.221.1-.45-.275-.583a2.305,2.305,0,0,1-.774-3.983c.155-.144.191-.238.109-.429-.335-.779-.656-1.564-.974-2.35a.326.326,0,0,0-.387-.23,2.315,2.315,0,0,1-2.27-3.371.349.349,0,0,0-.076-.479c-.6-.582-1.186-1.174-1.772-1.769a.327.327,0,0,0-.439-.09,2.311,2.311,0,0,1-3.4-2.263.331.331,0,0,0-.242-.382c-.771-.315-1.541-.632-2.307-.958a.352.352,0,0,0-.474.1,2.31,2.31,0,0,1-3.984-.789c-.073-.2-.139-.276-.35-.274-.85.01-1.7.009-2.552,0-.2,0-.283.052-.361.26a2.311,2.311,0,0,1-4.01.78c-.13-.136-.213-.176-.391-.1-.78.334-1.565.654-2.351.972a.352.352,0,0,0-.254.417,2.315,2.315,0,0,1-3.35,2.257.374.374,0,0,0-.516.086q-.853.883-1.737,1.737c-.18.173-.174.3-.072.518a2.316,2.316,0,0,1-2.272,3.342.353.353,0,0,0-.414.263c-.3.742-.6,1.486-.92,2.22a.428.428,0,0,0,.127.587,2.3,2.3,0,0,1-.78,3.9c-.291.105-.359.236-.333.5a2.322,2.322,0,0,1,0,.425c-.024.281.065.32.318.2a16.893,16.893,0,0,1,1.9-.817,1.488,1.488,0,0,0,1.1-1.4A16.008,16.008,0,0,1-517.934,942.181Zm8.68,27.568c.022,1.4.094,2.528.182,3.658s.245,2.25.374,3.374c.036.318.145.318.387.2a7.061,7.061,0,0,1,1.3-.418,1.565,1.565,0,0,0,1.015-.786.45.45,0,0,0-.124-.675,4.354,4.354,0,0,1-1.567-2.822,12.671,12.671,0,0,1-.037-2.123,3.4,3.4,0,0,1,1.619-2.981,1.133,1.133,0,0,0,.675-1.39c-.16-.912-.068-.928.852-.928.617,0,.617,0,.622.629a1.852,1.852,0,0,0,1.607,1.962c.555.107,1.118.171,1.679.244a2.277,2.277,0,0,1,2,2.214c.012.567,0,1.134,0,1.7a4.483,4.483,0,0,1-1.457,3.364c-.476.451-.474.695,0,1.171a1.565,1.565,0,0,0,.775.427,5.656,5.656,0,0,1,1.254.4c.286.142.369.077.4-.238.133-1.329.344-2.653.424-3.985a18.222,18.222,0,0,0,.031-4.333,5.777,5.777,0,0,0-4.35-4.845,5.754,5.754,0,0,0-6.249,1.957A5.745,5.745,0,0,0-509.255,969.749Zm-2.608-24.386,0-.135a14,14,0,0,0-14.161.762,14.126,14.126,0,0,0-6.436,9.584c1.953-.853,3.789-1.66,5.632-2.453.247-.106.192-.289.192-.466,0-1.542.013-3.085-.008-4.627,0-.347.087-.474.437-.525,2.614-.376,5.225-.773,7.836-1.164Zm-1.88,24.883a5.553,5.553,0,0,0,.714-3.251,3.732,3.732,0,0,0-3.038-3.548,22.259,22.259,0,0,0-4.284-.054,2.647,2.647,0,0,0-1.036.3c-1.866.9-2.436,2.557-2.184,4.626a4.042,4.042,0,0,0,.688,1.92,3.854,3.854,0,0,1,2.144-3.381c.185-.1.207-.256.261-.419a2.28,2.28,0,0,1,2.036-1.573c.877-.041.877-.041.877.844,0,.652,0,.652-.633.666-.55.012-.885.306-.876.77a.762.762,0,0,0,.857.74c.614.007,1.227,0,1.841,0A2.357,2.357,0,0,1-513.743,970.246Zm-15.127-.073c.016,0,.04,0,.045-.009a4.44,4.44,0,0,0,.194-4.417,4.128,4.128,0,0,0-3.7-2.382c-1.462-.057-2.928-.023-4.392-.01a2.037,2.037,0,0,0-1.963,1.608,2.085,2.085,0,0,0,.987,2.218,1,1,0,0,0,1.406-.043,2.856,2.856,0,0,0,.834-1,2.077,2.077,0,0,1,1.895-1.274c.878-.056.879-.045.878.841,0,.653,0,.653-.633.667-.552.012-.885.3-.876.77.009.446.33.73.862.739.582.01,1.168.04,1.747-.005A2.39,2.39,0,0,1-528.869,970.173Zm28.691.759h0v-.33c0-1.257-.079-1.346-1.322-1.491-.047-.005-.094-.009-.141-.015a4.5,4.5,0,0,1-2.7-.966c-.141-.134-.292-.053-.438.008a2.183,2.183,0,0,0-1.44,1.978,14.623,14.623,0,0,0,0,1.744,3.026,3.026,0,0,0,3.03,2.83,3.032,3.032,0,0,0,3-2.861C-500.166,971.53-500.178,971.231-500.178,970.932Zm-30.24.256c0-.367,0-.6,0-.839-.006-.682-.263-.947-.934-.951s-1.321-.006-1.982,0a2.216,2.216,0,0,1-1.858-.848c-.185-.235-.3-.191-.478-.028a2.245,2.245,0,0,0-.791,1.651c-.016.534-.016,1.07,0,1.6a3.007,3.007,0,0,0,2.077,2.755,3.011,3.011,0,0,0,3.305-.987A3.272,3.272,0,0,0-530.418,971.189Zm15.122,0c0-.38,0-.631,0-.883-.009-.64-.278-.906-.927-.91-.629,0-1.259-.013-1.887,0a2.289,2.289,0,0,1-1.985-.881c-.154-.2-.255-.166-.411-.032a2.242,2.242,0,0,0-.831,1.68c-.017.534-.017,1.069,0,1.6a3.018,3.018,0,0,0,2.115,2.776,3.01,3.01,0,0,0,3.292-1.035A3.274,3.274,0,0,0-515.3,971.192Zm5.293-24.8c0,2.065.021,4.031-.014,6a.823.823,0,0,0,.608.915c1.721.717,3.423,1.481,5.224,2.268A14.565,14.565,0,0,0-510,946.389Zm-1.56.457q-6.353.954-12.713,1.912c-.852.129-.85.146-.85.959,0,.673,0,.668.667.567q5.825-.882,11.651-1.758c1.378-.206,1.38-.2,1.284-1.572A.492.492,0,0,0-511.562,946.846Zm11.846,31.2a3.068,3.068,0,0,1-2.134-1.836c-.077-.188-.166-.17-.323-.132a4.411,4.411,0,0,1-2.056,0c-.128-.03-.23-.08-.3.1a3.082,3.082,0,0,1-2.141,1.873c.253.33.491.619.7.925a.545.545,0,0,0,.507.255c1.51-.01,3.02,0,4.53-.007.135,0,.279.039.387-.105C-500.281,978.77-500.009,978.429-499.716,978.051Zm-35.355,4.955a.67.67,0,0,0-.219-.387c-.925-1.194-1.877-2.368-2.769-3.587-.3-.416-.5-.364-.83-.081a4.388,4.388,0,0,0-1.36,3.9c.01.165.112.16.225.16Zm3.177,0c1.714,0,3.32,0,4.926,0,.136,0,.322.08.335-.191a4.514,4.514,0,0,0-1.016-3.52c-.733-.788-.738-.793-1.385.038C-529.971,980.53-530.9,981.731-531.9,983.006Zm11.987-.007c-.067-.1-.095-.154-.13-.2q-1.432-1.843-2.866-3.685c-.425-.546-.425-.544-.943-.077a4.378,4.378,0,0,0-1.274,3.787c.009.153.085.176.212.176C-523.264,983-521.619,983-519.908,983Zm3.151,0h3.964c1.363,0,1.376,0,1.257-1.378a3.765,3.765,0,0,0-1.536-2.8c-.128-.1-.248-.249-.422-.022C-514.556,980.177-515.629,981.549-516.756,983Zm11.994,0c-1.05-1.35-2.033-2.615-3.017-3.879-.427-.548-.427-.547-.941-.083A4.38,4.38,0,0,0-510,982.82c.011.194.129.179.256.178Zm3.133,0h4.264c.972,0,.969,0,.966-.976a3.909,3.909,0,0,0-1.487-3.166c-.241-.2-.382-.207-.589.068-.811,1.08-1.65,2.139-2.479,3.2Zm-16.658-3.548a.693.693,0,0,0-.137.059c-.428.318-.852.64-1.28.958-.125.093-.074.174,0,.268.406.519.813,1.037,1.21,1.563.131.174.223.174.351,0,.232-.316.478-.621.718-.931.622-.8.621-.8-.188-1.406C-517.839,979.792-518.062,979.621-518.288,979.451Zm-13.66,1.131c-.064-.061-.119-.115-.177-.166-1.2-1.078-1.2-1.078-2.473-.125-.038.028-.074.059-.114.083-.194.118-.237.23-.069.432.392.47.763.958,1.128,1.45.148.2.243.243.41.015.371-.507.765-1,1.149-1.494C-532.047,980.716-532,980.655-531.948,980.582Zm9.852-18.251a5.915,5.915,0,0,1,1.333-.4c.149-.02.155-.112.17-.229.168-1.254-.006-1.443-1.238-1.372-.2.011-.275.053-.27.265C-522.087,961.153-522.1,961.717-522.1,962.33Zm7.55-.024c0-.517-.025-1.005.008-1.49.026-.377-.06-.51-.473-.5-1.036.032-1.022.009-1.045,1.057-.008.362.047.568.461.619A6.583,6.583,0,0,1-514.545,962.307Zm-19.971,13.759c-.348-.048-.252.283-.29.444-.053.227,1.3,1.074,1.506.949.387-.239.761-.5,1.138-.755.231-.157.027-.343.015-.51-.013-.182-.157-.134-.288-.105A4.377,4.377,0,0,1-534.516,976.066Zm15.125,0c-.35-.05-.254.281-.292.442-.054.226,1.3,1.076,1.5.951.387-.239.761-.5,1.138-.755.232-.157.028-.343.016-.51s-.155-.136-.287-.107A4.372,4.372,0,0,1-519.391,976.067Zm17.539,4.713h-2.695c.419.541.805,1.034,1.184,1.532.11.144.194.179.32.013C-502.659,981.816-502.266,981.315-501.852,980.779Zm-34.985-2.676c.877,1.329.878,1.329,1.978.456.017-.013.02-.043.026-.059C-535.424,978.009-536.021,977.552-536.836,978.1Zm6.8.021c-.866-.611-1.445-.085-2.045.4.3.228.6.449.9.681.135.106.226.121.341-.035C-530.577,978.808-530.3,978.458-530.036,978.124Zm10.364.4c-.635-.513-1.228-.98-2.042-.423a1.191,1.191,0,0,0,.1.165c.29.342.492.938.868.972C-520.416,979.273-520.042,978.794-519.672,978.529Zm2.715-.008c.3.228.594.454.892.675.094.07.186.181.309.017.286-.381.583-.754.853-1.1C-515.762,977.534-516.348,978.035-516.958,978.52Zm-21.068-8.065a4.715,4.715,0,0,1,.158-1.034c.2-.5-.043-.68-.442-.871-.318-.152-.388-.029-.413.234A1.884,1.884,0,0,0-538.026,970.455Z" transform="translate(0 0)" fill="#4e2e8e"/>
      <path id="Trazado_159534" data-name="Trazado 159534" d="M-345.62,1059.643c0,.661-.008,1.322,0,1.982,0,.219-.048.3-.283.3q-2.006-.016-4.012,0c-.215,0-.26-.074-.259-.272q.011-2.006,0-4.012c0-.2.044-.273.259-.271q2.006.014,4.012,0c.236,0,.287.078.283.3C-345.628,1058.321-345.62,1058.982-345.62,1059.643Zm-1.522-.027c0-.723,0-.723-.743-.723-.759,0-.759,0-.759.755s0,.747.719.747C-347.143,1060.393-347.143,1060.393-347.143,1059.616Z" transform="translate(-167.403 -104.61)" fill="#4e2e8e"/>
      <path id="Trazado_159535" data-name="Trazado 159535" d="M-393.523,1059.6c0,.661-.006,1.322,0,1.982,0,.216-.013.337-.294.333-1.322-.017-2.643-.012-3.965,0-.219,0-.3-.048-.3-.283q.017-2.006,0-4.012c0-.215.074-.26.272-.259,1.337.007,2.675.011,4.012,0,.254,0,.273.107.27.308C-393.529,1058.313-393.523,1058.958-393.523,1059.6Zm-1.522.059c0-.774,0-.774-.739-.774-.762,0-.762,0-.762.75s0,.751.763.751C-395.045,1060.389-395.045,1060.389-395.045,1059.662Z" transform="translate(-125.549 -104.605)" fill="#4e2e8e"/>
    </g>
  </g>
</svg>
