<svg xmlns="http://www.w3.org/2000/svg" width="91.924" height="124.595" viewBox="0 0 91.924 124.595">
  <g id="Grupo_135411" data-name="Grupo 135411" transform="translate(-961.386 -99.554)">
    <g id="Grupo_114644" data-name="Grupo 114644">
      <path id="Trazado_163579" data-name="Trazado 163579" d="M816.213,985.9V969.48l37.065-21.4,37.065,21.4V985.9h7.284l3.226,26.383-37.065,21.4-37.065-21.4L808.929,985.9Z" transform="translate(152.457 -809.528)" fill="#c6412a"/>
      <path id="Trazado_163581" data-name="Trazado 163581" d="M853.278,862.029l44.348,25.6v51.209l-44.348,25.6-44.348-25.6V887.633Z" transform="translate(152.457 -762.475)" fill="#c6412a"/>
      <path id="Trazado_163582" data-name="Trazado 163582" d="M862.066,880.587l37.065,21.4v42.8l-37.065,21.4L825,944.785v-42.8Z" transform="translate(143.669 -772.623)" fill="#fff"/>
      <path id="Trazado_163583" data-name="Trazado 163583" d="M1007.868,996.118V953.585l-3.226-35.06v51.209Z" transform="translate(45.442 -793.367)" fill="#c6412a"/>
      <path id="Trazado_163600" data-name="Trazado 163600" d="M897.627,987.513l3.226,26.383-37.065,21.4-37.065-21.4L808.93,987.513l45.4,26.383Z" transform="translate(152.456 -811.146)" fill="#030403" opacity="0.2" style="mix-blend-mode: multiply;isolation: isolate"/>
      <path id="Trazado_163601" data-name="Trazado 163601" d="M1007.868,996.118V953.585l-3.226-35.06v51.209Z" transform="translate(45.442 -793.367)" fill="#030403" opacity="0.1" style="mix-blend-mode: multiply;isolation: isolate"/>
    </g>
    <g id="Grupo_109695" data-name="Grupo 109695" transform="translate(345.498 45.412)">
      <path id="Trazado_160174" data-name="Trazado 160174" d="M687.939,106.648a1.705,1.705,0,0,1-1.55.627q-10.059-.027-20.118-.011c-1.129,0-1.432-.283-1.43-1.4,0-.319-.067-.42-.414-.434a5.337,5.337,0,0,0-4.083,1.486,6.8,6.8,0,0,1-3.414,1.8c-.008.234.189.32.308.443,1.224,1.273,2.48,2.515,3.682,3.807a10.122,10.122,0,0,1-2.955,16.071,9.534,9.534,0,0,1-3.354.948c-.08.007-.173-.014-.2.1h-.306c-.057-.123-.169-.087-.264-.087q-4.169,0-8.339,0c-.1,0-.208-.033-.263.091h-.408c-.171-.212-.432-.149-.648-.184a10.152,10.152,0,0,1-6.407-16.046,43.073,43.073,0,0,1,3.167-3.38c.555-.587,1.124-1.162,1.711-1.767-.1-.059-.16-.094-.219-.122a3.344,3.344,0,0,1-1.625-4.768c.132-.256.044-.329-.126-.478a3.318,3.318,0,0,1-.936-3.875c.121-.291.068-.391-.178-.546a3.329,3.329,0,0,1-.671-5.212.415.415,0,0,0,.061-.624,3.349,3.349,0,0,1,2.746-5.109c.542-.026,1.087-.011,1.63-.013.679,0,.681,0,.468-.619-.891-2.593-1.746-5.2-2.693-7.771a1.153,1.153,0,0,1,1.167-1.648c4.958.033,9.917.014,14.875.016,1.06,0,1.481.581,1.155,1.588q-.853,2.633-1.716,5.262c-.092.278-.135.438.253.512a5.616,5.616,0,0,1,1.55.618,8.262,8.262,0,0,1,2.611,2.455,4.707,4.707,0,0,0,3.444,1.924c.221.02.37.047.388-.275.057-.984.352-1.245,1.33-1.246q4.483,0,8.966,0a3.705,3.705,0,0,0,.657-.047c3.468-.634,6.938-1.261,10.4-1.924.726-.139,1.332-.126,1.744.58V93.2c-.292.282-.547.624-1.013.626a1.054,1.054,0,0,1-1.025-1.206c0-1.052-.024-2.105.01-3.156.014-.443-.146-.5-.521-.427q-4.121.773-8.246,1.525c-.282.051-.425.136-.424.479q.021,6.9,0,13.8c0,.317.091.4.4.4q4.175-.017,8.349,0c.379,0,.442-.131.435-.467-.021-.95-.01-1.9-.006-2.851a1.04,1.04,0,0,1,1.027-1.2,1.207,1.207,0,0,1,1.01.734ZM647.965,90c-.968,0-1.935,0-2.9,0-1.1,0-2.207-.013-3.31.019a1.257,1.257,0,0,0-1.235,1.189,1.311,1.311,0,0,0,1.04,1.423c.131.031.269.031.4.052a1.014,1.014,0,0,1,.034,2.008,4.275,4.275,0,0,1-.609.023,1.333,1.333,0,1,0,.007,2.662c.492.009.985-.015,1.477.009a1.014,1.014,0,0,1,.052,2.027c-.067.009-.136.006-.2.017a1.334,1.334,0,0,0-1.189,1.408,1.311,1.311,0,0,0,1.3,1.246c.169.011.339.008.509.009.9,0,1.347.293,1.4.911.061.653-.281.989-1.176,1.156l-.05.009a1.32,1.32,0,0,0,.039,2.613,3.524,3.524,0,0,0,.558.032c3.735,0,7.47-.007,11.205.006a4.882,4.882,0,0,0,3.529-1.312,7.27,7.27,0,0,1,5.59-2.106c.3.015.406-.05.405-.382q-.02-5.144,0-10.289c0-.274-.061-.372-.356-.387a6.726,6.726,0,0,1-3.39-1.105,9.133,9.133,0,0,1-2.165-2.2,4.886,4.886,0,0,0-2.695-1.8c-.321-.085-.45-.017-.534.306-.131.507-.316,1-.48,1.5-.253.766-.524.963-1.343.964Q650.919,90.006,647.965,90Zm1.452,38.013c1.52,0,2.76.01,4,0a8.053,8.053,0,0,0,1.42-.108,8.107,8.107,0,0,0,4.455-13.687c-1.622-1.714-3.286-3.389-4.926-5.087a.783.783,0,0,0-.615-.277q-4.025.015-8.05,0a.73.73,0,0,0-.58.241c-1.721,1.785-3.5,3.517-5.164,5.352a7.649,7.649,0,0,0-1.593,8.371,7.732,7.732,0,0,0,6.8,5.142C646.671,128.122,648.188,127.979,649.418,128.016Zm17.454-30.011c0,2.258.008,4.515-.008,6.773,0,.348.076.458.442.455q3.488-.026,6.976,0c.331,0,.418-.083.417-.416q-.017-6.8,0-13.6c0-.349-.111-.41-.427-.408q-3.463.019-6.925,0c-.373,0-.489.081-.485.474C666.882,93.524,666.871,95.765,666.871,98.006ZM649.749,79.981c-1.951,0-3.9.008-5.854-.007-.392,0-.448.084-.317.457q1.255,3.567,2.46,7.151a.467.467,0,0,0,.529.39q3.207-.022,6.413,0a.494.494,0,0,0,.576-.4q1.14-3.578,2.328-7.141c.13-.389.041-.455-.333-.452C653.618,79.988,651.683,79.981,649.749,79.981Z" transform="translate(0 0)" fill="#c6412a"/>
      <path id="Trazado_160175" data-name="Trazado 160175" d="M1005.95,213.085v.611a1.321,1.321,0,0,1-1.015.723c-.7-.164-1.048-.533-1.02-1.092.026-.533.369-.859,1.023-.973A1.21,1.21,0,0,1,1005.95,213.085Z" transform="translate(-318.011 -116.118)" fill="#c6412a"/>
      <path id="Trazado_160176" data-name="Trazado 160176" d="M705.364,460.309c.055-.123.167-.091.263-.091q4.169,0,8.339,0c.1,0,.207-.035.264.087Z" transform="translate(-60.124 -330.221)" fill="#c6412a"/>
      <path id="Trazado_160182" data-name="Trazado 160182" d="M717.608,329.244a1.021,1.021,0,0,1,1.019,1.339,2.312,2.312,0,0,1-.2.408q-2.985,5.024-5.973,10.046a3.093,3.093,0,0,1-.191.3,1.009,1.009,0,0,1-1.722-1.046c.126-.258.282-.5.429-.749q2.844-4.782,5.687-9.566C716.891,329.576,717.164,329.258,717.608,329.244Z" transform="translate(-64.493 -217.088)" fill="#c6412a"/>
      <path id="Trazado_160183" data-name="Trazado 160183" d="M750.866,381.731a3.136,3.136,0,0,1-2.855,3.25,3.192,3.192,0,0,1-3.028-3.81,2.956,2.956,0,1,1,5.884.561Zm-2.04-.123a1.47,1.47,0,0,0-.05-.319c-.141-.418-.343-.8-.856-.8s-.729.361-.865.787a1.466,1.466,0,0,0-.067.4c-.02.669.41,1.263.911,1.272S748.83,382.377,748.826,381.609Z" transform="translate(-94.304 -259.582)" fill="#c6412a"/>
      <path id="Trazado_160184" data-name="Trazado 160184" d="M693.977,328.977a3.429,3.429,0,0,1,.847-2.425,2.717,2.717,0,0,1,4.364.363,3.45,3.45,0,0,1,.139,3.8,2.571,2.571,0,0,1-2.643,1.443,2.947,2.947,0,0,1-2.565-2.22A2.688,2.688,0,0,1,693.977,328.977Zm3.789-.074c-.005-.677-.452-1.266-.944-1.244-.459.02-.807.556-.8,1.237s.43,1.262.933,1.24C697.409,330.116,697.771,329.569,697.766,328.9Z" transform="translate(-50.286 -213.956)" fill="#c6412a"/>
    </g>
  </g>
</svg>
