<svg xmlns="http://www.w3.org/2000/svg" width="88.698" height="124.596" viewBox="0 0 88.698 124.596">
  <g id="Grupo_153051" data-name="Grupo 153051" transform="translate(-895 -406.259)">
    <g id="Grupo_135369" data-name="Grupo 135369" transform="translate(-14.771 20.855)">
      <g id="Grupo_114643" data-name="Grupo 114643">
        <path id="Trazado_163569" data-name="Trazado 163569" d="M1195.956,1032.494v-16.416l-37.065-21.4-37.064,21.4v16.416h-7.284l7.284,26.383,37.064,21.4,37.065-21.4,7.284-26.383Z" transform="translate(-204.771 -570.276)" fill="#ffef0f"/>
        <path id="Trazado_163571" data-name="Trazado 163571" d="M1158.891,908.627l-44.348,25.6v51.209l44.348,25.6,44.348-25.6V934.231Z" transform="translate(-204.771 -523.224)" fill="#ffef0f"/>
        <path id="Trazado_163572" data-name="Trazado 163572" d="M1167.679,927.185l-37.065,21.4v42.8l37.065,21.4,37.064-21.4v-42.8Z" transform="translate(-213.559 -533.37)" fill="#fff"/>
        <path id="Trazado_163731" data-name="Trazado 163731" d="M1114.542,1032.494l7.284,26.383,37.064,21.4,37.065-21.4,7.284-26.383-44.348,26.383Z" transform="translate(-204.771 -570.276)" fill="#030403" opacity="0.2" style="mix-blend-mode: multiply;isolation: isolate"/>
      </g>
    </g>
    <g id="Grupo_152942" data-name="Grupo 152942" transform="translate(1807.095 -411.21)">
      <path id="Trazado_159435" data-name="Trazado 159435" d="M-855.283,856.376c-.151.723-.436.933-1.269.933h-32.907c-.614,0-.614,0-.614.609q0,5.07,0,10.139c0,.663-.251,1.063-.717,1.169a.925.925,0,0,1-1.147-.81,3.032,3.032,0,0,1-.013-.375q0-7.768,0-15.537a4.619,4.619,0,0,1,2.667-4.386,4.379,4.379,0,0,1,2.032-.481c1.221,0,2.441-.008,3.661.008.242,0,.325-.044.319-.3a9.115,9.115,0,0,1,.038-1.358,2.815,2.815,0,0,1,2.827-2.479,2.8,2.8,0,0,1,2.744,2.62,9.2,9.2,0,0,1,.013,1.125c-.018.307.076.394.388.39,1.439-.017,2.879-.008,4.319-.008,3.552,0,7.1-.006,10.656.01.359,0,.442-.093.429-.438a4.1,4.1,0,0,1,.354-2.237,2.809,2.809,0,0,1,3.063-1.389,2.774,2.774,0,0,1,2.189,2.543,9.593,9.593,0,0,1,.014,1.125c-.017.3.068.4.384.393,1.314-.019,2.629-.011,3.943-.007a4.724,4.724,0,0,1,4.856,4.855q0,17.6.014,35.2a3.668,3.668,0,0,1-2.974,3.813c-.018,0-.029.048-.043.073h-42.258c-.046-.15-.191-.143-.3-.177a3.6,3.6,0,0,1-2.207-1.943c-.115-.228-.07-.526-.31-.7V885.2a1.783,1.783,0,0,1,1.634-.564c.572.031,1.146.007,1.822.007a7.684,7.684,0,0,1-2.594-6.736,7.438,7.438,0,0,1,2.657-4.954,7.7,7.7,0,0,1,10.4.393,7.786,7.786,0,0,1-.335,11.3h8.988c.817,0,1.052.172,1.287.932-.226.783-.44.945-1.268.945q-9.763,0-19.526,0c-.384,0-.9-.176-1.118.081-.189.218-.063.714-.063,1.087a1.75,1.75,0,0,0,2,2.014q18.493,0,36.986,0a.733.733,0,0,0,.478-.065,4.781,4.781,0,0,1-.389-2.648c.016-.4-.1-.482-.487-.48-3.1.017-6.2.011-9.293.009-.738,0-1.02-.238-1.158-.947a.987.987,0,0,1,1.135-.928q5.279-.007,10.558,0c.749,0,1.106.379,1.112,1.141.006.688,0,1.376,0,2.064a1.707,1.707,0,0,0,1.685,1.854,1.7,1.7,0,0,0,1.693-1.846q0-8.235,0-16.469,0-7.249,0-14.5c0-.172-.009-.343-.014-.515,0-1.361.037-2.723,0-4.083a2.733,2.733,0,0,0-2.612-2.747c-1.468-.07-2.941-.02-4.412-.03-.2,0-.273.07-.269.272.008.359.007.72-.015,1.079a2.761,2.761,0,0,1-2.08,2.537,2.809,2.809,0,0,1-3.016-1.105,3.319,3.319,0,0,1-.509-2.239c.033-.468-.122-.553-.563-.551-4.695.018-9.389.008-14.084.016-.368,0-.843-.17-1.073.085-.175.194-.055.654-.067,1,0,.094-.01.187-.016.281a2.817,2.817,0,0,1-2.186,2.558,2.839,2.839,0,0,1-3.068-1.4,4.112,4.112,0,0,1-.359-2.191c.006-.255-.051-.346-.332-.342-1.173.018-2.347,0-3.521.01a2.82,2.82,0,0,0-2.946,2.956c-.008.845.019,1.691-.011,2.535-.013.363.1.433.443.431,2.472-.015,4.945-.008,7.417-.008h25.68C-855.713,855.432-855.43,855.646-855.283,856.376Zm-25.544,22.431a5.817,5.817,0,0,0-5.816-5.815,5.842,5.842,0,0,0-5.815,5.827,5.84,5.84,0,0,0,5.827,5.815A5.818,5.818,0,0,0-880.827,878.807Zm1.306-30.324c0-.671.008-1.343,0-2.014s-.372-1.073-.919-1.081a.967.967,0,0,0-.951,1.058q-.026,2.06,0,4.121a.942.942,0,0,0,.949,1.047c.555,0,.91-.408.92-1.071C-879.514,849.856-879.521,849.169-879.521,848.483Zm21.411.048c0-.687.008-1.374,0-2.06-.01-.659-.37-1.073-.917-1.082a.966.966,0,0,0-.952,1.056q-.026,2.06,0,4.121a.942.942,0,0,0,.948,1.048c.556,0,.911-.406.921-1.069S-858.111,849.2-858.111,848.531Z" transform="translate(0)" fill="#ffef0f"/>
      <path id="Trazado_159438" data-name="Trazado 159438" d="M-819.324,1006.625a3.592,3.592,0,0,1,3.613-3.5,3.6,3.6,0,0,1,3.517,3.6,3.6,3.6,0,0,1-3.641,3.525A3.59,3.59,0,0,1-819.324,1006.625Zm3.572,1.75a1.706,1.706,0,0,0,1.679-1.675,1.7,1.7,0,0,0-1.7-1.7,1.692,1.692,0,0,0-1.673,1.722A1.693,1.693,0,0,0-815.752,1008.375Z" transform="translate(-66.889 -140.833)" fill="#ffef0f"/>
      <path id="Trazado_159439" data-name="Trazado 159439" d="M-670.3,1006.636a3.58,3.58,0,0,1,3.587-3.512,3.593,3.593,0,0,1,3.53,3.619,3.584,3.584,0,0,1-3.637,3.51A3.578,3.578,0,0,1-670.3,1006.636Zm1.877.064a1.69,1.69,0,0,0,1.666,1.678,1.7,1.7,0,0,0,1.7-1.7,1.7,1.7,0,0,0-1.67-1.678A1.688,1.688,0,0,0-668.418,1006.7Z" transform="translate(-198.384 -140.835)" fill="#ffef0f"/>
      <path id="Trazado_159440" data-name="Trazado 159440" d="M-595.844,1006.7a3.594,3.594,0,0,1,3.544-3.573,3.609,3.609,0,0,1,3.587,3.581,3.608,3.608,0,0,1-3.571,3.55A3.6,3.6,0,0,1-595.844,1006.7Zm3.556,1.679a1.708,1.708,0,0,0,1.7-1.658,1.706,1.706,0,0,0-1.684-1.717,1.693,1.693,0,0,0-1.689,1.658A1.692,1.692,0,0,0-592.288,1008.378Z" transform="translate(-264.076 -140.837)" fill="#ffef0f"/>
      <path id="Trazado_159441" data-name="Trazado 159441" d="M-670.3,1089.7a3.585,3.585,0,0,1,3.525-3.574,3.6,3.6,0,0,1,3.594,3.557,3.6,3.6,0,0,1-3.577,3.575A3.585,3.585,0,0,1-670.3,1089.7Zm3.577-1.7a1.688,1.688,0,0,0-1.7,1.645,1.689,1.689,0,0,0,1.659,1.732,1.7,1.7,0,0,0,1.7-1.692A1.7,1.7,0,0,0-666.72,1088Z" transform="translate(-198.384 -214.069)" fill="#ffef0f"/>
      <path id="Trazado_159442" data-name="Trazado 159442" d="M-595.844,1089.7a3.594,3.594,0,0,1,3.547-3.569,3.609,3.609,0,0,1,3.583,3.585,3.608,3.608,0,0,1-3.575,3.546A3.594,3.594,0,0,1-595.844,1089.7Zm3.546-1.691a1.692,1.692,0,0,0-1.667,1.727,1.694,1.694,0,0,0,1.7,1.648,1.706,1.706,0,0,0,1.674-1.68A1.705,1.705,0,0,0-592.3,1088.006Z" transform="translate(-264.077 -214.073)" fill="#ffef0f"/>
      <path id="Trazado_159443" data-name="Trazado 159443" d="M-737.777,1006.674a3.583,3.583,0,0,1-3.567,3.58,3.612,3.612,0,0,1-3.56-3.551,3.615,3.615,0,0,1,3.577-3.581A3.585,3.585,0,0,1-737.777,1006.674Zm-1.878.015a1.683,1.683,0,0,0-1.654-1.688,1.712,1.712,0,0,0-1.716,1.688,1.712,1.712,0,0,0,1.669,1.688A1.682,1.682,0,0,0-739.655,1006.689Z" transform="translate(-132.555 -140.835)" fill="#ffef0f"/>
      <path id="Trazado_159444" data-name="Trazado 159444" d="M-737.777,1089.676a3.583,3.583,0,0,1-3.568,3.579,3.612,3.612,0,0,1-3.559-3.552,3.615,3.615,0,0,1,3.578-3.58A3.585,3.585,0,0,1-737.777,1089.676Zm-1.878.046a1.684,1.684,0,0,0-1.669-1.721,1.714,1.714,0,0,0-1.7,1.656,1.712,1.712,0,0,0,1.684,1.72A1.684,1.684,0,0,0-739.655,1089.722Z" transform="translate(-132.555 -214.07)" fill="#ffef0f"/>
      <path id="Trazado_159445" data-name="Trazado 159445" d="M-535.16,945.844a1.078,1.078,0,0,1,.621-.86c.595-.233,1.128.123,1.281.864-.126.589-.453.919-.923.931S-534.965,946.484-535.16,945.844Z" transform="translate(-317.621 -89.474)" fill="#ffef0f"/>
      <path id="Trazado_159446" data-name="Trazado 159446" d="M-668.554,1194.175c-.088.594-.407.927-.9.939s-.833-.309-.962-.941a.945.945,0,0,1,.8-.9.9.9,0,0,1,.894.378C-668.588,1193.812-668.608,1194-668.554,1194.175Z" transform="translate(-198.278 -308.601)" fill="#ffef0f"/>
      <path id="Trazado_159457" data-name="Trazado 159457" d="M-846.906,1122.748a1.088,1.088,0,0,1-.345.815c-1.192,1.195-2.38,2.394-3.583,3.578a.939.939,0,0,1-1.452.008q-.817-.773-1.591-1.591a.936.936,0,0,1-.041-1.379.945.945,0,0,1,1.381.069,10.661,10.661,0,0,1,.761.764c.166.186.268.167.436,0q1.347-1.371,2.717-2.72a.943.943,0,0,1,1.582.086A2.048,2.048,0,0,1-846.906,1122.748Z" transform="translate(-36.117 -245.641)" fill="#ffef0f"/>
    </g>
  </g>
</svg>
