<svg xmlns="http://www.w3.org/2000/svg" width="133" height="133" viewBox="0 0 133 133">
  <g id="Grupo_153048" data-name="Grupo 153048" transform="translate(-1077.332 -9891.515)">
    <g id="Elipse_18550" data-name="Elipse 18550" transform="translate(1077.332 9891.515)" fill="#fff" stroke="#c6412a" stroke-width="4">
      <circle cx="66.5" cy="66.5" r="66.5" stroke="none"/>
      <circle cx="66.5" cy="66.5" r="64.5" fill="none"/>
    </g>
    <g id="prueba-de-ab" transform="translate(1105 9919.183)">
      <g id="Grupo_152922" data-name="Grupo 152922" transform="translate(0)">
        <path id="Trazado_211013" data-name="Trazado 211013" d="M11.833,10.648H4.67a2.42,2.42,0,0,0-2.42,2.42v8.1H39.944V10.648Z" transform="translate(-1.112 -5.264)" fill="#ffef0f"/>
        <path id="Trazado_211014" data-name="Trazado 211014" d="M114.494,13.069a2.42,2.42,0,0,0-2.42-2.42H76.8V21.169h37.694Z" transform="translate(-37.968 -5.264)" fill="#c6412a"/>
        <path id="Trazado_211016" data-name="Trazado 211016" d="M30.283,27.284a1.373,1.373,0,0,1-1.247-.8L27.8,23.814a1.373,1.373,0,0,0-1.247-.8H14.039a1.373,1.373,0,0,0-1.247.8l-1.233,2.672a1.373,1.373,0,0,1-1.247.8H2.25V81.239a2.42,2.42,0,0,0,2.42,2.42H39.944V27.284Z" transform="translate(-1.112 -11.379)" fill="#eee99a"/>
        <path id="Trazado_211017" data-name="Trazado 211017" d="M76.8,31.456V87.831h35.274a2.42,2.42,0,0,0,2.42-2.42V31.456Z" transform="translate(-37.968 -15.551)" fill="#f7e2df"/>
        <g id="Grupo_152921" data-name="Grupo 152921">
          <path id="Trazado_211019" data-name="Trazado 211019" d="M74.106,4.246H39.97V1.138a1.138,1.138,0,1,0-2.275,0V4.246H14.078a1.138,1.138,0,0,0,0,2.275H37.694v8.245H29.171a.236.236,0,0,1-.214-.137l-1.233-2.672a2.518,2.518,0,0,0-2.28-1.458H12.926a2.518,2.518,0,0,0-2.279,1.458L9.414,14.631a.236.236,0,0,1-.213.136H2.275V7.8A1.284,1.284,0,0,1,3.558,6.522H9.679a1.138,1.138,0,0,0,0-2.275H3.558A3.562,3.562,0,0,0,0,7.8V69.86a3.562,3.562,0,0,0,3.558,3.558h9.394a1.138,1.138,0,1,0,0-2.275H3.558A1.284,1.284,0,0,1,2.275,69.86V17.043H9.2a2.517,2.517,0,0,0,2.279-1.458l1.233-2.672a.236.236,0,0,1,.214-.137H25.444a.236.236,0,0,1,.214.137l1.233,2.672a2.518,2.518,0,0,0,2.28,1.458h8.524v54.1H17.351a1.138,1.138,0,1,0,0,2.275H37.694v3.109a1.138,1.138,0,0,0,2.275,0V73.417H74.106a3.562,3.562,0,0,0,3.558-3.558V28.908a1.138,1.138,0,1,0-2.275,0V69.86a1.284,1.284,0,0,1-1.283,1.283H39.97v-54.1H75.389v7.466a1.138,1.138,0,1,0,2.275,0V7.8a3.562,3.562,0,0,0-3.558-3.558ZM39.97,14.767V6.522H74.106A1.284,1.284,0,0,1,75.389,7.8v6.963H39.97Z" transform="translate(0)"/>
          <path id="Trazado_211020" data-name="Trazado 211020" d="M109.719,18.8h-1.1a1.138,1.138,0,1,0,0,2.275h1.1a1.138,1.138,0,1,0,0-2.275Z" transform="translate(-53.135 -9.295)"/>
          <path id="Trazado_211021" data-name="Trazado 211021" d="M120.519,18.8h-1.1a1.138,1.138,0,0,0,0,2.275h1.1a1.138,1.138,0,0,0,0-2.275Z" transform="translate(-58.474 -9.295)"/>
          <path id="Trazado_211022" data-name="Trazado 211022" d="M131.319,18.8h-1.1a1.138,1.138,0,1,0,0,2.275h1.1a1.138,1.138,0,0,0,0-2.275Z" transform="translate(-63.813 -9.295)"/>
          <path id="Trazado_211023" data-name="Trazado 211023" d="M25.975,64.538l1.338-3.513h8.862l1.325,3.51a1.138,1.138,0,1,0,2.129-.8L33.195,46.682a1.523,1.523,0,0,0-1.427-.979h0a1.525,1.525,0,0,0-1.424.976L23.849,63.728a1.138,1.138,0,0,0,2.126.81Zm5.789-15.2,3.552,9.412H28.18Z" transform="translate(-11.753 -22.595)"/>
          <path id="Trazado_211024" data-name="Trazado 211024" d="M107.549,45.2h-5.023a1.137,1.137,0,0,0-1.138,1.138V63.627a1.138,1.138,0,0,0,1.138,1.138h0c.046,0,4.637-.021,5.895-.021a5.791,5.791,0,0,0,2.791-10.866,5.114,5.114,0,0,0-3.668-8.68Zm0,2.275a2.841,2.841,0,1,1,0,5.682l-3.885,0V47.473h3.885Zm.877,15c-.867,0-3.3.01-4.762.016V55.444c3.772-.016,1.895,0,4.762-.008a3.517,3.517,0,1,1,0,7.033Z" transform="translate(-50.124 -22.345)"/>
          <path id="Trazado_211025" data-name="Trazado 211025" d="M20.431,98.06A1.137,1.137,0,0,0,21.569,99.2H38.6a1.138,1.138,0,0,0,0-2.275H21.569A1.138,1.138,0,0,0,20.431,98.06Z" transform="translate(-10.101 -47.916)"/>
          <path id="Trazado_211026" data-name="Trazado 211026" d="M28.853,107.339a1.138,1.138,0,1,0,0,2.275H38.52a1.138,1.138,0,1,0,0-2.275Z" transform="translate(-13.702 -53.066)"/>
          <path id="Trazado_211027" data-name="Trazado 211027" d="M21.569,120.031H38.6a1.138,1.138,0,1,0,0-2.275H21.569a1.138,1.138,0,1,0,0,2.275Z" transform="translate(-10.101 -58.215)"/>
          <path id="Trazado_211028" data-name="Trazado 211028" d="M103.438,96.922a1.138,1.138,0,1,0,0,2.275h8.079a1.138,1.138,0,0,0,0-2.275Z" transform="translate(-50.575 -47.916)"/>
          <path id="Trazado_211029" data-name="Trazado 211029" d="M112.754,108.476a1.137,1.137,0,0,0-1.138-1.138H94.583a1.138,1.138,0,1,0,0,2.275h17.034A1.138,1.138,0,0,0,112.754,108.476Z" transform="translate(-46.197 -53.066)"/>
          <path id="Trazado_211030" data-name="Trazado 211030" d="M103.438,117.755a1.138,1.138,0,1,0,0,2.275h8.079a1.138,1.138,0,1,0,0-2.275Z" transform="translate(-50.575 -58.215)"/>
        </g>
      </g>
    </g>
  </g>
</svg>
