<svg xmlns="http://www.w3.org/2000/svg" width="133" height="133" viewBox="0 0 133 133">
  <g id="Grupo_153047" data-name="Grupo 153047" transform="translate(-390.332 -9678.515)">
    <g id="Elipse_18547" data-name="Elipse 18547" transform="translate(390.332 9678.515)" fill="#fff" stroke="#c6412a" stroke-width="4">
      <circle cx="66.5" cy="66.5" r="66.5" stroke="none"/>
      <circle cx="66.5" cy="66.5" r="64.5" fill="none"/>
    </g>
    <g id="experiencia-de-usuario" transform="translate(414.717 9700.744)">
      <g id="Grupo_152892" data-name="Grupo 152892" transform="translate(0 13.467)">
        <g id="Grupo_152889" data-name="Grupo 152889" transform="translate(1.176 1.176)">
          <g id="Grupo_152888" data-name="Grupo 152888">
            <g id="Grupo_152887" data-name="Grupo 152887">
              <g id="Grupo_152882" data-name="Grupo 152882">
                <g id="Grupo_152880" data-name="Grupo 152880">
                  <path id="Trazado_210952" data-name="Trazado 210952" d="M71.555,113.694H53.714L58.558,89.41H66.71Z" transform="translate(-26.815 -50.892)" fill="#dbe8f9"/>
                  <path id="Trazado_210953" data-name="Trazado 210953" d="M71.357,65.529H4.782A2.532,2.532,0,0,1,2.25,63V18.25a2.532,2.532,0,0,1,2.532-2.532H71.357a2.532,2.532,0,0,1,2.532,2.532V63A2.533,2.533,0,0,1,71.357,65.529Z" transform="translate(-2.25 -15.717)" fill="#eaf2ff"/>
                  <g id="Grupo_152879" data-name="Grupo 152879" transform="translate(58.867)">
                    <path id="Trazado_210954" data-name="Trazado 210954" d="M125.116,15.717H114.876a2.532,2.532,0,0,1,2.532,2.532V63a2.532,2.532,0,0,1-2.532,2.532h10.239A2.532,2.532,0,0,0,127.648,63V18.25a2.532,2.532,0,0,0-2.532-2.532Z" transform="translate(-114.876 -15.717)" fill="#dbe8f9"/>
                  </g>
                  <path id="Trazado_210955" data-name="Trazado 210955" d="M69.992,131.9H45.506a2.027,2.027,0,0,1-2.027-2.027A4.521,4.521,0,0,1,48,125.355H67.5a4.521,4.521,0,0,1,4.521,4.521A2.027,2.027,0,0,1,69.992,131.9Z" transform="translate(-21.929 -68.05)" fill="#c9e0fd"/>
                  <path id="Trazado_210956" data-name="Trazado 210956" d="M79.994,125.355H69.657a4.521,4.521,0,0,1,4.521,4.521,2.027,2.027,0,0,1-2.027,2.027H82.488a2.027,2.027,0,0,0,2.027-2.027,4.521,4.521,0,0,0-4.521-4.521Z" transform="translate(-34.425 -68.05)" fill="#bcd6f9"/>
                </g>
                <path id="Trazado_210957" data-name="Trazado 210957" d="M71.357,15.717H4.782A2.532,2.532,0,0,0,2.25,18.25v6.28H73.889V18.25A2.532,2.532,0,0,0,71.357,15.717Z" transform="translate(-2.25 -15.717)" fill="#6677d6"/>
                <g id="Grupo_152881" data-name="Grupo 152881" transform="translate(58.867 0)">
                  <path id="Trazado_210958" data-name="Trazado 210958" d="M125.116,15.717H114.876a2.532,2.532,0,0,1,2.532,2.532v6.28h10.239V18.25A2.532,2.532,0,0,0,125.116,15.717Z" transform="translate(-114.876 -15.717)" fill="#7fb2f9"/>
                </g>
              </g>
              <g id="Grupo_152884" data-name="Grupo 152884" transform="translate(6.04 13.824)">
                <path id="Trazado_210959" data-name="Trazado 210959" d="M49.143,52.984V42.809a.644.644,0,0,0-.644-.644H14.45a.644.644,0,0,0-.644.644V52.984a.644.644,0,0,0,.644.644H48.5A.644.644,0,0,0,49.143,52.984Z" transform="translate(-13.805 -42.165)" fill="#e8e6c4"/>
                <g id="Grupo_152883" data-name="Grupo 152883" transform="translate(0 18.1)">
                  <path id="Trazado_210960" data-name="Trazado 210960" d="M22,76.795H14.45a.644.644,0,0,0-.644.644V87.615a.644.644,0,0,0,.644.644H22a.644.644,0,0,0,.644-.644V77.439A.644.644,0,0,0,22,76.795Z" transform="translate(-13.805 -76.795)" fill="#e8e6c4"/>
                  <path id="Trazado_210961" data-name="Trazado 210961" d="M40.749,77.439V87.615a.644.644,0,0,0,.644.644H61.36A.644.644,0,0,0,62,87.615V77.439a.644.644,0,0,0-.644-.644H41.393a.644.644,0,0,0-.644.644Z" transform="translate(-26.666 -76.795)" fill="#e8e6c4"/>
                </g>
              </g>
              <g id="Grupo_152886" data-name="Grupo 152886" transform="translate(48.735 29.343)">
                <g id="Grupo_152885" data-name="Grupo 152885" transform="translate(0 0)">
                  <path id="Trazado_210962" data-name="Trazado 210962" d="M122.516,83.479h-.027a.94.94,0,0,1-.875-.667,12.01,12.01,0,0,0-.8-1.926.941.941,0,0,1,.147-1.092l.021-.021a2.171,2.171,0,0,0,0-3.07l-1.139-1.139a2.171,2.171,0,0,0-3.07,0l-.021.021a.941.941,0,0,1-1.092.147,12.009,12.009,0,0,0-1.926-.8.94.94,0,0,1-.667-.875c0-.009,0-.018,0-.027a2.171,2.171,0,0,0-2.171-2.171h-1.611a2.171,2.171,0,0,0-2.171,2.171c0,.009,0,.018,0,.027a.94.94,0,0,1-.667.875,12.009,12.009,0,0,0-1.926.8.941.941,0,0,1-1.092-.147l-.021-.021a2.171,2.171,0,0,0-3.07,0L99.2,76.7a2.171,2.171,0,0,0,0,3.07l.021.021a.941.941,0,0,1,.147,1.092,12.011,12.011,0,0,0-.8,1.926.94.94,0,0,1-.875.667h-.027a2.127,2.127,0,0,0-2.172,2.111v1.73a2.127,2.127,0,0,0,2.172,2.111h.027a.94.94,0,0,1,.875.667,12,12,0,0,0,.8,1.926.941.941,0,0,1-.147,1.092l-.021.021a2.171,2.171,0,0,0,0,3.07l1.139,1.139a2.171,2.171,0,0,0,3.07,0l.021-.021a.941.941,0,0,1,1.092-.147,12.011,12.011,0,0,0,1.926.8.94.94,0,0,1,.667.875c0,.009,0,.018,0,.027a2.171,2.171,0,0,0,2.171,2.171h1.611a2.171,2.171,0,0,0,2.171-2.171c0-.009,0-.018,0-.027a.94.94,0,0,1,.667-.875,12,12,0,0,0,1.926-.8.941.941,0,0,1,1.092.147l.021.021a2.171,2.171,0,0,0,3.07,0l1.139-1.139a2.171,2.171,0,0,0,0-3.07l-.021-.021a.941.941,0,0,1-.147-1.092,12.01,12.01,0,0,0,.8-1.926.94.94,0,0,1,.875-.667h.027a2.171,2.171,0,0,0,2.171-2.171V85.651A2.171,2.171,0,0,0,122.516,83.479Z" transform="translate(-95.491 -71.857)" fill="#515fab"/>
                </g>
                <path id="Trazado_210963" data-name="Trazado 210963" d="M133.143,83.479h-.027a.939.939,0,0,1-.875-.667,12.01,12.01,0,0,0-.8-1.926.941.941,0,0,1,.147-1.092l.021-.021a2.171,2.171,0,0,0,0-3.07l-1.139-1.139a2.171,2.171,0,0,0-3.07,0l-.021.021a.941.941,0,0,1-1.092.147,12.01,12.01,0,0,0-1.926-.8.94.94,0,0,1-.667-.875c0-.009,0-.018,0-.027a2.171,2.171,0,0,0-2.171-2.171H119.91a2.171,2.171,0,0,0-2.157,1.929,14.633,14.633,0,0,1,0,25.34,2.171,2.171,0,0,0,2.157,1.929h1.611a2.171,2.171,0,0,0,2.171-2.171c0-.009,0-.018,0-.027a.94.94,0,0,1,.667-.875,12,12,0,0,0,1.926-.8.941.941,0,0,1,1.092.147l.021.021a2.171,2.171,0,0,0,3.07,0l1.139-1.139a2.171,2.171,0,0,0,0-3.07l-.021-.021a.941.941,0,0,1-.147-1.092,12.013,12.013,0,0,0,.8-1.926.94.94,0,0,1,.875-.667h.027a2.171,2.171,0,0,0,2.171-2.171V85.651A2.171,2.171,0,0,0,133.143,83.479Z" transform="translate(-106.117 -71.857)" fill="#3d4780"/>
                <circle id="Elipse_20580" data-name="Elipse 20580" cx="7.101" cy="7.101" r="7.101" transform="translate(7.497 7.497)" fill="#eaf2ff"/>
                <path id="Trazado_210964" data-name="Trazado 210964" d="M133.1,93.835a7.1,7.1,0,0,0-4.281-6.518,14.649,14.649,0,0,1,0,13.035A7.1,7.1,0,0,0,133.1,93.835Z" transform="translate(-111.397 -79.237)" fill="#dbe8f9"/>
              </g>
            </g>
          </g>
        </g>
        <g id="Grupo_152891" data-name="Grupo 152891">
          <circle id="Elipse_20581" data-name="Elipse 20581" cx="1.187" cy="1.187" r="1.187" transform="translate(7.216 4.396)"/>
          <circle id="Elipse_20582" data-name="Elipse 20582" cx="1.187" cy="1.187" r="1.187" transform="translate(12.39 4.396)"/>
          <circle id="Elipse_20583" data-name="Elipse 20583" cx="1.187" cy="1.187" r="1.187" transform="translate(17.563 4.396)"/>
          <g id="Grupo_152890" data-name="Grupo 152890">
            <path id="Trazado_210965" data-name="Trazado 210965" d="M92.875,60.857a1.177,1.177,0,1,0,0,2.354h9.173a1.177,1.177,0,1,0,0-2.354Z" transform="translate(-43.769 -36.087)"/>
            <path id="Trazado_210966" data-name="Trazado 210966" d="M111.221,40.9H92.875a1.177,1.177,0,1,0,0,2.354h18.347a1.177,1.177,0,1,0,0-2.354Z" transform="translate(-43.769 -26.563)"/>
            <path id="Trazado_210967" data-name="Trazado 210967" d="M112.4,52.057a1.177,1.177,0,0,0-1.177-1.177H92.875a1.177,1.177,0,1,0,0,2.354h18.347A1.177,1.177,0,0,0,112.4,52.057Z" transform="translate(-43.769 -31.325)"/>
            <path id="Trazado_210968" data-name="Trazado 210968" d="M121.61,81.231a13.216,13.216,0,0,0-.757-1.824,3.347,3.347,0,0,0-.116-4.613L119.6,73.656a3.351,3.351,0,0,0-4.613-.117,13.23,13.23,0,0,0-1.823-.757,3.352,3.352,0,0,0-3.344-3.177h-1.611a3.352,3.352,0,0,0-3.344,3.177,13.223,13.223,0,0,0-1.824.757,3.346,3.346,0,0,0-4.612.116l-1.139,1.139a3.348,3.348,0,0,0-.117,4.613,13.246,13.246,0,0,0-.757,1.823,3.278,3.278,0,0,0-3.177,3.284v1.73a3.28,3.28,0,0,0,3.177,3.284,13.227,13.227,0,0,0,.757,1.824,3.346,3.346,0,0,0,.116,4.613L98.427,97.1a3.345,3.345,0,0,0,4.612.116,13.223,13.223,0,0,0,1.824.758,3.352,3.352,0,0,0,3.344,3.177h1.611a3.352,3.352,0,0,0,3.344-3.177,13.24,13.24,0,0,0,1.824-.757A3.352,3.352,0,0,0,119.6,97.1l1.139-1.139a3.346,3.346,0,0,0,.116-4.613,13.239,13.239,0,0,0,.757-1.824,3.352,3.352,0,0,0,3.177-3.344V84.575A3.352,3.352,0,0,0,121.61,81.231Zm.824,4.954a1,1,0,0,1-.994.994H121.4a2.112,2.112,0,0,0-1.983,1.489,10.856,10.856,0,0,1-.721,1.737,2.114,2.114,0,0,0,.349,2.459,1.009,1.009,0,0,1,.03,1.436l-1.139,1.139a1.011,1.011,0,0,1-1.438-.031,2.113,2.113,0,0,0-2.457-.348,10.855,10.855,0,0,1-1.737.721,2.113,2.113,0,0,0-1.489,1.988,1.01,1.01,0,0,1-.994,1.031h-1.611c-.983,0-.988-1.02-.994-1.035a2.112,2.112,0,0,0-1.489-1.984,10.858,10.858,0,0,1-1.737-.721,2.149,2.149,0,0,0-.994-.245,2.1,2.1,0,0,0-1.495.624.993.993,0,0,1-1.406,0L98.953,94.3a.993.993,0,0,1,0-1.41,2.228,2.228,0,0,0,.374-2.485,10.858,10.858,0,0,1-.721-1.737,2.109,2.109,0,0,0-1.977-1.489c-.016-.006-1.042,0-1.042-.935v-1.73c0-.933,1.02-.928,1.036-.935a2.111,2.111,0,0,0,1.983-1.489,10.87,10.87,0,0,1,.722-1.738,2.112,2.112,0,0,0-.344-2.454,1.012,1.012,0,0,1-.035-1.441l1.139-1.139a1.011,1.011,0,0,1,1.437.031,2.112,2.112,0,0,0,2.457.348,10.851,10.851,0,0,1,1.737-.721,2.113,2.113,0,0,0,1.489-1.988,1.009,1.009,0,0,1,.994-1.031h1.611c.983,0,.988,1.02.994,1.036a2.112,2.112,0,0,0,1.489,1.983,10.869,10.869,0,0,1,1.737.721,2.108,2.108,0,0,0,2.449-.34,1.012,1.012,0,0,1,1.446-.039l1.139,1.139a1.01,1.01,0,0,1-.032,1.438,2.113,2.113,0,0,0-.348,2.457,10.874,10.874,0,0,1,.722,1.738,2.11,2.11,0,0,0,1.978,1.489h.047a1,1,0,0,1,.994.994v1.611Z" transform="translate(-44.504 -40.263)"/>
            <path id="Trazado_210969" data-name="Trazado 210969" d="M115.859,83.949a8.278,8.278,0,1,0,8.278,8.278A8.287,8.287,0,0,0,115.859,83.949Zm0,14.2a5.924,5.924,0,1,1,5.924-5.924A5.931,5.931,0,0,1,115.859,98.151Z" transform="translate(-51.351 -47.11)"/>
            <path id="Trazado_210970" data-name="Trazado 210970" d="M46.745,70.771h-.959l-1.025-5.14h3.45a1.177,1.177,0,1,0,0-2.354H3.709a1.357,1.357,0,0,1-1.355-1.355V24.633H71.638V41.57a1.177,1.177,0,0,0,2.354,0V17.176a3.713,3.713,0,0,0-3.709-3.709H3.709A3.713,3.713,0,0,0,0,17.176V61.923a3.713,3.713,0,0,0,3.709,3.709H29.232l-1.025,5.14h-.96a5.7,5.7,0,0,0-5.7,5.7,3.207,3.207,0,0,0,3.2,3.2H49.239a3.207,3.207,0,0,0,3.2-3.2A5.7,5.7,0,0,0,46.745,70.771ZM3.709,15.821H70.282a1.357,1.357,0,0,1,1.355,1.355v5.1H2.354v-5.1a1.357,1.357,0,0,1,1.355-1.355ZM31.632,65.632H42.36l1.025,5.14H30.607ZM49.239,77.319H24.753a.851.851,0,0,1-.85-.85,3.348,3.348,0,0,1,3.344-3.344h19.5a3.348,3.348,0,0,1,3.344,3.344.851.851,0,0,1-.85.85Z" transform="translate(0 -13.467)"/>
            <path id="Trazado_210971" data-name="Trazado 210971" d="M49.246,41.735a1.823,1.823,0,0,0-1.821-1.821H13.376a1.823,1.823,0,0,0-1.821,1.821V51.91a1.823,1.823,0,0,0,1.821,1.821H47.425a1.823,1.823,0,0,0,1.821-1.821V41.735Zm-2.354,9.643H13.909v-9.11H46.892Z" transform="translate(-5.515 -26.091)"/>
            <path id="Trazado_210972" data-name="Trazado 210972" d="M13.376,74.543a1.824,1.824,0,0,0-1.821,1.821V86.54a1.823,1.823,0,0,0,1.821,1.821h7.55a1.823,1.823,0,0,0,1.821-1.821V76.365a1.824,1.824,0,0,0-1.821-1.821Zm7.018,11.464H13.909V76.9h6.486Z" transform="translate(-5.515 -42.62)"/>
            <path id="Trazado_210973" data-name="Trazado 210973" d="M60.286,74.543H40.32A1.824,1.824,0,0,0,38.5,76.365V86.54a1.823,1.823,0,0,0,1.821,1.821H60.286a1.823,1.823,0,0,0,1.821-1.821V76.365A1.824,1.824,0,0,0,60.286,74.543Zm-.533,11.464h-18.9V76.9h18.9Z" transform="translate(-18.376 -42.62)"/>
          </g>
        </g>
      </g>
    </g>
  </g>
</svg>
