<svg xmlns="http://www.w3.org/2000/svg" width="133" height="133" viewBox="0 0 133 133">
  <g id="Grupo_153050" data-name="Grupo 153050" transform="translate(-1077.332 -10286.515)">
    <g id="Elipse_18551" data-name="Elipse 18551" transform="translate(1077.332 10286.515)" fill="#fff" stroke="#c6412a" stroke-width="4">
      <circle cx="66.5" cy="66.5" r="66.5" stroke="none"/>
      <circle cx="66.5" cy="66.5" r="64.5" fill="none"/>
    </g>
    <g id="mujer" transform="translate(1085.043 10310.083)">
      <g id="Grupo_152937" data-name="Grupo 152937" transform="translate(34.366 0)">
        <g id="Grupo_152933" data-name="Grupo 152933" transform="translate(1.355 26.117)">
          <path id="Trazado_211053" data-name="Trazado 211053" d="M75.764,97.178,59.788,89.934,43.813,97.178a5.018,5.018,0,0,1-7.057-5.147l3.376-29.141a19.788,19.788,0,0,1,39.312,0L82.82,92.03A5.018,5.018,0,0,1,75.764,97.178Z" transform="translate(-36.721 -45.379)" fill="#eab14d"/>
          <g id="Grupo_152931" data-name="Grupo 152931" transform="translate(21.04)">
            <path id="Trazado_211054" data-name="Trazado 211054" d="M98.337,92.03,94.961,62.889A19.785,19.785,0,0,0,73.279,45.483,19.789,19.789,0,0,1,90.908,62.889L94.284,92.03A5,5,0,0,1,91.328,97.2,5.017,5.017,0,0,0,98.337,92.03Z" transform="translate(-73.279 -45.379)" fill="#e49542"/>
          </g>
          <path id="Trazado_211055" data-name="Trazado 211055" d="M81.378,134.349H46.5v-5.615a17.438,17.438,0,1,1,34.875,0Z" transform="translate(-40.873 -73.358)" fill="#b0a2cd"/>
          <path id="Trazado_211056" data-name="Trazado 211056" d="M75.454,111.3a17.648,17.648,0,0,0-1.825.095,17.44,17.44,0,0,1,15.613,17.343v5.615h3.65v-5.615A17.438,17.438,0,0,0,75.454,111.3Z" transform="translate(-52.387 -73.358)" fill="#b0a2cd"/>
          <path id="Trazado_211057" data-name="Trazado 211057" d="M73.217,124.574a4.858,4.858,0,0,1-4.858-4.858V111h9.716v8.714A4.858,4.858,0,0,1,73.217,124.574Z" transform="translate(-50.15 -73.233)" fill="#f1b986"/>
          <path id="Trazado_211058" data-name="Trazado 211058" d="M66.631,103.12A13.788,13.788,0,0,1,52.843,89.332V77.6a1.15,1.15,0,0,1,1.416-1.119l14.412,3.417a3.476,3.476,0,0,0,2.016-.125l8.18-3.049A1.15,1.15,0,0,1,80.419,77.8V89.332A13.788,13.788,0,0,1,66.631,103.12Z" transform="translate(-43.564 -58.565)" fill="#f1d0a5"/>
          <g id="Grupo_152932" data-name="Grupo 152932" transform="translate(21.242 18.08)">
            <path id="Trazado_211059" data-name="Trazado 211059" d="M87.69,76.867l-2.132.795a1.167,1.167,0,0,1,.035.283V89.48a13.788,13.788,0,0,1-11.963,13.664A13.769,13.769,0,0,0,89.242,89.48V77.945A1.15,1.15,0,0,0,87.69,76.867Z" transform="translate(-73.629 -76.793)" fill="#f1b986"/>
          </g>
        </g>
        <path id="Trazado_211060" data-name="Trazado 211060" d="M82,2.25H37.487c-.481,0-.872.6-.872,1.341V31.52c0,.741.39,1.341.872,1.341H55.513a1.341,1.341,0,0,1,1.162.671l1.907,3.3a1.341,1.341,0,0,0,2.323,0l1.907-3.3a1.341,1.341,0,0,1,1.161-.671H82c.481,0,.872-.6.872-1.341V3.591c0-.741-.39-1.341-.871-1.341Z" transform="translate(-35.321 -0.955)" fill="#ecf9f9"/>
        <g id="Grupo_152934" data-name="Grupo 152934" transform="translate(22.626 1.295)">
          <path id="Trazado_211061" data-name="Trazado 211061" d="M74.951,56.107l-1.272,2.2.635,1.1a1.341,1.341,0,0,0,2.323,0l1.907-3.3a1.341,1.341,0,0,1,1.162-.671H76.112A1.341,1.341,0,0,0,74.951,56.107Z" transform="translate(-73.679 -24.825)" fill="#d5dff4"/>
          <path id="Trazado_211062" data-name="Trazado 211062" d="M112.82,2.25h-3.593c.481,0,.872.6.872,1.341V31.52c0,.741-.39,1.341-.872,1.341h3.593c.481,0,.872-.6.872-1.341V3.591c0-.741-.39-1.341-.872-1.341Z" transform="translate(-88.768 -2.25)" fill="#d5dff4"/>
        </g>
        <g id="Grupo_152935" data-name="Grupo 152935" transform="translate(7.081 5.784)">
          <path id="Trazado_211063" data-name="Trazado 211063" d="M92.86,15.032V12.541a2.491,2.491,0,0,0-4.982,0v2.491h-4.2v4.244h2.491a2.491,2.491,0,1,1,0,4.982H83.677v4.158H97.061V15.032Z" transform="translate(-62.377 -10.049)" fill="#3d4780"/>
          <path id="Trazado_211064" data-name="Trazado 211064" d="M60.053,27.889h2.491a2.491,2.491,0,0,0,0-4.982H60.053v-4.2H55.809V21.2a2.491,2.491,0,1,1-4.982,0V18.706H46.669V32.09H60.053v-4.2Z" transform="translate(-46.669 -13.724)" fill="#c6412a"/>
        </g>
        <g id="Grupo_152936" data-name="Grupo 152936" transform="translate(0)">
          <path id="Trazado_211065" data-name="Trazado 211065" d="M83.211,30.565V2.636A2.41,2.41,0,0,0,81.045,0H46.155a1.295,1.295,0,1,0,0,2.59H80.62c0,.015,0,.03,0,.046V30.565c0,.016,0,.032,0,.046h-17.6a2.644,2.644,0,0,0-2.283,1.318l-1.907,3.3a.046.046,0,0,1-.08,0l-1.907-3.3a2.644,2.644,0,0,0-2.283-1.318h-17.6c0-.015,0-.03,0-.046V2.636c0-.016,0-.032,0-.046h4.191a1.295,1.295,0,1,0,0-2.59H36.533a2.41,2.41,0,0,0-2.167,2.636V30.565A2.41,2.41,0,0,0,36.533,33.2h5.434a21.17,21.17,0,0,0-4.121,10.278L34.47,72.62a6.237,6.237,0,0,0,1.958,5.335,6.37,6.37,0,0,0,3.72,1.678q-.091.921-.092,1.86v5.615A1.3,1.3,0,0,0,41.351,88.4h8.033a1.295,1.295,0,0,0,0-2.59H42.646v-4.32a16.1,16.1,0,0,1,6.546-12.981,15.116,15.116,0,0,0,3.444,2.142V72.6a6.153,6.153,0,0,0,12.306,0V70.655a15.118,15.118,0,0,0,3.444-2.142,16.1,16.1,0,0,1,6.546,12.981v4.32H54.392a1.295,1.295,0,1,0,0,2.59H76.226a1.3,1.3,0,0,0,1.295-1.295V81.493q0-.938-.091-1.86a6.372,6.372,0,0,0,3.72-1.678,6.238,6.238,0,0,0,1.958-5.336l-1.483-12.8a1.295,1.295,0,1,0-2.573.3l1.483,12.8a3.673,3.673,0,0,1-1.15,3.142A3.767,3.767,0,0,1,77,77.069a18.667,18.667,0,0,0-6.744-10.392,15.018,15.018,0,0,0,3.62-9.793V45.349a2.445,2.445,0,0,0-3.3-2.291l-8.18,3.049a2.175,2.175,0,0,1-1.265.079L46.715,42.768a2.445,2.445,0,0,0-3.01,2.379V56.884a15.018,15.018,0,0,0,3.62,9.793,18.667,18.667,0,0,0-6.744,10.392,3.764,3.764,0,0,1-2.389-1.009,3.673,3.673,0,0,1-1.15-3.142l3.376-29.141A18.563,18.563,0,0,1,45.352,33.2h9.207a.046.046,0,0,1,.04.023l1.907,3.3a2.609,2.609,0,0,0,2.283,1.318h0a2.609,2.609,0,0,0,2.283-1.318l1.907-3.3a.047.047,0,0,1,.04-.023h9.207a18.564,18.564,0,0,1,4.933,10.576l1.316,11.362a1.3,1.3,0,0,0,1.285,1.146,1.31,1.31,0,0,0,.151-.009,1.3,1.3,0,0,0,1.137-1.435L79.731,43.479A21.168,21.168,0,0,0,75.611,33.2h5.434a2.41,2.41,0,0,0,2.167-2.636ZM62.351,72.6a3.563,3.563,0,0,1-7.126,0V71.542a15.144,15.144,0,0,0,7.126,0ZM46.3,45.331,60.53,48.706a4.751,4.751,0,0,0,2.767-.172l7.985-2.977V56.884a12.493,12.493,0,1,1-24.986,0Z" transform="translate(-34.366 0)"/>
          <path id="Trazado_211066" data-name="Trazado 211066" d="M85.213,22.008H82.722A1.3,1.3,0,0,0,81.427,23.3v4.158a1.3,1.3,0,0,0,1.295,1.295H96.106A1.3,1.3,0,0,0,97.4,27.461V14.077a1.3,1.3,0,0,0-1.295-1.295H93.2v-1.2a3.786,3.786,0,0,0-7.572,0v1.2H82.722a1.3,1.3,0,0,0-1.295,1.295V18.32a1.3,1.3,0,0,0,1.295,1.295h2.491a1.2,1.2,0,1,1,0,2.393Zm0-4.982h-1.2V15.372h2.906a1.3,1.3,0,0,0,1.295-1.295V11.585a1.2,1.2,0,0,1,2.393,0v2.491A1.3,1.3,0,0,0,91.9,15.372h2.906V26.166H84.017V24.6h1.2a3.786,3.786,0,1,0,0-7.572Z" transform="translate(-54.341 -3.31)"/>
          <path id="Trazado_211067" data-name="Trazado 211067" d="M49.871,16.456H45.714a1.3,1.3,0,0,0-1.295,1.295V31.135a1.3,1.3,0,0,0,1.295,1.295H59.1a1.3,1.3,0,0,0,1.295-1.295V28.229h1.2a3.786,3.786,0,1,0,0-7.572h-1.2V17.751A1.3,1.3,0,0,0,59.1,16.456H54.854a1.3,1.3,0,0,0-1.295,1.295v2.491a1.2,1.2,0,1,1-2.393,0V17.751a1.3,1.3,0,0,0-1.295-1.295Zm2.491,7.572a3.791,3.791,0,0,0,3.786-3.786v-1.2H57.8v2.906A1.3,1.3,0,0,0,59.1,23.247h2.491a1.2,1.2,0,1,1,0,2.393H59.1A1.3,1.3,0,0,0,57.8,26.934V29.84H47.009V19.046h1.568v1.2A3.791,3.791,0,0,0,52.363,24.029Z" transform="translate(-38.633 -6.985)"/>
        </g>
      </g>
    </g>
  </g>
</svg>
