<svg xmlns="http://www.w3.org/2000/svg" width="157" height="157" viewBox="0 0 157 157">
  <g id="Grupo_153040" data-name="Grupo 153040" transform="translate(-985 -5955.218)">
    <rect id="Rectángulo_44691" data-name="Rectángulo 44691" width="157" height="157" rx="78.5" transform="translate(985 5955.218)" fill="#fff"/>
    <g id="Grupo_152745" data-name="Grupo 152745" transform="translate(-95.882 130.815)">
      <path id="Trazado_159620" data-name="Trazado 159620" d="M-514.727,568.54A15.349,15.349,0,0,1-521,564.112c-.37-.412-.809-.341-1.253-.341q-16.936,0-33.873,0c-1.7,0-2.268-.411-2.606-1.864.228-1.516.81-2.005,2.445-2.006q15.327-.006,30.654,0h1.074a3.6,3.6,0,0,0-.717-1.243,33.2,33.2,0,0,1-6.025-19.9c.04-2.054.494-2.566,2.525-2.826a12.573,12.573,0,0,0,3.752-1.046,30.479,30.479,0,0,0-9.029-6.468,19.309,19.309,0,0,1-.3,3.994,20.484,20.484,0,0,1-4.758,9.04c-1.256,1.518-2.247,1.575-3.662.2-3.292-3.2-6.594-6.382-9.86-9.6-.5-.5-.75-.525-1.271-.01-3.307,3.274-6.65,6.511-9.992,9.748-1.233,1.194-2.293,1.112-3.4-.182-3.214-3.764-5.427-7.927-5.194-13.02a.519.519,0,0,0-.519.071,29.22,29.22,0,0,0-5.89,3.783c-5.963,4.916-9.471,11.366-11.585,18.667a21.248,21.248,0,0,0-1.182,6.395,1.832,1.832,0,0,0,1.647,2.073,12.189,12.189,0,0,0,3.194.323c4,.007,8.005,0,12.008,0,1.615,0,2.12.419,2.481,2-.449,1.423-.917,1.866-2.24,1.859-4.751-.024-9.5.116-14.253-.082a7.7,7.7,0,0,1-.875-.075c-4.388-.691-6.449-3.357-5.748-7.758,1.634-10.264,5.8-19.233,13.808-26.137a34.489,34.489,0,0,1,11.582-6.467c.214-.073.427-.149.731-.256-.769-.888-1.529-1.711-2.227-2.584a25.006,25.006,0,0,1-5.571-11.951,25.956,25.956,0,0,1-.128-4.386,1.2,1.2,0,0,0-.7-1.211A6.142,6.142,0,0,1-581.121,497a6.041,6.041,0,0,1,3.5-5.354c.648-.328.655-.8.742-1.316a23.706,23.706,0,0,1,13.618-18.191,18.259,18.259,0,0,1,2.165-.869,3.314,3.314,0,0,0,2.336-1.625,2.288,2.288,0,0,1,2.167-1.089c2.343-.011,4.687-.019,7.03,0a2.722,2.722,0,0,1,2.67,1.771,1.262,1.262,0,0,0,.9.754c9.322,3.317,14.768,9.883,16.389,19.625a1.1,1.1,0,0,0,.676.916,6.136,6.136,0,0,1,3.51,5.555,6.162,6.162,0,0,1-3.231,5.727c-.351.21-.621.374-.591.867.467,7.582-2.744,13.658-7.8,18.976a1.53,1.53,0,0,0-.135.224c1,.372,1.994.709,2.964,1.111a34.187,34.187,0,0,1,12.267,8.443c.473.514.779.567,1.355.18a33.153,33.153,0,0,0,4.872-3.889c1.742-1.72,2.379-1.7,4.111-.032a25.521,25.521,0,0,0,12.368,7.035,2.34,2.34,0,0,0,.381.082c2.64.12,2.853,1.205,2.876,3.3.1,8.89-3.266,16.443-8.789,23.189-.309.378-.621.754-.947,1.116-1.983,2.2-4.1,4.2-7.061,5.039Zm-38.526-64.815q-9.612,0-19.223.005c-.406,0-.949-.212-.935.582a18.519,18.519,0,0,0,.426,5.132A25.018,25.018,0,0,0-558.1,525.788a11.4,11.4,0,0,0,6.58.851,21.164,21.164,0,0,0,11.265-6.194c4.352-4.328,7.382-9.3,7.169-15.746-.027-.834-.262-.995-1.043-.991C-540.5,503.739-546.878,503.725-553.253,503.725Zm53.326,37.095c-.128-.382.437-1.1-.579-1.325a28.268,28.268,0,0,1-12.473-6.706c-.5-.442-.759-.507-1.308-.025a28.483,28.483,0,0,1-12.464,6.724c-.579.134-.67.4-.653.931.307,9.352,4.6,16.759,11.284,22.95,1.917,1.775,2.927,1.682,4.94.039a30.1,30.1,0,0,0,5.3-5.957A29.52,29.52,0,0,0-499.927,540.82Zm-53.343-40.962q10.292,0,20.585,0a10.119,10.119,0,0,0,1.265-.049,2.411,2.411,0,0,0,2.086-2.018c.31-1.8-.923-3.006-3.111-3.007q-20.822,0-41.644,0a5.9,5.9,0,0,0-1.258.118,2.437,2.437,0,0,0-1.894,2.593,2.446,2.446,0,0,0,2.122,2.31,9.973,9.973,0,0,0,1.266.05Q-563.562,499.86-553.27,499.858Zm-6.2-24.984a20.065,20.065,0,0,0-13.475,15.4c-.116.673.2.677.684.675,3.122-.009,6.244-.033,9.365.015a1.154,1.154,0,0,0,1.305-.929C-559.849,485.148-559.517,480.076-559.469,474.873Zm12.9.107a42.669,42.669,0,0,0,2.227,15.42.761.761,0,0,0,.874.546c3.091-.011,6.183-.025,9.273.009.683.007.7-.2.589-.789a19.825,19.825,0,0,0-6.337-11.257A19.12,19.12,0,0,0-546.574,474.981Zm-6.451,15.969c1.334,0,2.669-.034,4,.014.684.025.736-.169.537-.767a36.734,36.734,0,0,1-1.631-7.9,79.732,79.732,0,0,1-.346-9.066c.008-.633-.157-.845-.806-.814a28.413,28.413,0,0,1-3.317,0c-.808-.055-1.016.177-1.019,1-.022,5.73-.168,11.452-2.049,16.96-.185.541.1.592.529.588C-555.757,490.942-554.391,490.95-553.024,490.95Zm-4.742,39.07a19.6,19.6,0,0,1-6.466-3.037,3.3,3.3,0,0,0-3.576-.4.885.885,0,0,0-.657.806,13.008,13.008,0,0,0,2.57,9.71c.465.665.705.582,1.2.067,1.125-1.169,2.339-2.253,3.47-3.418C-560.031,532.519-558.892,531.238-557.766,530.02Zm9.318-.1c2.214,2.408,4.552,4.944,6.879,7.489.306.335.476.277.734-.069a13.051,13.051,0,0,0,2.817-9.48c-.044-.4.107-1.023-.459-1.157-.9-.214-1.818-1.006-2.756-.367A26.682,26.682,0,0,1-548.448,529.924Z" transform="translate(1711.466 5382.46)" fill="#030303"/>
      <path id="Trazado_159622" data-name="Trazado 159622" d="M-488,820.589c.193-1.291.807-1.949,1.856-1.99,1.133-.044,1.748.54,2.091,1.986-.457,1.44-1.175,2.006-2.321,1.805A1.915,1.915,0,0,1-488,820.589Z" transform="translate(1631.961 5123.774)" fill="#030303"/>
      <path id="Trazado_159623" data-name="Trazado 159623" d="M-490.476,603.285c6.375,0,12.75.014,19.125-.018.781,0,1.015.157,1.042.991.213,6.447-2.817,11.419-7.169,15.746a21.164,21.164,0,0,1-11.265,6.194,11.4,11.4,0,0,1-6.58-.851A25.018,25.018,0,0,1-510.208,609a18.518,18.518,0,0,1-.426-5.132c-.015-.794.529-.582.935-.582Q-500.088,603.278-490.476,603.285Z" transform="translate(1648.689 5282.901)" fill="#f3c4ae"/>
      <path id="Trazado_159624" data-name="Trazado 159624" d="M-306.9,721.7a29.521,29.521,0,0,1-5.951,16.63,30.1,30.1,0,0,1-5.3,5.957c-2.013,1.644-3.023,1.737-4.94-.039-6.684-6.192-10.978-13.6-11.284-22.95-.017-.533.074-.8.653-.931a28.483,28.483,0,0,0,12.464-6.724c.548-.483.8-.417,1.308.025a28.268,28.268,0,0,0,12.473,6.706C-306.467,720.6-307.032,721.319-306.9,721.7Zm-17.968,7.045a1.87,1.87,0,0,0-1.655,1.219,1.821,1.821,0,0,0,.56,2.2q1.6,1.282,3.245,2.5a1.907,1.907,0,0,0,2.853-.294q3.037-3.3,6.028-6.65a1.937,1.937,0,0,0,.009-2.937,1.95,1.95,0,0,0-2.914.379c-1.341,1.462-2.663,2.941-4,4.41-.927,1.022-.925,1.016-2.01.2A3.34,3.34,0,0,0-324.872,728.746Z" transform="translate(1518.442 5201.58)" fill="#4e2e8e"/>
      <path id="Trazado_159625" data-name="Trazado 159625" d="M-501.349,574.147q-10.292,0-20.584,0a9.984,9.984,0,0,1-1.266-.05,2.446,2.446,0,0,1-2.122-2.31,2.437,2.437,0,0,1,1.894-2.593,5.9,5.9,0,0,1,1.258-.119q20.822-.009,41.644,0c2.188,0,3.421,1.2,3.111,3.007A2.411,2.411,0,0,1-479.5,574.1a10.119,10.119,0,0,1-1.265.049Q-491.057,574.149-501.349,574.147Z" transform="translate(1659.545 5308.171)" fill="#c6412a"/>
      <path id="Trazado_159626" data-name="Trazado 159626" d="M-495.439,492.8c-.047,5.2-.38,10.274-2.121,15.158a1.154,1.154,0,0,1-1.305.929c-3.121-.048-6.243-.025-9.365-.015-.481,0-.8,0-.684-.675A20.065,20.065,0,0,1-495.439,492.8Z" transform="translate(1647.436 5364.529)" fill="#c6412a"/>
      <path id="Trazado_159627" data-name="Trazado 159627" d="M-407.825,493.216a19.12,19.12,0,0,1,6.626,3.929,19.825,19.825,0,0,1,6.337,11.257c.112.588.094.8-.589.789-3.091-.034-6.182-.02-9.273-.009a.761.761,0,0,1-.874-.546A42.669,42.669,0,0,1-407.825,493.216Z" transform="translate(1572.717 5364.225)" fill="#c6412a"/>
      <path id="Trazado_159628" data-name="Trazado 159628" d="M-445.8,501.887c-1.367,0-2.733-.008-4.1,0-.429,0-.714-.046-.529-.588,1.881-5.507,2.027-11.23,2.049-16.96,0-.82.211-1.053,1.019-1a28.414,28.414,0,0,0,3.317,0c.649-.031.814.181.806.814a79.718,79.718,0,0,0,.346,9.066,36.734,36.734,0,0,0,1.631,7.9c.2.6.147.791-.537.767C-443.127,501.853-444.462,501.887-445.8,501.887Z" transform="translate(1604.238 5371.524)" fill="#c6412a"/>
      <path id="Trazado_159629" data-name="Trazado 159629" d="M-481.4,693.377c-1.126,1.218-2.265,2.5-3.459,3.728-1.131,1.164-2.344,2.249-3.47,3.418-.5.514-.736.6-1.2-.067a13.009,13.009,0,0,1-2.57-9.71.884.884,0,0,1,.657-.806,3.3,3.3,0,0,1,3.576.4A19.594,19.594,0,0,0-481.4,693.377Z" transform="translate(1635.095 5219.104)" fill="#b8bee0"/>
      <path id="Trazado_159630" data-name="Trazado 159630" d="M-415,692.877a26.683,26.683,0,0,0,7.215-3.583c.939-.639,1.852.152,2.756.367.566.134.416.752.459,1.157a13.051,13.051,0,0,1-2.817,9.48c-.258.346-.428.4-.734.069C-410.445,697.821-412.783,695.285-415,692.877Z" transform="translate(1578.015 5219.507)" fill="#b8bee0"/>
      <path id="Trazado_159631" data-name="Trazado 159631" d="M-303.063,759.818a3.34,3.34,0,0,1,2.12,1.025c1.085.818,1.083.823,2.01-.2,1.332-1.47,2.655-2.948,4-4.41a1.95,1.95,0,0,1,2.914-.379,1.937,1.937,0,0,1-.009,2.937q-2.992,3.345-6.028,6.65a1.907,1.907,0,0,1-2.853.294q-1.648-1.214-3.245-2.5a1.821,1.821,0,0,1-.56-2.2A1.87,1.87,0,0,1-303.063,759.818Z" transform="translate(1496.634 5170.507)" fill="#030303"/>
    </g>
  </g>
</svg>
