<svg xmlns="http://www.w3.org/2000/svg" width="133" height="133" viewBox="0 0 133 133">
  <g id="Grupo_153073" data-name="Grupo 153073" transform="translate(-390.332 -9832.698)">
    <g id="Grupo_153049" data-name="Grupo 153049" transform="translate(0 -256.816)">
      <g id="Elipse_18548" data-name="Elipse 18548" transform="translate(390.332 10089.515)" fill="#fff" stroke="#c6412a" stroke-width="4">
        <circle cx="66.5" cy="66.5" r="66.5" stroke="none"/>
        <circle cx="66.5" cy="66.5" r="64.5" fill="none"/>
      </g>
    </g>
    <g id="carpeta_1_" data-name="carpeta (1)" transform="translate(416.879 9856.698)">
      <g id="Grupo_152878" data-name="Grupo 152878" transform="translate(0.052 0)">
        <g id="Grupo_152877" data-name="Grupo 152877" transform="translate(1.143 1.143)">
          <path id="Trazado_210940" data-name="Trazado 210940" d="M77.974,50.779V80.291A10.117,10.117,0,0,1,67.859,90.407H18.714A10.117,10.117,0,0,1,8.6,80.291V37.443A10.116,10.116,0,0,1,18.714,27.327H39.742A10.118,10.118,0,0,1,48.4,32.2l2.175,3.592a10.118,10.118,0,0,0,8.651,4.872h8.638A10.116,10.116,0,0,1,77.974,50.779Z" transform="translate(-5.395 -14.571)" fill="#ffef0f"/>
          <path id="Trazado_210942" data-name="Trazado 210942" d="M77.974,92.008v21.664a5.731,5.731,0,0,1-4.846,2.672H13.445A5.732,5.732,0,0,1,8.6,113.672V92.008a5.265,5.265,0,0,1,2.1-.433H75.87A5.265,5.265,0,0,1,77.974,92.008Z" transform="translate(-5.395 -46.141)" fill="#f1ce64"/>
          <path id="Trazado_210943" data-name="Trazado 210943" d="M67.271,70.022H24.758a4.472,4.472,0,0,0-4.472,4.472v16H71.743v-16A4.472,4.472,0,0,0,67.271,70.022Z" transform="translate(-11.138 -35.55)" fill="#dddaec"/>
          <path id="Trazado_210944" data-name="Trazado 210944" d="M86.981,83.7v16H35.525v-16A4.472,4.472,0,0,1,40,79.229H82.511A4.472,4.472,0,0,1,86.981,83.7Z" transform="translate(-18.626 -40.074)" fill="#f6f9f9"/>
          <path id="Trazado_210945" data-name="Trazado 210945" d="M35.525,95.127H86.981v12.384H35.525Z" transform="translate(-18.626 -47.886)" fill="#dddaec"/>
          <path id="Trazado_210946" data-name="Trazado 210946" d="M75.684,122.637l2.324-13.8a5.306,5.306,0,0,0-5.232-6.187H7.607a5.306,5.306,0,0,0-5.232,6.187l2.324,13.8a5.73,5.73,0,0,0,5.651,4.779H70.033A5.73,5.73,0,0,0,75.684,122.637Z" transform="translate(-2.3 -51.581)" fill="#ffef0f"/>
          <g id="Grupo_152876" data-name="Grupo 152876" transform="translate(46.22)">
            <path id="Trazado_210948" data-name="Trazado 210948" d="M122.012,7.924a2.566,2.566,0,0,0-1.159-3.439L116.88,2.516a2.566,2.566,0,0,0-3.439,1.159l-7.864,15.866-3.83-6.4a2.565,2.565,0,0,0-3.519-.886l-3.806,2.275a2.567,2.567,0,0,0-.886,3.519l7.546,12.622a2.567,2.567,0,0,0,2.3,1.248l5.349-.211a2.562,2.562,0,0,0,2.2-1.424Z" transform="translate(-93.172 -2.248)" fill="#c6412a"/>
            <g id="Grupo_152875" data-name="Grupo 152875" transform="translate(0 0)">
              <path id="Trazado_210949" data-name="Trazado 210949" d="M119.16,22.216l9.19-18.541a2.554,2.554,0,0,1,.864-.985l-.35-.173a2.566,2.566,0,0,0-3.439,1.159L117.56,19.541Z" transform="translate(-105.155 -2.248)" fill="#c6412a"/>
              <path id="Trazado_210950" data-name="Trazado 210950" d="M104.007,39.979,96.462,27.357a2.567,2.567,0,0,1,.886-3.519L101,21.654a2.563,2.563,0,0,0-2.773-.091l-3.806,2.275a2.567,2.567,0,0,0-.886,3.519l7.546,12.622a2.567,2.567,0,0,0,2.3,1.248l2.168-.085a2.569,2.569,0,0,1-1.544-1.163Z" transform="translate(-93.172 -11.56)" fill="#c6412a"/>
            </g>
          </g>
        </g>
        <path id="Trazado_210951" data-name="Trazado 210951" d="M76.6,53.35a6.453,6.453,0,0,0-1.677-1.407V37.352a11.209,11.209,0,0,0-7.3-10.543L77.281,7.328a3.715,3.715,0,0,0-1.676-4.973L71.632.386a3.715,3.715,0,0,0-4.973,1.676L59.726,16.049l-2.753-4.6a3.709,3.709,0,0,0-5.089-1.281l-3.807,2.275a3.716,3.716,0,0,0-1.28,5.089l4.68,7.828A9.016,9.016,0,0,1,47.35,21.77l-2.176-3.59a11.326,11.326,0,0,0-9.631-5.425H22.118a1.144,1.144,0,1,0,0,2.289H35.543a9.024,9.024,0,0,1,7.673,4.322l2.176,3.59a11.33,11.33,0,0,0,7.8,5.274l1.147,1.919a3.708,3.708,0,0,0,3.182,1.808c.049,0,.1,0,.147,0l5.349-.211A3.7,3.7,0,0,0,66.2,29.684l.4-.809a8.929,8.929,0,0,1,6.031,8.477V51.138a6.468,6.468,0,0,0-.96-.073H70.7V44.771a5.623,5.623,0,0,0-5.617-5.617H62.866a5.625,5.625,0,0,0-5.538-4.683H14.815A5.622,5.622,0,0,0,9.2,40.088V51.065H6.5a6.47,6.47,0,0,0-.958.073V24.014a8.98,8.98,0,0,1,8.969-8.971h3.027a1.144,1.144,0,0,0,0-2.289H14.514A11.272,11.272,0,0,0,3.256,24.014V51.943A6.447,6.447,0,0,0,.142,58.586l2.324,13.8a6.857,6.857,0,0,0,6.779,5.733H68.928a6.857,6.857,0,0,0,6.779-5.734l2.324-13.8A6.436,6.436,0,0,0,76.6,53.35ZM62.931,29.456l-5.35.211a1.423,1.423,0,0,1-1.274-.692L48.762,16.353a1.424,1.424,0,0,1,.491-1.95l3.806-2.275a1.42,1.42,0,0,1,1.95.491l3.83,6.4a1.144,1.144,0,0,0,2.008-.079L68.709,3.079a1.424,1.424,0,0,1,1.906-.642L74.588,4.4A1.424,1.424,0,0,1,75.23,6.31h0L64.147,28.668a1.416,1.416,0,0,1-1.216.788ZM11.488,40.088a3.331,3.331,0,0,1,3.326-3.328H57.328a3.333,3.333,0,0,1,3.194,2.394H22.566a5.622,5.622,0,0,0-5.615,5.617v6.294H11.488ZM75.774,58.206l-2.324,13.8a4.574,4.574,0,0,1-4.522,3.825H9.245a4.574,4.574,0,0,1-4.522-3.825L2.4,58.206a4.161,4.161,0,0,1,4.1-4.852H59.552a1.144,1.144,0,1,0,0-2.289H19.239V44.771a3.331,3.331,0,0,1,3.326-3.328H65.079a3.332,3.332,0,0,1,3.328,3.328v6.294H64.047a1.144,1.144,0,0,0,0,2.289h7.623a4.161,4.161,0,0,1,4.1,4.851Z" transform="translate(-0.052 0)"/>
      </g>
    </g>
  </g>
</svg>
