<svg xmlns="http://www.w3.org/2000/svg" width="482.5" height="317.425" viewBox="0 0 482.5 317.425">
  <g id="Grupo_153019" data-name="Grupo 153019" transform="translate(-832.5 -667.124)">
    <rect id="wepik-photo-mode-20221011-75312" width="482.5" height="317.425" rx="19" transform="translate(832.5 667.124)" fill="#fff"/>
    <g id="Grupo_109526" data-name="Grupo 109526" transform="translate(895 753.684)">
      <g id="Grupo_109513" data-name="Grupo 109513" transform="translate(0.385 39.536)">
        <path id="Trazado_159556" data-name="Trazado 159556" d="M318.856,139.4l-41.12.722-1.939.033-1.761.033L274,138.373l-.532-30.091-.027-1.587-.053-2.991,1.159.014h.375l43.527.462s-.02.255-.056.716c-.166,2.216-.651,9.215-.667,15.647,0,.41,0,.809.006,1.208,0,.949.024,1.87.056,2.758.216,5.574.57,9.951.815,12.482C318.753,138.549,318.856,139.4,318.856,139.4Z" transform="translate(-152.225 -97.29)" fill="#b3b3b3"/>
        <g id="Grupo_109511" data-name="Grupo 109511" transform="translate(117.512 9.31)">
          <path id="Trazado_159557" data-name="Trazado 159557" d="M315.854,115.035v1.487c-13.105-.357-27.879-1.711-38.78-1.78-.263-.484,26.018-.257,38.774.293Z" transform="translate(-267.855 -101.09)" fill="#e6e7e8"/>
          <path id="Trazado_159558" data-name="Trazado 159558" d="M313.909,122.024c7.985.42-32.7,1.741-37.2,1.262C276.157,121.862,298.233,121.2,313.909,122.024Z" transform="translate(-268.046 -97.416)" fill="#e6e7e8"/>
          <path id="Trazado_159559" data-name="Trazado 159559" d="M270.974,106.424c-.086-1.309,18.4-.9,30.273.352C309.836,107.682,271.1,108.457,270.974,106.424Z" transform="translate(-270.974 -105.62)" fill="#e6e7e8"/>
          <path id="Trazado_159560" data-name="Trazado 159560" d="M274.247,110.079c-.024-1.312,25.736.537,38.357,2.214C321.169,113.432,274.261,110.735,274.247,110.079Z" transform="translate(-269.3 -103.567)" fill="#e6e7e8"/>
        </g>
        <path id="Trazado_159561" data-name="Trazado 159561" d="M277.344,103.752l-3.954-.047.648,36.486,3.7-.067C277.06,126.436,276.253,116.614,277.344,103.752Z" transform="translate(-152.226 -97.289)" fill="#fff34b"/>
        <g id="Grupo_109512" data-name="Grupo 109512">
          <path id="Trazado_159562" data-name="Trazado 159562" d="M319.82,106.91l-1.229-.033L277.531,105.8l-2.26-.057a.794.794,0,0,1-.151,0,1.791,1.791,0,0,1-.37-.053h0c-.594-.156-1.51-.718-1.7-2.707-.166-1.69.369-2.477.9-2.841a1.77,1.77,0,0,1,.916-.319l.822.027,22.479.784,21.186.735a1.58,1.58,0,0,1,1.2.818,4.225,4.225,0,0,1,.645,1.929C321.341,105.674,320.723,106.928,319.82,106.91Z" transform="translate(-152.42 -99.27)" fill="#fff787"/>
          <path id="Trazado_159563" data-name="Trazado 159563" d="M319.373,131.255l-30.084.774-12.9.328-1.055.027a1.3,1.3,0,0,1-.169.048,1.543,1.543,0,0,1-.645-.006,1.439,1.439,0,0,1-.935-.727,3.847,3.847,0,0,1-.441-1.575c-.184-1.909.469-2.689,1.01-3a1.561,1.561,0,0,1,.651-.213l.954-.026,2.022-.057,40.976-1.085.15-.006c.855-.189,1.709.846,1.806,2.35C320.816,129.828,320.257,131.06,319.373,131.255Z" transform="translate(-152.37 -86.036)" fill="#fff787"/>
          <path id="Trazado_159564" data-name="Trazado 159564" d="M316.5,99.892,196.881,99.46s-3.431,6.581-3.65,20.251c-.254,15.948,4.463,25.69,4.463,25.69l119.554.458C316.224,140.261,314.6,113.38,316.5,99.892Z" transform="translate(-193.221 -99.46)" fill="#fff787"/>
          <path id="Trazado_159565" data-name="Trazado 159565" d="M212.347,145.472l-6.519-.024a218.943,218.943,0,0,1-1.948-24.147A127.631,127.631,0,0,1,205.2,99.5l6.325-.029a205.05,205.05,0,0,0-1.171,22.148A211.183,211.183,0,0,0,212.347,145.472Z" transform="translate(-187.782 -99.453)" fill="#fff787" opacity="0.1"/>
          <path id="Trazado_159566" data-name="Trazado 159566" d="M205.426,145.435l-2.379-.011a205.339,205.339,0,0,1-2.1-24.348A115.379,115.379,0,0,1,202.4,99.483l2.211.008a185.642,185.642,0,0,0-1.3,21.98A199.167,199.167,0,0,0,205.426,145.435Z" transform="translate(-189.281 -99.448)" fill="#fff787" opacity="0.1"/>
          <path id="Trazado_159567" data-name="Trazado 159567" d="M212.533,145.485l-1.276-.03a205.667,205.667,0,0,1-2.1-24.347,115.459,115.459,0,0,1,1.451-21.594l1.094,0a124.173,124.173,0,0,0-1.421,21.688A221.308,221.308,0,0,0,212.533,145.485Z" transform="translate(-185.082 -99.432)" fill="#fff787" opacity="0.1"/>
          <path id="Trazado_159568" data-name="Trazado 159568" d="M269.119,121.645c.2,11.255,1.158,22.847,1.344,24.076l-2.379-.009c-.18-1.214-1.118-12.9-1.325-24.46A115.67,115.67,0,0,1,268.2,99.721l2.5,0A161.277,161.277,0,0,0,269.119,121.645Z" transform="translate(-155.628 -99.327)" fill="#fff787" opacity="0.1"/>
          <path id="Trazado_159569" data-name="Trazado 159569" d="M271.634,145.766l-1.276-.03s-1.12-12.071-1.338-24.286a117.146,117.146,0,0,1,1.455-21.706l1.1,0a125.389,125.389,0,0,0-1.43,21.8C270.469,133.444,271.634,145.766,271.634,145.766Z" transform="translate(-154.471 -99.315)" fill="#fff787" opacity="0.1"/>
          <path id="Trazado_159570" data-name="Trazado 159570" d="M267.93,145.729l-1.276-.03s-1.121-12.071-1.339-24.286a117.317,117.317,0,0,1,1.452-21.706l1.1,0a125.417,125.417,0,0,0-1.427,21.8C266.765,133.407,267.93,145.729,267.93,145.729Z" transform="translate(-156.366 -99.334)" fill="#fff787" opacity="0.1"/>
        </g>
      </g>
      <g id="Grupo_109519" data-name="Grupo 109519" transform="translate(0.342 84.82)">
        <g id="Grupo_109515" data-name="Grupo 109515" transform="translate(109.636 0.147)">
          <path id="Trazado_159571" data-name="Trazado 159571" d="M324.5,132.714l-57.963-1.062-.449,42.717,56.7-.212S326.715,137.777,324.5,132.714Z" transform="translate(-265.552 -128.429)" fill="#b3b3b3"/>
          <path id="Trazado_159572" data-name="Trazado 159572" d="M325,136.376l-4.78-.1-51.42-1.1-.234,0-1.88-.044-.292,0s-.724.3-.66-2.332c0-.166.008-.34.018-.53a9.018,9.018,0,0,1,.252-1.829,1.917,1.917,0,0,1,.349-.765c.19-.209.349-.142.349-.142l.91.02.88.02,2.383.047.351.009.716.015,1.282.027,4.123.085,2.705.059,13,.271,25.625.53,4.638.1h.023l.367.012.008.035.694,3.045Z" transform="translate(-265.733 -129.519)" fill="#3d4780"/>
          <path id="Trazado_159573" data-name="Trazado 159573" d="M323.019,158.5l-.133,2.474,0,.062-.166,3.091-2.893-.062-51.789-1.1-1.5-.035s-.783.348-.608-2.863c0-.122.015-.243.024-.357a7.512,7.512,0,0,1,.266-1.65c.275-.88.62-.727.62-.727l.466.009,1.223.024,52.091,1.084Z" transform="translate(-265.648 -115.304)" fill="#3d4780"/>
          <g id="Grupo_109514" data-name="Grupo 109514" transform="translate(1.506 11.752)">
            <path id="Trazado_159574" data-name="Trazado 159574" d="M277.039,148.9c11.517,1.073,24.209,2.2,35.906,1.312,4.829-.367.762-1.576.429-1.634C303.931,146.888,277.093,148.366,277.039,148.9Z" transform="translate(-261.458 -131.928)" fill="#ccc"/>
            <path id="Trazado_159575" data-name="Trazado 159575" d="M267.783,139.418c11.517,1.072,18.227,1.185,29.939,1.718,0,0-20.1-2.92-30.078-3.842A20.762,20.762,0,0,1,267.783,139.418Z" transform="translate(-266.263 -137.295)" fill="#ccc"/>
            <path id="Trazado_159576" data-name="Trazado 159576" d="M266.73,156.309c7.586.707,37.161,1.785,47.712-.085,7.853-1.389-40.8-1.883-47.375-2.491C267.063,154.128,266.763,155.959,266.73,156.309Z" transform="translate(-266.73 -128.889)" fill="#ccc"/>
          </g>
          <path id="Trazado_159577" data-name="Trazado 159577" d="M310.316,153.93a140.415,140.415,0,0,1-2.2,21.395c-.292,1.67-1.469,2.825-2.8,2.757l-3.32-.175-.54-.027c.218-.922.464-1.915.725-2.993q.3-1.217.608-2.6a80.548,80.548,0,0,0,1.93-17.682,82.888,82.888,0,0,0-2.408-18.7c-.228-.961-.447-1.823-.647-2.569-.515-1.948-.892-3.1-.892-3.1l4.638.1h.023a2.173,2.173,0,0,1,.375.047,3.126,3.126,0,0,1,2.214,2.533A97.36,97.36,0,0,1,310.316,153.93Z" transform="translate(-247.817 -129.15)" fill="#3d4780"/>
        </g>
        <g id="Grupo_109518" data-name="Grupo 109518">
          <g id="Grupo_109516" data-name="Grupo 109516">
            <path id="Trazado_159578" data-name="Trazado 159578" d="M303.634,172.809s-1.2-25.318,1.737-41.123l-108.477.012a165.982,165.982,0,0,1,.806,22.6c-.3,14.211-2.678,19-2.678,19Z" transform="translate(-192.258 -128.264)" fill="#f1f2f2"/>
            <path id="Trazado_159579" data-name="Trazado 159579" d="M306.4,160.2a6.947,6.947,0,0,1-.154,1.072,4.378,4.378,0,0,1-.323.94,1.508,1.508,0,0,1-.707.789.529.529,0,0,1-.2.042l-34.476.153-75.983.336s-1.537.381-1.344-2.924c.189-3.147,1.688-2.84,1.688-2.84l1.886-.008,73.752-.346,32.869-.159,1.075,0,.825-.006a.63.63,0,0,1,.4.157A3.739,3.739,0,0,1,306.4,160.2Z" transform="translate(-193.193 -115.195)" fill="#6677d6"/>
            <path id="Trazado_159580" data-name="Trazado 159580" d="M196.568,129.943l110.41-.521c.7,0,1.186,1.33,1.09,2.953h0c-.1,1.576-.709,2.838-1.383,2.841l-110.46.494s-1.542.376-1.344-2.924C195.068,129.637,196.568,129.943,196.568,129.943Z" transform="translate(-192.339 -129.422)" fill="#6677d6"/>
          </g>
          <g id="Grupo_109517" data-name="Grupo 109517" transform="translate(5.314 12.615)">
            <path id="Trazado_159581" data-name="Trazado 159581" d="M303.11,139.791a16.069,16.069,0,0,1,.166-2.022c-7.8.1-96.064.667-106.529.781-.008.334.03.789.023,1.427C215.851,140.107,288.4,139.691,303.11,139.791Z" transform="translate(-196.69 -137.769)" fill="#b3b3b3"/>
            <path id="Trazado_159582" data-name="Trazado 159582" d="M292.155,143.358c1.752-1.146-26.375-.636-39.4-.573-13.974.065-29.234.7-35.756-.221-.035.949,23.887,2.353,35.593,2.485C264.055,145.181,289.695,144.971,292.155,143.358Z" transform="translate(-186.334 -135.316)" fill="#b3b3b3"/>
            <path id="Trazado_159583" data-name="Trazado 159583" d="M263.681,151.328c.2-.012,1.173.03,1.167-.37,0-.178-.6-.391-1.15-.426-4.419-.287-60.352-2.095-66.875-3.012-.08.833.018,1.189-.113,2.276C209.955,150.681,259.08,151.624,263.681,151.328Z" transform="translate(-196.709 -132.783)" fill="#b3b3b3"/>
            <path id="Trazado_159584" data-name="Trazado 159584" d="M289.66,155.721c0-.671-.039-2.444-.044-3.191-4.971.115-18.6.3-31.622.367-13.974.065-29.042-.213-35.659.363-3.821.334,23.813,1.666,35.51,1.3C268.536,154.224,280.285,155.654,289.66,155.721Z" transform="translate(-183.789 -130.221)" fill="#b3b3b3"/>
          </g>
        </g>
      </g>
      <g id="Grupo_109525" data-name="Grupo 109525" transform="translate(0 0)">
        <g id="Grupo_109521" data-name="Grupo 109521" transform="translate(109.775 0.114)">
          <path id="Trazado_159585" data-name="Trazado 159585" d="M324.409,76.2,266.446,75.17l-.583,35.939,56.7-.039S326.608,80.469,324.409,76.2Z" transform="translate(-265.465 -72.459)" fill="#b3b3b3"/>
          <path id="Trazado_159586" data-name="Trazado 159586" d="M324.859,79.288l-4.783-.094-51.412-1.052h-.186l-1.932-.042-.29,0s-.724.252-.651-1.966c0-.138.011-.284.021-.446.174-2.572.954-2.3.954-2.3l4.525.092,47.454.945,4.632.089a.1.1,0,0,1,.038,0l.358.006.009.027.683,2.566Z" transform="translate(-265.6 -73.376)" fill="#772719"/>
          <path id="Trazado_159587" data-name="Trazado 159587" d="M322.807,97.894l-.147,2.133-.181,2.6-2.834-.056-17.736-.361-22.522-.461-1.694-.032-4.472-.092-1.1-.023-.925-.018-2.5-.054-.884-.02h-.18l-1.1-.023-.224,0s-.228.086-.406-.261a4.426,4.426,0,0,1-.192-2.151c.011-.1.015-.2.024-.3a5.269,5.269,0,0,1,.278-1.384c.274-.744.624-.615.624-.615l.456.011,1.22.023,52.1,1.04Z" transform="translate(-265.56 -61.417)" fill="#772719"/>
          <g id="Grupo_109520" data-name="Grupo 109520" transform="translate(1.39 9.893)">
            <path id="Trazado_159588" data-name="Trazado 159588" d="M276.851,89.69c11.514.928,24.2,1.909,35.9,1.189,4.832-.3.768-1.324.437-1.374C303.747,88.062,276.905,89.241,276.851,89.69Z" transform="translate(-261.236 -75.377)" fill="#ccc"/>
            <path id="Trazado_159589" data-name="Trazado 159589" d="M267.623,81.708c11.512.93,18.223,1.041,29.931,1.517,0,0-20.083-2.5-30.063-3.3A15.125,15.125,0,0,1,267.623,81.708Z" transform="translate(-266.021 -79.922)" fill="#ccc"/>
            <path id="Trazado_159590" data-name="Trazado 159590" d="M266.519,95.918c7.586.612,37.155,1.588,47.714.044,7.858-1.152-40.793-1.684-47.368-2.211C266.858,94.084,266.555,95.624,266.519,95.918Z" transform="translate(-266.519 -72.85)" fill="#ccc"/>
          </g>
          <path id="Trazado_159591" data-name="Trazado 159591" d="M310.106,94.017a99.333,99.333,0,0,1-2.269,18,2.8,2.8,0,0,1-2.81,2.317l-3.261-.151-.6-.03c.227-.774.476-1.608.738-2.515.2-.68.408-1.406.614-2.181A57.61,57.61,0,0,0,304.5,94.58a58.947,58.947,0,0,0-2.346-15.739c-.222-.813-.44-1.54-.633-2.166-.514-1.638-.884-2.607-.884-2.607l4.632.089a.1.1,0,0,1,.038,0,2.651,2.651,0,0,1,.367.033,2.852,2.852,0,0,1,2.2,2.142A69.156,69.156,0,0,1,310.106,94.017Z" transform="translate(-247.681 -73.023)" fill="#772719"/>
        </g>
        <g id="Grupo_109524" data-name="Grupo 109524">
          <g id="Grupo_109522" data-name="Grupo 109522">
            <path id="Trazado_159592" data-name="Trazado 159592" d="M303.412,109.883s-1.12-21.3,1.867-34.594L196.8,75.037a117.822,117.822,0,0,1,.735,19.018c-.342,11.955-2.737,15.983-2.737,15.983Z" transform="translate(-192.029 -72.413)" fill="#f1f2f2"/>
            <path id="Trazado_159593" data-name="Trazado 159593" d="M194.684,96.877,305.1,96.7c.7,0,1.182,1.12,1.081,2.488h0c-.1,1.327-.719,2.386-1.392,2.388l-110.463.147s-1.542.313-1.336-2.465C193.186,96.614,194.684,96.877,194.684,96.877Z" transform="translate(-192.967 -61.333)" fill="#c6412a"/>
            <path id="Trazado_159594" data-name="Trazado 159594" d="M307.935,75.789a4.364,4.364,0,0,1-.479,1.69,1.17,1.17,0,0,1-.913.7h-1.637l-.186,0h-1.931l-33.037.044-72.632.1h-1.04s-1.543.314-1.333-2.464c.2-2.649,1.694-2.389,1.694-2.389l73.311-.113,37.1-.057a.716.716,0,0,1,.5.215A2.949,2.949,0,0,1,307.935,75.789Z" transform="translate(-192.066 -73.301)" fill="#c6412a"/>
          </g>
          <g id="Grupo_109523" data-name="Grupo 109523" transform="translate(5.368 10.607)">
            <path id="Trazado_159595" data-name="Trazado 159595" d="M302.951,82.019a11.248,11.248,0,0,1,.172-1.7c-7.8.062-96.069.331-106.53.4-.009.281.024.665.017,1.2C215.689,82.077,288.24,81.9,302.951,82.019Z" transform="translate(-196.481 -80.319)" fill="#b3b3b3"/>
            <path id="Trazado_159596" data-name="Trazado 159596" d="M291.982,85.084c1.756-.961-26.37-.6-39.4-.579-13.973.023-29.236.515-35.754-.272-.038.8,23.883,2.037,35.584,2.178C263.875,86.548,289.519,86.434,291.982,85.084Z" transform="translate(-186.132 -78.317)" fill="#b3b3b3"/>
            <path id="Trazado_159597" data-name="Trazado 159597" d="M263.487,91.719c.2-.011,1.17.029,1.167-.308,0-.151-.6-.331-1.15-.363-4.416-.249-60.344-1.907-66.865-2.7-.082.7.015,1-.121,1.915C209.761,91.045,258.883,91.957,263.487,91.719Z" transform="translate(-196.518 -76.211)" fill="#b3b3b3"/>
            <path id="Trazado_159598" data-name="Trazado 159598" d="M289.448,95.422c0-.565-.032-2.055-.032-2.683-4.971.083-18.6.21-31.625.231-13.973.023-29.039-.249-35.659.219-3.821.271,23.806,1.457,35.505,1.177C268.331,94.113,280.076,95.342,289.448,95.422Z" transform="translate(-183.604 -73.968)" fill="#b3b3b3"/>
          </g>
        </g>
      </g>
      <text id="LAW" transform="matrix(1, 0.013, -0.013, 1, 39.481, 69.293)" fill="#fff" font-size="25" font-family="Roboto-Black, Roboto" font-weight="800"><tspan x="0" y="0">LAW</tspan></text>
    </g>
    <g id="Grupo_109532" data-name="Grupo 109532" transform="translate(1083.209 709.063)">
      <path id="Trazado_159551" data-name="Trazado 159551" d="M64.784,357.5v7.548H44.352V357.5a10.216,10.216,0,0,1,20.432,0Z" transform="translate(-44.352 -347.291)" fill="#d2e1f1"/>
      <path id="Trazado_159552" data-name="Trazado 159552" d="M186.333,365.5V525.812H70.079A10.444,10.444,0,0,1,59.735,515.37V357.5a8.69,8.69,0,0,0-.057-1.04,6.226,6.226,0,0,0-.14-.885,3.974,3.974,0,0,0-.126-.578,1.94,1.94,0,0,0-.114-.406,3.861,3.861,0,0,0-.169-.507,1.674,1.674,0,0,0-.126-.351,3.058,3.058,0,0,0-.241-.546,5.875,5.875,0,0,0-.35-.7c-.1-.17-.2-.339-.309-.506a2.85,2.85,0,0,0-.268-.38,6.831,6.831,0,0,0-.522-.69,6.957,6.957,0,0,0-.577-.618,8.026,8.026,0,0,0-.616-.578c-.17-.14-.339-.279-.52-.4-.156-.115-.311-.225-.465-.326a10.688,10.688,0,0,0-2.461-1.18,6.7,6.7,0,0,0-.884-.24,5.686,5.686,0,0,0-.859-.154.143.143,0,0,0-.071-.012v-.1H168.128A18.208,18.208,0,0,1,186.333,365.5Z" transform="translate(-39.31 -347.29)" fill="#f3f9ff"/>
      <g id="Grupo_109507" data-name="Grupo 109507" transform="translate(30.199 160.757)">
        <path id="Trazado_159553" data-name="Trazado 159553" d="M61.372,447.9c.144.009.293.009.445.009h-.445Z" transform="translate(-61.372 -430.143)" fill="#d2e1f1"/>
        <path id="Trazado_159554" data-name="Trazado 159554" d="M195.715,437.891v4.553A13.215,13.215,0,0,1,182.5,455.656H61.693c7.591-.053,13.705-4.608,13.705-10.217v-7.548Z" transform="translate(-61.123 -437.891)" fill="#d2e1f1"/>
      </g>
      <g id="Grupo_109508" data-name="Grupo 109508" transform="translate(33.237 23.98)">
        <rect id="Rectángulo_41154" data-name="Rectángulo 41154" width="101.354" height="3.552" fill="#4e2e8e"/>
        <rect id="Rectángulo_41155" data-name="Rectángulo 41155" width="101.354" height="3.55" transform="translate(0 13.323)" fill="#4e2e8e"/>
        <rect id="Rectángulo_41156" data-name="Rectángulo 41156" width="101.354" height="3.552" transform="translate(0 26.645)" fill="#4e2e8e"/>
        <rect id="Rectángulo_41157" data-name="Rectángulo 41157" width="101.354" height="3.552" transform="translate(0 39.966)" fill="#4e2e8e"/>
        <rect id="Rectángulo_41158" data-name="Rectángulo 41158" width="101.354" height="3.554" transform="translate(0 53.29)" fill="#4e2e8e"/>
        <rect id="Rectángulo_41159" data-name="Rectángulo 41159" width="101.354" height="3.554" transform="translate(0 66.611)" fill="#4e2e8e"/>
        <rect id="Rectángulo_41160" data-name="Rectángulo 41160" width="101.354" height="3.552" transform="translate(0 79.934)" fill="#4e2e8e"/>
        <rect id="Rectángulo_41161" data-name="Rectángulo 41161" width="101.354" height="3.554" transform="translate(0 93.256)" fill="#4e2e8e"/>
      </g>
      <path id="Trazado_159555" data-name="Trazado 159555" d="M130.173,431.862a11.992,11.992,0,1,1-11.993-11.991A11.993,11.993,0,0,1,130.173,431.862Z" transform="translate(3.532 -291.088)" fill="#c6412a"/>
    </g>
    <g id="Grupo_109506" data-name="Grupo 109506" transform="translate(940.2 809.19)">
      <g id="Grupo_109501" data-name="Grupo 109501" transform="translate(131.93 99.306)">
        <path id="Trazado_159538" data-name="Trazado 159538" d="M199.155,276v15.037h117.2V276a7.472,7.472,0,0,0-7.469-7.47H206.624a7.47,7.47,0,0,0-7.469,7.47Z" transform="translate(-196.438 -263.012)" fill="#89411d"/>
        <path id="Trazado_159539" data-name="Trazado 159539" d="M197.3,282.984v6.854a1.249,1.249,0,0,0,1.247,1.247H318.677a1.248,1.248,0,0,0,1.246-1.247v-6.854a2.766,2.766,0,0,0-2.715-2.762h-117.2A2.768,2.768,0,0,0,197.3,282.984Z" transform="translate(-197.296 -257.627)" fill="#662a10"/>
        <path id="Trazado_159540" data-name="Trazado 159540" d="M202.611,268.564v1.687a3.2,3.2,0,0,0,.023.412,3.808,3.808,0,0,0,3.79,3.4H305.9a3.813,3.813,0,0,0,3.79-3.4,3.2,3.2,0,0,0,.025-.412v-1.687a3.818,3.818,0,0,0-3.815-3.813H206.424A3.813,3.813,0,0,0,202.611,268.564Z" transform="translate(-194.847 -264.751)" fill="#89411d"/>
      </g>
      <g id="Grupo_109505" data-name="Grupo 109505" transform="translate(0 0)">
        <g id="Grupo_109504" data-name="Grupo 109504">
          <path id="Trazado_159541" data-name="Trazado 159541" d="M265.6,292.432a9.39,9.39,0,0,0,16.689,1.926c12.668-1.227,35.548-15.978,57.054-24.516,1.761-.7,3.558-1.386,5.369-2.064.818.99,1.672,1.5,2.331,1.26a1.407,1.407,0,0,0,.767-.942c.84,1.072,1.656,1.628,2.259,1.411s.87-1.17.821-2.534a1.418,1.418,0,0,0,1.2.225c.644-.234.965-1.141.968-2.4,18.659-6.4,37.828-11.322,47.12-13.58a5.087,5.087,0,0,0,5.655,1.535l1.215-.44a5.091,5.091,0,0,0,3.293-4.065l4.05-1.477,6.277-2.289-5.521-15.142-6.277,2.289-4.051,1.472a5.067,5.067,0,0,0-5.131-.984l-1.212.44a5.08,5.08,0,0,0-3.343,4.814c-8.57,4.254-26.4,12.816-44.8,19.928-.811-.961-1.643-1.452-2.289-1.211a1.4,1.4,0,0,0-.774.939c-.84-1.072-1.656-1.627-2.254-1.411s-.869,1.168-.828,2.535a1.388,1.388,0,0,0-1.19-.229c-.659.24-.983,1.174-.974,2.465-1.82.647-3.637,1.274-5.434,1.872-21.96,7.305-48.966,10.727-59.454,17.95a9.286,9.286,0,0,0-5.919.161A9.4,9.4,0,0,0,265.6,292.432Z" transform="translate(-265.025 -181.749)" fill="#636363"/>
          <path id="Trazado_159542" data-name="Trazado 159542" d="M237.415,232.653l.161.441,1.656,4.539,5.521,15.142,1.612,4.427.2.538L268.9,249.6l1.158-.421,21.295-7.765-.181-.5-8.781-24.11-.176-.484-21.016,7.66-1.158.421Z" transform="translate(-95.392 -187.745)" fill="#4e2e8e"/>
          <g id="Grupo_109502" data-name="Grupo 109502" transform="translate(153.701 61.994)">
            <path id="Trazado_159543" data-name="Trazado 159543" d="M229.668,270.394a9.077,9.077,0,0,0,4.859,4.314,15.732,15.732,0,0,0,11.491-.124c9.934-3.624,12.851-4.682,13.548-4.939l.193-.07s.209-.072.967-.353c1.453-.523,4.916-1.789,12.772-4.652a15.724,15.724,0,0,0,8.877-7.294,9.124,9.124,0,0,0,.939-6.435,5.889,5.889,0,0,0-.942-2.026,5.645,5.645,0,0,0-3.347-2.16,5.275,5.275,0,0,0-.6-.12,9.616,9.616,0,0,1-3.035-.926,3.7,3.7,0,0,1-2.087-2.623,4.774,4.774,0,0,1,.444-2.871,2.126,2.126,0,0,1,.657-.911l-21.68,7.26-1.17.391-.066.022L229,255.747a2.139,2.139,0,0,1,1.065.266,4.793,4.793,0,0,1,2.213,1.925,3.7,3.7,0,0,1,.088,3.352,9.577,9.577,0,0,1-1.728,2.655c-.139.164-.266.317-.384.482a5.688,5.688,0,0,0-1.174,3.813A6.057,6.057,0,0,0,229.668,270.394Z" transform="translate(-229.003 -239.204)" fill="#636363"/>
          </g>
          <path id="Trazado_159544" data-name="Trazado 159544" d="M233.883,255.633a5.083,5.083,0,0,0,6.065,3.177c.136-.034.272-.074.4-.121l.054-.018,21.447-7.819,1.161-.422,20.4-7.435c.072-.026.14-.057.212-.082a5.087,5.087,0,0,0-2.661-9.733,4.871,4.871,0,0,0-.986.24l-.054.019-20.286,7.4-1.158.421-21.557,7.859a5.988,5.988,0,0,0-.767.349A5.1,5.1,0,0,0,233.883,255.633Z" transform="translate(-85.182 -180.006)" fill="#afafaf"/>
          <g id="Grupo_109503" data-name="Grupo 109503" transform="translate(129.723)">
            <path id="Trazado_159545" data-name="Trazado 159545" d="M246.6,223.673a5.636,5.636,0,0,0,3.355,2.157,4.4,4.4,0,0,0,.593.121,9.725,9.725,0,0,1,3.041.924,3.675,3.675,0,0,1,2.083,2.625,4.742,4.742,0,0,1-.441,2.871,2.115,2.115,0,0,1-.654.911l22.917-7.675.1-.042,1.148-.451,21.228-8.373a2.177,2.177,0,0,1-1.065-.267,4.784,4.784,0,0,1-2.207-1.926,3.683,3.683,0,0,1-.094-3.349,9.592,9.592,0,0,1,1.735-2.66c.137-.164.258-.314.377-.476a5.618,5.618,0,0,0,1.171-3.815,5.873,5.873,0,0,0-.581-2.154,9.094,9.094,0,0,0-4.86-4.316,15.71,15.71,0,0,0-11.485.124c-7,2.556-10.514,3.832-12.223,4.453-.559.21-.924.339-1.16.421-.269.1-.356.133-.356.133s-1.792.651-13.74,5.007a15.744,15.744,0,0,0-8.878,7.294,9.164,9.164,0,0,0-.942,6.438A5.965,5.965,0,0,0,246.6,223.673Z" transform="translate(-245.424 -196.756)" fill="#636363"/>
          </g>
          <path id="Trazado_159546" data-name="Trazado 159546" d="M242.1,232.645a5.086,5.086,0,0,0,5.478,3.295,4.786,4.786,0,0,0,.987-.238l.055-.02,21.615-7.878,1.16-.421L291.624,220a5.891,5.891,0,0,0,.767-.349,5.087,5.087,0,0,0-3.8-9.346c-.136.034-.27.074-.4.121l-.053.019-20.117,7.338-1.16.422-21.723,7.914c-.076.026-.145.057-.218.083A5.084,5.084,0,0,0,242.1,232.645Z" transform="translate(-105.39 -190.592)" fill="#afafaf"/>
          <path id="Trazado_159547" data-name="Trazado 159547" d="M242.39,210.3" transform="translate(-53.692 -190.522)" fill="#894e34"/>
          <path id="Trazado_159548" data-name="Trazado 159548" d="M261.588,205.319" transform="translate(-100.929 -192.813)" fill="#b4711a"/>
        </g>
        <path id="Trazado_159549" data-name="Trazado 159549" d="M257.259,311.285a9.357,9.357,0,0,0,4.633-3.685c12.668-1.227,35.548-15.978,57.054-24.516,1.761-.7,3.558-1.386,5.369-2.064.818.99,1.672,1.5,2.331,1.26a1.407,1.407,0,0,0,.767-.942c.84,1.072,1.656,1.628,2.259,1.411s.87-1.17.821-2.534a1.418,1.418,0,0,0,1.2.225c.644-.234.965-1.141.968-2.4,18.659-6.4,37.828-11.322,47.12-13.58A5.087,5.087,0,0,0,385.436,266l1.215-.44a5.091,5.091,0,0,0,3.293-4.065l4.05-1.477,1.611,4.427a5.086,5.086,0,0,0,3.793,9.347,4.793,4.793,0,0,1,2.213,1.925,3.7,3.7,0,0,1,.088,3.352,9.577,9.577,0,0,1-1.728,2.655c-.139.164-.266.317-.384.482a5.688,5.688,0,0,0-1.174,3.813,6.057,6.057,0,0,0,.586,2.154,9.078,9.078,0,0,0,4.859,4.314,15.732,15.732,0,0,0,11.491-.124c9.934-3.624,12.851-4.682,13.548-4.939l.193-.07s.209-.072.967-.353L415.1,244.483,399.667,200.59c-.559.21-.924.339-1.16.421-.269.1-.356.133-.356.133s-1.792.651-13.74,5.007a15.744,15.744,0,0,0-8.878,7.294,9.164,9.164,0,0,0-.942,6.438,5.965,5.965,0,0,0,.941,2.026,5.636,5.636,0,0,0,3.355,2.157,4.392,4.392,0,0,0,.593.121,9.725,9.725,0,0,1,3.041.924,3.675,3.675,0,0,1,2.083,2.624,4.743,4.743,0,0,1-.441,2.871,5.086,5.086,0,0,0,2.657,9.733l1.656,4.539-4.051,1.472a5.067,5.067,0,0,0-5.131-.984l-1.212.44a5.08,5.08,0,0,0-3.343,4.814c-8.57,4.254-26.4,12.816-44.8,19.928-.811-.961-1.643-1.452-2.289-1.211a1.4,1.4,0,0,0-.774.939c-.84-1.072-1.656-1.627-2.254-1.411s-.869,1.168-.828,2.535a1.388,1.388,0,0,0-1.19-.229c-.659.24-.983,1.174-.974,2.465-1.82.647-3.637,1.274-5.434,1.872-21.96,7.305-48.966,10.727-59.454,17.949a9.286,9.286,0,0,0-5.919.161C245.941,295.391,252.376,313.064,257.259,311.285Z" transform="translate(-244.632 -194.991)" fill="#afafaf" opacity="0.1"/>
      </g>
      <path id="Trazado_159550" data-name="Trazado 159550" d="M238.9,290.108v6.854a1.249,1.249,0,0,0,1.247,1.247h60.609c.015-1.68.015-3.51,0-5.435,0-1.757-.025-3.58-.044-5.429-.051-4.514-.126-9.175-.21-13.282-.025-1.335-.05-2.607-.076-3.8-.044-2.154-.088-4.043-.127-5.516H250.476a3.813,3.813,0,0,0-3.813,3.813v1.687a3.207,3.207,0,0,0,.023.412,7.473,7.473,0,0,0-5.071,7.075v9.609A2.769,2.769,0,0,0,238.9,290.108Z" transform="translate(-106.969 -165.445)" fill="#fff" opacity="0.1"/>
    </g>
  </g>
</svg>
