<svg xmlns="http://www.w3.org/2000/svg" xmlns:xlink="http://www.w3.org/1999/xlink" width="482.5" height="317.425" viewBox="0 0 482.5 317.425">
  <defs>
    <linearGradient id="linear-gradient" x1="0.001" y1="0.019" x2="0.957" y2="0.985" gradientUnits="objectBoundingBox">
      <stop offset="0" stop-color="#3d46c2"/>
      <stop offset="1" stop-color="#12263f"/>
    </linearGradient>
    <linearGradient id="linear-gradient-2" x1="0.043" y1="0.015" x2="0.999" y2="0.981" gradientUnits="objectBoundingBox">
      <stop offset="0" stop-color="#12263f"/>
      <stop offset="1" stop-color="#3d46c2"/>
    </linearGradient>
  </defs>
  <g id="Grupo_153037" data-name="Grupo 153037" transform="translate(-832.5 -4835.666)">
    <rect id="wepik-photo-mode-20221011-75022" width="482.5" height="317.425" rx="19" transform="translate(832.5 4835.666)" fill="#fff"/>
    <g id="Grupo_152742" data-name="Grupo 152742" transform="translate(638.778 4542.28)">
      <g id="Grupo_108602" data-name="Grupo 108602" transform="translate(348.165 341.386)">
        <path id="Trazado_158407" data-name="Trazado 158407" d="M438.686,347.9a57.453,57.453,0,0,1-43.121,43.121,8.248,8.248,0,0,0-6.511,8v15.916a8.179,8.179,0,0,0,9.608,8.056,88.67,88.67,0,0,0,35.1-14.586A89.663,89.663,0,0,0,456.074,386.1a88.61,88.61,0,0,0,15.492-41.487,2.906,2.906,0,0,0-2.879-3.225h-22A8.248,8.248,0,0,0,438.686,347.9Z" transform="translate(-389.054 -341.386)" fill="#dce736"/>
        <path id="Trazado_158408" data-name="Trazado 158408" d="M610.41,540.076a2.9,2.9,0,0,0,2.87,3.215h22a8.249,8.249,0,0,0,8-6.516,57.4,57.4,0,0,1,43.123-43.117,8.248,8.248,0,0,0,6.512-8V469.74a8.179,8.179,0,0,0-9.606-8.056,88.433,88.433,0,0,0-35.106,14.587,89.231,89.231,0,0,0-37.8,63.8Z" transform="translate(-519.31 -412.104)" fill="#dce736"/>
        <path id="Trazado_158409" data-name="Trazado 158409" d="M635.29,341.386h-22a2.906,2.906,0,0,0-2.879,3.225A88.607,88.607,0,0,0,625.9,386.1a89.663,89.663,0,0,0,22.308,22.308,88.67,88.67,0,0,0,35.1,14.586,8.179,8.179,0,0,0,9.608-8.056V399.02a8.248,8.248,0,0,0-6.511-8A57.453,57.453,0,0,1,643.292,347.9,8.248,8.248,0,0,0,635.29,341.386Z" transform="translate(-519.311 -341.386)" fill="url(#linear-gradient)"/>
        <path id="Trazado_158410" data-name="Trazado 158410" d="M456.075,498.563a89.62,89.62,0,0,0-22.308-22.292,88.433,88.433,0,0,0-35.106-14.587,8.179,8.179,0,0,0-9.606,8.056v15.916a8.248,8.248,0,0,0,6.513,8,57.4,57.4,0,0,1,43.123,43.117,8.249,8.249,0,0,0,8,6.516h22a2.9,2.9,0,0,0,2.87-3.215A88.734,88.734,0,0,0,456.075,498.563Z" transform="translate(-389.055 -412.104)" fill="url(#linear-gradient-2)"/>
      </g>
      <g id="Grupo_108605" data-name="Grupo 108605" transform="translate(319.573 499.809)">
        <g id="Grupo_108603" data-name="Grupo 108603" transform="translate(0 0)">
          <path id="Trazado_158411" data-name="Trazado 158411" d="M342.306,733.306a8.573,8.573,0,0,0-3.344-2.73,9.879,9.879,0,0,0-4.149-.911,10.381,10.381,0,0,0-4.593,1.016,11.5,11.5,0,0,0-3.62,2.731,12.529,12.529,0,0,0-2.371,3.979,13.359,13.359,0,0,0-.846,4.719,13.838,13.838,0,0,0,.846,4.89,12.213,12.213,0,0,0,2.35,3.936,11.013,11.013,0,0,0,3.6,2.646,11.616,11.616,0,0,0,9.546-.105,11.16,11.16,0,0,0,3.768-3.111l2.667,2.243a12.344,12.344,0,0,1-4.889,3.98,15.744,15.744,0,0,1-6.456,1.27,15.233,15.233,0,0,1-6.011-1.186,14.772,14.772,0,0,1-4.847-3.281,15.091,15.091,0,0,1-3.217-4.974,16.653,16.653,0,0,1-1.164-6.308,16.864,16.864,0,0,1,1.122-6.18,14.884,14.884,0,0,1,14.118-9.567,15.967,15.967,0,0,1,5.864,1.1,10.809,10.809,0,0,1,4.72,3.6Z" transform="translate(-319.573 -726.364)" fill="#3d46c2"/>
          <path id="Trazado_158412" data-name="Trazado 158412" d="M415.373,757.86a16.256,16.256,0,0,1-6.287-1.186,15.078,15.078,0,0,1-4.953-3.281,14.719,14.719,0,0,1-3.26-5,17.547,17.547,0,0,1,0-12.572,14.727,14.727,0,0,1,3.26-5,15.1,15.1,0,0,1,4.953-3.281,17.264,17.264,0,0,1,12.573,0,15.1,15.1,0,0,1,4.953,3.281,14.733,14.733,0,0,1,3.26,5,17.548,17.548,0,0,1,0,12.572,14.725,14.725,0,0,1-3.26,5,15.077,15.077,0,0,1-4.953,3.281A16.254,16.254,0,0,1,415.373,757.86Zm0-3.3a11.636,11.636,0,0,0,4.8-.974,11.332,11.332,0,0,0,3.746-2.667,12.2,12.2,0,0,0,2.434-3.958,13.97,13.97,0,0,0,0-9.694,12.225,12.225,0,0,0-2.434-3.958,11.367,11.367,0,0,0-3.746-2.666,12.338,12.338,0,0,0-9.61,0,11.345,11.345,0,0,0-3.746,2.666,12.2,12.2,0,0,0-2.435,3.958,13.97,13.97,0,0,0,0,9.694,12.168,12.168,0,0,0,2.435,3.958,11.31,11.31,0,0,0,3.746,2.667A11.632,11.632,0,0,0,415.373,754.557Z" transform="translate(-366.732 -726.364)" fill="#3d46c2"/>
          <path id="Trazado_158413" data-name="Trazado 158413" d="M497.437,728.214h5.292l10.16,23.5h.084l10.245-23.5h5.165v29.972h-3.556V733.041h-.085l-10.752,25.145H511.83l-10.753-25.145h-.085v25.145h-3.556Z" transform="translate(-424.244 -727.453)" fill="#3d46c2"/>
          <path id="Trazado_158414" data-name="Trazado 158414" d="M598.457,728.214h8.89a18.978,18.978,0,0,1,3.958.4,9.827,9.827,0,0,1,3.344,1.355,6.958,6.958,0,0,1,2.328,2.54,9.3,9.3,0,0,1-.064,7.98,7.264,7.264,0,0,1-2.391,2.54,9.789,9.789,0,0,1-3.2,1.312,15.352,15.352,0,0,1-3.3.381h-6.012v13.462h-3.556Zm3.556,13.209h6.012a7.242,7.242,0,0,0,4.339-1.207,5.034,5.034,0,0,0,0-7.493,7.25,7.25,0,0,0-4.339-1.206h-6.012Z" transform="translate(-483.693 -727.453)" fill="#3d46c2"/>
          <path id="Trazado_158415" data-name="Trazado 158415" d="M664.334,728.214h3.344l12.742,29.972h-4.148l-3.048-7.365H658.238l-3.09,7.365h-4.022Zm1.608,4.573h-.084l-6.223,14.731h12.234Z" transform="translate(-514.688 -727.453)" fill="#3d46c2"/>
          <path id="Trazado_158416" data-name="Trazado 158416" d="M739.7,728.214h4.487l17.357,24.892h.084V728.214h3.556v29.972H760.7l-17.356-24.892h-.085v24.892H739.7Z" transform="translate(-566.813 -727.453)" fill="#3d46c2"/>
          <path id="Trazado_158417" data-name="Trazado 158417" d="M828.646,745.274l-11.177-17.06H822l8.425,13.547,8.678-13.547h4.276L832.2,745.274v12.912h-3.556Z" transform="translate(-612.579 -727.453)" fill="#3d46c2"/>
        </g>
        <g id="Grupo_108604" data-name="Grupo 108604" transform="translate(65.55 42.614)">
          <path id="Trazado_158418" data-name="Trazado 158418" d="M486.59,832.555a3.452,3.452,0,0,0-1.178-1.029,3.605,3.605,0,0,0-1.737-.389,3.706,3.706,0,0,0-1.058.16,3.066,3.066,0,0,0-.978.49,2.506,2.506,0,0,0-.709.828,2.446,2.446,0,0,0-.27,1.179,2.178,2.178,0,0,0,.259,1.118,2.444,2.444,0,0,0,.687.748,3.958,3.958,0,0,0,.976.51q.548.2,1.145.4.737.24,1.483.519a5.33,5.33,0,0,1,1.344.729,3.523,3.523,0,0,1,.976,1.139,3.6,3.6,0,0,1,.378,1.746,3.883,3.883,0,0,1-.4,1.828,3.828,3.828,0,0,1-1.048,1.267,4.345,4.345,0,0,1-1.474.739,5.976,5.976,0,0,1-1.667.24,6.4,6.4,0,0,1-1.278-.13,5.775,5.775,0,0,1-1.218-.389,4.949,4.949,0,0,1-1.078-.659,4.769,4.769,0,0,1-.879-.918l1.238-.918a3.778,3.778,0,0,0,1.288,1.268,3.639,3.639,0,0,0,1.946.51,3.761,3.761,0,0,0,1.1-.17,3.1,3.1,0,0,0,1.008-.519,2.868,2.868,0,0,0,.739-.859,2.365,2.365,0,0,0,.289-1.187,2.39,2.39,0,0,0-.289-1.229,2.574,2.574,0,0,0-.769-.818,4.7,4.7,0,0,0-1.1-.549q-.619-.219-1.3-.439-.7-.219-1.377-.5a4.666,4.666,0,0,1-1.218-.729,3.413,3.413,0,0,1-.869-1.109,4.053,4.053,0,0,1,.08-3.374,3.716,3.716,0,0,1,1.068-1.219,4.481,4.481,0,0,1,1.458-.7,5.906,5.906,0,0,1,1.577-.22,5.452,5.452,0,0,1,2.456.509,4.23,4.23,0,0,1,1.538,1.208Z" transform="translate(-478.863 -829.919)" fill="#636363"/>
          <path id="Trazado_158419" data-name="Trazado 158419" d="M519.507,843.652H526.1v1.278H518.07V830.792h1.437Z" transform="translate(-501.936 -830.433)" fill="#636363"/>
          <path id="Trazado_158420" data-name="Trazado 158420" d="M563.957,837.348a7.744,7.744,0,0,1-.559,2.975,7.022,7.022,0,0,1-3.884,3.894,7.935,7.935,0,0,1-5.85,0,7.023,7.023,0,0,1-3.884-3.894,8.2,8.2,0,0,1,0-5.951,7.023,7.023,0,0,1,3.884-3.894,7.934,7.934,0,0,1,5.85,0,7.022,7.022,0,0,1,3.884,3.894A7.747,7.747,0,0,1,563.957,837.348Zm-1.517.009a6.939,6.939,0,0,0-.4-2.352,5.9,5.9,0,0,0-1.158-1.964,5.551,5.551,0,0,0-1.847-1.345,6.249,6.249,0,0,0-4.892,0,5.545,5.545,0,0,0-1.847,1.345A5.89,5.89,0,0,0,551.138,835a7.131,7.131,0,0,0,0,4.7,5.77,5.77,0,0,0,1.158,1.954A5.611,5.611,0,0,0,554.143,843a6.248,6.248,0,0,0,4.892,0,5.617,5.617,0,0,0,1.847-1.335,5.776,5.776,0,0,0,1.158-1.954A6.945,6.945,0,0,0,562.44,837.357Z" transform="translate(-520.268 -829.919)" fill="#636363"/>
          <path id="Trazado_158421" data-name="Trazado 158421" d="M611.652,832.835a5.147,5.147,0,0,0-1.757-1.208,5.973,5.973,0,0,0-2.336-.43,5.8,5.8,0,0,0-2.446.5,5.534,5.534,0,0,0-1.847,1.345A6.011,6.011,0,0,0,602.1,835a6.962,6.962,0,0,0,0,4.7,5.887,5.887,0,0,0,1.168,1.954A5.6,5.6,0,0,0,605.112,843a5.8,5.8,0,0,0,2.446.5,8.7,8.7,0,0,0,2.2-.26,5.577,5.577,0,0,0,1.618-.658v-4.294h-3.294v-1.278h4.732v6.387a9.153,9.153,0,0,1-2.5,1.04,11.184,11.184,0,0,1-2.776.341,7.691,7.691,0,0,1-2.955-.559,6.9,6.9,0,0,1-3.864-3.894,7.855,7.855,0,0,1-.549-2.975,7.742,7.742,0,0,1,.559-2.976,7.023,7.023,0,0,1,3.884-3.894,7.561,7.561,0,0,1,2.925-.559,7.874,7.874,0,0,1,2.955.507,6.382,6.382,0,0,1,2.156,1.409Z" transform="translate(-550.251 -829.919)" fill="#636363"/>
          <path id="Trazado_158422" data-name="Trazado 158422" d="M647.019,844.929h-1.578l6.11-14.137h1.4l6.071,14.137h-1.6l-1.558-3.714h-7.308ZM649.1,839.9h6.23l-3.115-7.508Z" transform="translate(-576.892 -830.433)" fill="#636363"/>
          <path id="Trazado_158423" data-name="Trazado 158423" d="M703.213,842.833h.04V830.792h1.438v14.137h-1.8l-8.227-12.161h-.04v12.161h-1.437V830.792h1.8Z" transform="translate(-604.992 -830.433)" fill="#636363"/>
        </g>
      </g>
    </g>
  </g>
</svg>
