<svg xmlns="http://www.w3.org/2000/svg" width="482.5" height="317.425" viewBox="0 0 482.5 317.425">
  <g id="Grupo_153021" data-name="Grupo 153021" transform="translate(-832.5 -1933.124)">
    <rect id="wepik-photo-mode-20221011-75312" width="482.5" height="317.425" rx="19" transform="translate(832.5 1933.124)" fill="#fff"/>
    <g id="Grupo_152743" data-name="Grupo 152743" transform="translate(895 2006.859)">
      <g id="Grupo_109530" data-name="Grupo 109530" transform="translate(0 0)">
        <path id="Trazado_159599" data-name="Trazado 159599" d="M570.48,371.5v136.26a11.7,11.7,0,0,1-11.7,11.7H369.566a11.687,11.687,0,0,1-11.687-11.7V371.5a11.687,11.687,0,0,1,11.687-11.7H558.779A11.7,11.7,0,0,1,570.48,371.5Z" transform="translate(-357.879 -331.557)" fill="#772719"/>
        <g id="Grupo_109529" data-name="Grupo 109529" transform="translate(69.083)">
          <g id="Grupo_109528" data-name="Grupo 109528">
            <g id="Grupo_109527" data-name="Grupo 109527">
              <path id="Trazado_159600" data-name="Trazado 159600" d="M467.47,355.221v19.413h-8.278V355.221a1.525,1.525,0,0,0-1.522-1.523H402.84a1.523,1.523,0,0,0-1.521,1.523v19.413h-8.274V355.221a9.813,9.813,0,0,1,9.795-9.8h54.829A9.806,9.806,0,0,1,467.47,355.221Z" transform="translate(-393.045 -345.422)" fill="#6677d6"/>
            </g>
          </g>
        </g>
        <path id="Trazado_159601" data-name="Trazado 159601" d="M570.48,371.5v48.7a14.758,14.758,0,0,1-14.743,14.747H372.613a14.747,14.747,0,0,1-14.734-14.747V371.5a11.687,11.687,0,0,1,11.687-11.7H558.779A11.7,11.7,0,0,1,570.48,371.5Z" transform="translate(-357.879 -331.557)" fill="#772719"/>
        <path id="Trazado_159602" data-name="Trazado 159602" d="M570.48,388.389v4.227a14.758,14.758,0,0,1-14.743,14.747H372.613a14.747,14.747,0,0,1-14.734-14.747v-4.227a14.747,14.747,0,0,0,14.734,14.745H555.736A14.757,14.757,0,0,0,570.48,388.389Z" transform="translate(-357.879 -303.981)" fill="#b7b7b7" style="mix-blend-mode: multiply;isolation: isolate"/>
        <path id="Trazado_159604" data-name="Trazado 159604" d="M3.534,0H31.57A3.534,3.534,0,0,1,35.1,3.534V22.456a3.533,3.533,0,0,1-3.533,3.533H3.533A3.533,3.533,0,0,1,0,22.456V3.534A3.534,3.534,0,0,1,3.534,0Z" transform="translate(89.986 89.092)" fill="#fff787"/>
      </g>
    </g>
    <g id="Grupo_152744" data-name="Grupo 152744" transform="translate(1027.503 1978.938)">
      <path id="Trazado_159551" data-name="Trazado 159551" d="M72.248,361.235v10.306h-27.9V361.235a13.948,13.948,0,0,1,27.9,0Z" transform="translate(-44.352 -347.291)" fill="#fff787"/>
      <path id="Trazado_159552" data-name="Trazado 159552" d="M235.827,372.148V591.032H77.1a14.259,14.259,0,0,1-14.124-14.257V361.227a11.868,11.868,0,0,0-.078-1.42,8.5,8.5,0,0,0-.191-1.209,5.427,5.427,0,0,0-.172-.79,2.649,2.649,0,0,0-.155-.555,5.271,5.271,0,0,0-.23-.693,2.287,2.287,0,0,0-.172-.48,4.175,4.175,0,0,0-.329-.746,8.022,8.022,0,0,0-.477-.959c-.133-.233-.269-.463-.422-.69a3.9,3.9,0,0,0-.366-.518,9.326,9.326,0,0,0-.712-.942,9.49,9.49,0,0,0-.787-.843,10.946,10.946,0,0,0-.841-.79c-.233-.191-.463-.38-.71-.552-.213-.158-.424-.308-.635-.446a14.59,14.59,0,0,0-3.36-1.611,9.145,9.145,0,0,0-1.206-.327,7.765,7.765,0,0,0-1.173-.211.2.2,0,0,0-.1-.017v-.136H210.971A24.86,24.86,0,0,1,235.827,372.148Z" transform="translate(-35.089 -347.29)" fill="#fffbc3"/>
      <g id="Grupo_109507" data-name="Grupo 109507" transform="translate(41.233 219.488)">
        <path id="Trazado_159553" data-name="Trazado 159553" d="M61.372,447.9c.2.012.4.012.608.012h-.608Z" transform="translate(-61.372 -423.656)" fill="#fff787"/>
        <path id="Trazado_159554" data-name="Trazado 159554" d="M244.68,437.891v6.216a18.043,18.043,0,0,1-18.041,18.039H61.693c10.364-.073,18.712-6.292,18.712-13.949V437.891Z" transform="translate(-60.915 -437.891)" fill="#fff787"/>
      </g>
      <g id="Grupo_109508" data-name="Grupo 109508" transform="translate(45.38 32.741)">
        <rect id="Rectángulo_41154" data-name="Rectángulo 41154" width="138.383" height="4.85" fill="#4e2e8e"/>
        <rect id="Rectángulo_41155" data-name="Rectángulo 41155" width="138.383" height="4.847" transform="translate(0 18.191)" fill="#4e2e8e"/>
        <rect id="Rectángulo_41156" data-name="Rectángulo 41156" width="138.383" height="4.85" transform="translate(0 36.379)" fill="#4e2e8e"/>
        <rect id="Rectángulo_41157" data-name="Rectángulo 41157" width="138.383" height="4.85" transform="translate(0 54.568)" fill="#4e2e8e"/>
        <rect id="Rectángulo_41158" data-name="Rectángulo 41158" width="138.383" height="4.852" transform="translate(0 72.758)" fill="#4e2e8e"/>
        <rect id="Rectángulo_41159" data-name="Rectángulo 41159" width="138.383" height="4.852" transform="translate(0 90.947)" fill="#4e2e8e"/>
        <rect id="Rectángulo_41160" data-name="Rectángulo 41160" width="138.383" height="4.85" transform="translate(0 109.138)" fill="#4e2e8e"/>
        <rect id="Rectángulo_41161" data-name="Rectángulo 41161" width="138.383" height="4.852" transform="translate(0 127.326)" fill="#4e2e8e"/>
      </g>
      <path id="Trazado_159555" data-name="Trazado 159555" d="M138.935,436.243a16.373,16.373,0,1,1-16.374-16.372A16.375,16.375,0,0,1,138.935,436.243Z" transform="translate(43.618 -244.039)" fill="#c6412a"/>
    </g>
  </g>
</svg>
