<svg xmlns="http://www.w3.org/2000/svg" width="157" height="157" viewBox="0 0 157 157">
  <g id="Grupo_153073" data-name="Grupo 153073" transform="translate(-301.5 -2543.703)">
    <g id="Grupo_153014" data-name="Grupo 153014" transform="translate(0 46.851)">
      <rect id="Rectángulo_44553" data-name="Rectángulo 44553" width="157" height="157" rx="78.5" transform="translate(301.5 2496.853)" fill="#fff"/>
      <g id="Grupo_109625" data-name="Grupo 109625" transform="translate(-322.257 5439.526)">
        <path id="Trazado_159987" data-name="Trazado 159987" d="M741.206-2857.938q0,17.143,0,34.287c0,3.3-1.81,5.733-4.8,6.432a8,8,0,0,1-1.81.153q-26.172.012-52.344,0c-4.1,0-6.641-2.55-6.651-6.64,0-1.6-.03-3.2.013-4.8.018-.651-.14-.888-.836-.867-1.663.052-3.329.026-4.994.015a6.147,6.147,0,0,1-6.475-6.526q-.01-34.431,0-68.863a6.138,6.138,0,0,1,6.557-6.538q26.22-.01,52.44,0c4.042,0,6.586,2.554,6.6,6.591.007,1.6.036,3.2-.015,4.8-.022.7.131.95.885.919,1.63-.063,3.265-.027,4.9-.018a6.153,6.153,0,0,1,6.525,6.572Q741.216-2875.179,741.206-2857.938Zm-16.428-12.334q0-17.093,0-34.186c0-2.131-.612-2.742-2.74-2.742H670.184c-2.126,0-2.74.612-2.74,2.742q0,34.137,0,68.275c0,2.125.618,2.744,2.74,2.744h51.759c2.255,0,2.836-.581,2.836-2.839Q724.779-2853.276,724.778-2870.272Zm12.294,12.243q0-17.19,0-34.38c0-1.8-.709-2.492-2.5-2.5-1.537,0-3.077.062-4.609-.024-.91-.051-1.066.26-1.065,1.1.024,19.239-.013,38.478.043,57.716a6.463,6.463,0,0,1-6.75,6.8c-6.592-.122-13.188-.034-19.783-.034-7.234,0-14.469.014-21.7-.021-.82,0-1.014.24-.982,1.016.061,1.47.017,2.945.018,4.417,0,2.2.6,2.8,2.785,2.8h51.762c2.189,0,2.788-.6,2.788-2.792Q737.073-2840.983,737.073-2858.029Z" transform="translate(0 0)" fill="#040404"/>
        <path id="Trazado_159988" data-name="Trazado 159988" d="M736.752-2858.439q0,17,0,33.993c0,2.259-.581,2.84-2.836,2.84H682.156c-2.121,0-2.74-.618-2.74-2.744q0-34.138,0-68.275c0-2.129.614-2.741,2.74-2.741h51.855c2.128,0,2.739.61,2.739,2.742Q736.753-2875.532,736.752-2858.439Zm-28.661-28.711a16.335,16.335,0,0,0-16.38,16.314,16.347,16.347,0,0,0,16.172,16.425,16.337,16.337,0,0,0,16.568-16.124A16.315,16.315,0,0,0,708.091-2887.151Zm8.254,41.965c3.357,0,6.715.015,10.072-.007a2.042,2.042,0,0,0,2.162-2.068,2.047,2.047,0,0,0-2.146-2q-10.168-.021-20.337,0a1.985,1.985,0,0,0-1.868,1.117,2.014,2.014,0,0,0,1.949,2.955C709.566-2845.165,712.956-2845.184,716.345-2845.186Zm0,8.213c-3.358,0-6.715-.007-10.072,0a2.036,2.036,0,0,0-2.263,2.05,1.976,1.976,0,0,0,2.18,2.023q10.073.02,20.145.006a2.223,2.223,0,0,0,1.362-.364,2.035,2.035,0,0,0,.761-2.29,2,2,0,0,0-2.04-1.423C723.061-2836.98,719.7-2836.972,716.346-2836.973Zm-22.693-8.211c1.342,0,2.684.018,4.025,0a1.986,1.986,0,0,0,2.183-2.017,2,2,0,0,0-2.156-2.055q-3.977-.029-7.954,0a2.05,2.05,0,0,0-2.162,2.074,2.046,2.046,0,0,0,2.134,1.993C691.033-2845.166,692.344-2845.187,693.653-2845.184Zm.017,12.291c1.374,0,2.748.025,4.12-.007a1.963,1.963,0,0,0,2.072-2.028,1.985,1.985,0,0,0-2.078-2.035q-4.025-.039-8.05,0a2.049,2.049,0,0,0-2.145,1.995,2.051,2.051,0,0,0,2.151,2.073C691.05-2832.872,692.36-2832.892,693.67-2832.893Z" transform="translate(-11.973 -11.833)" fill="#e7eaf8"/>
        <path id="Trazado_159989" data-name="Trazado 159989" d="M784.578-2810.687q0,17.046,0,34.092c0,2.193-.6,2.792-2.788,2.792H730.027c-2.185,0-2.783-.6-2.785-2.8,0-1.472.043-2.947-.018-4.417-.032-.775.162-1.02.982-1.016,7.234.035,14.469.021,21.7.021,6.594,0,13.19-.088,19.783.034a6.463,6.463,0,0,0,6.75-6.8c-.056-19.239-.02-38.478-.043-57.716,0-.838.155-1.15,1.065-1.1,1.532.086,3.072.021,4.609.023,1.793.005,2.5.7,2.5,2.5Q784.582-2827.877,784.578-2810.687Z" transform="translate(-47.506 -47.343)" fill="#e8e8e8"/>
        <path id="Trazado_159990" data-name="Trazado 159990" d="M743.686-2863.364a16.315,16.315,0,0,1,16.361,16.615,16.338,16.338,0,0,1-16.568,16.124,16.347,16.347,0,0,1-16.172-16.426A16.334,16.334,0,0,1,743.686-2863.364Zm-.01,4.077a12.326,12.326,0,0,0-12.289,12.152,12.3,12.3,0,0,0,12.2,12.432,12.3,12.3,0,0,0,12.382-12.246A12.3,12.3,0,0,0,743.676-2859.287Z" transform="translate(-47.568 -35.62)" fill="#020202"/>
        <path id="Trazado_159991" data-name="Trazado 159991" d="M787.461-2711.717c-3.389,0-6.779.02-10.168-.008a2.014,2.014,0,0,1-1.949-2.955,1.985,1.985,0,0,1,1.868-1.117q10.168,0,20.337,0a2.046,2.046,0,0,1,2.146,2,2.042,2.042,0,0,1-2.162,2.068C794.176-2711.7,790.819-2711.718,787.461-2711.717Z" transform="translate(-83.089 -145.301)" fill="#020202"/>
        <path id="Trazado_159992" data-name="Trazado 159992" d="M787.555-2667.916c3.357,0,6.715-.008,10.072.006a2,2,0,0,1,2.04,1.423,2.034,2.034,0,0,1-.761,2.289,2.224,2.224,0,0,1-1.362.365q-10.072,0-20.145-.007a1.975,1.975,0,0,1-2.18-2.022,2.037,2.037,0,0,1,2.263-2.051C780.84-2667.923,784.2-2667.916,787.555-2667.916Z" transform="translate(-83.182 -180.89)" fill="#020202"/>
        <path id="Trazado_159993" data-name="Trazado 159993" d="M717.318-2711.74c-1.31,0-2.62.021-3.929-.007a2.045,2.045,0,0,1-2.134-1.993,2.049,2.049,0,0,1,2.161-2.074q3.977-.031,7.954,0a2,2,0,0,1,2.156,2.054,1.986,1.986,0,0,1-2.184,2.017C720-2711.72,718.66-2711.738,717.318-2711.74Z" transform="translate(-35.638 -145.279)" fill="#020202"/>
        <path id="Trazado_159994" data-name="Trazado 159994" d="M717.333-2663.855c-1.31,0-2.62.022-3.929-.005a2.051,2.051,0,0,1-2.151-2.073,2.048,2.048,0,0,1,2.145-1.994q4.025-.031,8.05,0a1.985,1.985,0,0,1,2.078,2.035,1.963,1.963,0,0,1-2.072,2.028C720.081-2663.831,718.707-2663.856,717.333-2663.855Z" transform="translate(-35.636 -180.871)" fill="#020202"/>
        <path id="Trazado_159995" data-name="Trazado 159995" d="M755.493-2847.481a12.3,12.3,0,0,1,12.292,12.339A12.3,12.3,0,0,1,755.4-2822.9a12.3,12.3,0,0,1-12.2-12.432A12.326,12.326,0,0,1,755.493-2847.481Zm8.16,8.152a1.969,1.969,0,0,0-1.263-1.815,2.01,2.01,0,0,0-2.35.563c-1.992,1.986-4,3.952-5.952,5.981-.545.568-.836.494-1.3-.034-.59-.67-1.239-1.292-1.894-1.9a2.044,2.044,0,0,0-2.992-.036,2.034,2.034,0,0,0,.1,2.922c1.289,1.332,2.6,2.648,3.934,3.93a1.985,1.985,0,0,0,3.053-.024c2.682-2.65,5.337-5.33,8.006-7.994A2.18,2.18,0,0,0,763.653-2839.33Z" transform="translate(-59.385 -47.425)" fill="#ffef0f"/>
        <path id="Trazado_159996" data-name="Trazado 159996" d="M775.6-2821.486a2.179,2.179,0,0,1-.662,1.591c-2.669,2.665-5.323,5.344-8.006,7.995a1.985,1.985,0,0,1-3.053.023c-1.338-1.282-2.645-2.6-3.934-3.93a2.034,2.034,0,0,1-.1-2.922,2.044,2.044,0,0,1,2.992.037c.655.609,1.3,1.231,1.894,1.9.465.528.755.6,1.3.034,1.948-2.029,3.96-3.995,5.952-5.981a2.011,2.011,0,0,1,2.35-.563A1.969,1.969,0,0,1,775.6-2821.486Z" transform="translate(-71.329 -65.269)" fill="#040404"/>
      </g>
    </g>
  </g>
</svg>
