<svg xmlns="http://www.w3.org/2000/svg" width="385.309" height="186.139" viewBox="0 0 385.309 186.139">
  <g id="Grupo_109648" data-name="Grupo 109648" transform="translate(-98.461 3062.329)">
    <g id="Grupo_109646" data-name="Grupo 109646" transform="translate(297.631 -3062.329)">
      <path id="Trazado_159998" data-name="Trazado 159998" d="M633.722-2964.441c3.215-3.234,6.1-6.152,9.005-9.058,4.463-4.469,8.911-8.952,13.407-13.387,4.476-4.414,10.683-4.338,15.255-.021,3.321,3.136,5.195,6.681,3.985,11.353a11.312,11.312,0,0,1-3.227,5.174c-6.295,6.261-12.57,12.542-19.178,19.141,3.61,0,6.872-.008,10.133.007.666,0,.645-.411.642-.868a22.413,22.413,0,0,1,.021-2.25,2.811,2.811,0,0,1,2.889-2.856q6.094-.121,12.193,0c1.874.036,2.9,1.32,2.9,3.424.021,6.5.008,13.006.008,19.508q0,13.505,0,27.011c0,3.084-.956,4.05-4,4.055q-5.065.009-10.131,0c-2.843-.008-4.027-1.021-3.825-3.792.146-2.01-.582-2.384-2.358-2.24-2.484.2-4.992-.139-7.478.35a16.234,16.234,0,0,0-8.281,4.081,25.229,25.229,0,0,1-11.1,6.682c-.977.252-.863.858-.863,1.527q0,8.253,0,16.507c0,2.916-1.007,3.9-3.964,3.9q-65.1,0-130.195,0c-2.943,0-3.937-.991-3.937-3.927q0-89.1,0-178.2c0-3.036.969-3.983,4.066-3.983q54.5,0,109-.028a5.17,5.17,0,0,1,3.961,1.683q9.571,9.663,19.24,19.226a5.75,5.75,0,0,1,1.868,4.453q-.074,34.982-.033,69.966Zm-3.039,35.646-13.1,13.539c4.583.125,9.361.367,13.578-2.542,6.434-3.5,9.738-11.332,8.405-19.472Zm-31.731-19.439h-87.29c-4.036,0-3.933,0-4.081-4.049-.063-1.71.462-2,2.051-1.993q46.249.076,92.5.051c2.69,0,5.333.082,7.766-1.42a10.908,10.908,0,0,1,2.843-.888c3.929-1.084,7.952-.624,11.941-.7,2.576-.048,3.036-.466,3.036-3.031q0-35.55,0-71.1c0-3.924,0-3.814-3.971-3.972-1.8-.072-2.072.55-2.067,2.162q.081,28.327.034,56.655c0,3.355-.891,4.269-4.167,4.269q-52.909,0-105.818,0c-3.172,0-4.1-.937-4.1-4.15q0-34.8,0-69.6c0-3.448.855-4.3,4.32-4.3h90.431c4.344,0,4.271,0,4.36-4.325.03-1.446-.395-1.71-1.757-1.709q-50.846.061-101.691-.006c-1.46,0-1.706.419-1.7,1.763.057,10.63.032,21.261.032,31.892q0,69.318-.01,138.635c0,1.111-.133,1.9,1.553,1.9q61.54-.088,123.08-.013c1.3,0,1.509-.435,1.491-1.584-.064-3.938-.077-7.88.006-11.818.027-1.262-.224-1.715-1.6-1.675-3.687.106-7.385-.1-11.067.07-4.6.208-8.4-.969-10.7-5.5a8.437,8.437,0,0,1-3.717,2.669c-5.4,1.743-10.777,3.554-16.152,5.374-1.447.49-2.809.69-3.987-.54-1.118-1.166-.89-2.478-.425-3.849,1.562-4.606,3.047-9.238,4.661-13.825a2.149,2.149,0,0,0-.649-2.743c-2.126-1.825-3.972-3.97-4.208-6.854-.149-1.812-1-1.808-2.344-1.806q-33.021.041-66.043.02c-3.886,0-3.779,0-3.932-3.822-.071-1.784.359-2.238,2.2-2.232q35.085.111,70.17.035c.65,0,1.382.286,1.952-.31l5.436-5.679h-75.53c-4.182,0-4.108,0-4.216-4.093-.04-1.517.287-1.958,1.9-1.954,25.517.059,51.035-.116,76.548.166C591.616-2942.046,596.059-2942.984,598.952-2948.234Zm-34.279-30.019c16.448,0,32.9-.02,49.345.036,1.4.005,1.747-.328,1.727-1.729-.088-5.939-.037-11.881-.037-17.821,0-11.944-.028-23.888.037-35.832.008-1.412-.331-1.848-1.735-1.717a30.544,30.544,0,0,1-4.312.011,2.921,2.921,0,0,1-2.977-2.978,26.481,26.481,0,0,1,.012-4.123c.17-1.568-.345-1.927-1.907-1.924q-44.654.08-89.309,0c-1.556,0-1.924.355-1.92,1.916q.089,31.142,0,62.284c0,1.561.363,1.923,1.92,1.917C531.9-2978.277,548.287-2978.252,564.673-2978.252Zm22.778,76.282c3.5-1.158,6.618-2.228,9.764-3.213a7.779,7.779,0,0,0,3.273-2.046q17.015-17.072,34.08-34.095c5.926-5.924,11.829-11.87,17.8-17.75.945-.931.946-1.463-.014-2.347-1.837-1.694-3.622-3.457-5.3-5.3-.984-1.081-1.564-1.069-2.616-.013q-26.013,26.114-52.106,52.148a4.271,4.271,0,0,0-1.227,1.624C589.929-2909.421,588.748-2905.879,587.451-2901.97Zm76.292-28.111q0-6.936,0-13.873c0-.707.1-1.313-.995-1.3-5,.052-10,0-15,.037a1.989,1.989,0,0,0-2.174,2c.307,3.621.151,7.237.122,10.85a23.458,23.458,0,0,1-17.862,22.457c-4.753,1.171-9.579.535-14.372.688-2.379.076-3.734,1.106-3.751,2.985s1.346,3.017,3.7,3.024c4.562.013,9.125-.065,13.686.022a18.443,18.443,0,0,0,13.862-5.47,22.92,22.92,0,0,1,10.872-5.923,35.692,35.692,0,0,1,9.69-.585c1.727.055,2.344-.267,2.267-2.168C663.624-2921.578,663.742-2925.832,663.742-2930.081Zm-43.282-21.1c-6.183-.339-11.076,1.48-15.139,5.57-5.9,5.936-11.834,11.834-17.743,17.758-2.556,2.562-2.505,4.682-.048,7.269.91.958,1.413.924,2.326,0,5.521-5.606,11.1-11.152,16.671-16.711C611.071-2941.833,615.623-2946.361,620.461-2951.18Zm55.29,20.936v-16.672c0-4.351,0-4.276-4.332-4.362-1.469-.029-1.707.441-1.7,1.779.052,11.926.031,23.853.031,35.78,0,4.582,0,4.525,4.52,4.543,1.284,0,1.516-.42,1.507-1.586C675.724-2917.255,675.75-2923.75,675.751-2930.243ZM663.414-2984.2a4.693,4.693,0,0,0-2.87,1.409c-3.226,3.223-6.433,6.466-9.692,9.655-.716.7-.685,1.124.017,1.8,1.984,1.9,3.942,3.834,5.827,5.834.783.831,1.251.874,2.073.024,3-3.1,6.06-6.133,9.128-9.16,1.488-1.468,2.365-3.072,1.5-5.189C668.51-2982,665.613-2984.219,663.414-2984.2ZM622.8-3041.309l-10.076-10.185c0,3.027.018,6.131-.014,9.233-.007.721.214.973.952.966C616.77-3041.328,619.876-3041.309,622.8-3041.309Z" transform="translate(-495.622 3062.329)" fill="#010101"/>
      <path id="Trazado_159999" data-name="Trazado 159999" d="M604.89-2942.276c-2.893,5.25-7.336,6.188-12.917,6.126-25.513-.282-51.032-.106-76.548-.166-1.609,0-1.935.437-1.9,1.954.108,4.091.033,4.093,4.216,4.093h75.53l-5.436,5.679c-.57.6-1.3.309-1.952.309q-35.085.026-70.17-.034c-1.837-.006-2.267.448-2.2,2.232.152,3.817.046,3.821,3.932,3.821q33.021,0,66.043-.02c1.349,0,2.2-.006,2.344,1.807.237,2.883,2.083,5.029,4.208,6.854a2.149,2.149,0,0,1,.649,2.743c-1.614,4.587-3.1,9.219-4.661,13.825-.465,1.371-.693,2.683.425,3.849,1.178,1.229,2.54,1.03,3.987.54,5.375-1.82,10.752-3.631,16.152-5.374a8.44,8.44,0,0,0,3.717-2.669c2.3,4.527,6.1,5.7,10.7,5.5,3.682-.166,7.38.036,11.067-.069,1.375-.04,1.625.412,1.6,1.675-.083,3.938-.07,7.88-.006,11.818.018,1.149-.187,1.584-1.491,1.583q-61.54-.059-123.08.013c-1.686,0-1.553-.784-1.553-1.9q.017-69.318.01-138.636c0-10.631.025-21.261-.032-31.892-.008-1.344.238-1.765,1.7-1.763q50.845.074,101.691.006c1.362,0,1.787.263,1.757,1.709-.089,4.324-.016,4.325-4.36,4.325H517.889c-3.465,0-4.32.85-4.32,4.3q0,34.8,0,69.6c0,3.213.923,4.15,4.1,4.15q52.91,0,105.818,0c3.277,0,4.167-.914,4.167-4.269q0-28.327-.034-56.655c-.005-1.613.266-2.234,2.067-2.162,3.966.157,3.971.047,3.971,3.972q0,35.55,0,71.1c0,2.566-.46,2.984-3.036,3.031-3.989.074-8.012-.386-11.941.7a10.924,10.924,0,0,0-2.843.888c-2.433,1.5-5.076,1.422-7.766,1.42q-46.249-.032-92.5-.051c-1.589,0-2.113.283-2.051,1.993.148,4.045.045,4.049,4.081,4.049h87.29Zm-34.283-18.012H517.52c-3.954,0-3.856,0-4,3.941-.062,1.727.444,2.106,2.125,2.1q53.932-.077,107.864-.039c4.147,0,4.062,0,4.182-4.129.046-1.582-.391-1.92-1.936-1.915C607.375-2960.267,588.992-2960.288,570.608-2960.288Zm-3.036,72.044h1.5c4.658,0,4.624,0,4.567-4.668-.013-1.033-.245-1.391-1.332-1.363-2.875.076-5.753.011-8.63.031a3.14,3.14,0,0,1-3.384-2.6c-.311-1.208-.561-2.438-.971-3.612a8.7,8.7,0,0,0-8.175-5.795,8.691,8.691,0,0,0-8.3,5.874,38.493,38.493,0,0,0-1.026,3.791c-.34,1.469-1.168,2.394-2.717,2.3a2.5,2.5,0,0,1-2.376-2.453q-.664-4.256-1.431-8.5a8.343,8.343,0,0,0-8.275-7.01,8.316,8.316,0,0,0-8.186,7.1c-.4,2.339-.775,4.681-1.157,7.023-.232,1.423-.748,2.943-2.153,3.27-2.117.494-2.1,1.8-1.964,3.4a9.622,9.622,0,0,1-.006,2.06c-.144,1.111.395,1.213,1.3,1.1a9.995,9.995,0,0,0,8.481-7.68c.58-2.618.988-5.277,1.412-7.927.229-1.433.92-2.365,2.422-2.32,1.4.041,2.035.969,2.247,2.311.429,2.713.935,5.414,1.392,8.123a8.6,8.6,0,0,0,8.058,7.537,8.625,8.625,0,0,0,8.782-6.712c.306-1.145.491-2.329.882-3.443a2.575,2.575,0,0,1,2.574-1.823,2.577,2.577,0,0,1,2.577,1.819c.374,1.053.553,2.175.846,3.258a9.028,9.028,0,0,0,8.919,6.906C564.819-2888.229,566.2-2888.244,567.571-2888.243Z" transform="translate(-501.56 3056.371)" fill="#f3f9ff"/>
      <path id="Trazado_160000" data-name="Trazado 160000" d="M582.541-2960.36c-16.386,0-32.772-.025-49.157.04-1.557.006-1.924-.356-1.92-1.917q.089-31.142,0-62.284c0-1.561.364-1.919,1.92-1.916q44.655.079,89.309,0c1.563,0,2.077.355,1.907,1.924a26.5,26.5,0,0,0-.012,4.123,2.921,2.921,0,0,0,2.977,2.979,30.58,30.58,0,0,0,4.312-.011c1.4-.131,1.743.305,1.735,1.717-.064,11.943-.037,23.888-.037,35.832,0,5.94-.051,11.882.037,17.821.021,1.4-.322,1.734-1.727,1.729C615.438-2960.381,598.989-2960.36,582.541-2960.36Zm-18.013-56.806a7.364,7.364,0,0,1,.008-1.124c.252-1.616-.243-2.227-2.037-2.155-3.972.157-4,.048-3.96,4.326.013,1.305-.064,2.176-1.617,2.784a11.128,11.128,0,0,0-7.317,9.815,11.473,11.473,0,0,0,5.1,11,12.948,12.948,0,0,0,7.226,2.193,5.924,5.924,0,0,1,5.567,5.382,6.046,6.046,0,0,1-4.618,6.416c-2.7.682-6.06-.681-6.7-3.4-.6-2.549-1.985-2.607-3.9-2.446a6.877,6.877,0,0,1-1.5-.005c-1.121-.154-1.391.305-1.222,1.362.559,3.5,1.923,6.9,5.127,8.274,3.686,1.58,4.3,3.974,3.831,7.322-.107.773.148,1.042,1,1.093,5,.3,5.029.331,4.983-4.593a2.111,2.111,0,0,1,1.547-2.45,11.742,11.742,0,0,0,6.594-15.465c-2.067-4.906-5.93-7.358-11.263-7.554a6.025,6.025,0,0,1-5.835-5.327,5.981,5.981,0,0,1,4.346-6.414c2.8-.832,6.143.4,6.919,3.231.72,2.631,2.2,2.724,4.225,2.526a3.235,3.235,0,0,1,.935,0c1.7.343,1.655-.634,1.428-1.812a11.82,11.82,0,0,0-7.7-9.374c-.955-.367-1.277-.789-1.182-1.732C564.578-3015.912,564.527-3016.542,564.527-3017.167Zm36.024.407c.6,1.907-.451,2.9-2.529,3.876a11.6,11.6,0,0,0-5.844,14.262c1.646,4.971,5.737,7.9,11.519,8.25a6.057,6.057,0,0,1,5.828,5.339,6.032,6.032,0,0,1-4.535,6.469c-2.7.721-6.066-.585-6.743-3.3s-2.234-2.666-4.228-2.515a5.777,5.777,0,0,1-1.31-.006c-1.089-.169-1.251.371-1.118,1.279.5,3.434,1.808,6.781,4.91,8.211,3.626,1.672,4.724,3.96,4.056,7.575-.129.7.174.917.914.982,5.085.441,5.137.462,5.051-4.508a2.236,2.236,0,0,1,1.656-2.576,11.688,11.688,0,0,0,7.095-13.374c-1.2-5.683-5.612-9.27-11.779-9.587a6.1,6.1,0,0,1-5.91-5.26,6.018,6.018,0,0,1,4.439-6.533c2.778-.779,6.183.53,6.863,3.36.65,2.71,2.193,2.545,4.1,2.435a6.642,6.642,0,0,1,1.311.007c1.128.162,1.387-.315,1.214-1.365-.684-4.146-2.637-7.563-6.55-9.178-2.233-.921-2.679-2.156-2.408-4.169a4.171,4.171,0,0,0,0-.562c0-2.748,0-2.748-2.7-2.748C600.552-3020.4,600.552-3020.4,600.552-3016.759Z" transform="translate(-513.49 3044.437)" fill="#ffef0f"/>
      <path id="Trazado_160001" data-name="Trazado 160001" d="M678.735-2807.737c1.3-3.908,2.478-7.45,3.647-11a4.269,4.269,0,0,1,1.227-1.624q26.065-26.062,52.106-52.148c1.052-1.056,1.632-1.068,2.616.013,1.681,1.848,3.465,3.611,5.3,5.3.96.884.959,1.416.014,2.347-5.968,5.881-11.871,11.827-17.8,17.75Q708.806-2830.05,691.772-2813a7.775,7.775,0,0,1-3.273,2.046C685.353-2809.965,682.233-2808.895,678.735-2807.737Z" transform="translate(-586.906 2968.096)" fill="#6677d6"/>
      <path id="Trazado_160002" data-name="Trazado 160002" d="M777.161-2813.7c0,4.249-.118,8.5.054,12.745.077,1.9-.54,2.223-2.267,2.168a35.7,35.7,0,0,0-9.69.585,22.92,22.92,0,0,0-10.872,5.924,18.442,18.442,0,0,1-13.862,5.469c-4.56-.087-9.124-.008-13.686-.021-2.357-.007-3.72-1.138-3.7-3.024s1.372-2.909,3.751-2.985c4.793-.153,9.62.483,14.372-.688a23.459,23.459,0,0,0,17.862-22.457c.029-3.612.185-7.228-.122-10.849a1.989,1.989,0,0,1,2.174-2c5-.033,10,.016,15-.037,1.1-.011,1,.594.995,1.3Q777.153-2820.638,777.161-2813.7Z" transform="translate(-609.04 2945.949)" fill="#f7d8af"/>
      <path id="Trazado_160003" data-name="Trazado 160003" d="M709.98-2840.729c-4.837,4.819-9.39,9.347-13.934,13.884-5.568,5.559-11.15,11.1-16.671,16.711-.913.927-1.416.961-2.326,0-2.457-2.588-2.508-4.707.048-7.269,5.91-5.924,11.846-11.822,17.743-17.758C698.9-2839.248,703.8-2841.067,709.98-2840.729Z" transform="translate(-585.141 2951.878)" fill="#f7d8af"/>
      <path id="Trazado_160004" data-name="Trazado 160004" d="M848.814-2819.851c0,6.494-.027,12.988.025,19.482.009,1.166-.223,1.59-1.508,1.586-4.52-.017-4.52.039-4.52-4.542,0-11.927.022-23.854-.031-35.78-.006-1.338.232-1.808,1.7-1.779,4.331.085,4.332.01,4.332,4.361Z" transform="translate(-668.685 2951.936)" fill="#c6412a"/>
      <path id="Trazado_160005" data-name="Trazado 160005" d="M817.205-2906.542c2.2-.015,5.1,2.2,5.982,4.37.866,2.117-.012,3.721-1.5,5.189-3.069,3.027-6.132,6.061-9.128,9.16-.822.85-1.29.808-2.073-.024-1.885-2-3.843-3.932-5.827-5.834-.7-.673-.733-1.1-.017-1.8,3.26-3.189,6.467-6.432,9.692-9.655A4.693,4.693,0,0,1,817.205-2906.542Z" transform="translate(-649.412 2984.667)" fill="#6677d6"/>
      <path id="Trazado_160006" data-name="Trazado 160006" d="M764.943-2804.478l8.888-8.475c1.332,8.14-1.971,15.969-8.405,19.472-.684-.5-.429-1.244-.436-1.891C764.954-2798.407,764.955-2801.442,764.943-2804.478Z" transform="translate(-629.882 2938.011)" fill="#fefefe"/>
      <path id="Trazado_160007" data-name="Trazado 160007" d="M751.925-2796.052c.012,3.035.011,6.07.046,9.106.008.647-.247,1.387.436,1.891-4.217,2.909-8.995,2.667-13.578,2.542Z" transform="translate(-616.865 2929.586)" fill="#dfdfdf"/>
      <path id="Trazado_160008" data-name="Trazado 160008" d="M739.2-3030.539c-2.926,0-6.032-.019-9.138.014-.738.008-.959-.245-.952-.966.031-3.1.013-6.206.013-9.233Z" transform="translate(-612.018 3051.559)" fill="#dfdfdf"/>
      <path id="Trazado_160009" data-name="Trazado 160009" d="M576.557-2870.77c18.384,0,36.767.021,55.151-.039,1.545,0,1.982.333,1.936,1.915-.12,4.126-.036,4.129-4.182,4.129q-53.932,0-107.863.039c-1.681,0-2.186-.376-2.125-2.1.14-3.937.043-3.941,4-3.941Z" transform="translate(-507.51 2966.854)" fill="#010101"/>
      <path id="Trazado_160010" data-name="Trazado 160010" d="M573.508-2750.937c-1.376,0-2.752.016-4.128,0a9.028,9.028,0,0,1-8.919-6.906c-.293-1.084-.473-2.2-.847-3.258a2.577,2.577,0,0,0-2.577-1.819,2.575,2.575,0,0,0-2.574,1.823c-.391,1.114-.576,2.3-.882,3.443a8.625,8.625,0,0,1-8.782,6.712,8.6,8.6,0,0,1-8.058-7.537c-.457-2.708-.962-5.409-1.392-8.122-.212-1.342-.844-2.27-2.247-2.311-1.5-.044-2.193.887-2.422,2.32-.424,2.65-.832,5.308-1.412,7.927a9.994,9.994,0,0,1-8.481,7.68c-.9.109-1.442.007-1.3-1.1a9.62,9.62,0,0,0,.006-2.061c-.139-1.6-.153-2.9,1.964-3.4,1.405-.327,1.921-1.847,2.153-3.27.383-2.342.759-4.685,1.157-7.023a8.316,8.316,0,0,1,8.186-7.1,8.343,8.343,0,0,1,8.275,7.01q.766,4.239,1.431,8.5a2.5,2.5,0,0,0,2.376,2.454c1.549.1,2.377-.828,2.717-2.3a38.5,38.5,0,0,1,1.026-3.791,8.692,8.692,0,0,1,8.3-5.874,8.7,8.7,0,0,1,8.175,5.794c.411,1.173.66,2.4.971,3.612a3.14,3.14,0,0,0,3.384,2.6c2.877-.02,5.755.045,8.63-.031,1.088-.029,1.32.329,1.332,1.363.057,4.668.091,4.668-4.567,4.668Z" transform="translate(-507.497 2919.064)" fill="#010101"/>
      <path id="Trazado_160011" data-name="Trazado 160011" d="M582.473-3011.216c0,.625.05,1.255-.012,1.873-.094.943.228,1.365,1.182,1.732a11.82,11.82,0,0,1,7.7,9.374c.228,1.178.269,2.155-1.428,1.812a3.226,3.226,0,0,0-.935,0c-2.028.2-3.505.1-4.225-2.527-.776-2.836-4.123-4.063-6.919-3.231a5.982,5.982,0,0,0-4.346,6.414,6.025,6.025,0,0,0,5.835,5.328c5.333.2,9.2,2.647,11.263,7.553A11.743,11.743,0,0,1,584-2967.427a2.111,2.111,0,0,0-1.547,2.45c.046,4.924.018,4.895-4.983,4.593-.853-.051-1.108-.319-1-1.093.464-3.348-.145-5.742-3.831-7.322-3.2-1.374-4.568-4.777-5.127-8.274-.169-1.056.1-1.516,1.222-1.362a6.924,6.924,0,0,0,1.5.005c1.913-.161,3.295-.1,3.9,2.446.643,2.72,4.007,4.083,6.7,3.4a6.046,6.046,0,0,0,4.618-6.416,5.925,5.925,0,0,0-5.568-5.382,12.95,12.95,0,0,1-7.226-2.193,11.473,11.473,0,0,1-5.1-11,11.128,11.128,0,0,1,7.317-9.815c1.553-.607,1.63-1.479,1.617-2.783-.045-4.278-.012-4.169,3.96-4.327,1.794-.071,2.289.539,2.037,2.156A7.368,7.368,0,0,0,582.473-3011.216Z" transform="translate(-531.436 3038.486)" fill="#010101"/>
      <path id="Trazado_160012" data-name="Trazado 160012" d="M660.283-3010.753c0-3.637,0-3.637,3.31-3.637,2.7,0,2.7,0,2.7,2.748a4.181,4.181,0,0,1,0,.562c-.271,2.014.174,3.248,2.408,4.169,3.913,1.615,5.866,5.032,6.55,9.179.173,1.049-.085,1.526-1.214,1.364a6.68,6.68,0,0,0-1.311-.007c-1.907.109-3.45.274-4.1-2.435-.68-2.831-4.085-4.139-6.863-3.361a6.018,6.018,0,0,0-4.439,6.533,6.1,6.1,0,0,0,5.909,5.26c6.167.317,10.575,3.9,11.779,9.587a11.687,11.687,0,0,1-7.095,13.373,2.236,2.236,0,0,0-1.656,2.576c.086,4.97.034,4.948-5.051,4.508-.741-.064-1.044-.281-.914-.982.667-3.615-.43-5.9-4.056-7.575-3.1-1.43-4.407-4.777-4.91-8.211-.133-.909.03-1.448,1.118-1.279a5.777,5.777,0,0,0,1.31.006c1.994-.15,3.554-.191,4.228,2.516s4.047,4.023,6.743,3.3a6.032,6.032,0,0,0,4.535-6.469,6.057,6.057,0,0,0-5.828-5.339c-5.783-.35-9.873-3.28-11.519-8.25a11.6,11.6,0,0,1,5.844-14.262C659.832-3007.851,660.883-3008.846,660.283-3010.753Z" transform="translate(-573.221 3038.431)" fill="#010101"/>
    </g>
    <g id="Grupo_109647" data-name="Grupo 109647" transform="translate(98.461 -3036.232)">
      <path id="Trazado_160013" data-name="Trazado 160013" d="M98.461-2950.665c.653-.2.476-.831.587-1.251,3.053-11.643,12.117-18.736,24.167-18.754q32.452-.048,64.9-.009c13.631,0,27.262-.021,40.893.033a4.145,4.145,0,0,0,3.25-1.375q16.8-16.89,33.679-33.7c5.186-5.167,12.391-6.014,18.122-2.219a14.036,14.036,0,0,1,4.71,18.342,2.365,2.365,0,0,0-.041,2.66,13.464,13.464,0,0,1-1.971,16.26c-1.668,1.763-3.459,3.412-5.265,5.182a24.62,24.62,0,0,1,8.509,13.714,25.455,25.455,0,0,1,.592,5.577q-.016,34.887-.015,69.776a24.12,24.12,0,0,1-24.358,24.4c-9.629.027-19.259.009-28.888,0-2.464,0-3.137-.54-3.809-2.951.478-2.048,1.8-2.719,3.846-2.706q14.429.093,28.858.014a18.421,18.421,0,0,0,18.708-18.6c.057-23.423.021-46.845.011-70.267a13.749,13.749,0,0,0-1.123-6,15.4,15.4,0,0,0-4.12-6.872c-1.134,6.052-4.393,9.877-10.386,10.422-5.941.542-9.835-2.615-12.13-8.5a18.331,18.331,0,0,1-1.335,1.757c-7.414,7.437-14.875,14.826-22.259,22.293-7.469,7.552-16.6,10.548-27.029,10.065a2.844,2.844,0,0,1-3.008-2.927c-.523-10.362,2.379-19.476,9.859-26.913q5.319-5.288,10.6-10.615c.3-.3.908-.494.723-1.115h-8.072c-.682-.032-1.364-.093-2.046-.093q-20.191-.009-40.382,0c-.744,0-1.488.07-2.232.108a1.432,1.432,0,0,0-.361-.1c-16.809.015-33.619-.1-50.425.113-8.233.1-15.492,6.829-16.779,15.016-.828,5.271-.26,10.6-.319,15.9-.023,2.045-.707,3.347-2.708,3.872a4.718,4.718,0,0,1-2.96-1.78Zm135.714,8.246c.624-.022.862-.435,1.159-.732q11.014-11,22.031-21.994c.833-.826.764-1.357-.033-2.136q-5.1-4.98-10.1-10.053c-.7-.711-1.131-.669-1.813.017q-10.977,11.035-22.013,22.012c-.771.767-.921,1.3-.066,2.141,3.389,3.329,6.715,6.721,10.07,10.085C233.664-2942.822,233.96-2942.6,234.175-2942.419Zm50.577-53.834a8.063,8.063,0,0,0-4.837-7.442,7.7,7.7,0,0,0-9.05,1.231c-3.359,3.068-6.475,6.4-9.728,9.585-.6.586-.543.935.023,1.5q5.18,5.139,10.288,10.351c.692.709,1.076.682,1.753-.012,3-3.081,6.071-6.1,9.107-9.152A8.441,8.441,0,0,0,284.752-2996.253Zm-73.024,67.037a26.752,26.752,0,0,0,17.515-7.885c.827-.817.989-1.281.054-2.177q-5.007-4.8-9.836-9.78c-.868-.893-1.339-.852-2.186.015a27.572,27.572,0,0,0-7.96,17.324C209.073-2929,209.05-2929.007,211.728-2929.217Zm72.348-54.317c-6.774,6.7-13.572,13.215-20.113,19.983-2.507,2.594-1.2,7.076,2.04,8.489a5.265,5.265,0,0,0,6.072-.971,5.168,5.168,0,0,0,1.564-5.942,3.845,3.845,0,0,1,1.148-4.676c2.56-2.379,4.991-4.9,7.436-7.4C285.008-2976.9,285.627-2980.087,284.076-2983.533Zm-15.828,7.394c-.228-.277-.4-.525-.61-.734-3.534-3.529-7.086-7.041-10.6-10.592-.6-.6-.941-.514-1.48.051-1.422,1.491-2.871,2.958-4.375,4.365-.7.656-.751,1.055-.026,1.766,3.478,3.409,6.908,6.867,10.323,10.339.583.593.954.769,1.609.072,1.453-1.546,2.992-3.011,4.491-4.513C267.8-2975.6,267.983-2975.838,268.248-2976.14Z" transform="translate(-98.461 3010.29)" fill="#030303"/>
      <path id="Trazado_160014" data-name="Trazado 160014" d="M226.114-2767.936c-.51,2.276-1.285,2.946-3.577,2.947q-50.127.009-100.254-.018a24.088,24.088,0,0,1-23.136-18.379c-.15-.612-.01-1.385-.687-1.816v-48.4a3.461,3.461,0,0,1,2.968-2.08c1.961.442,2.688,1.687,2.682,3.665q-.058,21.078-.017,42.157c.013,11.234,8,19.228,19.213,19.243q18.269.023,36.539,0c2.683,0,5.366-.052,8.049-.08.686.027,1.371.079,2.057.079q26.174.007,52.347.006C224.823-2770.615,225.4-2770.192,226.114-2767.936Z" transform="translate(-98.461 2923.247)" fill="#030303"/>
      <path id="Trazado_160015" data-name="Trazado 160015" d="M280.578-2810c-.711-2.257-1.291-2.679-3.814-2.679q-26.173-.007-52.347-.006c-.686,0-1.371-.051-2.057-.079a5.471,5.471,0,0,0-.513-1.184,72.849,72.849,0,0,1-7.585-13.432c-1.156-2.51-2.515-4.987-2.81-7.823,1.987-.034,3.974-.08,5.961-.1s3.984.05,5.971-.032a2.872,2.872,0,0,0,2.994-2.905,2.881,2.881,0,0,0-3.007-2.691c-.682-.038-1.368,0-2.053-.012q-6.057-.065-12.114-.134a7.918,7.918,0,0,0-.247-1.812c-.477-2.4-1.28-4.74-1.244-7.225.415-.133.824-.285,1.244-.4a31.079,31.079,0,0,0,21.749-38.889c-2.191-7.361-6.716-12.954-12.9-17.328a75.431,75.431,0,0,1,4.961-7.91c1.274-1.739,2.866-3.272,3.708-5.316.744-.037,1.487-.107,2.232-.108q20.191-.01,40.382,0c.682,0,1.364.061,2.046.093-2.5,2.967-5.424,5.518-8.1,8.308a40.975,40.975,0,0,0-8.437,13.318c-2.347,5.833-2.467,11.92-2.189,18.039.152,3.36,4.15,7.425,7.527,7.588a45.908,45.908,0,0,0,16.082-1.6c6.736-2.1,12.245-6.038,17.191-10.884,4.464-4.374,8.848-8.83,13.268-13.249,2.84-2.839,4.91-3.114,8.585-1.433a17.085,17.085,0,0,0,15.491-.05c3.412-1.716,5.75-4.49,7.743-7.629a13.75,13.75,0,0,1,1.123,6c.01,23.422.046,46.844-.011,70.267a18.42,18.42,0,0,1-18.708,18.6q-14.429.09-28.859-.014c-2.046-.013-3.368.658-3.846,2.706Zm3.684-56.359c-11.63,0-23.26-.018-34.89.009-4.487.01-7.937,2.751-8.665,6.758-1.015,5.585,2.935,10.148,8.859,10.154q28.7.025,57.4.006c4.189,0,8.379.055,12.568-.014a8.467,8.467,0,0,0,8.243-10.786,8.416,8.416,0,0,0-8.437-6.117C307.647-2866.378,295.954-2866.36,284.262-2866.361Zm32.261,39.5c2.686,0,5.373.011,8.059,0,2.191-.012,3.492-1.042,3.528-2.753.038-1.766-1.328-2.868-3.614-2.872-5.06-.01-10.121-.036-15.181.019a2.044,2.044,0,0,1-2.344-1.579,6.134,6.134,0,0,0-3.294-3.662c-3.113-1.51-5.776-.531-8.3,1.489-1.794,1.436-2.112,1.3-3.011-.82a6.638,6.638,0,0,0-9.488-3.409c-4.365,2.656-8.571,5.578-12.8,8.45a2.7,2.7,0,0,0-.862,3.779c.92,1.49,2.531,1.8,4.224.694,3.757-2.459,7.472-4.982,11.216-7.461,1.591-1.054,2.02-.913,2.724.838a6.768,6.768,0,0,0,4.648,4.25c2.76.768,4.97-.353,7.071-2.008,1.761-1.388,2.074-1.272,2.95.719a6.659,6.659,0,0,0,6.416,4.315C311.15-2826.836,313.836-2826.868,316.523-2826.863Z" transform="translate(-152.925 2965.314)" fill="#f3f9ff"/>
      <path id="Trazado_160016" data-name="Trazado 160016" d="M159.931-2835.206c.3,2.836,1.654,5.313,2.81,7.823a72.84,72.84,0,0,0,7.585,13.432,5.477,5.477,0,0,1,.513,1.184c-2.683.028-5.366.078-8.049.08q-18.269.012-36.539,0c-11.216-.015-19.2-8.009-19.213-19.243q-.025-21.078.017-42.157c.006-1.978-.722-3.222-2.682-3.665q0-3.7-.008-7.4c2-.525,2.685-1.827,2.708-3.872.059-5.3-.508-10.632.319-15.9,1.286-8.187,8.546-14.912,16.779-15.016,16.806-.212,33.617-.1,50.425-.113a1.442,1.442,0,0,1,.361.095c-.842,2.044-2.435,3.577-3.708,5.316a75.426,75.426,0,0,0-4.961,7.91c-.386-.2-.78-.379-1.155-.6a30.874,30.874,0,0,0-20.36-3.934c-12.941,1.853-23.225,11.873-25.9,25.181-2.488,12.359,3.492,25.545,14.613,32.188a31.414,31.414,0,0,0,22.713,3.774c-.036,2.485.767,4.829,1.244,7.225a7.913,7.913,0,0,1,.247,1.812c-.682.045-1.363.128-2.044.129q-13.508.012-27.017.006c-.5,0-1-.017-1.5.007-1.884.09-3.122,1.2-3.124,2.792a2.866,2.866,0,0,0,3.114,2.813c5,.057,10.006.011,15.009.029C148.058-2835.284,153.995-2835.24,159.931-2835.206ZM140.6-2821.217c4.3,0,8.61.013,12.915-.005,2.169-.01,3.441-1.089,3.42-2.828s-1.3-2.789-3.481-2.792q-13.008-.017-26.016,0c-2.134,0-3.465,1.142-3.444,2.854s1.323,2.757,3.505,2.765C131.869-2821.206,136.236-2821.217,140.6-2821.217Z" transform="translate(-101.403 2965.313)" fill="#f3f9ff"/>
      <path id="Trazado_160017" data-name="Trazado 160017" d="M382.613-2907.468c-1.993,3.138-4.331,5.913-7.743,7.628a17.085,17.085,0,0,1-15.491.05c-3.675-1.68-5.745-1.406-8.585,1.433-4.42,4.419-8.8,8.875-13.268,13.249-4.946,4.846-10.455,8.784-17.191,10.884a45.9,45.9,0,0,1-16.082,1.6c-3.377-.163-7.374-4.229-7.527-7.588-.277-6.12-.158-12.207,2.189-18.04a40.981,40.981,0,0,1,8.437-13.318c2.681-2.79,5.606-5.341,8.105-8.307h8.072c.185.621-.423.812-.723,1.115q-5.277,5.331-10.6,10.614c-7.481,7.438-10.382,16.551-9.859,26.913a2.845,2.845,0,0,0,3.008,2.927c10.433.483,19.56-2.513,27.029-10.065,7.384-7.467,14.845-14.857,22.259-22.293a18.243,18.243,0,0,0,1.335-1.757c2.3,5.889,6.189,9.046,12.13,8.5,5.993-.546,9.252-4.37,10.386-10.422A15.4,15.4,0,0,1,382.613-2907.468Z" transform="translate(-197.246 2965.217)" fill="#eee99a"/>
      <path id="Trazado_160018" data-name="Trazado 160018" d="M357.735-2910.171c-.215-.183-.511-.4-.768-.66-3.355-3.364-6.681-6.756-10.07-10.085-.855-.84-.705-1.374.066-2.141q11.036-10.976,22.013-22.011c.682-.686,1.112-.728,1.813-.017q5,5.073,10.1,10.053c.8.779.866,1.309.033,2.135q-11.044,10.969-22.031,21.994C358.6-2910.606,358.358-2910.193,357.735-2910.171Z" transform="translate(-222.021 2978.041)" fill="#6677d6"/>
      <path id="Trazado_160019" data-name="Trazado 160019" d="M446.041-2990.622a8.442,8.442,0,0,1-2.445,6.058c-3.036,3.051-6.1,6.072-9.107,9.152-.677.694-1.061.721-1.753.012q-5.093-5.226-10.288-10.351c-.565-.561-.62-.91-.023-1.5,3.253-3.185,6.369-6.517,9.728-9.585a7.7,7.7,0,0,1,9.05-1.231A8.062,8.062,0,0,1,446.041-2990.622Z" transform="translate(-259.75 3004.659)" fill="#c6412a"/>
      <path id="Trazado_160020" data-name="Trazado 160020" d="M321.824-2869c-2.678.21-2.655.212-2.413-2.5a27.574,27.574,0,0,1,7.96-17.324c.847-.868,1.318-.908,2.186-.016q4.833,4.973,9.836,9.78c.935.9.773,1.36-.054,2.177A26.753,26.753,0,0,1,321.824-2869Z" transform="translate(-208.556 2950.071)" fill="#ffef0f"/>
      <path id="Trazado_160021" data-name="Trazado 160021" d="M447.3-2956.936c1.551,3.447.931,6.636-1.853,9.485-2.444,2.5-4.876,5.02-7.436,7.4a3.846,3.846,0,0,0-1.148,4.677,5.168,5.168,0,0,1-1.564,5.942,5.264,5.264,0,0,1-6.073.971c-3.236-1.413-4.547-5.9-2.04-8.489C433.723-2943.721,440.521-2950.24,447.3-2956.936Z" transform="translate(-261.68 2983.692)" fill="#6677d6"/>
      <path id="Trazado_160022" data-name="Trazado 160022" d="M419.522-2953.864c-.265.3-.453.54-.666.754-1.5,1.5-3.038,2.967-4.491,4.513-.654.7-1.026.521-1.609-.073-3.415-3.472-6.845-6.93-10.323-10.338-.726-.711-.676-1.11.026-1.766,1.5-1.407,2.953-2.875,4.375-4.365.539-.565.882-.656,1.48-.051,3.512,3.551,7.064,7.063,10.6,10.593C419.122-2954.388,419.294-2954.141,419.522-2953.864Z" transform="translate(-249.735 2988.014)" fill="#ffef0f"/>
      <path id="Trazado_160023" data-name="Trazado 160023" d="M170.054-2841.7a31.416,31.416,0,0,1-22.713-3.775c-11.121-6.643-17.1-19.829-14.613-32.187,2.679-13.309,12.962-23.329,25.9-25.182a30.874,30.874,0,0,1,20.36,3.934c.375.217.769.4,1.155.6,6.184,4.373,10.71,9.966,12.9,17.328A31.079,31.079,0,0,1,171.3-2842.1C170.878-2841.987,170.469-2841.835,170.054-2841.7Zm-6.685-4.949a25.566,25.566,0,0,0,25.406-25.431,25.574,25.574,0,0,0-25.534-25.5,25.582,25.582,0,0,0-25.414,25.622A25.58,25.58,0,0,0,163.369-2846.651Z" transform="translate(-115.265 2956.898)" fill="#030303"/>
      <path id="Trazado_160024" data-name="Trazado 160024" d="M316.9-2812.976c11.692,0,23.385-.018,35.077.01a8.416,8.416,0,0,1,8.438,6.117,8.467,8.467,0,0,1-8.243,10.786c-4.188.07-8.378.014-12.568.014q-28.7,0-57.4-.006c-5.925-.005-9.874-4.569-8.859-10.154.728-4.007,4.178-6.748,8.665-6.758C293.644-2812.995,305.274-2812.977,316.9-2812.976Zm.022,11.26v.02q17.062,0,34.124-.008a7.3,7.3,0,0,0,2.033-.189,2.568,2.568,0,0,0,1.978-2.823,2.613,2.613,0,0,0-2.507-2.575,14.053,14.053,0,0,0-1.5-.034q-30.842,0-61.685,0c-2.625,0-5.251-.017-7.873.056a2.478,2.478,0,0,0-2.58,2.452,2.622,2.622,0,0,0,2.209,3.005,7.631,7.631,0,0,0,1.865.092Q299.957-2801.713,316.925-2801.716Z" transform="translate(-185.566 2911.929)" fill="#030303"/>
      <path id="Trazado_160025" data-name="Trazado 160025" d="M377.226-2748.626c-2.686,0-5.373.029-8.059-.011a6.659,6.659,0,0,1-6.415-4.315c-.876-1.992-1.189-2.107-2.95-.719-2.1,1.654-4.311,2.776-7.071,2.008a6.768,6.768,0,0,1-4.648-4.25c-.7-1.752-1.132-1.892-2.724-.839-3.744,2.479-7.459,5-11.216,7.461-1.694,1.109-3.3.8-4.224-.694a2.7,2.7,0,0,1,.862-3.779c4.23-2.873,8.436-5.794,12.8-8.45a6.638,6.638,0,0,1,9.488,3.409c.9,2.122,1.217,2.256,3.011.82,2.522-2.019,5.184-3,8.3-1.488a6.133,6.133,0,0,1,3.294,3.662,2.044,2.044,0,0,0,2.344,1.579c5.059-.055,10.12-.03,15.181-.02,2.286,0,3.651,1.106,3.614,2.873-.036,1.711-1.336,2.74-3.528,2.753C382.6-2748.613,379.913-2748.624,377.226-2748.626Z" transform="translate(-213.628 2887.075)" fill="#030303"/>
      <path id="Trazado_160026" data-name="Trazado 160026" d="M179.45-2756.686c-5.937-.034-11.873-.078-17.809-.1-5-.018-10.007.027-15.009-.03a2.866,2.866,0,0,1-3.114-2.812c0-1.588,1.241-2.7,3.124-2.791.5-.024,1-.007,1.5-.007q13.509,0,27.017-.006c.682,0,1.363-.084,2.044-.129q6.057.067,12.114.134c.685.007,1.371-.026,2.053.012a2.88,2.88,0,0,1,3.007,2.691,2.872,2.872,0,0,1-2.994,2.906c-1.987.083-3.981.014-5.971.033S181.437-2756.72,179.45-2756.686Z" transform="translate(-120.923 2886.793)" fill="#030303"/>
      <path id="Trazado_160027" data-name="Trazado 160027" d="M160.12-2728.552c-4.367,0-8.734.011-13.1,0-2.182-.008-3.484-1.059-3.505-2.765s1.309-2.851,3.444-2.854q13.008-.022,26.016,0c2.185,0,3.461,1.055,3.481,2.792s-1.251,2.819-3.42,2.828C168.73-2728.539,164.425-2728.552,160.12-2728.552Z" transform="translate(-120.92 2872.648)" fill="#030303"/>
      <path id="Trazado_160028" data-name="Trazado 160028" d="M168.994-2841.074a25.58,25.58,0,0,1-25.541-25.3A25.582,25.582,0,0,1,168.866-2892a25.574,25.574,0,0,1,25.534,25.5A25.566,25.566,0,0,1,168.994-2841.074Zm-.181-45.194a2.588,2.588,0,0,0-2.6,2.363,15.094,15.094,0,0,0-.067,2.433,1.677,1.677,0,0,1-.965,1.783c-3.776,2.138-5.316,5.459-4.492,9.385.744,3.544,3.661,6,7.739,6.527,2.285.292,3.427,1.327,3.324,3.012-.109,1.794-1.4,2.746-3.752,2.764-1.626.012-3.254-.032-4.877.041a2.522,2.522,0,0,0-2.623,2.622c-.066,1.589.878,2.906,2.393,2.8,2.649-.178,3.577.682,3.361,3.338-.123,1.518,1.153,2.358,2.607,2.383a2.54,2.54,0,0,0,2.748-2.295,9.643,9.643,0,0,0,.085-2.243,1.886,1.886,0,0,1,1.266-2.168,7.239,7.239,0,0,0,3.3-3.219,8.4,8.4,0,0,0-6.442-12.5c-2.595-.276-3.8-1.249-3.744-3.026.057-1.856,1.407-2.775,4.1-2.785,1.376-.005,2.754.038,4.127-.019,1.932-.078,3.067-1.177,3.026-2.835a2.6,2.6,0,0,0-2.973-2.662c-2.293.2-2.839-.672-2.716-2.791A2.662,2.662,0,0,0,168.813-2886.268Z" transform="translate(-120.89 2951.321)" fill="#ffef0f"/>
      <path id="Trazado_160029" data-name="Trazado 160029" d="M322.6-2796.1q-16.968,0-33.936,0a7.631,7.631,0,0,1-1.865-.092,2.623,2.623,0,0,1-2.209-3.006,2.478,2.478,0,0,1,2.58-2.452c2.623-.073,5.249-.056,7.873-.056q30.843-.005,61.685,0a14.053,14.053,0,0,1,1.5.034,2.614,2.614,0,0,1,2.507,2.576,2.568,2.568,0,0,1-1.978,2.823,7.292,7.292,0,0,1-2.033.189q-17.062.016-34.124.007Z" transform="translate(-191.239 2906.309)" fill="#4e2e8e"/>
      <path id="Trazado_160030" data-name="Trazado 160030" d="M185.729-2880.569a2.662,2.662,0,0,1,2.827,2.911c-.123,2.119.422,2.991,2.716,2.791a2.6,2.6,0,0,1,2.973,2.663c.041,1.657-1.095,2.757-3.026,2.835-1.374.056-2.751.013-4.127.019-2.693.01-4.043.929-4.1,2.785-.054,1.777,1.149,2.75,3.744,3.026a8.4,8.4,0,0,1,6.442,12.5,7.238,7.238,0,0,1-3.3,3.218,1.887,1.887,0,0,0-1.266,2.168,9.644,9.644,0,0,1-.085,2.243,2.541,2.541,0,0,1-2.748,2.295c-1.454-.025-2.73-.865-2.607-2.383.215-2.656-.713-3.516-3.361-3.338-1.515.1-2.459-1.215-2.393-2.8a2.522,2.522,0,0,1,2.623-2.622c1.623-.073,3.251-.028,4.877-.041,2.354-.018,3.643-.97,3.752-2.764.1-1.685-1.039-2.72-3.324-3.012-4.078-.523-6.995-2.983-7.739-6.527-.824-3.925.716-7.247,4.492-9.385a1.677,1.677,0,0,0,.965-1.783,15.09,15.09,0,0,1,.067-2.433A2.588,2.588,0,0,1,185.729-2880.569Z" transform="translate(-137.806 2945.622)" fill="#030303"/>
    </g>
  </g>
</svg>
