<svg xmlns="http://www.w3.org/2000/svg" width="504.609" height="106" viewBox="0 0 504.609 106">
  <g id="Grupo_153075" data-name="Grupo 153075" transform="translate(-810.391 -4255.15)">
    <rect id="Rectángulo_44754" data-name="Rectángulo 44754" width="450" height="77.779" rx="21" transform="translate(865 4271.15)" fill="#e7eaf8"/>
    <g id="Elipse_19840" data-name="Elipse 19840" transform="translate(810.391 4255.15)" fill="#fff" stroke="#6677d6" stroke-width="4">
      <circle cx="53" cy="53" r="53" stroke="none"/>
      <circle cx="53" cy="53" r="51" fill="none"/>
    </g>
    <g id="Grupo_152751" data-name="Grupo 152751" transform="translate(838.396 4277.916)">
      <path id="Trazado_159987" data-name="Trazado 159987" d="M713.3-2877.052q0,11,0,22a3.961,3.961,0,0,1-3.077,4.127,5.108,5.108,0,0,1-1.161.1q-16.8.007-33.59,0a3.964,3.964,0,0,1-4.268-4.261c0-1.027-.019-2.055.009-3.081.011-.418-.09-.57-.537-.556-1.067.033-2.136.017-3.2.01a3.945,3.945,0,0,1-4.155-4.188q-.007-22.1,0-44.192a3.938,3.938,0,0,1,4.208-4.2q16.826-.007,33.652,0a3.952,3.952,0,0,1,4.237,4.229c0,1.027.023,2.055-.009,3.081-.014.447.084.609.568.59,1.046-.041,2.1-.017,3.143-.012a3.948,3.948,0,0,1,4.187,4.217Q713.3-2888.116,713.3-2877.052Zm-10.542-7.915q0-10.969,0-21.938c0-1.367-.393-1.76-1.758-1.76H667.72c-1.365,0-1.759.393-1.759,1.76q0,21.907,0,43.814c0,1.364.4,1.761,1.758,1.761h33.215c1.447,0,1.82-.373,1.82-1.823Q702.755-2874.06,702.755-2884.967Zm7.889,7.857q0-11.031,0-22.063c0-1.152-.455-1.6-1.606-1.6-.986,0-1.974.04-2.957-.016-.584-.033-.684.167-.683.705.015,12.346-.008,24.692.028,37.038a4.147,4.147,0,0,1-4.332,4.361c-4.23-.079-8.463-.021-12.7-.021-4.643,0-9.285.009-13.928-.013-.526,0-.651.154-.63.652.039.943.011,1.89.011,2.835,0,1.408.385,1.794,1.787,1.794h33.217c1.4,0,1.789-.384,1.789-1.791Q710.645-2866.171,710.644-2877.11Z" transform="translate(-663.307 2911.288)" fill="#040404"/>
      <path id="Trazado_159988" data-name="Trazado 159988" d="M716.21-2871.67q0,10.908,0,21.815c0,1.449-.373,1.822-1.82,1.822H681.174c-1.361,0-1.758-.4-1.758-1.761q0-21.907,0-43.814c0-1.366.394-1.759,1.759-1.759h33.277c1.365,0,1.758.392,1.758,1.76Q716.211-2882.639,716.21-2871.67Zm-18.392-18.425a10.483,10.483,0,0,0-10.511,10.469,10.49,10.49,0,0,0,10.378,10.54,10.484,10.484,0,0,0,10.632-10.347A10.47,10.47,0,0,0,697.817-2890.095Zm5.3,26.93c2.155,0,4.309.01,6.464,0a1.31,1.31,0,0,0,1.387-1.327,1.313,1.313,0,0,0-1.377-1.282q-6.525-.014-13.051,0a1.273,1.273,0,0,0-1.2.717,1.292,1.292,0,0,0,1.251,1.9C698.764-2863.151,700.939-2863.164,703.114-2863.165Zm0,5.27c-2.155,0-4.309,0-6.464,0a1.307,1.307,0,0,0-1.452,1.316,1.268,1.268,0,0,0,1.4,1.3q6.464.012,12.927,0a1.426,1.426,0,0,0,.874-.234,1.306,1.306,0,0,0,.488-1.469,1.281,1.281,0,0,0-1.309-.913C707.424-2857.9,705.27-2857.894,703.115-2857.895Zm-14.563-5.269c.861,0,1.722.011,2.583,0a1.274,1.274,0,0,0,1.4-1.294,1.285,1.285,0,0,0-1.383-1.319q-2.552-.019-5.1,0a1.316,1.316,0,0,0-1.387,1.331,1.312,1.312,0,0,0,1.37,1.278C686.871-2863.152,687.712-2863.165,688.552-2863.164Zm.011,7.887c.881,0,1.763.016,2.644,0a1.26,1.26,0,0,0,1.33-1.3,1.274,1.274,0,0,0-1.333-1.306q-2.583-.026-5.166,0a1.315,1.315,0,0,0-1.376,1.28,1.316,1.316,0,0,0,1.381,1.33C686.882-2855.262,687.723-2855.276,688.563-2855.277Z" transform="translate(-676.762 2897.991)" fill="#f3f9ff"/>
      <path id="Trazado_159989" data-name="Trazado 159989" d="M764.029-2823.91q0,10.939,0,21.878c0,1.408-.385,1.792-1.789,1.792H729.022c-1.4,0-1.786-.385-1.787-1.794,0-.945.028-1.892-.012-2.835-.021-.5.1-.654.63-.652,4.643.022,9.285.013,13.928.013,4.232,0,8.465-.057,12.7.021a4.147,4.147,0,0,0,4.332-4.36c-.036-12.346-.012-24.692-.028-37.038,0-.538.1-.738.683-.7.983.055,1.971.013,2.957.015,1.151,0,1.606.45,1.606,1.6Q764.031-2834.94,764.029-2823.91Z" transform="translate(-716.691 2858.086)" fill="#dee4f0"/>
      <path id="Trazado_159990" data-name="Trazado 159990" d="M737.818-2863.363a10.469,10.469,0,0,1,10.5,10.662,10.485,10.485,0,0,1-10.632,10.347,10.49,10.49,0,0,1-10.378-10.541A10.482,10.482,0,0,1,737.818-2863.363Zm-.006,2.616a7.91,7.91,0,0,0-7.886,7.8,7.9,7.9,0,0,0,7.829,7.978,7.893,7.893,0,0,0,7.946-7.858A7.893,7.893,0,0,0,737.811-2860.748Z" transform="translate(-716.762 2871.259)" fill="#020202"/>
      <path id="Trazado_159991" data-name="Trazado 159991" d="M783.031-2713.18c-2.175,0-4.35.013-6.525-.005a1.292,1.292,0,0,1-1.251-1.9,1.275,1.275,0,0,1,1.2-.717q6.525,0,13.051,0a1.313,1.313,0,0,1,1.377,1.282,1.31,1.31,0,0,1-1.387,1.327C787.34-2713.171,785.185-2713.181,783.031-2713.18Z" transform="translate(-756.678 2748.006)" fill="#020202"/>
      <path id="Trazado_159992" data-name="Trazado 159992" d="M783.136-2667.917c2.155,0,4.309-.005,6.464,0a1.28,1.28,0,0,1,1.309.913,1.3,1.3,0,0,1-.488,1.469,1.425,1.425,0,0,1-.874.234q-6.464,0-12.927,0a1.268,1.268,0,0,1-1.4-1.3,1.307,1.307,0,0,1,1.452-1.316C778.827-2667.921,780.981-2667.917,783.136-2667.917Z" transform="translate(-756.783 2708.013)" fill="#020202"/>
      <path id="Trazado_159993" data-name="Trazado 159993" d="M715.146-2713.205c-.841,0-1.681.013-2.521,0a1.312,1.312,0,0,1-1.37-1.279,1.315,1.315,0,0,1,1.387-1.331q2.552-.02,5.1,0a1.284,1.284,0,0,1,1.384,1.318,1.275,1.275,0,0,1-1.4,1.295C716.868-2713.193,716.007-2713.2,715.146-2713.205Z" transform="translate(-703.355 2748.031)" fill="#020202"/>
      <path id="Trazado_159994" data-name="Trazado 159994" d="M715.154-2665.32c-.841,0-1.681.014-2.521,0a1.316,1.316,0,0,1-1.381-1.33,1.314,1.314,0,0,1,1.376-1.28q2.583-.021,5.166,0a1.274,1.274,0,0,1,1.334,1.306,1.26,1.26,0,0,1-1.33,1.3C716.918-2665.3,716.036-2665.32,715.154-2665.32Z" transform="translate(-703.353 2708.035)" fill="#020202"/>
      <path id="Trazado_159995" data-name="Trazado 159995" d="M751.09-2847.481a7.894,7.894,0,0,1,7.888,7.918,7.893,7.893,0,0,1-7.946,7.858,7.9,7.9,0,0,1-7.829-7.978A7.91,7.91,0,0,1,751.09-2847.481Zm5.237,5.231a1.263,1.263,0,0,0-.81-1.165,1.29,1.29,0,0,0-1.508.361c-1.278,1.275-2.57,2.536-3.819,3.838-.35.365-.536.317-.835-.021-.379-.43-.8-.829-1.215-1.22a1.311,1.311,0,0,0-1.92-.023,1.305,1.305,0,0,0,.061,1.875c.827.855,1.666,1.7,2.524,2.522a1.274,1.274,0,0,0,1.96-.015c1.721-1.7,3.425-3.42,5.138-5.13A1.4,1.4,0,0,0,756.326-2842.25Z" transform="translate(-730.04 2857.993)" fill="#6677d6"/>
      <path id="Trazado_159996" data-name="Trazado 159996" d="M769.748-2822.2a1.4,1.4,0,0,1-.425,1.021c-1.713,1.71-3.416,3.429-5.138,5.13a1.274,1.274,0,0,1-1.96.015c-.859-.823-1.7-1.667-2.524-2.522a1.3,1.3,0,0,1-.061-1.875,1.312,1.312,0,0,1,1.92.023c.42.391.836.79,1.215,1.22.3.338.485.386.835.022,1.25-1.3,2.541-2.563,3.819-3.838a1.29,1.29,0,0,1,1.508-.361A1.263,1.263,0,0,1,769.748-2822.2Z" transform="translate(-743.463 2837.942)" fill="#fff"/>
    </g>
    <text id="Libro_de_registro_de_accionistas_para_sociedades_por_acciones._" data-name="Libro de registro de accionistas para sociedades por acciones. " transform="translate(944.945 4287.65)" fill="#12263f" font-size="16" font-family="Roboto-Regular, Roboto"><tspan x="0" y="17">Libro de registro de accionistas para </tspan><tspan x="0" y="39">sociedades por acciones. </tspan></text>
  </g>
</svg>
