<svg xmlns="http://www.w3.org/2000/svg" width="59.902" height="60.743" viewBox="0 0 59.902 60.743">
  <g id="expediente" transform="translate(-1.063)">
    <g id="Grupo_153068" data-name="Grupo 153068" transform="translate(1.063 0)">
      <g id="Grupo_153066" data-name="Grupo 153066" transform="translate(0.89 0.89)">
        <g id="Grupo_153065" data-name="Grupo 153065">
          <g id="Grupo_153062" data-name="Grupo 153062">
            <g id="Grupo_153061" data-name="Grupo 153061">
              <path id="Trazado_211073" data-name="Trazado 211073" d="M3.313,5.391V58.073a3.141,3.141,0,0,0,3.141,3.141h40.1A3.141,3.141,0,0,0,49.7,58.073V16.1L35.847,2.25H6.454A3.141,3.141,0,0,0,3.313,5.391Z" transform="translate(-3.313 -2.25)" fill="#eaecf0"/>
              <path id="Trazado_211074" data-name="Trazado 211074" d="M92.785,9.455V24.079a2.373,2.373,0,0,0,2.373,2.373h2.376V65.57h3.112a3.141,3.141,0,0,0,3.141-3.141V20.457Z" transform="translate(-57.402 -6.606)" fill="#d3d7de"/>
              <path id="Trazado_211075" data-name="Trazado 211075" d="M85.58,2.25,99.431,16.1H87.953a2.373,2.373,0,0,1-2.373-2.373Z" transform="translate(-53.046 -2.25)" fill="#9e3421"/>
            </g>
          </g>
          <g id="Grupo_153064" data-name="Grupo 153064" transform="translate(27.906 28.747)">
            <g id="Grupo_153063" data-name="Grupo 153063">
              <circle id="Elipse_20584" data-name="Elipse 20584" cx="15.109" cy="15.109" r="15.109" fill="#998f09"/>
              <circle id="Elipse_20585" data-name="Elipse 20585" cx="11.671" cy="11.671" r="11.671" transform="translate(3.438 3.438)" fill="#ccbf0c"/>
            </g>
          </g>
        </g>
      </g>
      <g id="Grupo_153067" data-name="Grupo 153067">
        <path id="Trazado_211078" data-name="Trazado 211078" d="M34.432,20.212H16.5a.89.89,0,0,0,0,1.78h17.93a.89.89,0,0,0,0-1.78Z" transform="translate(-9.859 -12.219)"/>
        <path id="Trazado_211079" data-name="Trazado 211079" d="M34.432,35.025H16.5a.89.89,0,0,0,0,1.78h17.93a.89.89,0,0,0,0-1.78Z" transform="translate(-9.859 -21.174)"/>
        <path id="Trazado_211080" data-name="Trazado 211080" d="M105.477,98.282V93.9c1.512.108,2.074.8,2.592.8.648,0,.95-.821.95-1.231,0-1.058-2.074-1.512-3.542-1.555v-.583c0-.259-.324-.5-.648-.5a.57.57,0,0,0-.626.5v.626c-2.052.216-4.1,1.3-4.1,4.018,0,2.765,2.16,3.542,4.1,4.234v5.076c-2.2-.173-2.786-1.685-3.5-1.685-.54,0-.994.713-.994,1.231,0,1.058,1.814,2.506,4.493,2.549v.67a.57.57,0,0,0,.626.5c.324,0,.648-.238.648-.5v-.734a4.185,4.185,0,0,0,3.931-4.45C109.409,99.924,107.357,98.973,105.477,98.282Zm-1.145-.41c-1.145-.432-2.074-.886-2.074-2.117,0-1.123.864-1.663,2.074-1.814Zm1.015,7.366V100.68a2.526,2.526,0,0,1,1.9,2.419A2.055,2.055,0,0,1,105.348,105.237Z" transform="translate(-60.699 -54.91)"/>
        <path id="Trazado_211081" data-name="Trazado 211081" d="M103.624,88.689a16,16,0,1,0-16,16h.23c.072,0,.144,0,.215-.006A16.018,16.018,0,0,0,103.624,88.689ZM88.031,102.9h-.014c-.13,0-.26.006-.391.006a14.221,14.221,0,1,1,.4-.006Z" transform="translate(-43.722 -43.944)"/>
        <path id="Trazado_211082" data-name="Trazado 211082" d="M92.881,81.384a12.56,12.56,0,1,0,12.56,12.56A12.575,12.575,0,0,0,92.881,81.384Zm0,23.341a10.781,10.781,0,1,1,10.781-10.781A10.793,10.793,0,0,1,92.881,104.725Z" transform="translate(-48.977 -49.2)"/>
        <path id="Trazado_211083" data-name="Trazado 211083" d="M33.98,58.964H5.094a2.254,2.254,0,0,1-2.251-2.251V4.031A2.253,2.253,0,0,1,5.094,1.78H33.6V12.368a3.267,3.267,0,0,0,3.263,3.263H47.448V25.765a.89.89,0,1,0,1.78,0V14.741a.89.89,0,0,0-.261-.629L35.116.261A.89.89,0,0,0,34.487,0H5.094A4.035,4.035,0,0,0,1.063,4.031V56.713a4.035,4.035,0,0,0,4.031,4.031H33.98a.89.89,0,1,0,0-1.78Zm1.4-46.6V3.038L46.19,13.851H36.86a1.485,1.485,0,0,1-1.483-1.483Z" transform="translate(-1.063 0)"/>
      </g>
    </g>
  </g>
</svg>
