<svg xmlns="http://www.w3.org/2000/svg" width="73.186" height="79.475" viewBox="0 0 73.186 79.475">
  <g id="bolsa-de-dinero" transform="translate(-6.077)">
    <path id="Trazado_211084" data-name="Trazado 211084" d="M108.085,9.461,94.755,22.792A2.866,2.866,0,0,1,90.7,18.739L104.032,5.408a2.866,2.866,0,0,1,4.053,4.053Z" transform="translate(-40.433 -2.205)" fill="#9e3421"/>
    <path id="Trazado_211085" data-name="Trazado 211085" d="M106.245,33.738H87.392a2.866,2.866,0,1,1,0-5.732h18.852a2.866,2.866,0,1,1,0,5.732Z" transform="translate(-37.858 -13.515)" fill="#9e3421"/>
    <path id="Trazado_211086" data-name="Trazado 211086" d="M85.136,22.861H71.213C64.066,15.045,67.561,6.9,73.238,9.334c0,0-.489-7.011,4.855-7.081.027,0,.053,0,.081,0,5.431,0,4.937,7.083,4.937,7.083C88.79,6.9,92.284,15.045,85.136,22.861Z" transform="translate(-29.498 -1.086)" fill="#eadfda"/>
    <path id="Trazado_211088" data-name="Trazado 211088" d="M90.389,72.947c0-16.25-13.173-35.326-29.423-35.326S31.544,56.7,31.544,72.947,44.717,96.466,60.966,96.466,90.389,89.2,90.389,72.947Z" transform="translate(-12.29 -18.155)" fill="#eadfda"/>
    <path id="Trazado_211090" data-name="Trazado 211090" d="M86.37,39.67H67.517a2.866,2.866,0,1,1,0-5.732H86.37a2.866,2.866,0,1,1,0,5.732Z" transform="translate(-28.267 -16.378)" fill="#9e3421"/>
    <circle id="Elipse_20586" data-name="Elipse 20586" cx="16.354" cy="16.354" r="16.354" transform="translate(7.242 1.165)" fill="#ffef0f"/>
    <path id="Trazado_211093" data-name="Trazado 211093" d="M74.042,35.818A37.818,37.818,0,0,0,61.68,22.283a3.978,3.978,0,0,0,.337-.9h6.369a4.03,4.03,0,0,0,0-8.061H63.23l5.247-5.247a4.031,4.031,0,0,0-5.7-5.7L57.921,7.235a5,5,0,0,0-3.181-.518,8.541,8.541,0,0,0-1.93-5.02,5.886,5.886,0,0,0-8.269,0,8.54,8.54,0,0,0-1.93,5.018,4.85,4.85,0,0,0-4.272,1.336,17.677,17.677,0,0,0-2.358-2.919A17.519,17.519,0,0,0,6.383,20.78a1.164,1.164,0,1,0,2.288-.432,15.153,15.153,0,1,1,1.4,4.081,1.164,1.164,0,1,0-2.074,1.058,17.509,17.509,0,0,0,15.6,9.541l.167,0A40.279,40.279,0,0,0,18.09,54.792c0,7.994,3.147,14.494,9.1,18.8,5.328,3.851,12.758,5.887,21.487,5.887,8.4,0,15.63-1.9,20.909-5.482a1.164,1.164,0,0,0-1.309-1.926c-4.892,3.323-11.67,5.08-19.6,5.08-8.237,0-15.2-1.883-20.123-5.445-5.4-3.9-8.135-9.591-8.135-16.91a38.288,38.288,0,0,1,6.238-20.031,17.538,17.538,0,0,0,13.036-10.3H58.1a4.005,4.005,0,0,0,1.9-.474,35.186,35.186,0,0,1,12,12.968,37.555,37.555,0,0,1,4.928,17.842c0,5.865-1.782,10.72-5.3,14.432a1.164,1.164,0,1,0,1.691,1.6c3.937-4.158,5.933-9.553,5.933-16.033a39.912,39.912,0,0,0-5.222-18.974Zm-3.953-18.46a1.7,1.7,0,0,1-1.7,1.7H61.894A4.052,4.052,0,0,0,60.06,16.9c.076-.208.148-.415.213-.621l.628-.628h7.486a1.7,1.7,0,0,1,1.7,1.7ZM64.423,4.026a1.7,1.7,0,0,1,2.406,2.408L60.8,12.46a6.957,6.957,0,0,0-1.16-3.655ZM43.282,9.318A1.164,1.164,0,0,0,44.9,8.166c0-.032-.181-3.247,1.343-4.881a3.571,3.571,0,0,1,4.859,0c1.542,1.646,1.35,4.856,1.348,4.886a1.164,1.164,0,0,0,1.619,1.152,2.831,2.831,0,0,1,3.344.429c1.094,1.137,1.576,3.593.348,6.648H41.078a17.4,17.4,0,0,0-1.531-6.138,2.766,2.766,0,0,1,3.735-.939ZM40.5,22.128a17.526,17.526,0,0,0,.569-3.4H58.1a1.7,1.7,0,0,1,0,3.4Z" transform="translate(0)"/>
    <path id="Trazado_211094" data-name="Trazado 211094" d="M31.537,34.177a1.165,1.165,0,0,1-1.073-1.615l7.82-18.632a1.164,1.164,0,0,1,2.147.9l-7.82,18.632a1.165,1.165,0,0,1-1.074.714Z" transform="translate(-11.725 -6.377)"/>
    <path id="Trazado_211095" data-name="Trazado 211095" d="M25.422,21.9A4.929,4.929,0,0,1,20.8,16.716a4.929,4.929,0,0,1,4.619-5.179,4.929,4.929,0,0,1,4.619,5.179A4.929,4.929,0,0,1,25.422,21.9Zm0-8.03a2.62,2.62,0,0,0-2.291,2.851,2.62,2.62,0,0,0,2.291,2.851,2.62,2.62,0,0,0,2.291-2.851A2.62,2.62,0,0,0,25.422,13.866Z" transform="translate(-7.106 -5.568)"/>
    <path id="Trazado_211096" data-name="Trazado 211096" d="M45.832,46.517a4.929,4.929,0,0,1-4.619-5.179,4.929,4.929,0,0,1,4.619-5.179,4.929,4.929,0,0,1,4.619,5.179A4.929,4.929,0,0,1,45.832,46.517Zm0-8.03a2.62,2.62,0,0,0-2.291,2.851,2.62,2.62,0,0,0,2.291,2.851,2.62,2.62,0,0,0,2.291-2.851A2.62,2.62,0,0,0,45.832,38.487Z" transform="translate(-16.956 -17.449)"/>
    <path id="Trazado_211097" data-name="Trazado 211097" d="M85.463,85.089c-.338-.12-.684-.245-1.029-.375V79.208a3.546,3.546,0,0,1,1.429.685,1.164,1.164,0,0,0,1.571-1.719,6.011,6.011,0,0,0-3-1.336V75.714a1.164,1.164,0,1,0-2.328,0v1.214c-.173.038-.348.082-.527.136a4.741,4.741,0,0,0-3.248,3.72A4.174,4.174,0,0,0,79.7,84.9a11.235,11.235,0,0,0,2.408,1.379v6.98a4.789,4.789,0,0,1-2.543-.954,1.164,1.164,0,1,0-1.275,1.948,7,7,0,0,0,3.818,1.338v1.259a1.164,1.164,0,1,0,2.328,0V95.5a5.7,5.7,0,0,0,4.476-4.678A5.008,5.008,0,0,0,85.463,85.089Zm-4.328-2.024a1.877,1.877,0,0,1-.515-1.85,2.464,2.464,0,0,1,1.487-1.871v4.342A7,7,0,0,1,81.135,83.064Zm5.479,7.368a3.422,3.422,0,0,1-2.18,2.646V87.193l.253.09A2.716,2.716,0,0,1,86.614,90.432Z" transform="translate(-34.594 -35.977)"/>
  </g>
</svg>
