<svg xmlns="http://www.w3.org/2000/svg" width="133" height="133" viewBox="0 0 133 133">
  <g id="Grupo_152975" data-name="Grupo 152975" transform="translate(-390.001 -5868)">
    <g id="Elipse_20135" data-name="Elipse 20135" transform="translate(390.001 5868)" fill="#fff" stroke="#6677d6" stroke-width="4">
      <circle cx="66.5" cy="66.5" r="66.5" stroke="none"/>
      <circle cx="66.5" cy="66.5" r="64.5" fill="none"/>
    </g>
    <g id="Grupo_151274" data-name="Grupo 151274" transform="translate(118.493 5557.454)">
      <g id="Grupo_151253" data-name="Grupo 151253" transform="translate(331.173 345.063)">
        <g id="Grupo_151243" data-name="Grupo 151243" transform="translate(0 43.564)">
          <path id="Trazado_203958" data-name="Trazado 203958" d="M1290.587,1289.415v1.938l-.012,14.019v.993l-38.354-.031,0-5.12,0-4.435.006-7v-.4h4.886l4.562,0h1.452l2.189,0,4.962,0h3.027l3.635,0H1279l2.936,0h3.319l2.1,0Z" transform="translate(-1252.209 -1289.43)" fill="#ffef0f" stroke="#030303" stroke-width="1"/>
          <path id="Trazado_203959" data-name="Trazado 203959" d="M1330.565,1323.1l-3.688,0h-1.659l-1.888,0h-4.83l-3.392,0h-.342l-1.894,0h-3.225l-1.723,0h-2.34l-1.832,0h-3.059l-2.306,0h-1.165v.624l0,1.647v4.531l0,2.51v4.479h2.514l1.964,0,4.342,0,20.835.017,3.151,0h1.327l0-4.478,0-4.833,0-3.19V1323.1Zm-.682,4.816,0,4.158a3.348,3.348,0,0,0-3.352,3.346l-20.229-.017h-.43l-2.687,0h-1.156a3.344,3.344,0,0,0-.086-.755,3.254,3.254,0,0,0-.223-.653,3.4,3.4,0,0,0-.208-.382,3.342,3.342,0,0,0-.67-.77,3.271,3.271,0,0,0-.465-.33q-.124-.073-.254-.136a3.33,3.33,0,0,0-1.441-.326v-4.158a3.361,3.361,0,0,0,.567-.048,3.307,3.307,0,0,0,1.066-.376,3.362,3.362,0,0,0,.559-.391h0a3.378,3.378,0,0,0,.474-.5,3.338,3.338,0,0,0,.476-.861l.011-.031a3.328,3.328,0,0,0,.2-1.135h.905l1.781,0h9.3l2.082,0,3.082,0h1.431l1.888,0h.811l3.221,0c0,.1,0,.2.014.3a3.349,3.349,0,0,0,3.333,3.051Z" transform="translate(-1295.098 -1321.49)" fill="#998f09" stroke="#030303" stroke-width="1"/>
          <path id="Trazado_210816" data-name="Trazado 210816" d="M4.386,0A4.6,4.6,0,0,1,8.773,4.781,4.6,4.6,0,0,1,4.386,9.563,4.6,4.6,0,0,1,0,4.781,4.6,4.6,0,0,1,4.386,0Z" transform="translate(14.798 3.709)" fill="#998f09" stroke="#030303" stroke-width="1"/>
          <g id="Grupo_151241" data-name="Grupo 151241" transform="translate(8.009 6.802)">
            <ellipse id="Elipse_13257" data-name="Elipse 13257" cx="1.542" cy="1.681" rx="1.542" ry="1.681" fill="#75b62f" stroke="#030303" stroke-width="1"/>
            <ellipse id="Elipse_13258" data-name="Elipse 13258" cx="1.542" cy="1.681" rx="1.542" ry="1.681" transform="translate(19.266 0.016)" fill="#998f09" stroke="#030303" stroke-width="1"/>
          </g>
          <g id="Grupo_151242" data-name="Grupo 151242" transform="translate(16.829 4.694)">
            <path id="Trazado_203960" data-name="Trazado 203960" d="M1615.463,1394.047a1.557,1.557,0,0,0-.278-.841,1.706,1.706,0,0,0-.469-.467,1.5,1.5,0,0,0-.224-.122,6.757,6.757,0,0,0-1.3-.361l-.153-.033a1.223,1.223,0,0,1-.526-.216l-.018-.018a.468.468,0,0,1-.132-.335.612.612,0,0,1,.007-.091q.067-.427.792-.428h0a1.018,1.018,0,0,1,.715.244.951.951,0,0,1,.205.278,1.289,1.289,0,0,1,.067.162l1.148-.382a2.325,2.325,0,0,0-.158-.351,1.915,1.915,0,0,0-.132-.2,1.784,1.784,0,0,0-.511-.47,2.3,2.3,0,0,0-.877-.3c-.053-.008-.106-.014-.161-.02v-.71h-.729v.72a1.944,1.944,0,0,0-1.226.594,1.778,1.778,0,0,0-.161.2,1.65,1.65,0,0,0-.267.595,1.908,1.908,0,0,0-.047.423,1.788,1.788,0,0,0,.035.357,1.536,1.536,0,0,0,.1.308,1.616,1.616,0,0,0,.244.4.971.971,0,0,0,.085.089,2.888,2.888,0,0,0,1.236.553c.11.028.227.055.349.08a2.389,2.389,0,0,1,.8.259.454.454,0,0,1,.2.4.506.506,0,0,1-.173.379.693.693,0,0,1-.057.049.879.879,0,0,1-.413.158,1.874,1.874,0,0,1-.282.019,1.068,1.068,0,0,1-1.175-.807l-.977.223-.276.063q.007.026.014.052a1.9,1.9,0,0,0,.928,1.227,2.766,2.766,0,0,0,1.057.308v.861h.729v-.861a2.2,2.2,0,0,0,1.5-.654,1.834,1.834,0,0,0,.5-1.252C1615.464,1394.092,1615.464,1394.069,1615.463,1394.047Z" transform="translate(-1610.735 -1389.381)" fill="#dce736" stroke="#030303" stroke-width="1"/>
          </g>
        </g>
        <path id="Trazado_203961" data-name="Trazado 203961" d="M1331.235,964.974l-4.731,2.08v1.636l-2.112.928-4.335,1.906-8.35,3.671-2.013.885-.716.315-.04.018-.792.348-.47.207-1.768.777-1.756.772-4.813,2.116-2.611,1.148-.505-1.15-1.555-3.536-1.785-4.06-.046-.1L1290.8,968.3l-.694-1.58-.042-.095-.159-.363.252-.111.27-.119.149-.065,2.821-1.24,6.486-2.852,2-.881,4.542-2,1.633-.717,6.217-2.733,2.821-1.24,3.038-1.336,4.878-2.144Z" transform="translate(-1288.135 -923.156)" stroke="#030303" stroke-width="1" opacity="0.3"/>
        <g id="Grupo_151246" data-name="Grupo 151246" transform="translate(1.689 26.072)">
          <path id="Trazado_203962" data-name="Trazado 203962" d="M1330.131,932.258l-.522.23-4.731,2.08-2.9,1.276-4.014,1.765-8.118,3.569-2.525,1.11-1.983.872-1.722.757-.262.115-1.633.718-6.7,2.945-2.061-4.686-1.23-2.8-.555-1.261-1.376-3.131-.7-1.581-.3-.687-.443-1.008-.159-.363.252-.111.418-.184,1.691-.744,1.13-.5.981-.431,4.176-1.836,1.329-.584,2-.881,4.543-2,.642-.282.99-.435,1.138-.5,3.328-1.463,1.751-.77.133-.058,2.688-1.182,1.627-.715,1.411-.621,1.919-.844,2.959-1.3.121.276.67,1.524,5.631,12.807Z" transform="translate(-1288.199 -916.742)" fill="#ffef0f" stroke="#030303" stroke-width="1"/>
          <path id="Trazado_203963" data-name="Trazado 203963" d="M1377.9,974.176l-1.945-4.425-1.272-2.893-.53-1.206-.722.317-3.377,1.484-.209.092-1.309.576-1.728.76-.293.129-1.017.447-.982.431-1.84.809-.29.128-3.1,1.365-.313.138-1.735.763-.544.239-1.09.48-.242.106-.331.146-.091.04-.313.138-.341.15-1.578.693-.5.22-.888.391h0l-.754.332-1.677.737-.02.009-1.537.676-.321.141-.164.073-.758.333-2.111.928-.932.41-.134.059.251.571.392.892.271.616.042.094.383.87.028.063.436.993.111.251.57,1.3.049.112.138.314.068.154,1.01,2.3.163.369.072.165.5,1.135.3.672.092.208.236.536.225.511.221.5.251-.11.638-.281,1.412-.621,1.8-.791.912-.4,2.444-1.075.618-.272.713-.313,1.386-.61,1.131-.5,1.516-.667,5.591-2.458,3.331-1.464,3.586-1.577,1.819-.8,2.884-1.268,1.215-.534Zm-3.407,2.652a3.331,3.331,0,0,0,.211,2.042l-4.556,2-3.586,1.576-3.331,1.465-3.088,1.357-1.932.849-1.964.864-.153.067-.3.133-1.889.831-.321.141-.934.411-.374.165a3.36,3.36,0,0,0-.382-.656,3.266,3.266,0,0,0-.467-.507,3.3,3.3,0,0,0-.345-.266,3.347,3.347,0,0,0-.923-.434,3.312,3.312,0,0,0-.559-.115c-.095-.011-.191-.019-.287-.022a3.338,3.338,0,0,0-1.45.282l-.137-.311-.555-1.262-.114-.258-.5-1.134-.065-.147-.088-.2-.217-.493a3.344,3.344,0,0,0,1.094-.772,3.4,3.4,0,0,0,.231-.274,3.319,3.319,0,0,0,.353-.583h0a3.387,3.387,0,0,0,.231-.651c.005-.023.011-.047.016-.071a3.329,3.329,0,0,0,.072-.91c0-.011,0-.022,0-.033a3.333,3.333,0,0,0-.276-1.119l.541-.238h0l.24-.105.047-.02,1.63-.717,1.558-.685.848-.373.525-.231.547-.24.734-.323.7-.308.634-.278.9-.395.66-.29,1.413-.621,1.906-.838,2.821-1.24.451-.2.042-.019.818-.359,1.728-.76.743-.327,2.947-1.3q.061.14.134.271a3.347,3.347,0,0,0,4.28,1.447l1.674,3.807A3.344,3.344,0,0,0,1374.494,976.828Z" transform="translate(-1340.339 -963.355)" fill="#998f09" stroke="#030303" stroke-width="1"/>
          <ellipse id="Elipse_13259" data-name="Elipse 13259" cx="4.386" cy="4.781" rx="4.386" ry="4.781" transform="translate(15.027 12.865) rotate(-23.732)" fill="#998f09" stroke="#030303" stroke-width="1"/>
          <g id="Grupo_151244" data-name="Grupo 151244" transform="translate(10.06 9.44)">
            <ellipse id="Elipse_13260" data-name="Elipse 13260" cx="1.542" cy="1.681" rx="1.542" ry="1.681" transform="translate(0 8.995) rotate(-23.731)" fill="#75b62f" stroke="#030303" stroke-width="1"/>
            <ellipse id="Elipse_13261" data-name="Elipse 13261" cx="1.542" cy="1.681" rx="1.542" ry="1.681" transform="translate(17.637 1.241) rotate(-23.732)" fill="#998f09" stroke="#030303" stroke-width="1"/>
          </g>
          <g id="Grupo_151245" data-name="Grupo 151245" transform="translate(18.418 11.85)">
            <path id="Trazado_203964" data-name="Trazado 203964" d="M1685.667,1172.71l-.016-.035a1.552,1.552,0,0,0-.606-.683,1.716,1.716,0,0,0-.617-.238,1.534,1.534,0,0,0-.254-.022,6.779,6.779,0,0,0-1.331.192l-.154.031a1.22,1.22,0,0,1-.568.015l-.024-.009a.465.465,0,0,1-.256-.253.56.56,0,0,1-.03-.086q-.111-.418.552-.71l0,0a1.017,1.017,0,0,1,.753-.065.957.957,0,0,1,.3.172,1.288,1.288,0,0,1,.127.121l.9-.812a2.346,2.346,0,0,0-.287-.258,1.893,1.893,0,0,0-.2-.134,1.769,1.769,0,0,0-.657-.224,2.285,2.285,0,0,0-.924.079c-.052.014-.1.029-.155.047l-.053-.12-.233-.53-.668.293.29.659a1.945,1.945,0,0,0-.882,1.038,1.794,1.794,0,0,0-.068.244,1.644,1.644,0,0,0-.005.653,1.907,1.907,0,0,0,.128.406,1.776,1.776,0,0,0,.176.313,1.552,1.552,0,0,0,.212.243,1.619,1.619,0,0,0,.382.264,1,1,0,0,0,.113.047,2.894,2.894,0,0,0,1.354.008q.168-.028.352-.068a2.383,2.383,0,0,1,.838-.086.454.454,0,0,1,.347.28.526.526,0,0,1-.039.485l-.013.023a.794.794,0,0,1-.2.216h0a1.624,1.624,0,0,1-.353.2,1.068,1.068,0,0,1-1.4-.265l-.8.6-.142.106-.087.064.034.042a1.9,1.9,0,0,0,1.378.751,2.8,2.8,0,0,0,1.057-.147l.347.788.667-.293-.347-.788a3.1,3.1,0,0,0,.585-.414,1.874,1.874,0,0,0,.478-2.137Z" transform="translate(-1680.569 -1169.184)" fill="#e8e6c4" stroke="#030303" stroke-width="1"/>
          </g>
        </g>
        <path id="Trazado_203965" data-name="Trazado 203965" d="M1360.524,625.164l.67,1.524-1.558,1.7-3.188,3.481-6.171,6.737-1.485,1.621-.288.315-.126.137-.787.859-.2.216h0l-1.373,1.5-1.3,1.424-3.515,3.838-1.583,1.728-.761-.7-.362-.332-3.775-3.458-2.254-2.065-1.016-.931-2.523-2.31-1.273-1.166-.534-.489.186-.2.309-.337,2.082-2.273,4.786-5.225,1.478-1.614,3.352-3.659,1.2-1.315,4.587-5.008,2.081-2.272,2.242-2.448,3.6-3.929,10.643,9.749.732.671Z" transform="translate(-1323.602 -598.815)" stroke="#030303" stroke-width="1" opacity="0.3"/>
        <g id="Grupo_151249" data-name="Grupo 151249" transform="translate(2.392 10.668)">
          <path id="Trazado_203966" data-name="Trazado 203966" d="M1341.586,600.037l-3.876,4.232-2.14,2.336-2.962,3.234-5.989,6.538-1.863,2.034-1.464,1.6-1.269,1.386-.195.212-1.205,1.315-4.943,5.4-3.776-3.458-2.254-2.065-1.016-.931-2.522-2.31-1.273-1.166-.534-.489-.831-.761-.292-.268.186-.2.309-.337,1.248-1.362.834-.911.723-.79,3.082-3.365.981-1.07,1.478-1.614,3.352-3.659.474-.517.731-.8.84-.917,2.456-2.681,1.291-1.41.1-.108,1.983-2.165,1.2-1.31,1.042-1.138,1.416-1.546,2.183-2.383.223.2.9.825.225.206,10.418,9.543Z" transform="translate(-1303.181 -588.588)" fill="#ffef0f" stroke="#030303" stroke-width="1"/>
          <path id="Trazado_203967" data-name="Trazado 203967" d="M1388.292,650.77l-3.564-3.265-2.433-2.229-.869-.8-.533.582-2.492,2.72-.154.168-.966,1.055-1.275,1.392-.217.237-.75.819-.724.791-1.357,1.482-.214.234-2.291,2.5-.231.253-1.279,1.4-.4.438-.8.879-.179.195-.245.268-.066.072-.231.252-.252.275-1.164,1.271-.368.4-.656.716h0l-.556.607-1.237,1.351-.015.016-1.134,1.238-.237.259-.121.132-.559.61-1.558,1.7-.688.751-.1.108.46.421.719.658.5.455.076.069.7.642.051.047.8.732.2.186,1.045.956.09.082.253.232.124.113,1.851,1.7.3.272.133.121.914.838.541.5.168.153.432.4.412.377.406.371.185-.2.471-.514,1.042-1.137,1.327-1.449.673-.735,1.8-1.969.456-.5.526-.574,1.023-1.117.834-.911,1.119-1.221,4.126-4.5,2.457-2.683,2.646-2.889,1.341-1.464,2.128-2.323.9-.979Zm-4.394,9.255-2.646,2.889-2.457,2.683-2.278,2.487-1.425,1.556-1.561,1.7-.1.11-.123.134-1.393,1.522-.237.258-.689.752-.276.3a3.35,3.35,0,0,0-.615-.446,3.272,3.272,0,0,0-.632-.276,3.368,3.368,0,0,0-2-.009c-.091.028-.182.06-.271.1a3.338,3.338,0,0,0-1.213.843l-.251-.23-1.016-.931-.208-.191-.913-.837-.119-.109-.161-.148-.4-.364a3.335,3.335,0,0,0,.878-2.167h0a3.385,3.385,0,0,0-.052-.689c0-.023-.009-.047-.014-.071a3.3,3.3,0,0,0-.3-.862l-.015-.029a3.316,3.316,0,0,0-.7-.913l.4-.437h0l.177-.193.034-.038,1.2-1.313,1.15-1.255.626-.683.388-.423.4-.44.542-.591.517-.564.467-.51.662-.723.487-.531,1.042-1.138,1.406-1.535,2.082-2.273.333-.364.031-.034.6-.658,1.275-1.392.548-.6,2.175-2.375q.112.1.232.194a3.349,3.349,0,0,0,4.5-.4l3.066,2.808a3.35,3.35,0,0,0,.208,4.732Z" transform="translate(-1355.78 -641.856)" fill="#998f09" stroke="#030303" stroke-width="1"/>
          <ellipse id="Elipse_13262" data-name="Elipse 13262" cx="4.386" cy="4.781" rx="4.386" ry="4.781" transform="translate(12.714 19.871) rotate(-47.512)" fill="#998f09" stroke="#030303" stroke-width="1"/>
          <g id="Grupo_151247" data-name="Grupo 151247" transform="translate(10.416 10.49)">
            <ellipse id="Elipse_13263" data-name="Elipse 13263" cx="1.542" cy="1.681" rx="1.542" ry="1.681" transform="matrix(0.675, -0.737, 0.737, 0.675, 0, 16.481)" fill="#75b62f" stroke="#030303" stroke-width="1"/>
            <ellipse id="Elipse_13264" data-name="Elipse 13264" cx="1.542" cy="1.681" rx="1.542" ry="1.681" transform="matrix(0.675, -0.737, 0.737, 0.675, 13.013, 2.274)" fill="#998f09" stroke="#030303" stroke-width="1"/>
          </g>
          <g id="Grupo_151248" data-name="Grupo 151248" transform="translate(16.164 16.884)">
            <path id="Trazado_203968" data-name="Trazado 203968" d="M1652.911,952.9a3.08,3.08,0,0,0,.368-.615,1.873,1.873,0,0,0-.423-2.148,1.6,1.6,0,0,0-.134-.111,1.545,1.545,0,0,0-.724-.3,1.714,1.714,0,0,0-.66.031,1.544,1.544,0,0,0-.242.083,6.779,6.779,0,0,0-1.141.712c-.045.032-.087.063-.128.09a1.225,1.225,0,0,1-.514.242h-.026a.465.465,0,0,1-.336-.129.545.545,0,0,1-.062-.067q-.27-.337.218-.873l0,0a1.013,1.013,0,0,1,.663-.363.94.94,0,0,1,.344.036,1.237,1.237,0,0,1,.165.06l.493-1.105a2.322,2.322,0,0,0-.366-.121,1.9,1.9,0,0,0-.239-.041,1.782,1.782,0,0,0-.692.06,2.3,2.3,0,0,0-.814.445c-.042.034-.082.069-.123.106l-.1-.089-.427-.391-.492.538.531.486a1.944,1.944,0,0,0-.389,1.306,1.79,1.79,0,0,0,.036.252,1.665,1.665,0,0,0,.258.6,1.933,1.933,0,0,0,.281.32,1.79,1.79,0,0,0,.287.215,1.57,1.57,0,0,0,.292.136,1.618,1.618,0,0,0,.457.087.868.868,0,0,0,.123,0,2.89,2.89,0,0,0,1.243-.538q.142-.094.294-.2a2.406,2.406,0,0,1,.733-.417.456.456,0,0,1,.431.117.481.481,0,0,1,.125.181.614.614,0,0,1,.034.278,1.126,1.126,0,0,1-.338.632l-.007.007a1.065,1.065,0,0,1-1.382.315l-.494.87-.088.155-.053.093.048.025a1.912,1.912,0,0,0,1.414.179,2.653,2.653,0,0,0,1.058-.608l.635.582.493-.537Z" transform="translate(-1647.523 -948.274)" fill="#e8e6c4" stroke="#030303" stroke-width="1"/>
          </g>
        </g>
        <path id="Trazado_203969" data-name="Trazado 203969" d="M1349.212,382.115l.225.206-.74,2.185-1.537,4.538-2.908,8.588-.708,2.089-.5,1.465-.311.917-.554,1.636-.6,1.778-1.75,5.166-.659,1.947-.857-.29-.465-.158L1333,410.541l-2.9-.981-1.305-.442-3.24-1.1-1.635-.554-.806-.273.089-.261.146-.433.989-2.92,2.273-6.711.7-2.073,1.592-4.7.572-1.689,2.178-6.433.989-2.919,1.064-3.144,1.709-5.047,13.791,4.67.94.319-1.841,5.435Z" transform="translate(-1319.79 -370.418)" stroke="#030303" stroke-width="1" opacity="0.3"/>
        <g id="Grupo_151252" data-name="Grupo 151252" transform="translate(2.005 0)">
          <path id="Trazado_203970" data-name="Trazado 203970" d="M1323.292,366.758l-1.841,5.435-1.016,3-1.407,4.154-2.844,8.4-.885,2.612-.7,2.053-.6,1.779-.092.273-.572,1.69-2.347,6.931-4.849-1.642-2.9-.981-1.306-.442-3.24-1.1-1.635-.554-.806-.273-.948-.321-.375-.127.088-.261.146-.433.989-2.92,2.273-6.711.7-2.073,1.592-4.7.572-1.689,2.178-6.433.989-2.919,1.064-3.144,1.709-5.047,1.323.448,13.791,4.67Z" transform="translate(-1294.936 -361.321)" fill="#ffef0f" stroke="#030303" stroke-width="1"/>
          <path id="Trazado_203971" data-name="Trazado 203971" d="M1361,417.7l-4.579-1.551-4.241-1.436-1.437,4.241-.532,1.571-.605,1.788-.459,1.356-.989,2.919-.1.3-1.2,3.537-.608,1.794-.191.562-.382,1.128-.085.251-.147.436-.11.324-.12.353-.553,1.632-.487,1.436h0l-.264.78-.588,1.735-.545,1.611-.113.332-.058.17-1.332,3.933-.047.139.591.2.923.313.637.216.1.033.9.305.065.022,1.027.348.26.088,1.341.454.115.039.325.11.159.054,2.378.806.382.129.17.057,1.174.4.7.236.215.073.555.188.529.179.52.176.088-.26.223-.661.495-1.461.63-1.86.32-.945.856-2.528.217-.64.25-.738.486-1.434.4-1.171.531-1.569,1.959-5.786,1.167-3.446,1.256-3.711.637-1.881,1.01-2.984.426-1.257Zm-6.42,28.347-.131.387a3.347,3.347,0,0,0-.742-.161,3.289,3.289,0,0,0-.69,0,3.39,3.39,0,0,0-.429.075,3.376,3.376,0,0,0-1.406.724q-.109.094-.209.2a3.333,3.333,0,0,0-.771,1.26l-.322-.109-1.305-.442-.268-.091-1.173-.4-.152-.052-.208-.07-.51-.173a3.337,3.337,0,0,0-.071-2.337,3.391,3.391,0,0,0-.325-.61l-.041-.06a3.335,3.335,0,0,0-1.661-1.24l.189-.56h0l.084-.248.588-1.735.546-1.612.3-.877.376-1.109.257-.76.467-1.379.314-.928.231-.683.5-1.462.667-1.972.989-2.919.172-.511.286-.846.605-1.788,1.293-3.819a3.349,3.349,0,0,0,4.247-2.1l3.939,1.333a3.349,3.349,0,0,0,2.1,4.246l-1.6,4.715-1.256,3.711-1.167,3.445-1.082,3.2-.677,2-.741,2.19-.106.313-.774,2.286Z" transform="translate(-1339.06 -412.212)" fill="#998f09" stroke="#030303" stroke-width="1"/>
          <ellipse id="Elipse_13265" data-name="Elipse 13265" cx="4.386" cy="4.781" rx="4.386" ry="4.781" transform="translate(8.243 23.503) rotate(-71.292)" fill="#998f09" stroke="#030303" stroke-width="1"/>
          <g id="Grupo_151250" data-name="Grupo 151250" transform="translate(9.002 9.759)">
            <ellipse id="Elipse_13266" data-name="Elipse 13266" cx="1.542" cy="1.681" rx="1.542" ry="1.681" transform="matrix(0.321, -0.947, 0.947, 0.321, 0, 21.169)" fill="#75b62f" stroke="#030303" stroke-width="1"/>
            <ellipse id="Elipse_13267" data-name="Elipse 13267" cx="1.542" cy="1.681" rx="1.542" ry="1.681" transform="translate(6.18 2.921) rotate(-71.291)" fill="#998f09" stroke="#030303" stroke-width="1"/>
          </g>
          <g id="Grupo_151251" data-name="Grupo 151251" transform="translate(10.469 18.225)">
            <path id="Trazado_203972" data-name="Trazado 203972" d="M1524.479,752.8a3.084,3.084,0,0,0,.089-.712,1.874,1.874,0,0,0-1.254-1.794,1.56,1.56,0,0,0-.95-.026,1.649,1.649,0,0,0-.78.467,6.775,6.775,0,0,0-.757,1.112l-.081.135a1.228,1.228,0,0,1-.373.429.467.467,0,0,1-.383.029.585.585,0,0,1-.084-.036q-.383-.2-.152-.886v0a.942.942,0,0,1,.789-.705,1.221,1.221,0,0,1,.175-.012l.006-1.21a2.3,2.3,0,0,0-.384.038,1.815,1.815,0,0,0-.844.393,2.307,2.307,0,0,0-.565.735c-.025.048-.047.1-.07.146l-.673-.228-.234.691.682.231a1.94,1.94,0,0,0,.171,1.351,1.691,1.691,0,0,0,.612.659,1.915,1.915,0,0,0,.386.179,1.745,1.745,0,0,0,.349.081,1.582,1.582,0,0,0,.775-.1.97.97,0,0,0,.112-.052,3.445,3.445,0,0,0,1.107-1.3,2.387,2.387,0,0,1,.5-.677.454.454,0,0,1,.441-.067.525.525,0,0,1,.331.356,1.122,1.122,0,0,1-.054.715,1.068,1.068,0,0,1-1.141.854l-.12,1.172-.011.107a2.057,2.057,0,0,0,2.144-1.386l.815.276.234-.69Z" transform="translate(-1517.958 -749.585)" fill="#eee99a" stroke="#030303" stroke-width="1"/>
          </g>
        </g>
      </g>
      <g id="Grupo_151254" data-name="Grupo 151254" transform="translate(304.128 344.263)">
        <path id="Trazado_203973" data-name="Trazado 203973" d="M725.453,385.962a19.111,19.111,0,0,1-7.468,14.487,25.96,25.96,0,0,1-15.632,5.206h-.085l-3.128,0v0a29.3,29.3,0,0,1-4.6-.437,27.206,27.206,0,0,1-3.72-.926q-.381-.124-.757-.26h0l-.158-.058a24.54,24.54,0,0,1-2.529-1.094l-.074-.037-.27-.139-.167-.088q-.31-.165-.614-.339l-.009-.005q-.358-.2-.708-.423-.823-.511-1.6-1.1-.171-.128-.339-.26-.759-.594-1.461-1.262-.222-.211-.436-.428t-.412-.428a20.352,20.352,0,0,1-2.074-2.619q-.142-.212-.277-.428t-.262-.428a19.173,19.173,0,0,1-1.3-2.62q-.087-.213-.167-.428t-.155-.428a17.6,17.6,0,0,1-.642-2.353c-.018-.089-.035-.178-.051-.268q-.04-.213-.073-.428t-.062-.428a16.253,16.253,0,0,1-.135-1.92q0-.351.008-.7c0-.143.011-.286.018-.428s.018-.286.03-.428a18.136,18.136,0,0,1,.254-1.877h0q.07-.374.155-.744.049-.215.1-.428t.112-.428a22.337,22.337,0,0,1,.9-2.623q.089-.216.182-.429c.063-.143.126-.286.192-.429a27.119,27.119,0,0,1,1.279-2.447l.1-.176q.125-.209.253-.416l.008-.013q.216-.348.441-.69a59.834,59.834,0,0,1,11.89-12.956,6.6,6.6,0,0,0,1.177-1.256,6.508,6.508,0,0,0,1.006-2.13c.013-.046.025-.093.036-.139q.041-.167.072-.337a12.916,12.916,0,0,0,.206-1.775c0-.025,0-.051,0-.076a11.84,11.84,0,0,0-.063-1.785q-.028-.247-.068-.5a10.587,10.587,0,0,0-2.221-5l0,0q-.286-.358-.615-.712a1.4,1.4,0,0,1,.149-2.045c.91-.736,2.408-1.31,4.438.036h0a8.994,8.994,0,0,1,1.365,1.135.01.01,0,0,0,.014,0l0,0a4.223,4.223,0,0,1,1.191-.944h0a4.265,4.265,0,0,1,5.091.83l.1.11a.01.01,0,0,0,.014,0l.112-.111a9.728,9.728,0,0,1,.766-.676c2.272-1.793,3.938-1.192,4.921-.4a1.4,1.4,0,0,1,.155,2.045,10.7,10.7,0,0,0-2.939,6.85,12.173,12.173,0,0,0,.038,1.809c.018.188.039.371.064.549.031.226.067.444.106.652.021.113.045.225.073.336a6.3,6.3,0,0,0,.263.831,6.426,6.426,0,0,0,.569,1.119c.051.081.1.161.16.24a6.592,6.592,0,0,0,1.235,1.329q1.267,1.034,2.5,2.15a57.814,57.814,0,0,1,9.424,10.771A22.274,22.274,0,0,1,725.453,385.962Z" transform="translate(-676.088 -344.263)" fill="#3d4780" stroke="#000" stroke-width="1"/>
        <path id="Trazado_203975" data-name="Trazado 203975" d="M1022.036,425.764,1021,425.5a10.6,10.6,0,0,0-2.289-5.5C1018.811,420.092,1021.167,421.345,1022.036,425.764Z" transform="translate(-1002.628 -416.442)" opacity="0.3"/>
        <path id="Trazado_203977" data-name="Trazado 203977" d="M1077.624,618.7c-.119.746-.608,3.407-1.685,4.641a.324.324,0,0,0,.335.526,3.421,3.421,0,0,0,2.109-2.25c1.178-2.9,2.089-4.154,2.841-4.228l-3.377,1.053A.324.324,0,0,0,1077.624,618.7Z" transform="translate(-1057.091 -604.567)" opacity="0.3"/>
        <path id="Trazado_203978" data-name="Trazado 203978" d="M1044.157,529.181l-13.986-1.233a1.173,1.173,0,0,1-1.063-1.268h0a1.173,1.173,0,0,1,1.268-1.063l13.986,1.233a1.173,1.173,0,0,1,1.063,1.268h0A1.173,1.173,0,0,1,1044.157,529.181Z" transform="translate(-1012.533 -517.1)" fill="#eee99a" stroke="#000" stroke-width="1"/>
        <path id="Trazado_203979" data-name="Trazado 203979" d="M1039.47,623.763l-14.04.02a1.174,1.174,0,0,1-1.172-1.168h0a1.173,1.173,0,0,1,1.168-1.172l14.04-.02a1.173,1.173,0,0,1,1.172,1.168h0A1.174,1.174,0,0,1,1039.47,623.763Z" transform="translate(-1007.914 -608.413)" fill="#eee99a" stroke="#000" stroke-width="1"/>
        <path id="Trazado_203980" data-name="Trazado 203980" d="M1146.957,565.709l-12.277-6.811a1.174,1.174,0,0,1-.455-1.591h0a1.173,1.173,0,0,1,1.591-.455l12.277,6.811a1.173,1.173,0,0,1,.455,1.591h0A1.173,1.173,0,0,1,1146.957,565.709Z" transform="translate(-1112.579 -546.734)" fill="#eee99a" stroke="#000" stroke-width="1"/>
        <path id="Trazado_203981" data-name="Trazado 203981" d="M1238.823,580.533l-3.306-8.543a1.173,1.173,0,0,1,.669-1.513h0a1.173,1.173,0,0,1,1.513.669l3.306,8.543a1.173,1.173,0,0,1-.669,1.513h0A1.173,1.173,0,0,1,1238.823,580.533Z" transform="translate(-1209.183 -559.783)" fill="#eee99a" stroke="#000" stroke-width="1"/>
        <path id="Trazado_203982" data-name="Trazado 203982" d="M1093.061,951.431c0-2.495-1.422-3.979-4.88-5.094-2.557-.838-3.072-1.332-3.074-2.405a1.657,1.657,0,0,1,1.87-1.677,1.992,1.992,0,0,1,2.233,1.923l3.454-.005c-.114-2.14-1.373-3.825-4.1-4.281h0l0-1.652-2.888,0,0,1.629h0c-2.394.4-4.112,1.946-4.108,4.465,0,2.384,1.294,3.763,5.071,5.007,2.259.742,2.888,1.364,2.89,2.589,0,1.013-.515,1.855-2.228,1.858a2.449,2.449,0,0,1-2.63-2.216l-3.455.005c.193,2.536,1.81,4.2,4.557,4.609l0,2.062,2.9,0,0-2.059h0C1091.317,955.808,1093.065,954.319,1093.061,951.431Z" transform="translate(-1062.203 -910.359)" fill="#eee99a" stroke="#000" stroke-width="1"/>
        <path id="Trazado_203983" data-name="Trazado 203983" d="M1039.525,577.328l-14.022-.71a1.174,1.174,0,0,1-1.109-1.228h0a1.173,1.173,0,0,1,1.228-1.109l14.022.71a1.174,1.174,0,0,1,1.109,1.228h0A1.173,1.173,0,0,1,1039.525,577.328Z" transform="translate(-1008.042 -563.482)" fill="#eee99a" stroke="#000" stroke-width="1"/>
      </g>
      <path id="Trazado_203984" data-name="Trazado 203984" d="M449.559,1008.055l0,2.059a.71.71,0,0,1-.709.711l-3.919.006a.71.71,0,0,1,.711.709l0,2.059a.722.722,0,0,1-.008.105.711.711,0,0,1-.7.605l1.6,0a.71.71,0,0,1,.711.709l0,2.059a.71.71,0,0,1-.709.711l-2.865,0a.71.71,0,0,1,.711.709l0,2.059a.7.7,0,0,1-.008.1.71.71,0,0,1-.7.606l4.779-.007a.71.71,0,0,1,.711.709l0,2.059a.71.71,0,0,1-.709.711l-3.033,0a.71.71,0,0,1,.711.709l0,2.059a.716.716,0,0,1-.007.1.712.712,0,0,1-.476.568.7.7,0,0,1-.226.037l3.033,0a.71.71,0,0,1,.711.709v.706q-.381-.124-.757-.26h0l-.158-.057,0,1.066a.71.71,0,0,1-.709.711l-18.293.026a.713.713,0,0,1-.008-.1l0-2.059a.71.71,0,0,1,.709-.711l-1.617,0c0-.013,0-.026.007-.039s0-.022.008-.032a.249.249,0,0,1,.007-.025.2.2,0,0,1,.007-.022l0-.01.01-.026.011-.025a.662.662,0,0,1,.045-.087c.011-.018.022-.035.035-.052l.019-.025.02-.023.02-.022h0l.022-.021.023-.021.023-.019a.709.709,0,0,1,.207-.115l.022-.007h0l.031-.009.038-.009.022,0,.045-.006.023,0,.049,0-2.82,0a.713.713,0,0,1-.008-.1l0-2.059a.71.71,0,0,1,.709-.711l3.033,0a.711.711,0,0,1-.7-.6.724.724,0,0,1-.008-.1l0-2.059a.71.71,0,0,1,.709-.712l-1.617,0a.71.71,0,0,1,.7-.606l-4.566.007a.71.71,0,0,1-.008-.1l0-2.059a.711.711,0,0,1,.709-.712l2.865,0a.708.708,0,0,1-.711-.708l0-2.059a.71.71,0,0,1,.708-.711l-1.6,0h-.014a.71.71,0,0,1,.7-.606l-1.39,0a.707.707,0,0,1-.008-.1l0-2.059a.71.71,0,0,1,.709-.711l3.919-.006a.709.709,0,0,1-.711-.709l0-2.059a.71.71,0,0,1,.709-.711l-1.617,0a.71.71,0,0,1,.7-.606l-3.62.005a.719.719,0,0,1-.008-.1l0-2.059a.71.71,0,0,1,.709-.711l-1.617,0a.71.71,0,0,1,.7-.606l-3.029,0a.707.707,0,0,1-.008-.1l0-2.059a.71.71,0,0,1,.709-.711l18.506-.027a.71.71,0,0,1,.711.709l0,2.059a.71.71,0,0,1-.615.7.671.671,0,0,1-.094.006l3.241,0a.71.71,0,0,1,.711.709l0,2.058a.707.707,0,0,1-.136.419.69.69,0,0,1-.1.114.709.709,0,0,1-.468.177l3.833-.006A.71.71,0,0,1,449.559,1008.055Z" transform="translate(-130.321 -625.337)" opacity="0.3"/>
      <g id="Grupo_151273" data-name="Grupo 151273" transform="translate(291.311 374.459)">
        <g id="Grupo_151256" data-name="Grupo 151256" transform="translate(6.711 27.819)">
          <path id="Trazado_203985" data-name="Trazado 203985" d="M565.951,1590l0,1.63a.71.71,0,0,1-.709.711l-18.506.027a.71.71,0,0,1-.711-.709l0-1.63a.71.71,0,0,1,.708-.711l18.506-.027a.711.711,0,0,1,.711.709Z" transform="translate(-546.024 -1588.865)" fill="#e86d00" stroke="#030303" stroke-width="1"/>
          <g id="Grupo_151255" data-name="Grupo 151255">
            <path id="Trazado_203986" data-name="Trazado 203986" d="M565.937,1580.879l0,1.63a.71.71,0,0,1-.709.711l-18.506.027a.71.71,0,0,1-.711-.708l0-1.63c0-.013,0-.025,0-.038s0-.023,0-.035,0-.021,0-.033,0-.026.007-.04,0-.022.008-.032a.234.234,0,0,1,.007-.025c0-.007,0-.014.007-.022l0-.01.01-.026.011-.025a.651.651,0,0,1,.045-.087c.011-.018.022-.035.035-.051l.019-.025.02-.024.02-.022v0l.022-.021.023-.021.023-.019a.706.706,0,0,1,.207-.115l.022-.007h0l.031-.009.038-.009.022,0,.045-.006.023,0,.049,0,18.506-.027a.708.708,0,0,1,.711.709Z" transform="translate(-546.011 -1580.17)" fill="#ffef0f" stroke="#030303" stroke-width="1"/>
            <path id="Trazado_203987" data-name="Trazado 203987" d="M549.047,1583.721l-2.323,0a.71.71,0,0,1-.711-.709l0-1.63c0-.013,0-.026,0-.038s0-.023,0-.035,0-.022,0-.033,0-.026.007-.04,0-.022.008-.032,0-.016.007-.025,0-.014.007-.022l0-.01.01-.026.011-.025a.662.662,0,0,1,.045-.087c.011-.018.022-.035.035-.052l.019-.025.02-.023.02-.022h0l.022-.021.023-.021.023-.019a.706.706,0,0,1,.207-.115l.022-.007h0l.031-.009.038-.009.022,0,.045-.006.023,0,.049,0,2.323,0a.71.71,0,0,0-.708.711l0,1.63A.71.71,0,0,0,549.047,1583.721Z" transform="translate(-546.011 -1580.647)" fill="#ffef0f" stroke="#030303" stroke-width="1"/>
            <path id="Trazado_203988" data-name="Trazado 203988" d="M610.165,1580.967l0,1.63a.71.71,0,0,1-.709.711l-13.25.019a.71.71,0,0,1-.711-.708l0-1.63a.71.71,0,0,1,.709-.711l13.25-.019A.71.71,0,0,1,610.165,1580.967Z" transform="translate(-593.172 -1580.254)" fill="#ffef0f" stroke="#030303" stroke-width="1"/>
            <path id="Trazado_203989" data-name="Trazado 203989" d="M610.165,1580.967l0,1.63a.71.71,0,0,1-.709.711l-13.25.019a.71.71,0,0,1-.711-.708l0-1.63a.71.71,0,0,1,.709-.711l13.25-.019A.71.71,0,0,1,610.165,1580.967Z" transform="translate(-593.172 -1580.254)" fill="#ffef0f" stroke="#030303" stroke-width="1"/>
          </g>
        </g>
        <g id="Grupo_151258" data-name="Grupo 151258" transform="translate(3.674 24.344)">
          <path id="Trazado_203990" data-name="Trazado 203990" d="M501.242,1515.992l0,1.63a.71.71,0,0,1-.709.711l-18.506.027a.71.71,0,0,1-.711-.708l0-1.63a.71.71,0,0,1,.708-.711l18.506-.027A.71.71,0,0,1,501.242,1515.992Z" transform="translate(-481.315 -1514.854)" fill="#ffef0f" stroke="#030303" stroke-width="1"/>
          <g id="Grupo_151257" data-name="Grupo 151257">
            <path id="Trazado_203991" data-name="Trazado 203991" d="M501.228,1506.866l0,1.63a.71.71,0,0,1-.709.711l-18.506.027a.71.71,0,0,1-.711-.709l0-1.63a.71.71,0,0,1,.709-.711l18.506-.027A.71.71,0,0,1,501.228,1506.866Z" transform="translate(-481.302 -1506.157)" fill="#ffef0f" stroke="#030303" stroke-width="1"/>
            <path id="Trazado_203992" data-name="Trazado 203992" d="M484.338,1509.708l-2.323,0a.71.71,0,0,1-.711-.708l0-1.63a.71.71,0,0,1,.709-.711l2.323,0a.71.71,0,0,0-.709.711l0,1.63A.71.71,0,0,0,484.338,1509.708Z" transform="translate(-481.302 -1506.634)" fill="#ffef0f" stroke="#030303" stroke-width="1"/>
            <path id="Trazado_203993" data-name="Trazado 203993" d="M545.453,1506.957l0,1.63a.71.71,0,0,1-.709.711l-13.25.019a.71.71,0,0,1-.711-.709l0-1.63a.71.71,0,0,1,.709-.711l13.25-.019A.71.71,0,0,1,545.453,1506.957Z" transform="translate(-528.46 -1506.244)" fill="#ffef0f" stroke="#030303" stroke-width="1"/>
            <path id="Trazado_203994" data-name="Trazado 203994" d="M545.453,1506.957l0,1.63a.71.71,0,0,1-.709.711l-13.25.019a.71.71,0,0,1-.711-.709l0-1.63a.71.71,0,0,1,.709-.711l13.25-.019A.71.71,0,0,1,545.453,1506.957Z" transform="translate(-528.46 -1506.244)" fill="#ffef0f" stroke="#030303" stroke-width="1"/>
          </g>
        </g>
        <g id="Grupo_151260" data-name="Grupo 151260" transform="translate(6.701 20.861)">
          <path id="Trazado_203995" data-name="Trazado 203995" d="M565.026,1441.086l-2.934,0-13.25.019-2.323,0a.71.71,0,0,0-.709.711l0,1.63a.71.71,0,0,0,.711.709l2.323,0,13.25-.019,2.934,0a.71.71,0,0,0,.709-.711l0-1.63A.71.71,0,0,0,565.026,1441.086Z" transform="translate(-545.81 -1440.658)" fill="#ffef0f" stroke="#030303" stroke-width="1"/>
          <g id="Grupo_151259" data-name="Grupo 151259">
            <path id="Trazado_203996" data-name="Trazado 203996" d="M565.722,1432.669l0,1.63a.71.71,0,0,1-.709.711l-18.506.027a.71.71,0,0,1-.711-.708l0-1.63a.732.732,0,0,1,.008-.105.71.71,0,0,1,.7-.606l18.506-.027a.708.708,0,0,1,.711.709Z" transform="translate(-545.796 -1431.96)" fill="#ffef0f" stroke="#030303" stroke-width="1"/>
            <path id="Trazado_203997" data-name="Trazado 203997" d="M548.832,1435.511l-2.323,0a.71.71,0,0,1-.711-.708l0-1.63a.736.736,0,0,1,.008-.105.71.71,0,0,1,.7-.605l2.323,0a.71.71,0,0,0-.709.711l0,1.63A.71.71,0,0,0,548.832,1435.511Z" transform="translate(-545.796 -1432.438)" fill="#ffef0f" stroke="#030303" stroke-width="1"/>
            <path id="Trazado_203998" data-name="Trazado 203998" d="M609.949,1432.759l0,1.63a.71.71,0,0,1-.709.711l-13.25.019a.71.71,0,0,1-.711-.708l0-1.63a.71.71,0,0,1,.709-.711l13.25-.019A.71.71,0,0,1,609.949,1432.759Z" transform="translate(-592.956 -1432.046)" fill="#ffef0f" stroke="#030303" stroke-width="1"/>
            <path id="Trazado_203999" data-name="Trazado 203999" d="M609.949,1432.759l0,1.63a.71.71,0,0,1-.709.711l-13.25.019a.71.71,0,0,1-.711-.708l0-1.63a.71.71,0,0,1,.709-.711l13.25-.019A.71.71,0,0,1,609.949,1432.759Z" transform="translate(-592.956 -1432.046)" fill="#ffef0f" stroke="#030303" stroke-width="1"/>
          </g>
        </g>
        <g id="Grupo_151262" data-name="Grupo 151262" transform="translate(1.917 17.39)">
          <path id="Trazado_204000" data-name="Trazado 204000" d="M463.825,1367.836l0,1.63a.71.71,0,0,1-.709.711l-18.506.027a.71.71,0,0,1-.711-.709l0-1.63a.71.71,0,0,1,.709-.711l18.506-.027A.71.71,0,0,1,463.825,1367.836Z" transform="translate(-443.898 -1366.699)" fill="#ffef0f" stroke="#030303" stroke-width="1"/>
          <g id="Grupo_151261" data-name="Grupo 151261">
            <path id="Trazado_204001" data-name="Trazado 204001" d="M463.815,1358.711l0,1.63a.71.71,0,0,1-.709.711l-18.506.027a.71.71,0,0,1-.711-.709l0-1.63a.71.71,0,0,1,.709-.711L463.1,1358A.71.71,0,0,1,463.815,1358.711Z" transform="translate(-443.889 -1358.002)" fill="#ffef0f" stroke="#030303" stroke-width="1"/>
            <path id="Trazado_204002" data-name="Trazado 204002" d="M446.925,1361.554l-2.323,0a.71.71,0,0,1-.711-.709l0-1.63a.71.71,0,0,1,.709-.711l2.323,0a.71.71,0,0,0-.709.711l0,1.63A.71.71,0,0,0,446.925,1361.554Z" transform="translate(-443.889 -1358.48)" fill="#ffef0f" stroke="#030303" stroke-width="1"/>
            <path id="Trazado_204003" data-name="Trazado 204003" d="M508.04,1358.8l0,1.63a.71.71,0,0,1-.709.711l-13.25.019a.71.71,0,0,1-.711-.709l0-1.63a.71.71,0,0,1,.709-.711l13.25-.019A.71.71,0,0,1,508.04,1358.8Z" transform="translate(-491.047 -1358.089)" fill="#ffef0f" stroke="#030303" stroke-width="1"/>
            <path id="Trazado_204004" data-name="Trazado 204004" d="M508.04,1358.8l0,1.63a.71.71,0,0,1-.709.711l-13.25.019a.71.71,0,0,1-.711-.709l0-1.63a.71.71,0,0,1,.709-.711l13.25-.019A.71.71,0,0,1,508.04,1358.8Z" transform="translate(-491.047 -1358.089)" fill="#ffef0f" stroke="#030303" stroke-width="1"/>
          </g>
        </g>
        <g id="Grupo_151264" data-name="Grupo 151264" transform="translate(4.778 13.907)">
          <path id="Trazado_204005" data-name="Trazado 204005" d="M524.058,1292.937l-2.934,0-13.25.019-2.323,0a.71.71,0,0,0-.709.711l0,1.63a.71.71,0,0,0,.711.709l2.323,0,13.25-.019,2.934,0a.71.71,0,0,0,.709-.711l0-1.63A.71.71,0,0,0,524.058,1292.937Z" transform="translate(-504.842 -1292.508)" fill="#ffef0f" stroke="#030303" stroke-width="1"/>
          <g id="Grupo_151263" data-name="Grupo 151263">
            <path id="Trazado_204006" data-name="Trazado 204006" d="M524.757,1284.519l0,1.63a.71.71,0,0,1-.709.711l-18.506.027a.71.71,0,0,1-.711-.708l0-1.63a.709.709,0,0,1,.709-.711l18.506-.027h.015a.71.71,0,0,1,.689.6A.723.723,0,0,1,524.757,1284.519Z" transform="translate(-504.831 -1283.81)" fill="#ffef0f" stroke="#030303" stroke-width="1"/>
            <path id="Trazado_204007" data-name="Trazado 204007" d="M507.867,1287.361l-2.323,0a.71.71,0,0,1-.711-.708l0-1.63a.709.709,0,0,1,.709-.712l2.323,0a.71.71,0,0,0-.709.711l0,1.63A.71.71,0,0,0,507.867,1287.361Z" transform="translate(-504.831 -1284.287)" fill="#ffef0f" stroke="#030303" stroke-width="1"/>
            <path id="Trazado_204008" data-name="Trazado 204008" d="M568.981,1284.609l0,1.63a.71.71,0,0,1-.709.711l-13.25.019a.71.71,0,0,1-.711-.708l0-1.63a.71.71,0,0,1,.709-.711l13.25-.019A.71.71,0,0,1,568.981,1284.609Z" transform="translate(-551.988 -1283.896)" fill="#ffef0f" stroke="#030303" stroke-width="1"/>
            <path id="Trazado_204009" data-name="Trazado 204009" d="M568.981,1284.609l0,1.63a.71.71,0,0,1-.709.711l-13.25.019a.71.71,0,0,1-.711-.708l0-1.63a.71.71,0,0,1,.709-.711l13.25-.019A.71.71,0,0,1,568.981,1284.609Z" transform="translate(-551.988 -1283.896)" fill="#ffef0f" stroke="#030303" stroke-width="1"/>
          </g>
        </g>
        <g id="Grupo_151266" data-name="Grupo 151266" transform="translate(3.17 10.431)">
          <path id="Trazado_204010" data-name="Trazado 204010" d="M490.52,1219.588l0,1.63a.71.71,0,0,1-.709.711l-18.506.027a.71.71,0,0,1-.711-.708l0-1.63a.71.71,0,0,1,.709-.711l18.506-.027A.71.71,0,0,1,490.52,1219.588Z" transform="translate(-470.593 -1218.451)" fill="#ffef0f" stroke="#030303" stroke-width="1"/>
          <g id="Grupo_151265" data-name="Grupo 151265">
            <path id="Trazado_204011" data-name="Trazado 204011" d="M490.509,1210.464l0,1.63a.71.71,0,0,1-.709.711l-18.506.027a.71.71,0,0,1-.711-.708l0-1.63a.71.71,0,0,1,.709-.711l18.506-.027A.71.71,0,0,1,490.509,1210.464Z" transform="translate(-470.583 -1209.755)" fill="#ffef0f" stroke="#030303" stroke-width="1"/>
            <path id="Trazado_204012" data-name="Trazado 204012" d="M473.619,1213.306l-2.323,0a.71.71,0,0,1-.711-.709l0-1.63a.71.71,0,0,1,.709-.711l2.323,0a.71.71,0,0,0-.709.711l0,1.63A.71.71,0,0,0,473.619,1213.306Z" transform="translate(-470.583 -1210.232)" fill="#ffef0f" stroke="#030303" stroke-width="1"/>
            <path id="Trazado_204013" data-name="Trazado 204013" d="M534.734,1210.555l0,1.63a.71.71,0,0,1-.709.711l-13.25.019a.71.71,0,0,1-.711-.709l0-1.63a.71.71,0,0,1,.709-.711l13.25-.019A.71.71,0,0,1,534.734,1210.555Z" transform="translate(-517.741 -1209.842)" fill="#ffef0f" stroke="#030303" stroke-width="1"/>
            <path id="Trazado_204014" data-name="Trazado 204014" d="M534.734,1210.555l0,1.63a.71.71,0,0,1-.709.711l-13.25.019a.71.71,0,0,1-.711-.709l0-1.63a.71.71,0,0,1,.709-.711l13.25-.019A.71.71,0,0,1,534.734,1210.555Z" transform="translate(-517.741 -1209.842)" fill="#ffef0f" stroke="#030303" stroke-width="1"/>
          </g>
        </g>
        <g id="Grupo_151268" data-name="Grupo 151268" transform="translate(7.085 6.947)">
          <path id="Trazado_204015" data-name="Trazado 204015" d="M573.2,1144.657l-2.934,0-13.25.019-2.323,0a.71.71,0,0,0-.709.711l0,1.63a.71.71,0,0,0,.711.708l2.323,0,13.25-.019,2.934,0a.71.71,0,0,0,.709-.711l0-1.63A.71.71,0,0,0,573.2,1144.657Z" transform="translate(-553.984 -1144.228)" fill="#ffef0f" stroke="#030303" stroke-width="1"/>
          <g id="Grupo_151267" data-name="Grupo 151267">
            <path id="Trazado_204016" data-name="Trazado 204016" d="M573.9,1136.238l0,1.63a.71.71,0,0,1-.709.711l-18.506.027a.71.71,0,0,1-.711-.709l0-1.63a.709.709,0,0,1,.708-.711l18.506-.027a.709.709,0,0,1,.711.709Z" transform="translate(-553.973 -1135.529)" fill="#ffef0f" stroke="#030303" stroke-width="1"/>
            <path id="Trazado_204017" data-name="Trazado 204017" d="M557.009,1139.08l-2.323,0a.71.71,0,0,1-.711-.709l0-1.63a.718.718,0,0,1,.008-.105.71.71,0,0,1,.7-.606l2.323,0a.71.71,0,0,0-.709.712l0,1.63A.71.71,0,0,0,557.009,1139.08Z" transform="translate(-553.973 -1136.006)" fill="#ffef0f" stroke="#030303" stroke-width="1"/>
            <path id="Trazado_204018" data-name="Trazado 204018" d="M618.122,1136.329l0,1.63a.71.71,0,0,1-.709.711l-13.25.019a.71.71,0,0,1-.711-.709l0-1.63a.71.71,0,0,1,.709-.711l13.25-.019A.71.71,0,0,1,618.122,1136.329Z" transform="translate(-601.129 -1135.616)" fill="#ffef0f" stroke="#030303" stroke-width="1"/>
            <path id="Trazado_204019" data-name="Trazado 204019" d="M618.122,1136.329l0,1.63a.71.71,0,0,1-.709.711l-13.25.019a.71.71,0,0,1-.711-.709l0-1.63a.71.71,0,0,1,.709-.711l13.25-.019A.71.71,0,0,1,618.122,1136.329Z" transform="translate(-601.129 -1135.616)" fill="#ffef0f" stroke="#030303" stroke-width="1"/>
          </g>
        </g>
        <g id="Grupo_151270" data-name="Grupo 151270" transform="translate(3.247 3.474)">
          <path id="Trazado_204020" data-name="Trazado 204020" d="M492.151,1071.385l0,1.63a.71.71,0,0,1-.709.711l-18.506.027a.71.71,0,0,1-.711-.708l0-1.63a.71.71,0,0,1,.709-.711l18.506-.027a.71.71,0,0,1,.711.709Z" transform="translate(-472.224 -1070.247)" fill="#ffef0f" stroke="#030303" stroke-width="1"/>
          <g id="Grupo_151269" data-name="Grupo 151269">
            <path id="Trazado_204021" data-name="Trazado 204021" d="M492.138,1062.252l0,1.63a.71.71,0,0,1-.709.711l-18.506.027a.71.71,0,0,1-.711-.709l0-1.63a.722.722,0,0,1,.007-.105.71.71,0,0,1,.7-.606l18.506-.027a.71.71,0,0,1,.7.6A.733.733,0,0,1,492.138,1062.252Z" transform="translate(-472.212 -1061.543)" fill="#ffef0f" stroke="#030303" stroke-width="1"/>
            <path id="Trazado_204022" data-name="Trazado 204022" d="M475.247,1065.094l-2.322,0a.71.71,0,0,1-.711-.709l0-1.63a.722.722,0,0,1,.007-.106.71.71,0,0,1,.7-.606l2.322,0a.711.711,0,0,0-.709.711l0,1.63A.71.71,0,0,0,475.247,1065.094Z" transform="translate(-472.212 -1062.02)" fill="#ffef0f" stroke="#030303" stroke-width="1"/>
            <path id="Trazado_204023" data-name="Trazado 204023" d="M536.359,1062.344l0,1.63a.71.71,0,0,1-.709.711l-13.25.019a.71.71,0,0,1-.711-.709l0-1.63a.71.71,0,0,1,.709-.711l13.25-.019A.71.71,0,0,1,536.359,1062.344Z" transform="translate(-519.366 -1061.631)" fill="#ffef0f" stroke="#030303" stroke-width="1"/>
            <path id="Trazado_204024" data-name="Trazado 204024" d="M536.359,1062.344l0,1.63a.71.71,0,0,1-.709.711l-13.25.019a.71.71,0,0,1-.711-.709l0-1.63a.71.71,0,0,1,.709-.711l13.25-.019A.71.71,0,0,1,536.359,1062.344Z" transform="translate(-519.366 -1061.631)" fill="#ffef0f" stroke="#030303" stroke-width="1"/>
          </g>
        </g>
        <g id="Grupo_151272" data-name="Grupo 151272" transform="translate(0 0)">
          <path id="Trazado_204025" data-name="Trazado 204025" d="M422.98,997.38l0,1.63a.71.71,0,0,1-.709.711l-18.506.027a.71.71,0,0,1-.711-.708l0-1.63a.71.71,0,0,1,.709-.711l18.506-.027a.711.711,0,0,1,.711.709Z" transform="translate(-403.053 -996.242)" fill="#ffef0f" stroke="#030303" stroke-width="1"/>
          <g id="Grupo_151271" data-name="Grupo 151271">
            <path id="Trazado_204026" data-name="Trazado 204026" d="M422.969,988.249l0,1.63a.71.71,0,0,1-.709.711l-18.506.027a.71.71,0,0,1-.711-.708l0-1.63a.71.71,0,0,1,.709-.711l18.506-.027A.71.71,0,0,1,422.969,988.249Z" transform="translate(-403.043 -987.54)" fill="#ffef0f" stroke="#030303" stroke-width="1"/>
            <path id="Trazado_204027" data-name="Trazado 204027" d="M406.079,991.091l-2.323,0a.71.71,0,0,1-.711-.708l0-1.63a.71.71,0,0,1,.709-.711l2.323,0a.71.71,0,0,0-.709.711l0,1.63A.71.71,0,0,0,406.079,991.091Z" transform="translate(-403.043 -988.017)" fill="#ffef0f" stroke="#030303" stroke-width="1"/>
            <path id="Trazado_204028" data-name="Trazado 204028" d="M467.194,988.34l0,1.63a.71.71,0,0,1-.709.711l-13.25.019a.71.71,0,0,1-.711-.708l0-1.63a.71.71,0,0,1,.709-.711l13.25-.019A.71.71,0,0,1,467.194,988.34Z" transform="translate(-450.201 -987.627)" fill="#ffef0f" stroke="#030303" stroke-width="1"/>
            <path id="Trazado_204029" data-name="Trazado 204029" d="M467.194,988.34l0,1.63a.71.71,0,0,1-.709.711l-13.25.019a.71.71,0,0,1-.711-.708l0-1.63a.71.71,0,0,1,.709-.711l13.25-.019A.71.71,0,0,1,467.194,988.34Z" transform="translate(-450.201 -987.627)" fill="#ffef0f" stroke="#030303" stroke-width="1"/>
          </g>
        </g>
      </g>
    </g>
  </g>
</svg>
