<svg xmlns="http://www.w3.org/2000/svg" width="133" height="133" viewBox="0 0 133 133">
  <g id="Grupo_152982" data-name="Grupo 152982" transform="translate(-1088.001 -3633)">
    <g id="Elipse_20137" data-name="Elipse 20137" transform="translate(1088.001 3633)" fill="#fff" stroke="#6677d6" stroke-width="4">
      <circle cx="66.5" cy="66.5" r="66.5" stroke="none"/>
      <circle cx="66.5" cy="66.5" r="64.5" fill="none"/>
    </g>
    <g id="Grupo_152217" data-name="Grupo 152217" transform="translate(996.039 3584.776)">
      <g id="Grupo_152216" data-name="Grupo 152216" transform="translate(113.96 85.572)">
        <g id="Grupo_152204" data-name="Grupo 152204" transform="translate(13.784)">
          <g id="Grupo_152203" data-name="Grupo 152203">
            <g id="Grupo_152202" data-name="Grupo 152202">
              <g id="Grupo_152198" data-name="Grupo 152198" transform="translate(4.114)">
                <g id="Grupo_152197" data-name="Grupo 152197">
                  <path id="Rectángulo_44805" data-name="Rectángulo 44805" d="M1.449,0H2.711A1.449,1.449,0,0,1,4.16,1.449V7.527A1.448,1.448,0,0,1,2.712,8.976H1.449A1.449,1.449,0,0,1,0,7.526V1.449A1.449,1.449,0,0,1,1.449,0Z" fill="#c6412a" stroke="#000" stroke-width="1"/>
                  <path id="Rectángulo_44806" data-name="Rectángulo 44806" d="M1.449,0H2.711A1.449,1.449,0,0,1,4.16,1.449V7.527A1.448,1.448,0,0,1,2.712,8.976H1.449A1.449,1.449,0,0,1,0,7.526V1.449A1.449,1.449,0,0,1,1.449,0Z" transform="translate(8.538)" fill="#c6412a" stroke="#000" stroke-width="1"/>
                  <path id="Rectángulo_44807" data-name="Rectángulo 44807" d="M1.449,0H2.711A1.449,1.449,0,0,1,4.16,1.449V7.527A1.448,1.448,0,0,1,2.712,8.976H1.449A1.449,1.449,0,0,1,0,7.526V1.449A1.449,1.449,0,0,1,1.449,0Z" transform="translate(17.076)" fill="#c6412a" stroke="#000" stroke-width="1"/>
                  <path id="Rectángulo_44808" data-name="Rectángulo 44808" d="M1.449,0H2.712A1.448,1.448,0,0,1,4.16,1.448V7.527A1.448,1.448,0,0,1,2.712,8.976H1.449A1.449,1.449,0,0,1,0,7.526V1.449A1.449,1.449,0,0,1,1.449,0Z" transform="translate(25.614)" fill="#c6412a" stroke="#000" stroke-width="1"/>
                  <path id="Rectángulo_44809" data-name="Rectángulo 44809" d="M1.449,0H2.711A1.449,1.449,0,0,1,4.16,1.449V7.527A1.448,1.448,0,0,1,2.712,8.976H1.448A1.448,1.448,0,0,1,0,7.527V1.449A1.449,1.449,0,0,1,1.449,0Z" transform="translate(34.152)" fill="#c6412a" stroke="#000" stroke-width="1"/>
                  <path id="Rectángulo_44810" data-name="Rectángulo 44810" d="M1.449,0H2.711A1.449,1.449,0,0,1,4.16,1.449V7.527A1.448,1.448,0,0,1,2.712,8.976H1.449A1.449,1.449,0,0,1,0,7.526V1.449A1.449,1.449,0,0,1,1.449,0Z" transform="translate(42.69)" fill="#c6412a" stroke="#000" stroke-width="1"/>
                  <path id="Rectángulo_44811" data-name="Rectángulo 44811" d="M1.449,0H2.711A1.449,1.449,0,0,1,4.16,1.449V7.527A1.448,1.448,0,0,1,2.712,8.976H1.449A1.449,1.449,0,0,1,0,7.526V1.449A1.449,1.449,0,0,1,1.449,0Z" transform="translate(51.229)" fill="#c6412a" stroke="#000" stroke-width="1"/>
                </g>
              </g>
              <path id="Trazado_210817" data-name="Trazado 210817" d="M2,0H62.84a2,2,0,0,1,2,2V46.32a2,2,0,0,1-2,2H2a2,2,0,0,1-2-2V2A2,2,0,0,1,2,0Z" transform="translate(0 5.965)" fill="#e7eaf8" stroke="#000" stroke-width="1"/>
              <path id="Trazado_205317" data-name="Trazado 205317" d="M4344.9,1465.511v-10.844a2,2,0,0,0-2-2h-60.846a2,2,0,0,0-2,2v10.844Z" transform="translate(-4280.06 -1446.703)" fill="#c6412a" stroke="#000" stroke-width="1"/>
              <g id="Grupo_152199" data-name="Grupo 152199" transform="translate(6.304 23.256)">
                <path id="Rectángulo_44813" data-name="Rectángulo 44813" d="M1.449,0H6.432A1.448,1.448,0,0,1,7.881,1.448V3.97A1.448,1.448,0,0,1,6.433,5.418H1.448A1.448,1.448,0,0,1,0,3.97V1.449A1.449,1.449,0,0,1,1.449,0Z" fill="#4e2e8e" stroke="#000" stroke-width="1"/>
                <path id="Rectángulo_44814" data-name="Rectángulo 44814" d="M1.449,0H6.433A1.448,1.448,0,0,1,7.881,1.448V3.97A1.448,1.448,0,0,1,6.433,5.418H1.448A1.448,1.448,0,0,1,0,3.97V1.449A1.449,1.449,0,0,1,1.449,0Z" transform="translate(10.837)" fill="#4e2e8e" stroke="#000" stroke-width="1"/>
                <path id="Rectángulo_44815" data-name="Rectángulo 44815" d="M1.449,0H6.432A1.449,1.449,0,0,1,7.881,1.449V3.97A1.448,1.448,0,0,1,6.433,5.418H1.448A1.448,1.448,0,0,1,0,3.97V1.449A1.449,1.449,0,0,1,1.449,0Z" transform="translate(21.673)" fill="#4e2e8e" stroke="#000" stroke-width="1"/>
                <path id="Rectángulo_44816" data-name="Rectángulo 44816" d="M1.449,0H6.432A1.449,1.449,0,0,1,7.881,1.449V3.97A1.448,1.448,0,0,1,6.433,5.418H1.449A1.449,1.449,0,0,1,0,3.969V1.449A1.449,1.449,0,0,1,1.449,0Z" transform="translate(32.51)" fill="#4e2e8e" stroke="#000" stroke-width="1"/>
                <path id="Rectángulo_44817" data-name="Rectángulo 44817" d="M1.449,0H6.432A1.449,1.449,0,0,1,7.881,1.449V3.97A1.448,1.448,0,0,1,6.433,5.418H1.449A1.449,1.449,0,0,1,0,3.969V1.449A1.449,1.449,0,0,1,1.449,0Z" transform="translate(43.347)" fill="#4e2e8e" stroke="#000" stroke-width="1"/>
              </g>
              <g id="Grupo_152200" data-name="Grupo 152200" transform="translate(6.304 32.634)">
                <path id="Rectángulo_44818" data-name="Rectángulo 44818" d="M1.448,0H6.432A1.448,1.448,0,0,1,7.881,1.448V3.969A1.449,1.449,0,0,1,6.432,5.418H1.448A1.448,1.448,0,0,1,0,3.97V1.448A1.448,1.448,0,0,1,1.448,0Z" fill="#4e2e8e" stroke="#000" stroke-width="1"/>
                <path id="Rectángulo_44819" data-name="Rectángulo 44819" d="M1.448,0H6.433A1.448,1.448,0,0,1,7.881,1.448V3.969A1.449,1.449,0,0,1,6.432,5.418H1.448A1.448,1.448,0,0,1,0,3.97V1.448A1.448,1.448,0,0,1,1.448,0Z" transform="translate(10.837)" fill="#4e2e8e" stroke="#000" stroke-width="1"/>
                <path id="Rectángulo_44820" data-name="Rectángulo 44820" d="M1.448,0H6.432A1.449,1.449,0,0,1,7.881,1.449v2.52A1.449,1.449,0,0,1,6.432,5.418H1.448A1.448,1.448,0,0,1,0,3.97V1.448A1.448,1.448,0,0,1,1.448,0Z" transform="translate(21.673)" fill="#4e2e8e" stroke="#000" stroke-width="1"/>
                <path id="Rectángulo_44821" data-name="Rectángulo 44821" d="M1.448,0H6.432A1.449,1.449,0,0,1,7.881,1.449v2.52A1.449,1.449,0,0,1,6.432,5.418H1.449A1.449,1.449,0,0,1,0,3.969V1.448A1.448,1.448,0,0,1,1.448,0Z" transform="translate(32.51)" fill="#4e2e8e" stroke="#000" stroke-width="1"/>
                <path id="Rectángulo_44822" data-name="Rectángulo 44822" d="M1.448,0H6.432A1.449,1.449,0,0,1,7.881,1.449v2.52A1.449,1.449,0,0,1,6.432,5.418H1.449A1.449,1.449,0,0,1,0,3.969V1.448A1.448,1.448,0,0,1,1.448,0Z" transform="translate(43.347)" fill="#4e2e8e" stroke="#000" stroke-width="1"/>
              </g>
              <g id="Grupo_152201" data-name="Grupo 152201" transform="translate(6.304 42.011)">
                <path id="Rectángulo_44823" data-name="Rectángulo 44823" d="M1.449,0H6.432A1.448,1.448,0,0,1,7.881,1.448V3.97A1.449,1.449,0,0,1,6.432,5.419H1.448A1.448,1.448,0,0,1,0,3.971V1.449A1.449,1.449,0,0,1,1.449,0Z" fill="#4e2e8e" stroke="#000" stroke-width="1"/>
                <path id="Rectángulo_44824" data-name="Rectángulo 44824" d="M1.449,0H6.433A1.448,1.448,0,0,1,7.881,1.448V3.97A1.449,1.449,0,0,1,6.432,5.419H1.448A1.448,1.448,0,0,1,0,3.971V1.449A1.449,1.449,0,0,1,1.449,0Z" transform="translate(10.837)" fill="#4e2e8e" stroke="#000" stroke-width="1"/>
                <path id="Rectángulo_44825" data-name="Rectángulo 44825" d="M1.449,0H6.432A1.449,1.449,0,0,1,7.881,1.449V3.97A1.449,1.449,0,0,1,6.432,5.419H1.448A1.448,1.448,0,0,1,0,3.971V1.449A1.449,1.449,0,0,1,1.449,0Z" transform="translate(21.673)" fill="#4e2e8e" stroke="#000" stroke-width="1"/>
                <rect id="Rectángulo_44826" data-name="Rectángulo 44826" width="7.881" height="5.419" rx="1.449" transform="translate(32.51)" fill="#4e2e8e" stroke="#000" stroke-width="1"/>
                <rect id="Rectángulo_44827" data-name="Rectángulo 44827" width="7.881" height="5.419" rx="1.449" transform="translate(43.347)" fill="#4e2e8e" stroke="#000" stroke-width="1"/>
              </g>
            </g>
          </g>
        </g>
        <g id="Grupo_152215" data-name="Grupo 152215" transform="translate(0 21.123)">
          <path id="Trazado_205318" data-name="Trazado 205318" d="M4296.963,1493.652a18.589,18.589,0,1,1-18.488-18.69A18.586,18.586,0,0,1,4296.963,1493.652Z" transform="translate(-4259.786 -1474.962)" fill="#ffef0f" stroke="#000" stroke-width="1"/>
          <path id="Trazado_205319" data-name="Trazado 205319" d="M4295.186,1495.217a15.227,15.227,0,1,1-15.145-15.311A15.226,15.226,0,0,1,4295.186,1495.217Z" transform="translate(-4261.37 -1476.545)" fill="#fff" stroke="#000" stroke-width="1"/>
          <g id="Grupo_152214" data-name="Grupo 152214" transform="translate(4.331 4.632)">
            <g id="Grupo_152213" data-name="Grupo 152213">
              <g id="Grupo_152205" data-name="Grupo 152205" transform="translate(14.159)">
                <line id="Línea_1259" data-name="Línea 1259" x1="0.015" y2="2.794" fill="none" stroke="#000" stroke-linecap="round" stroke-linejoin="round" stroke-width="1"/>
              </g>
              <g id="Grupo_152206" data-name="Grupo 152206" transform="translate(14.021 25.4)">
                <line id="Línea_1260" data-name="Línea 1260" x1="0.016" y2="2.793" fill="none" stroke="#000" stroke-linecap="round" stroke-linejoin="round" stroke-width="1"/>
              </g>
              <g id="Grupo_152207" data-name="Grupo 152207" transform="translate(0 14.021)">
                <line id="Línea_1261" data-name="Línea 1261" x2="2.795" y2="0.015" fill="none" stroke="#000" stroke-linecap="round" stroke-linejoin="round" stroke-width="1"/>
              </g>
              <g id="Grupo_152208" data-name="Grupo 152208" transform="translate(25.4 14.158)">
                <line id="Línea_1262" data-name="Línea 1262" x2="2.794" y2="0.015" fill="none" stroke="#000" stroke-linecap="round" stroke-linejoin="round" stroke-width="1"/>
              </g>
              <g id="Grupo_152209" data-name="Grupo 152209" transform="translate(4.155 4.103)">
                <line id="Línea_1263" data-name="Línea 1263" x2="1.971" y2="1.981" fill="none" stroke="#000" stroke-linecap="round" stroke-linejoin="round" stroke-width="1"/>
              </g>
              <g id="Grupo_152210" data-name="Grupo 152210" transform="translate(22.069 22.109)">
                <line id="Línea_1264" data-name="Línea 1264" x2="1.971" y2="1.981" fill="none" stroke="#000" stroke-linecap="round" stroke-linejoin="round" stroke-width="1"/>
              </g>
              <g id="Grupo_152211" data-name="Grupo 152211" transform="translate(4.381 22.286)">
                <line id="Línea_1265" data-name="Línea 1265" y1="2.024" x2="1.926" fill="none" stroke="#000" stroke-linecap="round" stroke-linejoin="round" stroke-width="1"/>
              </g>
              <g id="Grupo_152212" data-name="Grupo 152212" transform="translate(21.888 3.883)">
                <line id="Línea_1266" data-name="Línea 1266" y1="2.025" x2="1.926" fill="none" stroke="#000" stroke-linecap="round" stroke-linejoin="round" stroke-width="1"/>
              </g>
            </g>
          </g>
          <path id="Trazado_205320" data-name="Trazado 205320" d="M4287.458,1498.831l-.416-6.687-.442,6.682Z" transform="translate(-4268.37 -1480.462)" fill="#3c3c3b" stroke="#000" stroke-width="1"/>
          <path id="Trazado_205321" data-name="Trazado 205321" d="M4282.234,1501.656l-10.617.394,10.614.464Z" transform="translate(-4263.573 -1483.507)" fill="#3c3c3b" stroke="#000" stroke-width="1"/>
          <rect id="Rectángulo_44828" data-name="Rectángulo 44828" width="0.201" height="13.21" transform="translate(12.958 9.026) rotate(-29.969)" fill="#3a3f57" stroke="#000" stroke-width="1"/>
          <path id="Trazado_205322" data-name="Trazado 205322" d="M4287.7,1501.871a.893.893,0,1,1-.888-.9A.893.893,0,0,1,4287.7,1501.871Z" transform="translate(-4268.151 -1483.288)" fill="#3c3c3b" stroke="#000" stroke-width="1"/>
        </g>
      </g>
    </g>
  </g>
</svg>
