<svg xmlns="http://www.w3.org/2000/svg" width="133" height="133" viewBox="0 0 133 133">
  <g id="Grupo_152983" data-name="Grupo 152983" transform="translate(-737.56 -3633)">
    <g id="Elipse_20136" data-name="Elipse 20136" transform="translate(737.56 3633)" fill="#fff" stroke="#6677d6" stroke-width="4">
      <circle cx="66.5" cy="66.5" r="66.5" stroke="none"/>
      <circle cx="66.5" cy="66.5" r="64.5" fill="none"/>
    </g>
    <g id="Grupo_152638" data-name="Grupo 152638" transform="translate(492.077 3389.429)">
      <g id="Grupo_152637" data-name="Grupo 152637" transform="translate(275.279 274.999)">
        <path id="Trazado_208500" data-name="Trazado 208500" d="M346.774,314.6a34.648,34.648,0,1,1-34.46-34.834A34.649,34.649,0,0,1,346.774,314.6Z" transform="translate(-277.478 -279.764)" fill="#3d46c2" stroke="#010101" stroke-width="1"/>
        <path id="Trazado_208501" data-name="Trazado 208501" d="M343.338,317.395A28.382,28.382,0,1,1,315.11,288.86,28.382,28.382,0,0,1,343.338,317.395Z" transform="translate(-280.308 -282.594)" fill="#fff" stroke="#010101" stroke-width="1"/>
        <line id="Línea_1278" data-name="Línea 1278" x1="0.028" y2="5.208" transform="translate(34.462 8.632)" fill="none" stroke="#010101" stroke-linecap="round" stroke-linejoin="round" stroke-width="2.787"/>
        <line id="Línea_1279" data-name="Línea 1279" x1="0.028" y2="5.208" transform="translate(34.206 55.975)" fill="none" stroke="#010101" stroke-linecap="round" stroke-linejoin="round" stroke-width="2.787"/>
        <line id="Línea_1280" data-name="Línea 1280" x2="5.208" y2="0.028" transform="translate(8.073 34.766)" fill="none" stroke="#010101" stroke-linecap="round" stroke-linejoin="round" stroke-width="2.787"/>
        <line id="Línea_1281" data-name="Línea 1281" x2="5.208" y2="0.028" transform="translate(55.415 35.022)" fill="none" stroke="#010101" stroke-linecap="round" stroke-linejoin="round" stroke-width="2.787"/>
        <line id="Línea_1282" data-name="Línea 1282" x2="3.673" y2="3.692" transform="translate(15.816 16.281)" fill="none" stroke="#010101" stroke-linecap="round" stroke-linejoin="round" stroke-width="2.787"/>
        <line id="Línea_1283" data-name="Línea 1283" x2="3.673" y2="3.693" transform="translate(49.207 49.842)" fill="none" stroke="#010101" stroke-linecap="round" stroke-linejoin="round" stroke-width="2.787"/>
        <line id="Línea_1284" data-name="Línea 1284" y1="3.773" x2="3.59" transform="translate(16.238 50.171)" fill="none" stroke="#010101" stroke-linecap="round" stroke-linejoin="round" stroke-width="2.787"/>
        <line id="Línea_1285" data-name="Línea 1285" y1="3.773" x2="3.59" transform="translate(48.869 15.871)" fill="none" stroke="#010101" stroke-linecap="round" stroke-linejoin="round" stroke-width="2.787"/>
        <path id="Trazado_208502" data-name="Trazado 208502" d="M328.4,323.836l-.774-12.464-.825,12.456Z" transform="translate(-292.825 -289.598)" fill="#2e2e2d" stroke="#010101" stroke-width="1"/>
        <path id="Trazado_208503" data-name="Trazado 208503" d="M319.032,328.869l-19.789.735,19.78.864Z" transform="translate(-284.25 -295.042)" fill="#2e2e2d" stroke="#010101" stroke-width="1"/>
        <path id="Trazado_208504" data-name="Trazado 208504" d="M325.155,325.247l-.324.187-12.27-21.346.324-.187Z" transform="translate(-288.393 -287.274)" fill="#293046" stroke="#010101" stroke-width="1"/>
        <path id="Trazado_208505" data-name="Trazado 208505" d="M328.876,329.286a1.665,1.665,0,1,1-1.655-1.674A1.665,1.665,0,0,1,328.876,329.286Z" transform="translate(-292.433 -294.651)" fill="#2e2e2d" stroke="#010101" stroke-width="1"/>
      </g>
      <path id="Trazado_208506" data-name="Trazado 208506" d="M342.928,312.3A33.549,33.549,0,1,1,300.41,278.08l.036,7.383,13.633-10.574-13.737-10.44.039,7.96a39.155,39.155,0,1,0,48.012,40.175Z" fill="#c6412a" stroke="#010101" stroke-width="1"/>
    </g>
    <path id="Unión_15" data-name="Unión 15" d="M10.549,12.539C5.125,14.164.68,12.058.124,7.805-.943,3.574,5.078,1.319,10.549,2.958c4.527-5.632,13.988-1.82,14.4,0,.7-1.4,9.705-.712,9.82,4.634.4,5.831-9.1,6.372-9.818,4.946C24.7,13.648,21.088,15.5,17.279,15.5A8.312,8.312,0,0,1,10.549,12.539Z" transform="translate(810.362 3674.878)" fill="#afafaf" stroke="#242121" stroke-miterlimit="10" stroke-width="1"/>
    <path id="Unión_18" data-name="Unión 18" d="M6.414,7.446c-3.3.965-6-.286-6.338-2.811C-.573,2.122,3.087.783,6.414,1.757c2.752-3.344,8.5-1.081,8.756,0,.426-.831,5.9-.423,5.97,2.752.243,3.463-5.535,3.784-5.969,2.938C15.018,8.1,12.82,9.2,10.505,9.2A5.109,5.109,0,0,1,6.414,7.446Z" transform="translate(810.362 3683.675)" fill="#636363" stroke="#242121" stroke-miterlimit="10" stroke-width="1"/>
  </g>
</svg>
