<svg xmlns="http://www.w3.org/2000/svg" width="133" height="133" viewBox="0 0 133 133">
  <g id="Grupo_152984" data-name="Grupo 152984" transform="translate(-390.001 -3633)">
    <g id="Elipse_20138" data-name="Elipse 20138" transform="translate(390.001 3633)" fill="#fff" stroke="#6677d6" stroke-width="4">
      <circle cx="66.5" cy="66.5" r="66.5" stroke="none"/>
      <circle cx="66.5" cy="66.5" r="64.5" fill="none"/>
    </g>
    <g id="Grupo_152079" data-name="Grupo 152079" transform="translate(411.221 3658.705)">
      <g id="Grupo_151039" data-name="Grupo 151039" transform="translate(2.675)">
        <g id="Grupo_151033" data-name="Grupo 151033" transform="translate(7.237)">
          <path id="Trazado_203614" data-name="Trazado 203614" d="M4688.086,1547.2a36.081,36.081,0,1,1-35.885-36.274A36.081,36.081,0,0,1,4688.086,1547.2Z" transform="translate(-4615.925 -1510.93)" fill="#6677d6" stroke="#070707" stroke-width="1"/>
          <path id="Trazado_203615" data-name="Trazado 203615" d="M4685.556,1551.164a29.556,29.556,0,1,1-29.4-29.715A29.554,29.554,0,0,1,4685.556,1551.164Z" transform="translate(-4619.92 -1514.925)" fill="#fff" stroke="#070707" stroke-width="1"/>
          <line id="Línea_1145" data-name="Línea 1145" x1="0.029" y2="5.421" transform="translate(35.887 8.991)" fill="none" stroke="#070707" stroke-linecap="round" stroke-linejoin="round" stroke-width="3.097"/>
          <line id="Línea_1146" data-name="Línea 1146" x1="0.029" y2="5.422" transform="translate(35.621 58.291)" fill="none" stroke="#070707" stroke-linecap="round" stroke-linejoin="round" stroke-width="3.097"/>
          <line id="Línea_1147" data-name="Línea 1147" x2="5.423" y2="0.031" transform="translate(8.407 36.202)" fill="none" stroke="#070707" stroke-linecap="round" stroke-linejoin="round" stroke-width="3.097"/>
          <line id="Línea_1148" data-name="Línea 1148" x2="5.423" y2="0.03" transform="translate(57.707 36.471)" fill="none" stroke="#070707" stroke-linecap="round" stroke-linejoin="round" stroke-width="3.097"/>
          <line id="Línea_1149" data-name="Línea 1149" x2="3.825" y2="3.844" transform="translate(16.47 16.954)" fill="none" stroke="#070707" stroke-linecap="round" stroke-linejoin="round" stroke-width="3.097"/>
          <line id="Línea_1150" data-name="Línea 1150" x2="3.825" y2="3.845" transform="translate(51.242 51.903)" fill="none" stroke="#070707" stroke-linecap="round" stroke-linejoin="round" stroke-width="3.097"/>
          <line id="Línea_1151" data-name="Línea 1151" y1="3.928" x2="3.739" transform="translate(16.908 52.248)" fill="none" stroke="#070707" stroke-linecap="round" stroke-linejoin="round" stroke-width="3.097"/>
          <line id="Línea_1152" data-name="Línea 1152" y1="3.928" x2="3.738" transform="translate(50.89 16.527)" fill="none" stroke="#070707" stroke-linecap="round" stroke-linejoin="round" stroke-width="3.097"/>
          <path id="Trazado_203616" data-name="Trazado 203616" d="M4674.644,1560.468l-.807-12.98-.859,12.971Z" transform="translate(-4637.592 -1524.814)" fill="#3c3c3b" stroke="#070707" stroke-width="1"/>
          <path id="Trazado_203617" data-name="Trazado 203617" d="M4661.7,1567.725l-20.606.765,20.6.9Z" transform="translate(-4625.484 -1532.5)" fill="#3c3c3b" stroke="#070707" stroke-width="1"/>
          <path id="Trazado_203618" data-name="Trazado 203618" d="M4669.616,1561.076l-.339.195-12.776-22.229.338-.193Z" transform="translate(-4631.334 -1521.533)" fill="#3a3f57" stroke="#070707" stroke-width="1"/>
          <path id="Trazado_203619" data-name="Trazado 203619" d="M4674.988,1568.014a1.734,1.734,0,1,1-1.725-1.741A1.732,1.732,0,0,1,4674.988,1568.014Z" transform="translate(-4637.038 -1531.948)" fill="#3c3c3b" stroke="#070707" stroke-width="1"/>
        </g>
        <g id="Grupo_151038" data-name="Grupo 151038" transform="translate(3.971 54.077)">
          <g id="Grupo_151037" data-name="Grupo 151037" transform="translate(0 0)">
            <g id="Grupo_151036" data-name="Grupo 151036">
              <path id="Trazado_203623" data-name="Trazado 203623" d="M4609.361,1608.124h8.971v3.866h-14.075V1610.4a7.386,7.386,0,0,1,.546-2.914,9.625,9.625,0,0,1,1.372-2.316,11.753,11.753,0,0,1,1.808-1.815q.981-.789,1.866-1.425.931-.665,1.631-1.268a9.418,9.418,0,0,0,1.179-1.2,4.568,4.568,0,0,0,.716-1.21,3.6,3.6,0,0,0,.236-1.306,2.631,2.631,0,0,0-.767-2.052,3.419,3.419,0,0,0-2.345-.691,7.875,7.875,0,0,0-5.224,2.167v-4.1a11.224,11.224,0,0,1,6.227-1.784,9.2,9.2,0,0,1,2.883.42,6.109,6.109,0,0,1,2.162,1.2,5.137,5.137,0,0,1,1.35,1.9,6.41,6.41,0,0,1,.464,2.486,7,7,0,0,1-.45,2.6,7.955,7.955,0,0,1-1.195,2.066,10.812,10.812,0,0,1-1.719,1.7q-.973.776-2.021,1.5-.707.5-1.364,1a13.374,13.374,0,0,0-1.158.973,5.313,5.313,0,0,0-.8.937A1.615,1.615,0,0,0,4609.361,1608.124Z" transform="translate(-4604.256 -1590.477)" fill="#c6412a" stroke="#070707" stroke-width="1"/>
              <path id="Trazado_203624" data-name="Trazado 203624" d="M4647.976,1591.117v13.338h2.539v3.482h-2.539v4.339h-4.249v-4.339H4634.5v-3.644q1.225-1.371,2.538-3t2.537-3.358q1.224-1.726,2.281-3.474a35.333,35.333,0,0,0,1.792-3.343Zm-9.295,13.338h5.046v-7.392q-.518.961-1.122,1.94t-1.269,1.932q-.663.953-1.344,1.846T4638.681,1604.455Z" transform="translate(-4617.773 -1590.763)" fill="#c6412a" stroke="#070707" stroke-width="1"/>
            </g>
          </g>
        </g>
      </g>
    </g>
  </g>
</svg>
